<?xml version="1.0" encoding="utf-8"?>
<!-- Generator: Adobe Illustrator 21.1.0, SVG Export Plug-In . SVG Version: 6.00 Build 0)  -->
<svg version="1.1" id="Layer_1" xmlns="http://www.w3.org/2000/svg" xmlns:xlink="http://www.w3.org/1999/xlink" x="0px" y="0px"
	 viewBox="0 0 211.2 72.7" style="enable-background:new 0 0 211.2 72.7;" xml:space="preserve">
<style type="text/css">
	.st0{fill:#007964;}
	.st1{fill:#FFFFFF;}
	.st2{fill-rule:evenodd;clip-rule:evenodd;fill:#FFFFFF;}
</style>
<polygon class="st0" points="0,21.4 84.9,21.4 84.9,72.6 0,72.6 0,21.4 "/>
<path class="st1" d="M15.1,62.2c0.9,0,1.6,0.4,2,0.8c0.4,0.4,1.7,1.4,1.7-2c0-3.4-1.3-2.4-1.7-2c-0.3,0.3-1.1,0.8-2,0.8
	c-2.3-0.3-2.2-2.2-2.2-2.2c0-0.8,0.5-1.6,0.9-2c0.4-0.4,1.4-1.7-2-1.7c-3.4,0-2.4,1.3-2,1.7c0.3,0.3,0.8,1.1,0.8,2
	c0.1,2.2-2.2,2.2-2.2,2.2c-0.8,0-1.6-0.5-2-0.9c-0.4-0.4-1.7-1.4-1.7,2c0,3.4,1.3,2.4,1.7,2c0.3-0.3,1.1-0.8,2-0.8
	c2.2,0,2.2,2.2,2.2,2.2c0,0.8-0.5,1.6-0.9,2c-0.4,0.4-1.4,1.7,2,1.7c3.4,0,2.4-1.3,2-1.7c-0.3-0.3-0.8-1.1-0.8-2
	C12.9,64.4,12.9,62.3,15.1,62.2L15.1,62.2z"/>
<path class="st1" d="M6.2,58c0.6-1,1.5-2,2.5-2.5C9,56,9.3,56.3,9.5,56.6c-0.9,0.5-1.7,1.3-2.2,2.2C6.9,58.6,6.8,58.4,6.2,58L6.2,58
	z"/>
<path class="st1" d="M8.7,66.5c-1-0.6-1.9-1.5-2.5-2.5c0.4-0.2,0.6-0.6,1.1-0.8c0.5,0.9,1.3,1.7,2.2,2.2C9.3,65.9,8.9,66,8.7,66.5
	L8.7,66.5z"/>
<path class="st1" d="M14.7,66.5c0.3-0.1,0.6-0.3,0.8-0.5c0.8-0.6,0.1-1.7-0.8-1.1c-0.2,0.2-0.5,0.4-0.8,0.5
	C14.1,65.9,14.4,65.9,14.7,66.5L14.7,66.5z"/>
<path class="st1" d="M14.7,55.6c0.3,0.2,0.6,0.4,0.8,0.6c0.8,0.7-0.1,1.7-0.9,1c-0.2-0.2-0.5-0.3-0.7-0.5
	C14.1,56.2,14.4,56,14.7,55.6L14.7,55.6z"/>
<path class="st2" d="M47.6,64.7c-0.8,0.6-1.1,0.6-1.3,0.6c-0.4,0-0.6-0.2-0.6-0.8v-5c0-2.4-1.9-3.3-4.6-3.3c-1.7,0-3.3,0.5-4.8,1.3
	v2.8c1.1-1.1,2.7-1.8,4-1.8c1.5,0,2,0.8,1.9,1.8c-4.6,1.4-6.5,1.9-6.5,4.6c0,1.4,1.3,2.7,3.1,2.7c1.2,0,2.3-0.3,3.6-1.2
	c0.2,0.9,0.8,1.2,1.9,1.2c0.9,0,2.3-0.4,3.2-1V64.7L47.6,64.7z M42.3,64.8c-0.6,0.5-1.3,0.8-1.9,0.8c-0.6,0-1.1-0.5-1.1-1.2
	c0-1.1,1-1.6,3-2.3V64.8L42.3,64.8z"/>
<path class="st1" d="M33.8,64.2c-1.8,0.7-2.7,1-3.7,1c-2.3,0-4.2-1.8-4.2-4.1c0-2.2,2-4,4.4-4c1,0,2.3,0.3,3.3,0.9l0-2.7
	c-1.3-0.5-3-0.8-4.3-0.8c-4.2,0-7.2,2.8-7.2,6.7c0,4,2.9,6.6,7.4,6.6c1.4,0,2.7-0.3,4.3-0.9L33.8,64.2L33.8,64.2z"/>
<polygon class="st1" points="71.1,61.7 73.8,67.5 75.5,67.5 80.4,56.5 76.9,56.5 74.6,62.5 72.1,56.5 70.1,56.5 67.6,62.5 
	65.3,56.5 61.8,56.5 66.6,67.5 68.4,67.5 71.1,61.7 "/>
<path class="st2" d="M60.4,52.3h-3.4V57c-0.9-0.5-1.9-0.7-2.8-0.7c-3.1,0-5.3,2.3-5.3,5.7c0,3.3,2.2,5.7,5.1,5.7
	c1.2,0,2.1-0.3,3-1.1v0.9h3.4V52.3L60.4,52.3z M56.9,64.5c-0.7,0.6-1.3,0.9-2,0.9c-1.6,0-2.6-1.3-2.6-3.3c0-2.2,1-3.4,2.8-3.4
	c0.6,0,1.4,0.3,1.9,0.6V64.5L56.9,64.5z"/>
<g>
	<g>
		<path d="M144.4,17.2c0,0,0.3-0.7,0.8-0.9c0.5-0.3,1.3-0.3,2.1-0.2c0.7,0.1,2.3,0.8,4.5,2.6c3.1,2.6,4.2,4.2,4.2,4.1
			c0.2-0.6,0.9-1.8,0.9-1.8c-1.5-1.3-6.6-4.6-8.2-5.3C147,14.9,144.6,14.7,144.4,17.2L144.4,17.2z"/>
		<path d="M146.2,14.1c2.2-0.5,2.4,0.9,2.9,1.2l1.7,1C148.5,11.4,146.2,14.1,146.2,14.1L146.2,14.1z"/>
		<path d="M147.2,16.6c5.1,3.8,0.8,5.5,0.8,5.5c1,0.4,1.8,0.1,2.2-0.5c0.2-0.2,0.3-0.5,0.4-0.8c0.1-0.4,0.2-0.7,0.2-0.7
			c1.8,1.8,3.8,4.8,5.1,6.4c-0.4-1.6-0.1-2.3-0.2-2.4c-1.5-1.9-2.1-2.5-3.1-3.6C149.6,17.1,147.2,16.6,147.2,16.6"/>
		<path d="M168.4,16.2c-0.2-0.6-0.2-2.4-0.1-2.7c0.3-0.7,0.5-1.4,0.6-2l0.1,0.1l0.8,0.5c-0.3-0.4-0.7-1.5-0.8-2.2
			c0-0.1,0-0.2-0.1-0.3c-0.4-1.4-1.1-2.3-1.1-2.3s0.5,1.4,0.3,2.5c-0.2,2.3-3.4,4.9-2.7,9c0.4,2.2,2.6,4,2.6,4s-0.7-1.5-1.2-4.2
			c-0.2-1.1,0.2-1.9,0.6-3.3l0.2,0.2L168.4,16.2L168.4,16.2z"/>
		<path d="M191,0.5c0,0-5.8,0.9-8.7,1.9c-2.9,0.9-7.1,2.7-9,5.1c-1.9,2.4-0.3,6.1-0.8,8.6c-0.5,2.5-4.2,5-4.2,5s4.3-1.1,5.9-4.6
			c1.2-2.6-0.3-4.3,1.5-8.3C177.6,4.3,191,0.5,191,0.5L191,0.5z"/>
		<path d="M191.2,0.7c0,0-4.8,1.5-6.3,6.2l2.1-0.5C187,6.4,187,3.5,191.2,0.7L191.2,0.7z"/>
		<path d="M198.7,7.2c0,0-7.5-1.5-14.9,0.7c-7.4,2.2-6.4,6-6.4,8.2c-0.1,2.2-1.9,6.9-8.4,6.3c0,0,3.9,2.1,8.2-1.4
			c4.3-3.5,1.3-7.7,4.8-9.7C185.3,9.4,188,7.7,198.7,7.2L198.7,7.2z"/>
		<path d="M180,17.9c0,0,2.9,0.4,4.7,2.4c0,0-2.4-1.8-5.1-1.4C179.6,19,179.8,18.5,180,17.9L180,17.9z"/>
		<path d="M192.7,14.7c0,0-7.1,0.2-7.2,6.1C185.4,20.6,181.6,14,192.7,14.7L192.7,14.7z"/>
		<path d="M198.2,7.6L198.2,7.6c-7.2,1.5-5.5,7.1-5.5,7.1l0,0C189.1,7.5,198.2,7.6,198.2,7.6L198.2,7.6z"/>
		<path d="M178.4,26.2c1.9-5,6.9-5.2,7.1-5.2c-5.4-1.1-6.7,1.7-7.1,3.6c-4.6-0.9-8.5-1-8.5-1C175.4,24.3,178.4,26.2,178.4,26.2
			L178.4,26.2z"/>
		<path d="M149.3,41.1c0,0,1.1-0.6,2.5-0.5c0.8,0.1,2.4-0.5,2.4-0.5c-0.7,0-2.2-0.8-3.6-0.6C149.2,39.7,149.3,41.1,149.3,41.1
			L149.3,41.1z"/>
		<path d="M175.8,37.6c0,0-0.1-1.1,0.9-1.2c1-0.1,2.2,0.5,2.7,0.5c0,0-1.2,0.4-1.8,0.4C176.6,37.1,175.8,37.6,175.8,37.6L175.8,37.6
			z"/>
		<path d="M185.9,41.7c0,0,1-0.6,2.2-0.4c0.7,0.1,1.9,0,1.9,0c-0.6,0-1.5-1.2-3-1C185.8,40.5,185.9,41.7,185.9,41.7L185.9,41.7z"/>
		<path d="M192.1,14.4c-8.7-2.1-11.3-0.6-11.3-0.6s0.2-0.5,0.3-0.8c0.2-0.4,0.2-0.5,0.3-0.6C187.7,12.2,192.1,14.4,192.1,14.4
			L192.1,14.4z"/>
		<path d="M159,8.9c0,0-1-1-2.1-1c-1.7,0-3,1.8-4.5,1.8c-1.5,0-2.2-0.5-2.2-0.5s0.9,1.2,2.3,1.2c1.8,0,3.2-1.8,4.4-1.8
			C158,8.6,159,8.9,159,8.9L159,8.9z"/>
		<path d="M162.7,10.8c0,0,0.3,0.9,0.1,2.6c-0.1,2.9-5.8,6.9-5.7,11.6c0,2.9,2.1,4.6,2.1,4.6s-0.9-2.5-0.5-5c0.6-3.5,5-7.5,4.9-10.9
			C163.5,11.6,162.7,10.8,162.7,10.8L162.7,10.8z"/>
		<path d="M160,29.6c0,0-0.8-2-0.2-3.8c0.4-1.1,1.5-2.1,3.7-2.7c0,0-3.8,3.4-1,6.4c0,0-2,2.1-2.7,3.9c-0.7,1.8-2.4,5.5-2.9,6.4
			c-0.5,0.9-1.3,2-3.4,2.9c-2.4,0.2-5,0.6-5.1,2.4c0,0-0.5-0.5-0.4-1.6c0-1.2,2-2.5,4-2.4c2,0.1,3.8-0.4,4.7-2.9
			C157.5,35.8,159.5,30,160,29.6L160,29.6z"/>
		<path d="M163.2,29.8c0,0-3.1,9.4-8.4,12.8c0,0,3.3-0.5,4.3-0.1c1,0.4,2,1.1,1.1,2.7c0,0,1.9-1.1,1.4-2.7c-0.4-1.3-2.3-1.4-2.3-1.4
			s-0.5-0.2-0.2-1c0.3-0.8,2.4-3.5,2.7-4c0.3-0.5,3-4.5,3.1-4.7c0,0,2.3,0.3,3.5-1.9c1.2-2.3-1.3-4.6-1.3-4.6s1.1,2.5-0.2,3.7
			C165.2,30.1,163.2,29.8,163.2,29.8L163.2,29.8z"/>
		<path d="M165.8,31.9c0,0,1.1-0.2,1.5-0.5c0,0,0.5,0.6,2.7,0.5c0.2,0,0.3,0,0.4,0c2.4-0.3,5.3-1.2,9.9-3.1l0.5,0.8
			c-3.6,1.2-7.9,4.6-13.3,4.1c-0.4,0-2.2-0.4-2.5-0.5C165.1,32.9,165.8,31.9,165.8,31.9L165.8,31.9z"/>
		<path d="M181.3,36.5c-0.5,0.8-1.2,1.8-2.6,2.3c-1.6,0-3.6,0.4-3.7,1.7c0,0-0.3-0.3-0.3-1.2c0-0.9,1.2-1.8,3-1.7
			c1.5,0.1,2.5-0.5,3.1-2.2c0.4-1.1,0-3.5,0.6-5c0,0,0.8,0.6,1.2,0.9c0,0,0,0-0.1,0.4C181.8,33.1,182,35,181.3,36.5L181.3,36.5z"/>
		<path d="M183.6,31.8c0,0,0.5,0.3,0.9,0.6c-0.4,0.9-0.5,1.5-0.6,1.6c-0.2,0.4-0.7,2.1-0.9,2.7c-0.2,0.6,0.2,0.8,0.2,0.8
			s1.4,0.1,1.7,1c0.4,1.2-1,2-1,2c0.7-1.2,0-1.7-0.8-2c-0.8-0.3-3,0-3,0C182.4,37.4,183.2,32.7,183.6,31.8L183.6,31.8z"/>
		<path d="M192.4,41.3c0,0,0.6,1.3,0.3,1.8c-1.4,0-2.4,0-4.4,0.2c-1.9,0.2-3.2,0.3-3.3,2c0,0-0.4-0.4-0.4-1.5c0-1,1.8-2.2,3.6-2.1
			c0,0,2.3,0,2.5-0.1c0.5-0.3-0.8-2.9-1.1-3.4c-2-4-2-5.3-2-5.5c0,0-5.6-1.1-7-4.9c4.5,3.8,8.2,3.8,8.2,3.8
			C189.1,33.4,191,38.7,192.4,41.3L192.4,41.3z"/>
		<path d="M193.8,20.2c0.6,0,1.1,0,1.6,0C197.9,15,202,9.6,202,6.4c0-2.1-1.4-3.4-1.4-3.4l-0.2,0.8c0,0-1.1-2.6-2-3.3l0,0
			c0,0,2.6,1.1,3.5,1.8v0l-0.7,0.2h0c1.7,1.6,1.6,4,1.6,4c0.1,3.8-4,8.1-6.3,13.9c5.3,0.7,9.1,4,9.1,7.6c0,5.1-3.1,6.9-5.9,6.9
			c-1,0-2.1-0.1-3.4-0.9c-1.5-0.9-2.8-2.5-2.8-5.8c0-3.2,0.7-5.1,1.2-6.2l0,0c-1.3,0-2.5,0.2-3.6,0.4c0,0-1,0.3-1.4,0.4
			c1.2,0.7,2.4,1.8,2.8,3.6c0.3,1.3,0.1,2.9-0.5,5c-0.1,2,0.7,5,1.4,7.3l0.8,2c0.4,0.9,1,1.2,1,1.2s1.6,0.2,2,1.2
			c0.6,1.3-0.4,1.9-0.4,1.9c0.4-1.5-1-1.7-1.7-1.8l-0.1,0c-0.8-0.1-1.3,0-1.3,0c0.1-0.5-0.9-3.3-0.8-3.1c0,0-1.3-3.6-1.8-5.2
			c-0.6-1.6-0.9-4-0.9-4s3.8-6.3-4.7-9.2c0,0,0.6-0.1,1.1,0c1-0.4,2.2-0.6,2.2-0.6C190.1,20.5,191.9,20.3,193.8,20.2L193.8,20.2z
			 M195.9,21.9c-0.7,2.1-1.1,4.3-1,6.7c0.1,2.2,1.5,5.3,5,5c1.8-0.2,3-1.3,3.5-2.5c0.7-1.4,0.6-2.8,0.6-2.8s0-2.3-2.2-4.2
			C200.7,22.9,198.9,22,195.9,21.9"/>
		<path d="M158.4,5.6c0,0-2.9-0.9-4.8,0.6l1,1.7c0,0,2.8-2.3,4.8,1c0,0-1.5,2-4.8,1.4c0,0,0.9,1.5,3,1.5c2.1,0,4.2-2.2,4.9-1.4
			c0,0-0.2-3.1,3.5-4.2c0,0,0.9,0.7,1,1.1c0,0,1.2-1,1.2-3.3c-0.1-2.4-1.4-3.5-1.9-3.9c0,0,0.3,1.4-0.3,2.7
			c-0.4,0.8-1.2,1.7-2.4,1.8c0,0-1,0-1.7-0.2C161.3,4.1,158.6,3.2,158.4,5.6L158.4,5.6z M161.7,5.4c0,0-0.9,1.5-2.3,0.6
			c0,0,0-0.9,0.8-0.8C161,5.3,160.9,5.6,161.7,5.4L161.7,5.4z"/>
	</g>
	<g>
		<g>
			<path d="M135.9,53.9h0.9v6.4h2.3v0.8h-3.2V53.9z"/>
			<path d="M140,53.4h0.9v7.7H140V53.4z"/>
			<path d="M144,62.1c-0.3,0.9-0.6,1.2-1.3,1.2c-0.2,0-0.4,0-0.6-0.1l0-0.8c0.1,0.1,0.3,0.1,0.5,0.1c0.2,0,0.4-0.1,0.6-0.7l0.2-0.8
				l-1.6-5.3h0.9l1.2,4.3h0l1.1-4.3h0.9L144,62.1z"/>
			<path d="M151.9,61.1h-1l-1.1-4.4h0l-1,4.4h-1l-1.4-5.2h0.9l1,4.4h0l1-4.4h1l1,4.4h0l1-4.4h0.9L151.9,61.1z"/>
			<path d="M155.8,55.8c1.4,0,2.1,1,2.1,2.7c0,1.6-0.7,2.7-2.1,2.7c-1.4,0-2.1-1-2.1-2.7C153.7,56.8,154.4,55.8,155.8,55.8z
				 M155.8,60.4c0.8,0,1.2-0.7,1.2-2c0-1.3-0.4-2-1.2-2c-0.8,0-1.2,0.7-1.2,2C154.6,59.8,155,60.4,155.8,60.4z"/>
			<path d="M162.6,60.1c0,0.3,0,0.6,0,1h-0.8l0-0.8h0c-0.2,0.4-0.6,0.8-1.4,0.8c-1.1,0-1.8-0.9-1.8-2.7c0-1.8,0.7-2.7,1.8-2.7
				c0.6,0,1,0.2,1.3,0.8h0v-3.2h0.9V60.1z M160.6,56.5c-0.8,0-1.1,0.7-1.1,2c0,1.3,0.4,2,1.1,2c0.8,0,1.1-0.7,1.1-2
				C161.8,57.2,161.4,56.5,160.6,56.5z"/>
			<path d="M163.8,57c0-0.4,0-0.8,0-1.1h0.8l0,0.8h0c0.3-0.6,0.7-0.9,1.5-0.9v0.8c-0.1,0-0.2,0-0.3,0c-0.7,0-1.1,0.6-1.1,1.7v2.8
				h-0.9V57z"/>
			<path d="M167,56.2c0.4-0.3,1-0.4,1.5-0.4c0.8,0,1.2,0.3,1.4,0.5c0.2,0.2,0.4,0.5,0.4,1.3v2.7c0,0.3,0,0.6,0,0.8h-0.8l-0.1-0.7h0
				c-0.2,0.4-0.7,0.8-1.5,0.8c-0.9,0-1.5-0.5-1.5-1.5c0-1,0.7-1.8,2.5-1.8h0.5v-0.2c0-0.4,0-0.6-0.2-0.8c-0.2-0.2-0.5-0.3-0.9-0.3
				c-0.5,0-1,0.2-1.3,0.5L167,56.2z M169.5,58.5c-0.2,0-0.4,0-0.6,0c-1,0-1.5,0.5-1.5,1.1c0,0.6,0.3,0.9,0.9,0.9
				c0.7,0,1.2-0.6,1.2-1.3V58.5z"/>
			<path d="M172.2,58.7c0,1.2,0.5,1.8,1.4,1.8c0.4,0,0.9-0.2,1.2-0.4l0,0.8c-0.4,0.2-0.9,0.3-1.5,0.3c-1.4,0-2.1-1-2.1-2.7
				c0-1.6,0.7-2.7,2-2.7c1.2,0,1.8,0.9,1.8,2.5v0.5H172.2z M174.3,58.1c0-1.1-0.3-1.6-1-1.6c-0.6,0-1,0.4-1.1,1.6H174.3z"/>
			<path d="M178.4,61c-0.2,0.1-0.5,0.1-0.7,0.1c-0.8,0-1.2-0.3-1.2-1.2v-3.4h-0.8v-0.7h0.8v-1.1l0.9-0.3v1.3h1.1v0.7h-1.1v3.1
				c0,0.6,0.2,0.8,0.5,0.8c0.2,0,0.4-0.1,0.5-0.1V61z"/>
			<path d="M179.1,53.4h0.9v3.2h0c0.2-0.4,0.7-0.8,1.3-0.8c0.9,0,1.5,0.5,1.5,1.7v3.6H182v-3.4c0-0.8-0.3-1.2-0.9-1.2
				c-0.7,0-1.1,0.5-1.1,1.4v3.1h-0.9V53.4z"/>
			<path d="M190.9,60.9c-0.4,0.1-0.9,0.2-1.3,0.2c-2.3,0-3.2-1.7-3.2-3.6c0-2.2,1.3-3.6,3.2-3.6c0.5,0,1,0.1,1.3,0.3V55
				c-0.4-0.2-0.8-0.4-1.3-0.4c-1.2,0-2.2,0.9-2.2,2.7c0,1.8,0.7,3.1,2.3,3.1c0.5,0,0.9-0.1,1.3-0.3V60.9z"/>
			<path d="M193.6,62.1c-0.3,0.9-0.6,1.2-1.3,1.2c-0.2,0-0.4,0-0.6-0.1l0-0.8c0.1,0.1,0.3,0.1,0.5,0.1c0.2,0,0.4-0.1,0.6-0.7
				l0.2-0.8l-1.6-5.3h0.9l1.2,4.3h0l1.1-4.3h0.9L193.6,62.1z"/>
			<path d="M196.2,57c0-0.4,0-0.8,0-1.1h0.8l0,0.8h0c0.3-0.6,0.7-0.8,1.3-0.8c0.6,0,1,0.3,1.2,0.8c0.3-0.5,0.7-0.8,1.3-0.8
				c0.9,0,1.5,0.5,1.5,1.7v3.6h-0.9v-3.6c0-0.7-0.3-1-0.8-1c-0.6,0-1,0.4-1,1.3v3.2h-0.9v-3.6c0-0.7-0.3-1-0.8-1c-0.6,0-1,0.4-1,1.3
				v3.2h-0.9V57z"/>
			<path d="M203.3,57c0-0.4,0-0.8,0-1.1h0.8l0,0.8h0c0.3-0.6,0.7-0.9,1.5-0.9v0.8c-0.1,0-0.2,0-0.3,0c-0.7,0-1.1,0.6-1.1,1.7v2.8
				h-0.9V57z"/>
			<path d="M210,59.9c0,0.4,0,0.8,0,1.1h-0.8l0-0.8h0c-0.3,0.6-0.7,0.8-1.3,0.8c-0.9,0-1.5-0.5-1.5-1.7v-3.6h0.9v3.4
				c0,0.8,0.3,1.2,0.9,1.2c0.7,0,1.1-0.5,1.1-1.4v-3.1h0.9V59.9z"/>
		</g>
	</g>
	<g>
		<path d="M136,65.5h0.9l1.2,5.8h0l1.3-5.8h1.1l1.3,5.8h0l1.2-5.8h0.9l-1.6,7.1h-1.1l-1.3-6.1h0l-1.3,6.1h-1.1L136,65.5z"/>
		<path d="M145.1,70.3c0,1.2,0.5,1.8,1.4,1.8c0.4,0,0.9-0.2,1.2-0.4l0,0.8c-0.4,0.2-0.9,0.3-1.5,0.3c-1.4,0-2.1-1-2.1-2.7
			c0-1.6,0.7-2.7,2-2.7c1.2,0,1.8,0.9,1.8,2.5v0.5H145.1z M147.2,69.6c0-1.1-0.3-1.6-1-1.6c-0.6,0-1,0.4-1.1,1.6H147.2z"/>
		<path d="M149.2,65h0.9v7.7h-0.9V65z"/>
		<path d="M151.4,71.6c0.4,0.2,0.8,0.4,1.2,0.4c0.7,0,1-0.3,1-0.7c0-0.4-0.2-0.6-0.7-0.8l-0.6-0.3c-0.7-0.3-1-0.7-1-1.3
			c0-0.9,0.7-1.5,1.7-1.5c0.4,0,0.8,0.1,1.1,0.2l0,0.7c-0.3-0.1-0.6-0.2-1-0.2c-0.6,0-0.9,0.3-0.9,0.7c0,0.4,0.3,0.7,0.9,0.9
			l0.3,0.1c0.6,0.3,1,0.7,1,1.3c0,0.9-0.5,1.6-1.7,1.6c-0.5,0-1-0.1-1.4-0.3L151.4,71.6z"/>
		<path d="M155.4,65h0.9v3.2h0c0.2-0.4,0.7-0.8,1.3-0.8c0.9,0,1.5,0.5,1.5,1.7v3.6h-0.9v-3.4c0-0.8-0.3-1.2-0.9-1.2
			c-0.7,0-1.1,0.5-1.1,1.4v3.1h-0.9V65z"/>
		<path d="M167.6,72.3c-0.4,0.2-1.1,0.4-1.8,0.4c-2.3,0-3.2-1.7-3.2-3.6c0-2.2,1.3-3.6,3.2-3.6c0.6,0,1.2,0.1,1.7,0.3v0.9
			c-0.5-0.3-1.1-0.4-1.7-0.4c-1.2,0-2.2,0.9-2.2,2.7c0,1.8,0.7,3.1,2.3,3.1c0.3,0,0.7-0.1,0.9-0.2v-2.2h-1.2v-0.8h2.1V72.3z"/>
		<path d="M170.9,67.4c1.4,0,2.1,1,2.1,2.7c0,1.6-0.7,2.7-2.1,2.7c-1.4,0-2.1-1-2.1-2.7C168.8,68.4,169.5,67.4,170.9,67.4z
			 M170.9,72c0.8,0,1.2-0.7,1.2-2c0-1.3-0.4-2-1.2-2c-0.8,0-1.2,0.7-1.2,2C169.7,71.3,170.1,72,170.9,72z"/>
		<path d="M173.4,67.4h0.9l1.1,4.4h0l1.2-4.4h0.9l-1.6,5.2h-1L173.4,67.4z"/>
		<path d="M179,70.3c0,1.2,0.5,1.8,1.4,1.8c0.4,0,0.9-0.2,1.2-0.4l0,0.8c-0.4,0.2-0.9,0.3-1.5,0.3c-1.4,0-2.1-1-2.1-2.7
			c0-1.6,0.7-2.7,2-2.7c1.2,0,1.8,0.9,1.8,2.5v0.5H179z M181.1,69.6c0-1.1-0.3-1.6-1-1.6c-0.6,0-1,0.4-1.1,1.6H181.1z"/>
		<path d="M182.9,68.6c0-0.4,0-0.8,0-1.1h0.8l0,0.8h0c0.3-0.6,0.7-0.9,1.5-0.9v0.8c-0.1,0-0.2,0-0.3,0c-0.7,0-1.1,0.6-1.1,1.7v2.8
			h-0.9V68.6z"/>
		<path d="M185.9,68.6c0-0.4,0-0.8,0-1.1h0.8l0,0.8h0c0.3-0.6,0.7-0.8,1.3-0.8c0.9,0,1.5,0.5,1.5,1.7v3.6h-0.9v-3.4
			c0-0.8-0.3-1.2-0.9-1.2c-0.7,0-1.1,0.5-1.1,1.4v3.1h-0.9V68.6z"/>
		<path d="M190.8,68.6c0-0.4,0-0.8,0-1.1h0.8l0,0.8h0c0.3-0.6,0.7-0.8,1.3-0.8c0.6,0,1,0.3,1.2,0.8c0.3-0.5,0.7-0.8,1.3-0.8
			c0.9,0,1.5,0.5,1.5,1.7v3.6h-0.9v-3.6c0-0.7-0.3-1-0.8-1c-0.6,0-1,0.4-1,1.3v3.2h-0.9v-3.6c0-0.7-0.3-1-0.8-1c-0.6,0-1,0.4-1,1.3
			v3.2h-0.9V68.6z"/>
		<path d="M198.9,70.3c0,1.2,0.5,1.8,1.4,1.8c0.4,0,0.9-0.2,1.2-0.4l0,0.8c-0.4,0.2-0.9,0.3-1.5,0.3c-1.4,0-2.1-1-2.1-2.7
			c0-1.6,0.7-2.7,2-2.7c1.2,0,1.8,0.9,1.8,2.5v0.5H198.9z M200.9,69.6c0-1.1-0.3-1.6-1-1.6c-0.6,0-1,0.4-1.1,1.6H200.9z"/>
		<path d="M202.7,68.6c0-0.4,0-0.8,0-1.1h0.8l0,0.8h0c0.3-0.6,0.7-0.8,1.3-0.8c0.9,0,1.5,0.5,1.5,1.7v3.6h-0.9v-3.4
			c0-0.8-0.3-1.2-0.9-1.2c-0.7,0-1.1,0.5-1.1,1.4v3.1h-0.9V68.6z"/>
		<path d="M210,72.6c-0.2,0.1-0.5,0.1-0.7,0.1c-0.8,0-1.2-0.3-1.2-1.2v-3.4h-0.8v-0.7h0.8v-1.1l0.9-0.3v1.3h1.1v0.7h-1.1v3.1
			c0,0.6,0.2,0.8,0.5,0.8c0.2,0,0.4-0.1,0.5-0.1V72.6z"/>
	</g>
	<path d="M210.9,49.8h-76c-0.2,0-0.3-0.1-0.3-0.3c0-0.2,0.1-0.3,0.3-0.3h76c0.2,0,0.3,0.1,0.3,0.3C211.2,49.7,211.1,49.8,210.9,49.8
		z"/>
</g>
</svg>
