<?xml version="1.0" encoding="utf-8"?>
<!-- Generator: Adobe Illustrator 21.1.0, SVG Export Plug-In . SVG Version: 6.00 Build 0)  -->
<svg version="1.1" id="CommNI_P281" xmlns="http://www.w3.org/2000/svg" xmlns:xlink="http://www.w3.org/1999/xlink" x="0px"
	 y="0px" viewBox="0 0 180.3 46.2" style="enable-background:new 0 0 180.3 46.2;" xml:space="preserve">
<style type="text/css">
	.st0{fill:#001F5B;}
</style>
<g>
	<polygon class="st0" points="19.8,34.6 14.8,31.8 14.8,26 19.8,23.1 24.7,26 24.7,31.8 	"/>
	<polygon class="st0" points="19.8,46.2 14.8,43.3 14.8,37.5 19.8,34.6 24.7,37.5 24.7,43.3 	"/>
	<polygon class="st0" points="9.9,17.3 4.9,14.4 4.9,8.7 9.9,5.8 14.8,8.7 14.8,14.4 	"/>
	<polygon class="st0" points="9.9,28.9 4.9,26 4.9,20.2 9.9,17.3 14.8,20.2 14.8,26 	"/>
	<polygon class="st0" points="9.9,40.4 4.9,37.5 4.9,31.8 9.9,28.9 14.8,31.8 14.8,37.5 	"/>
	<polygon class="st0" points="0,23.1 0,11.5 4.9,14.4 4.9,20.2 	"/>
	<polygon class="st0" points="0,34.6 0,23.1 4.9,26 4.9,31.8 	"/>
	<polygon class="st0" points="19.8,11.5 14.8,8.7 14.8,2.9 19.8,0 24.7,2.9 24.7,8.7 	"/>
	<polygon class="st0" points="19.8,23.1 14.8,20.2 14.8,14.4 19.8,11.5 24.7,14.4 24.7,20.2 	"/>
	<polygon class="st0" points="29.7,17.3 24.7,14.4 24.7,8.7 29.7,5.8 34.6,8.7 34.6,14.4 	"/>
	<polygon class="st0" points="29.7,28.9 24.7,26 24.7,20.2 29.7,17.3 34.6,20.2 34.6,26 	"/>
	<polygon class="st0" points="29.7,40.4 24.7,37.5 24.7,31.8 29.7,28.9 34.6,31.8 34.6,37.5 	"/>
	<polygon class="st0" points="39.6,23.1 34.6,20.2 34.6,14.4 39.6,11.5 	"/>
	<polygon class="st0" points="39.6,34.6 34.6,31.8 34.6,26 39.6,23.1 	"/>
	<polygon class="st0" points="53.8,43 52.8,39.7 52.2,39.7 51.3,43 50.4,39.8 50.3,39.7 49.6,39.7 50.9,44.3 51.6,44.3 52.5,41.1 
		53.5,44.3 54.1,44.3 55.4,39.8 55.4,39.7 54.8,39.7 	"/>
	<polygon class="st0" points="59.8,43 58.8,39.7 58.2,39.7 57.3,43 56.3,39.8 56.3,39.7 55.5,39.7 56.9,44.3 57.6,44.3 58.5,41.1 
		59.4,44.3 60.1,44.3 61.4,39.8 61.4,39.7 60.8,39.7 	"/>
	<polygon class="st0" points="65.7,43 64.7,39.7 64.2,39.7 63.3,43 62.3,39.8 62.3,39.7 61.5,39.7 62.9,44.3 63.5,44.3 64.4,41.1 
		65.4,44.3 66,44.3 67.4,39.8 67.4,39.7 66.7,39.7 	"/>
	<rect x="67.7" y="43.3" class="st0" width="1.1" height="1.1"/>
	<path class="st0" d="M72.6,42.7c-0.2,0.7-0.5,1.1-1.1,1.1c-0.4,0-0.6-0.2-0.8-0.5c-0.2-0.3-0.3-0.8-0.3-1.3c0-0.5,0.1-0.9,0.3-1.3
		c0.2-0.3,0.5-0.5,0.9-0.5c0.6,0,0.9,0.4,1.1,1.1l0,0l0.7-0.1l0,0c-0.1-0.5-0.3-0.9-0.6-1.2c-0.3-0.3-0.7-0.5-1.2-0.5
		c-0.6,0-1.1,0.2-1.4,0.7c-0.3,0.5-0.5,1-0.5,1.7c0,0.7,0.2,1.2,0.5,1.7c0.3,0.5,0.8,0.7,1.5,0.7c0.5,0,0.9-0.1,1.2-0.4
		c0.3-0.3,0.5-0.7,0.6-1.2l0,0L72.6,42.7L72.6,42.7z"/>
	<path class="st0" d="M75.8,39.6c-0.6,0-1.1,0.2-1.5,0.7c-0.4,0.4-0.6,1-0.6,1.8c0,0.7,0.2,1.3,0.5,1.7c0.4,0.5,0.9,0.7,1.5,0.7
		c0.6,0,1.1-0.2,1.5-0.7c0.4-0.5,0.6-1,0.6-1.8c0-0.7-0.2-1.3-0.5-1.7C76.9,39.8,76.4,39.6,75.8,39.6 M75.7,43.8
		c-0.3,0-0.6-0.1-0.9-0.4c-0.2-0.3-0.4-0.7-0.4-1.4c0-0.6,0.1-1.1,0.4-1.3c0.2-0.3,0.5-0.4,0.9-0.4c0.3,0,0.6,0.1,0.9,0.4
		C76.8,41,77,41.4,77,42c0,0.6-0.1,1.1-0.4,1.4C76.4,43.7,76.1,43.8,75.7,43.8"/>
	<path class="st0" d="M84.2,39.9c-0.2-0.2-0.5-0.3-0.8-0.3c-0.6,0-1.1,0.3-1.4,1c-0.1-0.3-0.2-0.5-0.4-0.7c-0.2-0.2-0.5-0.3-0.9-0.3
		c-0.6,0-1,0.3-1.4,0.9v-0.8h-0.7v4.6h0.7v-2.7c0-0.4,0.1-0.7,0.3-1c0.2-0.2,0.5-0.4,0.8-0.4c0.2,0,0.4,0.1,0.6,0.2
		c0.2,0.2,0.3,0.4,0.3,0.8v3h0.8v-2.6c0-0.5,0.1-0.9,0.4-1.1c0.2-0.2,0.5-0.4,0.8-0.4c0.2,0,0.4,0.1,0.5,0.2
		c0.1,0.1,0.2,0.2,0.3,0.4c0,0.1,0.1,0.4,0.1,0.6v2.9h0.8v-2.9c0-0.4,0-0.7-0.1-1C84.6,40.3,84.5,40.1,84.2,39.9"/>
	<path class="st0" d="M91.6,39.9c-0.2-0.2-0.5-0.3-0.8-0.3c-0.6,0-1.1,0.3-1.4,1c-0.1-0.3-0.2-0.5-0.4-0.7c-0.2-0.2-0.5-0.3-0.9-0.3
		c-0.6,0-1,0.3-1.4,0.9v-0.8H86v4.6h0.7v-2.7c0-0.4,0.1-0.7,0.3-1c0.2-0.2,0.5-0.4,0.8-0.4c0.2,0,0.4,0.1,0.6,0.2
		c0.2,0.2,0.3,0.4,0.3,0.8v3h0.8v-2.6c0-0.5,0.1-0.9,0.4-1.1c0.2-0.2,0.5-0.4,0.8-0.4c0.2,0,0.4,0.1,0.5,0.2
		c0.1,0.1,0.2,0.2,0.3,0.4c0,0.1,0.1,0.4,0.1,0.6v2.9h0.8v-2.9c0-0.4,0-0.7-0.1-1C92,40.3,91.8,40.1,91.6,39.9"/>
	<path class="st0" d="M96.2,42.3c0,0.3-0.1,0.5-0.2,0.8c-0.1,0.2-0.3,0.4-0.5,0.5c-0.2,0.1-0.4,0.2-0.6,0.2c-0.2,0-0.4-0.1-0.6-0.2
		c-0.2-0.2-0.3-0.5-0.3-0.9v-2.9h-0.8v2.9c0,0.6,0.1,1,0.4,1.3c0.3,0.3,0.6,0.5,1.1,0.5c0.6,0,1.1-0.3,1.4-0.9v0.8H97v-4.6h-0.8
		V42.3z"/>
	<path class="st0" d="M101.2,39.9c-0.2-0.2-0.5-0.3-0.9-0.3c-0.6,0-1,0.3-1.4,0.9v-0.7h-0.7v4.6H99v-2.5c0-0.5,0.1-0.8,0.4-1.1
		c0.2-0.3,0.5-0.4,0.9-0.4c0.3,0,0.5,0.1,0.6,0.2c0.2,0.2,0.3,0.5,0.3,0.9v3h0.7v-2.7c0-0.6,0-1-0.1-1.2
		C101.6,40.3,101.5,40.1,101.2,39.9"/>
	<rect x="103.1" y="39.7" class="st0" width="0.8" height="4.6"/>
	<rect x="103" y="38.1" class="st0" width="0.8" height="0.9"/>
	<path class="st0" d="M106.6,43.8c-0.5,0-0.7-0.2-0.7-0.7v-2.8h1v-0.6h-1v-1.2l-0.7,0.1l0,1.1h-0.8v0.6h0.8v2.7
		c0,0.9,0.5,1.4,1.4,1.4c0.2,0,0.4,0,0.7,0l0,0v-0.6l0,0C106.9,43.8,106.7,43.8,106.6,43.8"/>
	<rect x="107.7" y="38.1" class="st0" width="0.8" height="0.9"/>
	<rect x="107.7" y="39.7" class="st0" width="0.8" height="4.6"/>
	<path class="st0" d="M113.5,42.1c0-0.8-0.2-1.5-0.6-1.9c-0.4-0.4-0.9-0.6-1.5-0.6c-0.6,0-1.1,0.2-1.5,0.7c-0.4,0.5-0.6,1-0.6,1.8
		c0,0.7,0.2,1.3,0.6,1.7c0.4,0.4,0.9,0.7,1.5,0.7c0.5,0,0.9-0.1,1.2-0.4c0.4-0.3,0.6-0.6,0.7-1l0,0l-0.7-0.1l0,0l0,0
		c-0.2,0.6-0.6,0.9-1.2,0.9c-0.3,0-0.6-0.1-0.9-0.4c-0.3-0.2-0.4-0.7-0.4-1.3L113.5,42.1L113.5,42.1z M110.2,41.5
		c0-0.4,0.2-0.7,0.4-1c0.2-0.2,0.5-0.4,0.9-0.4c0.3,0,0.5,0.1,0.6,0.2c0.2,0.1,0.3,0.3,0.4,0.5c0.1,0.2,0.1,0.4,0.1,0.6H110.2z"/>
	<path class="st0" d="M116.3,41.7l-0.9-0.2c-0.5-0.1-0.7-0.3-0.7-0.6c0-0.2,0.1-0.4,0.3-0.5c0.2-0.1,0.4-0.2,0.7-0.2
		c0.6,0,0.9,0.2,1.1,0.7l0,0l0.7-0.2l0,0c-0.2-0.8-0.9-1.2-1.9-1.2c-0.5,0-0.9,0.1-1.2,0.4c-0.3,0.3-0.5,0.6-0.5,1
		c0,0.4,0.1,0.6,0.3,0.9c0.2,0.2,0.5,0.4,0.9,0.4l1,0.2c0.5,0.1,0.7,0.3,0.7,0.6c0,0.2-0.1,0.4-0.3,0.5c-0.2,0.1-0.4,0.2-0.7,0.2
		c-0.8,0-1.2-0.3-1.4-0.8l0,0l-0.7,0.2l0,0c0.3,0.9,0.9,1.3,2,1.3c0.6,0,1-0.1,1.4-0.4c0.4-0.3,0.5-0.6,0.5-1
		C117.7,42.3,117.2,41.8,116.3,41.7"/>
	<rect x="117.9" y="41.7" class="st0" width="2.1" height="0.6"/>
	<path class="st0" d="M123.7,39.9c-0.2-0.2-0.5-0.3-0.9-0.3c-0.6,0-1,0.3-1.4,0.9v-0.7h-0.7v4.6h0.8v-2.5c0-0.5,0.1-0.8,0.4-1.1
		c0.2-0.3,0.5-0.4,0.9-0.4c0.3,0,0.5,0.1,0.6,0.2c0.2,0.2,0.3,0.5,0.3,0.9v3h0.7v-2.7c0-0.6,0-1-0.1-1.2
		C124.1,40.3,123.9,40.1,123.7,39.9"/>
	<rect x="125.5" y="38.1" class="st0" width="0.8" height="0.9"/>
	<rect x="125.5" y="39.7" class="st0" width="0.8" height="4.6"/>
	<rect x="127.4" y="43.3" class="st0" width="1.1" height="1.1"/>
	<path class="st0" d="M132.7,43.6c-0.2-0.1-0.6-0.1-1.2-0.1c-0.6,0-1,0-1.2-0.1c-0.1,0-0.2-0.2-0.2-0.3c0-0.1,0.1-0.2,0.2-0.3
		c0.1-0.1,0.2-0.1,0.3-0.1c0,0,0.1,0,0.3,0c0.1,0,0.2,0,0.3,0c0.5,0,1-0.2,1.3-0.5c0.3-0.3,0.5-0.7,0.5-1.1c0-0.4-0.1-0.8-0.4-1.1
		c0-0.2,0.1-0.3,0.2-0.4c0.1-0.1,0.3-0.1,0.6-0.1h0V39l0,0c-0.1,0-0.1,0-0.2,0c-0.3,0-0.6,0.1-0.8,0.2c-0.2,0.1-0.3,0.3-0.3,0.6
		c-0.3-0.1-0.6-0.2-0.9-0.2c-0.5,0-0.9,0.1-1.2,0.4c-0.3,0.3-0.5,0.7-0.5,1.1c0,0.5,0.2,0.9,0.6,1.2c-0.4,0.2-0.6,0.5-0.6,0.8
		c0,0.3,0.1,0.5,0.4,0.7c-0.4,0.2-0.7,0.5-0.7,0.9c0,0.4,0.2,0.7,0.5,0.9c0.3,0.2,0.9,0.3,1.6,0.3c1.5,0,2.3-0.4,2.3-1.3
		c0-0.3-0.1-0.5-0.3-0.7C133.2,43.8,132.9,43.7,132.7,43.6 M132.4,45.3c-0.3,0.1-0.7,0.2-1.1,0.2c-0.4,0-0.8-0.1-1-0.2
		c-0.3-0.1-0.4-0.3-0.4-0.5c0-0.3,0.2-0.5,0.5-0.6c0.2,0,0.6,0,1.1,0.1c0.4,0,0.7,0,0.9,0.1c0.2,0,0.3,0.1,0.4,0.2
		c0.1,0.1,0.1,0.2,0.1,0.3C132.8,45,132.7,45.2,132.4,45.3 M131.9,41.9c-0.2,0.2-0.4,0.3-0.7,0.3c-0.3,0-0.5-0.1-0.7-0.3
		c-0.2-0.2-0.3-0.4-0.3-0.7c0-0.3,0.1-0.6,0.3-0.7c0.2-0.2,0.4-0.3,0.7-0.3c0.3,0,0.5,0.1,0.7,0.3c0.2,0.2,0.3,0.4,0.3,0.7
		C132.2,41.5,132.1,41.7,131.9,41.9"/>
	<path class="st0" d="M135.8,39.6c-0.6,0-1.1,0.2-1.5,0.7c-0.4,0.4-0.6,1-0.6,1.8c0,0.7,0.2,1.3,0.5,1.7c0.4,0.5,0.9,0.7,1.5,0.7
		c0.6,0,1.1-0.2,1.5-0.7c0.4-0.5,0.6-1,0.6-1.8c0-0.7-0.2-1.3-0.5-1.7C136.9,39.8,136.4,39.6,135.8,39.6 M135.7,43.8
		c-0.3,0-0.6-0.1-0.9-0.4c-0.2-0.3-0.4-0.7-0.4-1.4c0-0.6,0.1-1.1,0.4-1.3c0.2-0.3,0.5-0.4,0.9-0.4c0.3,0,0.6,0.1,0.9,0.4
		c0.2,0.3,0.4,0.7,0.4,1.3c0,0.6-0.1,1.1-0.4,1.4C136.4,43.7,136.1,43.8,135.7,43.8"/>
	<polygon class="st0" points="140,43.3 138.8,39.8 138.8,39.7 137.9,39.7 139.5,44.3 140.3,44.3 141.9,39.8 141.9,39.7 141.2,39.7 	
		"/>
	<rect x="142.1" y="43.3" class="st0" width="1.1" height="1.1"/>
	<path class="st0" d="M147.1,42.3c0,0.3-0.1,0.5-0.2,0.8c-0.1,0.2-0.3,0.4-0.5,0.5c-0.2,0.1-0.4,0.2-0.6,0.2c-0.2,0-0.4-0.1-0.6-0.2
		c-0.2-0.2-0.3-0.5-0.3-0.9v-2.9h-0.8v2.9c0,0.6,0.1,1,0.4,1.3c0.3,0.3,0.6,0.5,1.1,0.5c0.6,0,1.1-0.3,1.4-0.9v0.8h0.7v-4.6h-0.8
		V42.3z"/>
	<polygon class="st0" points="152.8,39.7 152,39.7 149.9,42 149.9,38.1 149.1,38.1 149.1,44.3 149.9,44.3 149.9,42.9 150.8,41.8 
		152.1,44.3 152.2,44.3 153,44.3 151.4,41.4 	"/>
	<path class="st0" d="M54.2,6c0.5-0.6,0.7-1.3,0.7-2.2c0-0.9-0.2-1.6-0.7-2.2c-0.5-0.6-1.2-0.9-2-0.9h-2.1v6.2h2.3
		C53.1,6.9,53.7,6.6,54.2,6 M52.1,1.4c0.7,0,1.2,0.2,1.5,0.7c0.3,0.5,0.5,1,0.5,1.6c0,0.7-0.2,1.3-0.5,1.8c-0.3,0.4-0.8,0.7-1.5,0.7
		h-1.2V1.4H52.1z"/>
	<path class="st0" d="M57.6,7c0.5,0,0.9-0.1,1.2-0.4c0.4-0.3,0.6-0.6,0.7-1l0,0l-0.7-0.1l0,0c-0.2,0.6-0.6,0.9-1.2,0.9
		c-0.3,0-0.6-0.1-0.9-0.4c-0.3-0.2-0.4-0.7-0.4-1.3h3.3v0c0-0.8-0.2-1.5-0.6-1.9c-0.4-0.4-0.9-0.6-1.5-0.6c-0.6,0-1.1,0.2-1.5,0.7
		c-0.4,0.4-0.6,1-0.6,1.8c0,0.7,0.2,1.3,0.6,1.7C56.4,6.8,56.9,7,57.6,7 M56.4,4.1c0-0.4,0.2-0.7,0.4-1c0.2-0.2,0.5-0.4,0.9-0.4
		c0.3,0,0.5,0.1,0.6,0.2c0.2,0.1,0.3,0.3,0.4,0.5c0.1,0.2,0.1,0.4,0.1,0.6H56.4z"/>
	<path class="st0" d="M61.2,6.3C61.6,6.8,62,7,62.6,7c0.5,0,1-0.2,1.3-0.7c0.3-0.4,0.5-1,0.5-1.8c0-0.7-0.2-1.3-0.5-1.7
		c-0.3-0.5-0.8-0.7-1.3-0.7c-0.6,0-1.1,0.3-1.4,0.9V2.3h-0.7v6.1h0.8V6.3z M62.4,2.8c0.3,0,0.6,0.2,0.8,0.5c0.2,0.3,0.3,0.7,0.3,1.3
		c0,0.7-0.1,1.1-0.3,1.4c-0.2,0.3-0.5,0.4-0.8,0.4c-0.3,0-0.5-0.1-0.7-0.3c-0.2-0.2-0.4-0.5-0.4-0.8V3.9c0.1-0.3,0.2-0.6,0.4-0.8
		C61.9,2.9,62.1,2.8,62.4,2.8"/>
	<path class="st0" d="M65.4,4.4c-0.4,0.3-0.6,0.7-0.6,1.2c0,0.4,0.1,0.7,0.4,1C65.5,6.9,65.9,7,66.5,7c0.7,0,1.2-0.3,1.6-0.9
		c0,0.3,0,0.6,0.1,0.7l0,0h0.8l0,0c-0.1-0.3-0.1-0.6-0.1-0.9V4c0-0.7-0.1-1.2-0.4-1.5c-0.3-0.3-0.7-0.4-1.4-0.4
		c-1.2,0-1.9,0.4-2,1.3l0,0l0.7,0.1l0,0c0.1-0.5,0.5-0.8,1.2-0.8c0.3,0,0.5,0,0.7,0.1c0.2,0.1,0.3,0.2,0.3,0.4C68,3.4,68,3.7,68,4
		c-0.3,0-0.4,0-0.6,0C66.5,4,65.8,4.1,65.4,4.4 M66.6,6.4c-0.3,0-0.5-0.1-0.7-0.2c-0.2-0.1-0.2-0.3-0.2-0.5c0-0.3,0.1-0.6,0.4-0.8
		c0.3-0.2,0.7-0.3,1.3-0.3c0.1,0,0.4,0,0.6,0c0,0.1,0,0.2,0,0.3c0,0.4-0.1,0.8-0.4,1.1C67.4,6.2,67,6.4,66.6,6.4"/>
	<path class="st0" d="M70.8,4.4c0-0.5,0.2-0.8,0.4-1.1c0.2-0.3,0.6-0.4,0.9-0.4h0.2V2.1l0,0c-0.1,0-0.2,0-0.3,0
		c-0.2,0-0.5,0.1-0.7,0.2c-0.2,0.1-0.4,0.4-0.6,0.8V2.3H70v4.6h0.8V4.4z"/>
	<path class="st0" d="M73.3,5.6c0,0.9,0.5,1.4,1.4,1.4c0.2,0,0.4,0,0.7-0.1l0,0V6.3l0,0c-0.2,0-0.4,0-0.5,0c-0.5,0-0.7-0.2-0.7-0.7
		V2.9h1V2.3h-1V1.1l-0.7,0.1l0,1.1h-0.8v0.6h0.8V5.6z"/>
	<path class="st0" d="M76.6,4.1c0-0.4,0.1-0.7,0.3-1c0.2-0.2,0.5-0.4,0.8-0.4c0.2,0,0.4,0.1,0.6,0.2c0.2,0.2,0.3,0.4,0.3,0.8v3h0.8
		V4.3c0-0.5,0.1-0.9,0.4-1.1c0.2-0.2,0.5-0.4,0.8-0.4c0.2,0,0.4,0.1,0.5,0.2c0.1,0.1,0.2,0.2,0.3,0.4c0,0.1,0.1,0.4,0.1,0.6v2.9H82
		V4c0-0.4,0-0.7-0.1-1c-0.1-0.2-0.2-0.4-0.5-0.6c-0.2-0.2-0.5-0.3-0.8-0.3c-0.6,0-1.1,0.3-1.4,1c-0.1-0.3-0.2-0.5-0.4-0.7
		c-0.2-0.2-0.5-0.3-0.9-0.3c-0.6,0-1,0.3-1.4,0.9V2.3h-0.7v4.6h0.7V4.1z"/>
	<path class="st0" d="M85,7c0.5,0,0.9-0.1,1.2-0.4c0.4-0.3,0.6-0.6,0.7-1l0,0l-0.7-0.1l0,0C86,6.1,85.6,6.3,85,6.3
		c-0.3,0-0.6-0.1-0.9-0.4c-0.3-0.2-0.4-0.7-0.4-1.3H87v0c0-0.8-0.2-1.5-0.6-1.9c-0.4-0.4-0.9-0.6-1.5-0.6c-0.6,0-1.1,0.2-1.5,0.7
		c-0.4,0.4-0.6,1-0.6,1.8c0,0.7,0.2,1.3,0.6,1.7C83.8,6.8,84.4,7,85,7 M83.8,4.1c0-0.4,0.2-0.7,0.4-1c0.2-0.2,0.5-0.4,0.9-0.4
		c0.3,0,0.5,0.1,0.6,0.2c0.2,0.1,0.3,0.3,0.4,0.5c0.1,0.2,0.1,0.4,0.1,0.6H83.8z"/>
	<path class="st0" d="M88.7,4.3c0-0.5,0.1-0.8,0.4-1.1c0.2-0.3,0.5-0.4,0.9-0.4c0.3,0,0.5,0.1,0.6,0.2c0.2,0.2,0.3,0.5,0.3,0.9v3
		h0.7V4.2c0-0.6,0-1-0.1-1.2c-0.1-0.2-0.3-0.4-0.5-0.6c-0.2-0.2-0.5-0.3-0.9-0.3c-0.6,0-1,0.3-1.4,0.9V2.3h-0.7v4.6h0.8V4.3z"/>
	<path class="st0" d="M92.8,5.6c0,0.9,0.5,1.4,1.4,1.4c0.2,0,0.4,0,0.7-0.1l0,0V6.3l0,0c-0.2,0-0.4,0-0.5,0c-0.5,0-0.7-0.2-0.7-0.7
		V2.9h1V2.3h-1V1.1l-0.7,0.1l0,1.1H92v0.6h0.8V5.6z"/>
	<path class="st0" d="M97.7,6.9h0.8v-4h1.1V2.3h-1.1V2.1c0-0.4,0.1-0.6,0.2-0.7c0.1-0.1,0.4-0.2,0.7-0.2c0.1,0,0.3,0,0.4,0.1l0,0
		V0.6l0,0c-0.2,0-0.5-0.1-0.7-0.1c-0.4,0-0.7,0.1-1,0.3c-0.3,0.2-0.4,0.7-0.4,1.4h-0.8v0.6h0.8V6.9z"/>
	<path class="st0" d="M100.2,6.3c0.4,0.5,0.9,0.7,1.5,0.7c0.6,0,1.1-0.2,1.5-0.7c0.4-0.5,0.6-1,0.6-1.8c0-0.7-0.2-1.3-0.5-1.7
		c-0.4-0.5-0.9-0.7-1.5-0.7c-0.6,0-1.1,0.2-1.5,0.7c-0.4,0.4-0.6,1-0.6,1.8C99.6,5.2,99.8,5.8,100.2,6.3 M101.7,6.3
		c-0.3,0-0.6-0.1-0.9-0.4c-0.2-0.3-0.4-0.7-0.4-1.4c0-0.6,0.1-1.1,0.4-1.3c0.2-0.3,0.5-0.4,0.9-0.4c0.3,0,0.6,0.1,0.9,0.4
		c0.2,0.3,0.4,0.7,0.4,1.3c0,0.6-0.1,1.1-0.4,1.4C102.3,6.2,102.1,6.3,101.7,6.3"/>
	<path class="st0" d="M105.4,4.4c0-0.5,0.2-0.8,0.4-1.1c0.2-0.3,0.6-0.4,0.9-0.4h0.2V2.1l0,0c-0.1,0-0.2,0-0.3,0
		c-0.2,0-0.5,0.1-0.7,0.2c-0.2,0.1-0.4,0.4-0.6,0.8V2.3h-0.7v4.6h0.8V4.4z"/>
	<path class="st0" d="M56.2,30.5c1.5,0,2.9-0.5,4.4-1.5l0.9,1.3h0.6v-5.3h-0.6l0,0.1c-1.1,3.1-2.8,4.7-5.2,4.7
		c-1.4,0-2.7-0.6-3.4-1.5c-0.7-0.9-0.9-2.4-0.9-6.2c0-3.9,0.2-6.1,0.8-7.2c0.7-1.3,2-2.1,3.7-2.1c2.6,0,4.3,1.5,5,4.3l0,0.1h0.6v-5
		h-0.6l-0.9,1.2c-1.3-1-2.8-1.5-4.2-1.5c-4.4,0-8.1,4.3-8.1,9.3C48.4,26.2,51.9,30.5,56.2,30.5"/>
	<path class="st0" d="M74.5,24.7c0-3.1-2.5-5.7-5.6-5.7c-3.1,0-5.6,2.5-5.6,5.7c0,3.1,2.5,5.7,5.6,5.7C72,30.5,74.5,27.9,74.5,24.7
		 M71.1,28.4c-0.4,0.8-1.1,1.1-2.2,1.1c-1,0-1.6-0.3-2-0.8c-0.4-0.6-0.4-0.8-0.4-4c0-2.8,0-3.2,0.3-3.7c0.4-0.8,1.1-1.1,2.2-1.1
		c1,0,1.6,0.3,2,0.8c0.4,0.6,0.4,0.8,0.4,4C71.3,27.6,71.3,28,71.1,28.4"/>
	<path class="st0" d="M81.4,29.4h-1.6v-2.8c0-3.2,0.1-4.5,0.4-5.2c0.3-0.7,1.2-1.3,2.1-1.3c1.1,0,1.4,0.4,1.4,2.7v6.5h-1.6v0.8H88
		v-0.8h-1.6v-5.1c0-1,0-1.2,0.1-1.5c0.1-0.6,0.2-1,0.4-1.4c0.4-0.8,1.2-1.3,2.1-1.3c0.4,0,0.8,0.1,1,0.3c0.3,0.3,0.4,0.7,0.4,2.4
		v6.5h-1.6v0.8h6.1v-0.8H93v-6.5c0-1.5-0.1-2.2-0.6-2.7c-0.5-0.7-1.5-1.1-2.6-1.1c-1.6,0-2.8,0.5-3.7,1.7c-0.5-1.1-1.4-1.7-3-1.7
		c-1.4,0-2.4,0.5-3.4,1.4v-1.2h-4.5v0.8h1.8v9.3h-1.8v0.8h6.1V29.4z"/>
	<path class="st0" d="M106,24.3c0-1,0-1.2,0.1-1.5c0.1-0.6,0.2-1,0.4-1.4c0.4-0.8,1.2-1.3,2.1-1.3c0.4,0,0.8,0.1,1,0.3
		c0.3,0.3,0.4,0.7,0.4,2.4v6.5h-1.6v0.8h6.1v-0.8h-1.8v-6.5c0-1.5-0.1-2.2-0.6-2.7c-0.5-0.7-1.5-1.1-2.6-1.1c-1.6,0-2.8,0.5-3.7,1.7
		c-0.5-1.1-1.4-1.7-3-1.7c-1.4,0-2.4,0.5-3.4,1.4v-1.2h-4.1v0.8H97v9.3h-1.8v0.8h5.8v-0.8h-1.6v-2.8c0-3.2,0.1-4.5,0.4-5.2
		c0.3-0.7,1.2-1.3,2.1-1.3c1.1,0,1.4,0.4,1.4,2.7v6.5h-1.6v0.8h5.9v-0.8H106V24.3z"/>
	<path class="st0" d="M125.4,19.3h-4.5v0.8h1.8v3.7c0,2.9-0.1,3.7-0.6,4.6c-0.5,0.8-1.3,1.3-2.3,1.3c-0.5,0-1-0.1-1.2-0.4
		c-0.3-0.3-0.4-0.8-0.4-3.5v-6.4h-4.5v0.8h1.8v5.6c0,2.3,0.2,3,0.9,3.7c0.7,0.6,1.7,1,2.9,1c1.4,0,2.6-0.5,3.4-1.5v1.2h4.5v-0.8
		h-1.8V19.3z"/>
	<path class="st0" d="M133.8,29.4h-1.6v-3.1c0-3.2,0.2-4.4,0.7-5.2c0.4-0.6,1.2-1,1.8-1c0.5,0,0.9,0.2,1.3,0.6
		c0.4,0.5,0.5,1.4,0.5,4.7v4h-1.6v0.8h6.1v-0.8h-1.8v-5.9c0-2-0.1-2.7-0.8-3.4c-0.6-0.6-1.7-1.1-2.8-1.1c-1.4,0-2.5,0.4-3.3,1.5
		v-1.2h-4.5v0.8h1.8v9.3h-1.8v0.8h6.1V29.4z"/>
	<polygon class="st0" points="147.5,29.4 145.8,29.4 145.8,19.3 141.3,19.3 141.3,20.1 143.1,20.1 143.1,29.4 141.3,29.4 
		141.3,30.2 147.5,30.2 	"/>
	<path class="st0" d="M144.4,15.6c0.9,0,1.6-0.8,1.6-1.6c0-0.9-0.7-1.7-1.7-1.7c-0.9,0-1.6,0.7-1.6,1.7
		C142.7,14.9,143.4,15.6,144.4,15.6"/>
	<path class="st0" d="M155.3,27.9h-0.8l0,0.1c-0.2,0.9-0.6,1.4-1.3,1.4c-0.8,0-1.2-0.3-1.2-1.7v-7.5h2.7v-0.8H152v-4.1h-0.6l0,0.1
		c-0.8,2.1-1.8,3.3-3.6,4.2l-0.1,0v0.6h1.6v6.7c0,1.7,0,2,0.6,2.6c0.5,0.7,1.4,1,2.4,1c1.7,0,2.7-0.8,3-2.4L155.3,27.9z"/>
	<path class="st0" d="M158.2,15.6c0.9,0,1.6-0.8,1.6-1.6c0-0.9-0.7-1.7-1.7-1.7c-0.9,0-1.6,0.7-1.6,1.7
		C156.5,14.9,157.2,15.6,158.2,15.6"/>
	<polygon class="st0" points="159.5,19.3 155.1,19.3 155.1,20.1 156.9,20.1 156.9,29.4 155.1,29.4 155.1,30.2 161.3,30.2 
		161.3,29.4 159.5,29.4 	"/>
	<path class="st0" d="M171.9,24l0-0.1c-0.2-2.9-2.1-4.8-4.8-4.8c-2.8,0-5.2,2.7-5.2,5.7c0,3,2.5,5.7,5.3,5.7c2.3,0,4.2-1.6,4.6-3.9
		l0-0.1h-0.9l0,0.1c-0.5,2-1.8,3.1-3.5,3.1c-0.9,0-1.6-0.4-2.1-1.1c-0.3-0.5-0.4-1.1-0.4-3.7V24H171.9z M167,19.9
		c0.8,0,1.4,0.3,1.6,1c0.2,0.4,0.2,0.7,0.2,2.3h-3.9v-0.5C164.9,20.7,165.4,19.9,167,19.9"/>
	<path class="st0" d="M176.6,23.1c-2.2-0.4-2.5-0.7-2.5-1.4c0-1,1-1.7,2.2-1.7c1.5,0,2.7,1.1,2.9,2.6l0,0.1h0.6l-0.1-3.4h-0.6
		l-0.4,0.8c-0.9-0.7-1.6-1-2.5-1c-1.9,0-3.3,1.5-3.3,3.4c0,2.2,1,3.1,3.8,3.5c2.1,0.3,2.4,0.8,2.4,1.6c0,1.1-1,2-2.3,2
		c-1.7,0-2.7-1-3.4-3.6l0-0.1h-0.6l0.1,4.3h0.5l0.6-0.8c1,0.8,1.8,1.1,2.8,1.1c2.1,0,3.6-1.6,3.6-3.8
		C180.3,24.6,179.3,23.5,176.6,23.1"/>
</g>
</svg>
