<?xml version="1.0" encoding="utf-8"?>
<!-- Generator: Adobe Illustrator 21.1.0, SVG Export Plug-In . SVG Version: 6.00 Build 0)  -->
<svg version="1.1" id="Layer_1" xmlns="http://www.w3.org/2000/svg" xmlns:xlink="http://www.w3.org/1999/xlink" x="0px" y="0px"
	 viewBox="0 0 989.6 822.1" style="enable-background:new 0 0 989.6 822.1;" xml:space="preserve">
<style type="text/css">
	.st0{fill:none;stroke:#00B0AD;stroke-width:15;}
</style>
<g>
	<path d="M135.4,315.6c19.8,0,35,5,45.7,15.1s16,25.4,16,46.1c0,10.8-1.2,20.4-3.6,28.7c-2.4,8.3-6.1,15.4-11.2,21.1
		c-5,5.7-11.5,10.1-19.3,13c-7.8,3-17,4.5-27.7,4.5h-44V315.6H135.4z M136.8,429.7c1.9,0,4.3-0.1,7.2-0.4s5.9-1,9.2-2.2
		c3.2-1.1,6.4-2.8,9.6-5c3.2-2.2,6-5.1,8.6-8.8c2.5-3.7,4.6-8.4,6.2-13.9s2.4-12.3,2.4-20.2c0-7.7-0.8-14.5-2.2-20.6
		c-1.5-6.1-4-11.2-7.4-15.5s-7.8-7.5-13.2-9.7s-12.1-3.3-20-3.3h-28.8v99.7L136.8,429.7L136.8,429.7z"/>
	<path d="M276.8,438.1c-7,5.3-15.7,7.9-26.3,7.9c-7.4,0-13.9-1.2-19.4-3.6s-10.1-5.8-13.8-10.1c-3.7-4.3-6.5-9.5-8.4-15.5
		s-2.9-12.5-3.1-19.6c0-7.1,1.1-13.6,3.2-19.4c2.2-5.9,5.2-11,9.1-15.3c3.9-4.3,8.5-7.7,13.9-10.1c5.3-2.4,11.2-3.6,17.6-3.6
		c8.3,0,15.1,1.7,20.6,5.1s9.8,7.8,13.1,13c3.3,5.3,5.6,11,6.8,17.3c1.3,6.2,1.8,12.2,1.5,17.8h-69.7c-0.1,4.1,0.4,8,1.4,11.6
		c1.1,3.7,2.8,6.9,5.2,9.7c2.4,2.8,5.5,5.1,9.2,6.8c3.7,1.7,8.1,2.5,13.1,2.5c6.5,0,11.8-1.5,15.9-4.5s6.9-7.6,8.2-13.7H290
		C288.3,425,283.8,432.9,276.8,438.1z M273.1,378.4c-1.4-3.2-3.2-6-5.6-8.4c-2.3-2.3-5.1-4.2-8.3-5.6c-3.2-1.4-6.7-2.1-10.5-2.1
		c-4,0-7.5,0.7-10.7,2.1s-5.9,3.3-8.2,5.7c-2.3,2.4-4.1,5.2-5.4,8.4c-1.3,3.2-2.1,6.6-2.3,10.2h53.5
		C275.3,385,274.5,381.6,273.1,378.4z"/>
	<path d="M319.1,351v12.6h0.4c2.5-5.2,6.5-8.9,11.9-11.2s11.3-3.5,17.8-3.5c7.2,0,13.5,1.3,18.8,4c5.3,2.6,9.8,6.2,13.3,10.7
		s6.2,9.7,8,15.6s2.7,12.1,2.7,18.7s-0.9,12.8-2.6,18.7c-1.7,5.9-4.4,11-7.9,15.4s-8,7.8-13.3,10.4c-5.3,2.5-11.6,3.8-18.6,3.8
		c-2.3,0-4.8-0.2-7.6-0.7c-2.8-0.5-5.6-1.3-8.4-2.3c-2.8-1.1-5.4-2.5-7.8-4.4c-2.5-1.9-4.5-4.2-6.2-6.9h-0.4v47.9h-15.3V351H319.1z
		 M374.1,384c-1.1-4.1-2.9-7.8-5.2-11.1c-2.3-3.2-5.3-5.8-9-7.7c-3.7-1.9-8-2.9-12.9-2.9c-5.2,0-9.5,1-13.1,3.1
		c-3.6,2-6.5,4.7-8.8,8s-3.9,7.1-4.9,11.2c-1,4.2-1.5,8.5-1.5,12.8c0,4.6,0.5,9,1.6,13.2c1.1,4.3,2.8,8,5.1,11.3
		c2.3,3.2,5.4,5.8,9.1,7.8s8.2,3,13.5,3s9.7-1,13.2-3.1c3.5-2,6.4-4.7,8.5-8.1c2.2-3.4,3.7-7.2,4.7-11.5s1.4-8.8,1.4-13.3
		C375.8,392.4,375.3,388.2,374.1,384z"/>
	<path d="M488.1,443.7c-2.6,1.6-6.3,2.3-11,2.3c-4,0-7.1-1.1-9.5-3.3c-2.3-2.2-3.5-5.9-3.5-10.9c-4.2,5-9.1,8.7-14.7,10.9
		c-5.6,2.2-11.6,3.3-18.1,3.3c-4.2,0-8.2-0.5-12-1.4c-3.8-1-7.1-2.5-9.8-4.5c-2.8-2-5-4.7-6.6-8s-2.4-7.3-2.4-12
		c0-5.3,0.9-9.6,2.7-13c1.8-3.4,4.2-6.1,7.1-8.2s6.3-3.7,10.1-4.8c3.8-1.1,7.6-2,11.6-2.7c4.2-0.8,8.2-1.5,12-1.9s7.1-1,10-1.8
		s5.2-1.9,6.8-3.4c1.7-1.5,2.5-3.7,2.5-6.6c0-3.4-0.6-6.1-1.9-8.1s-2.9-3.6-4.9-4.7s-4.2-1.8-6.7-2.2c-2.5-0.4-4.9-0.5-7.3-0.5
		c-6.5,0-11.9,1.2-16.2,3.7c-4.3,2.5-6.7,7.1-7,13.9H404c0.2-5.8,1.4-10.6,3.6-14.6s5-7.2,8.6-9.6c3.6-2.5,7.7-4.2,12.3-5.3
		c4.6-1.1,9.6-1.6,14.9-1.6c4.2,0,8.4,0.3,12.5,0.9s7.9,1.8,11.2,3.7c3.4,1.9,6.1,4.5,8.1,7.8c2,3.4,3.1,7.7,3.1,13.1V422
		c0,3.6,0.2,6.2,0.6,7.9c0.4,1.7,1.8,2.5,4.2,2.5c1.3,0,2.9-0.2,4.7-0.7v12H488.1z M463.3,396c-1.9,1.4-4.4,2.5-7.6,3.1
		c-3.1,0.7-6.4,1.2-9.8,1.6s-6.9,0.9-10.4,1.4s-6.6,1.4-9.4,2.6s-5,2.9-6.8,5.1c-1.7,2.2-2.6,5.2-2.6,9c0,2.5,0.5,4.6,1.5,6.4
		c1,1.7,2.3,3.1,4,4.2c1.6,1.1,3.5,1.9,5.7,2.3c2.2,0.5,4.4,0.7,6.8,0.7c5,0,9.4-0.7,13-2.1s6.5-3.1,8.8-5.2s4-4.4,5-6.8
		c1.1-2.4,1.6-4.7,1.6-6.9V396H463.3z"/>
	<path d="M511.9,351v19.6h0.4c3.7-7.6,8.3-13.1,13.7-16.7s12.2-5.3,20.5-5v16.2c-6.1,0-11.3,0.8-15.7,2.5c-4.3,1.7-7.8,4.1-10.4,7.4
		c-2.6,3.2-4.6,7.2-5.8,11.8c-1.2,4.6-1.8,9.9-1.8,15.9v41.4h-15.3V351H511.9z"/>
	<path d="M600.3,351v13.5h-18.5v57.8c0,1.8,0.1,3.2,0.5,4.3c0.3,1.1,0.9,1.9,1.7,2.5s2,1,3.5,1.2s3.4,0.3,5.8,0.3h7v13.5h-11.7
		c-4,0-7.4-0.3-10.2-0.8s-5.1-1.5-6.8-3c-1.7-1.4-3-3.5-3.9-6.1c-0.8-2.6-1.3-6.1-1.3-10.4v-59.2h-15.8V351h15.8v-27.9h15.3V351
		H600.3z"/>
	<path d="M627.3,351v13.7h0.4c7-10.6,17-15.8,30.1-15.8c5.8,0,11,1.2,15.7,3.6s8,6.5,9.9,12.2c3.1-5,7.2-8.9,12.3-11.7
		c5.1-2.8,10.7-4.1,16.8-4.1c4.7,0,8.9,0.5,12.7,1.5s7,2.6,9.7,4.8c2.7,2.2,4.8,4.9,6.3,8.4c1.5,3.4,2.2,7.5,2.2,12.3v68.2h-15.3
		v-61c0-2.9-0.2-5.6-0.7-8.1s-1.4-4.7-2.7-6.6s-3.1-3.3-5.5-4.4s-5.4-1.6-9.1-1.6c-7.6,0-13.5,2.2-17.8,6.5s-6.5,10.1-6.5,17.3v58
		h-15.3v-61c0-3-0.3-5.8-0.8-8.3s-1.5-4.7-2.8-6.6s-3.1-3.3-5.3-4.3s-5.1-1.5-8.5-1.5c-4.4,0-8.3,0.9-11.4,2.7
		c-3.2,1.8-5.8,4-7.7,6.5c-2,2.5-3.4,5.1-4.3,7.8s-1.4,5-1.4,6.8v58H613V351H627.3z"/>
	<path d="M827.8,438.1c-7,5.3-15.7,7.9-26.3,7.9c-7.4,0-13.9-1.2-19.4-3.6s-10.1-5.8-13.8-10.1c-3.7-4.3-6.5-9.5-8.4-15.5
		s-2.9-12.5-3.1-19.6c0-7.1,1.1-13.6,3.2-19.4c2.2-5.9,5.2-11,9.1-15.3c3.9-4.3,8.5-7.7,13.9-10.1c5.3-2.4,11.2-3.6,17.6-3.6
		c8.3,0,15.1,1.7,20.6,5.1s9.8,7.8,13.1,13c3.3,5.3,5.6,11,6.8,17.3c1.3,6.2,1.8,12.2,1.5,17.8h-69.7c-0.1,4.1,0.4,8,1.4,11.6
		c1.1,3.7,2.8,6.9,5.2,9.7c2.4,2.8,5.5,5.1,9.2,6.8c3.7,1.7,8.1,2.5,13.1,2.5c6.5,0,11.8-1.5,15.9-4.5c4.1-3,6.9-7.6,8.2-13.7H841
		C839.3,425,834.8,432.9,827.8,438.1z M824.1,378.4c-1.4-3.2-3.2-6-5.6-8.4c-2.3-2.3-5.1-4.2-8.3-5.6s-6.7-2.1-10.5-2.1
		c-4,0-7.5,0.7-10.7,2.1s-5.9,3.3-8.2,5.7c-2.3,2.4-4.1,5.2-5.4,8.4c-1.3,3.2-2.1,6.6-2.3,10.2h53.5
		C826.3,385,825.5,381.6,824.1,378.4z"/>
	<path d="M868.7,351v14.8h0.4c6.4-11.3,16.4-16.9,30.2-16.9c6.1,0,11.2,0.8,15.3,2.5s7.4,4,9.9,7s4.3,6.6,5.3,10.7s1.5,8.7,1.5,13.8
		v61.2H916v-63c0-5.8-1.7-10.3-5-13.7c-3.4-3.4-8-5-13.9-5c-4.7,0-8.7,0.7-12.2,2.2s-6.3,3.5-8.5,6.1c-2.3,2.6-4,5.7-5.1,9.3
		c-1.1,3.5-1.7,7.4-1.7,11.6v52.6h-15.3V351H868.7z"/>
	<path d="M989.6,351v13.5h-18.5v57.8c0,1.8,0.1,3.2,0.5,4.3c0.3,1.1,0.9,1.9,1.7,2.5s2,1,3.5,1.2s3.4,0.3,5.9,0.3h7v13.5H978
		c-4,0-7.4-0.3-10.2-0.8s-5.1-1.5-6.8-3c-1.7-1.4-3-3.5-3.9-6.1c-0.8-2.6-1.3-6.1-1.3-10.4v-59.2H940V351h15.8v-27.9h15.3V351H989.6
		z"/>
</g>
<g>
	<path d="M79.4,552.5V539H95v-13.9c0-7.6,2.2-13.3,6.6-17.2c4.4-3.9,10.8-5.8,19.2-5.8c1.4,0,3.1,0.1,4.9,0.4c1.9,0.2,3.5,0.6,5,1.1
		v13.3c-1.3-0.5-2.8-0.8-4.3-1c-1.6-0.2-3-0.3-4.3-0.3c-3.7,0-6.6,0.7-8.6,2.2c-2,1.4-3.1,4.2-3.1,8.3v13h18v13.5h-18v79.6H95v-79.6
		L79.4,552.5L79.4,552.5z"/>
	<path d="M135.5,566.5c1.9-5.9,4.8-11.1,8.6-15.5s8.6-7.8,14.2-10.4c5.6-2.5,12.1-3.8,19.4-3.8c7.4,0,13.9,1.3,19.5,3.8
		s10.3,6,14.1,10.4s6.7,9.5,8.6,15.5c1.9,5.9,2.9,12.3,2.9,19.2c0,6.8-1,13.2-2.9,19.1c-1.9,5.9-4.8,11-8.6,15.4s-8.5,7.8-14.1,10.3
		s-12.1,3.7-19.5,3.7c-7.3,0-13.8-1.2-19.4-3.7c-5.6-2.5-10.4-5.9-14.2-10.3c-3.8-4.4-6.7-9.5-8.6-15.4c-1.9-5.9-2.9-12.2-2.9-19.1
		C132.6,578.8,133.6,572.4,135.5,566.5z M151.1,600.7c1.5,4.4,3.6,8,6.2,11c2.6,2.9,5.7,5.2,9.3,6.8c3.5,1.6,7.3,2.3,11.2,2.3
		s7.7-0.8,11.2-2.3c3.5-1.6,6.6-3.8,9.3-6.8c2.6-2.9,4.7-6.6,6.2-11s2.2-9.4,2.2-15s-0.8-10.6-2.2-15c-1.5-4.4-3.6-8.1-6.2-11.1
		c-2.6-3-5.7-5.3-9.3-6.8c-3.5-1.6-7.3-2.3-11.2-2.3s-7.7,0.8-11.2,2.3c-3.5,1.6-6.6,3.8-9.3,6.8c-2.6,3-4.7,6.7-6.2,11.1
		c-1.5,4.4-2.2,9.4-2.2,15C148.8,591.3,149.6,596.3,151.1,600.7z"/>
	<path d="M250.5,539v19.6h0.4c3.7-7.6,8.3-13.1,13.7-16.7c5.4-3.6,12.2-5.3,20.5-5v16.2c-6.1,0-11.3,0.8-15.7,2.5
		c-4.3,1.7-7.8,4.1-10.4,7.4c-2.6,3.2-4.6,7.2-5.8,11.8s-1.8,9.9-1.8,15.9v41.4h-15.3V539H250.5z"/>
	<path d="M438.5,632.1l-29.3-108h-0.4l-29.7,108h-17.8l-32.9-128.5h17.5L371,610.5h0.4l28.8-106.9h18.5l28.4,106.9h0.4l26.1-106.9
		h17.1l-34.4,128.5H438.5z"/>
	<path d="M487.4,566.5c1.9-5.9,4.8-11.1,8.6-15.5c3.8-4.4,8.6-7.8,14.2-10.4c5.6-2.5,12.1-3.8,19.4-3.8c7.4,0,13.9,1.3,19.5,3.8
		s10.3,6,14.1,10.4s6.7,9.5,8.6,15.5c1.9,5.9,2.9,12.3,2.9,19.2c0,6.8-1,13.2-2.9,19.1c-1.9,5.9-4.8,11-8.6,15.4s-8.5,7.8-14.1,10.3
		s-12.1,3.7-19.5,3.7c-7.3,0-13.8-1.2-19.4-3.7s-10.4-5.9-14.2-10.3c-3.8-4.4-6.7-9.5-8.6-15.4s-2.9-12.2-2.9-19.1
		C484.5,578.8,485.5,572.4,487.4,566.5z M503,600.7c1.5,4.4,3.6,8,6.2,11c2.6,2.9,5.7,5.2,9.3,6.8c3.5,1.6,7.3,2.3,11.2,2.3
		s7.7-0.8,11.2-2.3c3.5-1.6,6.6-3.8,9.3-6.8c2.6-2.9,4.7-6.6,6.2-11s2.2-9.4,2.2-15s-0.8-10.6-2.2-15c-1.5-4.4-3.6-8.1-6.2-11.1
		c-2.6-3-5.7-5.3-9.3-6.8c-3.5-1.6-7.3-2.3-11.2-2.3s-7.7,0.8-11.2,2.3c-3.5,1.6-6.6,3.8-9.3,6.8c-2.6,3-4.7,6.7-6.2,11.1
		c-1.5,4.4-2.2,9.4-2.2,15C500.7,591.3,501.5,596.3,503,600.7z"/>
	<path d="M602.4,539v19.6h0.4c3.7-7.6,8.3-13.1,13.7-16.7c5.4-3.6,12.2-5.3,20.5-5v16.2c-6.1,0-11.3,0.8-15.7,2.5
		c-4.3,1.7-7.8,4.1-10.4,7.4c-2.6,3.2-4.6,7.2-5.8,11.8s-1.8,9.9-1.8,15.9v41.4H588V539H602.4z"/>
	<path d="M660.4,503.6v76.1l42.5-40.7h20.5l-36.9,33.8l39.6,59.2h-19.4l-31.9-48.6l-14.4,13.3V632h-15.3V503.6H660.4z"/>
	<path d="M833.8,629.6c-6.7,3-13.5,4.5-20.6,4.5c-8.6,0-15.6-1.3-20.9-4c-5.3-2.6-9.4-5.8-12.2-9.5c-2.9-3.7-4.8-7.6-5.7-11.5
		s-1.4-7.3-1.4-9.9c0-5,0.8-9.5,2.4-13.3c1.6-3.8,3.8-7.3,6.5-10.4c2.7-3.1,5.9-5.8,9.5-8.3c3.7-2.5,7.5-4.8,11.6-6.9
		c-1.8-2.5-3.5-4.9-5.2-7.2s-3.2-4.6-4.6-6.9c-1.4-2.3-2.5-4.8-3.2-7.4c-0.8-2.6-1.2-5.5-1.2-8.7c0-3.5,0.6-6.8,1.9-10
		c1.3-3.2,3.1-6,5.6-8.5s5.5-4.4,9.1-5.9c3.6-1.4,7.7-2.2,12.4-2.2c4,0,7.8,0.5,11.6,1.6s7.1,2.7,10,5c2.9,2.2,5.2,5,6.9,8.3
		s2.6,7.1,2.6,11.4c0,3.8-0.7,7.4-2,10.7s-3.1,6.3-5.4,9.1c-2.3,2.8-4.9,5.3-7.7,7.5c-2.9,2.2-5.9,4.2-9,6l23.2,28.3
		c2.4-6.7,3.8-13.4,4.1-20h14.6c-0.4,3.8-0.8,7.1-1.2,9.8s-1,5.2-1.6,7.5c-0.7,2.3-1.5,4.5-2.4,6.8c-1,2.2-2.1,4.8-3.4,7.6l25,29
		h-20l-13.7-16C845.7,622.1,840.5,626.6,833.8,629.6z M803.1,575.2c-2.7,1.8-5.1,3.8-7.1,6.1s-3.7,4.8-4.9,7.6s-1.8,6.2-1.8,10
		c0,3.2,0.7,6.2,2.1,8.9c1.4,2.7,3.2,5,5.5,6.8c2.3,1.9,4.9,3.3,7.8,4.4c2.9,1.1,6,1.6,9.1,1.6c5.9,0,11.1-1.4,15.8-4.1
		c4.6-2.8,8.5-6.5,11.6-11.2L811.6,570C808.6,571.7,805.8,573.4,803.1,575.2z M822.4,549.1c2-1.4,3.9-3.1,5.6-4.9
		c1.7-1.8,3.1-3.8,4.1-6c1.1-2.2,1.6-4.7,1.6-7.5c0-3.7-1.3-6.9-4-9.6c-2.6-2.7-6.2-4-10.8-4c-3.6,0-7,1.1-10.1,3.3
		s-4.7,5.7-4.7,10.4c0,1.9,0.4,3.8,1.2,5.8c0.8,1.9,1.8,3.8,3,5.7s2.5,3.7,4,5.5s2.9,3.6,4.3,5.4
		C818.4,551.9,820.4,550.5,822.4,549.1z"/>
</g>
<g>
	<path d="M147.6,691.6c13,0,22.8,3.3,29.4,10s10,16,10,28s-3.3,21.4-10,28.1c-6.7,6.7-16.5,10-29.4,9.9h-39.2v52.6H91.3V691.6H147.6
		z M141.8,753.1c9.7,0.1,16.8-1.9,21.3-5.9c4.5-4.1,6.8-10,6.8-17.6c0-7.7-2.2-13.5-6.8-17.5c-4.5-4-11.6-6-21.3-6h-33.5v47.2h33.5
		V753.1z"/>
	<path d="M266.7,814.1c-7,5.3-15.7,7.9-26.3,7.9c-7.4,0-13.9-1.2-19.4-3.6c-5.5-2.4-10.1-5.8-13.8-10.1s-6.5-9.5-8.4-15.5
		s-2.9-12.5-3.1-19.6c0-7.1,1.1-13.6,3.2-19.4c2.2-5.9,5.2-11,9.1-15.3c3.9-4.3,8.5-7.7,13.9-10.1c5.3-2.4,11.2-3.6,17.6-3.6
		c8.3,0,15.1,1.7,20.6,5.1c5.5,3.4,9.8,7.8,13.1,13c3.3,5.3,5.6,11,6.8,17.3c1.3,6.2,1.8,12.2,1.5,17.8H212c-0.1,4.1,0.4,8,1.4,11.6
		c1.1,3.7,2.8,6.9,5.2,9.7s5.5,5.1,9.2,6.8s8.1,2.5,13.1,2.5c6.5,0,11.8-1.5,15.9-4.5c4.1-3,6.9-7.6,8.2-13.7h15.1
		C278.2,801,273.7,808.9,266.7,814.1z M263.1,754.4c-1.4-3.2-3.2-6-5.6-8.4c-2.3-2.3-5.1-4.2-8.3-5.6c-3.2-1.4-6.7-2.1-10.5-2.1
		c-4,0-7.5,0.7-10.7,2.1c-3.2,1.4-5.9,3.3-8.2,5.7s-4.1,5.2-5.4,8.4c-1.3,3.2-2.1,6.6-2.3,10.2h53.5
		C265.2,761,264.4,757.6,263.1,754.4z"/>
	<path d="M307.6,727v14.8h0.4c6.4-11.3,16.4-16.9,30.2-16.9c6.1,0,11.2,0.8,15.3,2.5c4.1,1.7,7.4,4,9.9,7s4.3,6.6,5.3,10.7
		c1,4.1,1.5,8.7,1.5,13.8v61.2h-15.3v-63c0-5.8-1.7-10.3-5-13.7c-3.4-3.4-8-5-13.9-5c-4.7,0-8.7,0.7-12.1,2.2
		c-3.4,1.4-6.3,3.5-8.5,6.1c-2.3,2.6-4,5.7-5.1,9.3c-1.1,3.5-1.7,7.4-1.7,11.6v52.6h-15.3V727H307.6z"/>
	<path d="M400.5,799.3c1.4,2.3,3.3,4.2,5.7,5.6c2.3,1.4,5,2.4,7.9,3s6,0.9,9.1,0.9c2.4,0,4.9-0.2,7.6-0.5c2.6-0.4,5.1-1,7.3-2
		c2.2-1,4-2.4,5.5-4.2c1.4-1.9,2.2-4.2,2.2-7.1c0-4-1.5-7-4.5-9s-6.8-3.7-11.2-5c-4.5-1.3-9.4-2.4-14.7-3.4
		c-5.3-1-10.2-2.5-14.7-4.3c-4.5-1.9-8.3-4.5-11.2-7.8c-3-3.4-4.5-8-4.5-14c0-4.7,1-8.7,3.1-12.1c2.1-3.4,4.8-6.1,8.1-8.2
		c3.3-2.1,7-3.7,11.2-4.7c4.1-1,8.2-1.5,12.3-1.5c5.3,0,10.1,0.5,14.6,1.3c4.4,0.9,8.4,2.5,11.8,4.7s6.1,5.2,8.2,9
		c2,3.8,3.2,8.5,3.6,14.1h-15.3c-0.2-3-1-5.5-2.3-7.5s-3-3.6-5-4.8s-4.3-2.1-6.8-2.6s-4.9-0.8-7.5-0.8c-2.3,0-4.6,0.2-6.9,0.5
		c-2.3,0.4-4.5,1-6.4,1.9s-3.5,2.1-4.7,3.6s-1.8,3.5-1.8,5.9c0,2.6,0.9,4.8,2.8,6.6c1.9,1.7,4.2,3.2,7.1,4.3s6.1,2.1,9.7,2.9
		c3.6,0.8,7.2,1.6,10.8,2.4c3.8,0.8,7.6,1.9,11.2,3.1c3.7,1.2,6.9,2.8,9.7,4.8c2.8,2,5.1,4.5,6.8,7.5c1.7,3,2.6,6.7,2.6,11.2
		c0,5.6-1.2,10.3-3.5,14s-5.4,6.7-9.2,9c-3.8,2.3-8,3.9-12.8,4.8c-4.7,0.9-9.4,1.4-14.1,1.4c-5.2,0-10.1-0.5-14.8-1.6
		c-4.7-1.1-8.8-2.8-12.4-5.3s-6.5-5.7-8.6-9.7c-2.2-4-3.4-8.9-3.6-14.7h15.3C398.3,794.1,399,796.9,400.5,799.3z"/>
	<path d="M475.4,710.3v-18.7h15.3v18.7H475.4z M490.7,727v93.1h-15.3V727H490.7z"/>
	<path d="M507.9,754.5c1.9-5.9,4.8-11.1,8.6-15.5s8.6-7.8,14.2-10.4c5.6-2.5,12.1-3.8,19.4-3.8c7.4,0,13.9,1.3,19.5,3.8
		s10.3,6,14.1,10.4s6.7,9.5,8.6,15.5c1.9,5.9,2.9,12.3,2.9,19.2c0,6.8-1,13.2-2.9,19.1c-1.9,5.9-4.8,11-8.6,15.4s-8.5,7.8-14.1,10.3
		s-12.1,3.7-19.5,3.7c-7.3,0-13.8-1.2-19.4-3.7c-5.6-2.5-10.4-5.9-14.2-10.3c-3.8-4.4-6.7-9.5-8.6-15.4s-2.9-12.2-2.9-19.1
		C505.1,766.8,506,760.4,507.9,754.5z M523.5,788.7c1.5,4.4,3.6,8,6.2,11c2.6,2.9,5.7,5.2,9.3,6.8c3.5,1.6,7.3,2.3,11.2,2.3
		s7.7-0.8,11.2-2.3c3.5-1.6,6.6-3.8,9.3-6.8c2.6-2.9,4.7-6.6,6.2-11s2.2-9.4,2.2-15s-0.8-10.6-2.2-15c-1.5-4.4-3.6-8.1-6.2-11.1
		c-2.6-3-5.7-5.3-9.3-6.8c-3.5-1.6-7.3-2.3-11.2-2.3s-7.7,0.8-11.2,2.3c-3.5,1.6-6.6,3.8-9.3,6.8c-2.6,3-4.7,6.7-6.2,11.1
		c-1.5,4.4-2.2,9.4-2.2,15S522,784.3,523.5,788.7z"/>
	<path d="M623.5,727v14.8h0.4c6.4-11.3,16.4-16.9,30.2-16.9c6.1,0,11.2,0.8,15.3,2.5s7.4,4,9.9,7s4.3,6.6,5.3,10.7
		c1,4.1,1.5,8.7,1.5,13.8v61.2h-15.3v-63c0-5.8-1.7-10.3-5-13.7c-3.4-3.4-8-5-13.9-5c-4.7,0-8.7,0.7-12.1,2.2
		c-3.4,1.4-6.3,3.5-8.5,6.1c-2.3,2.6-4,5.7-5.1,9.3c-1.1,3.5-1.7,7.4-1.7,11.6v52.6h-15.3V727H623.5z"/>
	<path d="M716.4,799.3c1.4,2.3,3.3,4.2,5.7,5.6c2.3,1.4,5,2.4,7.9,3s6,0.9,9.1,0.9c2.4,0,4.9-0.2,7.6-0.5c2.6-0.4,5.1-1,7.3-2
		s4-2.4,5.5-4.2c1.4-1.9,2.2-4.2,2.2-7.1c0-4-1.5-7-4.5-9s-6.8-3.7-11.2-5c-4.5-1.3-9.4-2.4-14.7-3.4s-10.2-2.5-14.7-4.3
		c-4.5-1.9-8.3-4.5-11.2-7.8c-3-3.4-4.5-8-4.5-14c0-4.7,1-8.7,3.1-12.1c2.1-3.4,4.8-6.1,8.1-8.2c3.3-2.1,7-3.7,11.2-4.7
		c4.1-1,8.2-1.5,12.3-1.5c5.3,0,10.1,0.5,14.6,1.3c4.4,0.9,8.4,2.5,11.8,4.7c3.4,2.2,6.1,5.2,8.2,9c2,3.8,3.2,8.5,3.6,14.1h-15.3
		c-0.2-3-1-5.5-2.3-7.5s-3-3.6-5-4.8s-4.3-2.1-6.8-2.6s-4.9-0.8-7.5-0.8c-2.3,0-4.6,0.2-6.9,0.5c-2.3,0.4-4.5,1-6.4,1.9
		s-3.5,2.1-4.7,3.6s-1.8,3.5-1.8,5.9c0,2.6,0.9,4.8,2.8,6.6c1.9,1.7,4.2,3.2,7.1,4.3c2.9,1.1,6.1,2.1,9.7,2.9
		c3.6,0.8,7.2,1.6,10.8,2.4c3.8,0.8,7.6,1.9,11.2,3.1c3.7,1.2,6.9,2.8,9.7,4.8s5.1,4.5,6.8,7.5s2.6,6.7,2.6,11.2
		c0,5.6-1.2,10.3-3.5,14s-5.4,6.7-9.2,9s-8,3.9-12.8,4.8c-4.7,0.9-9.4,1.4-14.1,1.4c-5.2,0-10.1-0.5-14.8-1.6s-8.8-2.8-12.4-5.3
		c-3.6-2.5-6.5-5.7-8.6-9.7c-2.2-4-3.4-8.9-3.6-14.7H714C714.2,794.1,714.9,796.9,716.4,799.3z"/>
</g>
<line class="st0" x1="7.5" y1="0" x2="7.5" y2="821"/>
<g>
	<path d="M204.7,40.5c-1.5,3-3,4.5-3,6s3,3,3,6c1.5-3,3-4.5,3-6S204.7,42,204.7,40.5"/>
	<path d="M240.7,40.5c1.5,3,3,4.5,3,6s-3,3-3,6c-1.5-3-3-4.5-3-6S240.7,42,240.7,40.5"/>
	<path d="M183.7,39c1.5,0,3-1.5,3-3s-1.5-3-3-3s-3,1.5-3,3S182.2,39,183.7,39"/>
	<path d="M185.2,42c0-1.5-1.5-3-3-3s-3,1.5-3,3c1.5,1.5,3,3,4.5,3C183.7,45,185.2,43.5,185.2,42"/>
	<path d="M186.7,48c0-1.5-1.5-3-3-3s-3,1.5-3,3s1.5,3,3,3S186.7,49.5,186.7,48"/>
	<path d="M197.2,27c1.5,0,3-1.5,3-3s-1.5-3-3-3c-1.5,1.5-1.5,3-1.5,4.5C195.7,25.5,195.7,27,197.2,27"/>
	<path d="M191.2,28.5c1.5,0,3-1.5,3-3s-1.5-3-3-3s-3,1.5-3,3C188.2,28.5,189.7,28.5,191.2,28.5"/>
	<path d="M186.7,33c1.5,0,3-1.5,3-3s-1.5-3-3-3s-3,1.5-3,3C183.7,33,185.2,33,186.7,33"/>
	<path d="M204.7,28.5c1.5,0,3-1.5,3-3s-1.5-3-3-3s-3,1.5-3,3S203.2,28.5,204.7,28.5"/>
	<path d="M210.7,30c1.5,0,3-1.5,3-3s-1.5-3-3-3s-3,1.5-3,3S209.2,30,210.7,30"/>
	<path d="M215.2,33c1.5,0,3-1.5,3-3s-1.5-3-3-3s-3,1.5-3,3C213.7,31.5,215.2,33,215.2,33"/>
	<path d="M260.2,36c0,1.5,1.5,3,3,3s3-1.5,3-3s-1.5-3-3-3C261.7,34.5,260.2,36,260.2,36"/>
	<path d="M263.2,40.5c-1.5,0-3,1.5-3,3s1.5,3,3,3s3-1.5,3-3S264.7,40.5,263.2,40.5"/>
	<path d="M261.7,46.5c-1.5,0-3,1.5-3,3s1.5,3,3,3s3-1.5,3-3C264.7,46.5,263.2,46.5,261.7,46.5"/>
	<path d="M248.2,27c1.5,0,3-1.5,3-3s-1.5-3-3-3s-3,1.5-3,3C246.7,25.5,246.7,27,248.2,27"/>
	<path d="M254.2,28.5c1.5,0,3-1.5,3-3s-1.5-3-3-3s-3,1.5-3,3C252.7,28.5,254.2,28.5,254.2,28.5"/>
	<path d="M260.2,33c1.5,0,3-1.5,3-3s-1.5-3-3-3s-3,1.5-3,3C257.2,33,258.7,33,260.2,33"/>
	<path d="M242.2,28.5c1.5,0,3-1.5,3-3s-1.5-3-3-3s-3,1.5-3,3S240.7,28.5,242.2,28.5"/>
	<path d="M236.2,30c1.5,0,3-1.5,3-3s-1.5-3-3-3s-3,1.5-3,3S234.7,30,236.2,30"/>
	<path d="M227.2,30c0,1.5,1.5,3,3,3s3-1.5,3-3s-1.5-3-3-3S227.2,28.5,227.2,30"/>
	<path d="M218.2,43.5h3V33c-1.5,0-1.5,0-3-1.5V43.5z"/>
	<path d="M227.2,31.5c-1.5,0-1.5,0-3,1.5v10.5h3V31.5z"/>
	<path d="M221.2,19.5v-6c-3,0-6,3-6,6H221.2z"/>
	<path d="M224.2,19.5h6c0-3-3-6-6-6V19.5z"/>
	<path d="M215.2,22.5c1.5,4.5,4.5,7.5,7.5,7.5s7.5-3,7.5-6h-15V22.5z"/>
	<path d="M227.2,13.5c-1.5-1.5-3-3-3-6c1.5,0,4.5,1.5,6,3V3c-1.5,1.5-3,3-6,3c0-1.5,1.5-4.5,3-6h-7.5c1.5,1.5,3,4.5,3,6
		c-1.5,0-4.5-1.5-6-3v9c1.5-1.5,3-3,6-3c0,1.5-1.5,4.5-3,6h7.5V13.5z"/>
	<path d="M227.2,190.5c-1.5,0-3-1.5-3-3s1.5-3,3-3s3,1.5,3,3S228.7,190.5,227.2,190.5 M213.7,186c-1.5,0-3-1.5-3-3s1.5-3,3-3
		s3,1.5,3,3S215.2,186,213.7,186 M207.7,171L207.7,171c-3-1.5-3-1.5-4.5,0l-1.5,1.5l-1.5,1.5l0,0c1.5,1.5,1.5,3,1.5,3s0,0-1.5,0
		s-1.5,0-3-1.5l0,0l0,0l0,0l0,0c-1.5,4.5-1.5,4.5-1.5,6l0,0c0,1.5,1.5,1.5,1.5,1.5l0,0c0,0,1.5,1.5,3,1.5c-1.5,1.5-3,1.5-4.5,0
		s-3-3-3-4.5s1.5-4.5,3-6l0,0l0,0c0-1.5-1.5-1.5-1.5-1.5c1.5,0,1.5,0,3,0l0,0l0,0c1.5-1.5,4.5-4.5,7.5-4.5
		C206.2,168,207.7,168,207.7,171C209.2,169.5,209.2,171,207.7,171C209.2,171,209.2,171,207.7,171 M236.2,183c-7.5-1.5-16.5-6-25.5-9
		l0,0c0-1.5,0-3-1.5-4.5s-3-3-4.5-3s-1.5,0-3,0c-1.5-1.5-3-3-3-3c-3-4.5-6-9-7.5-13.5c-1.5-3-1.5-6-1.5-9c0,3-3,6-7.5,6v-1.5
		c-1.5,1.5-3,3-7.5,1.5c0,3,1.5,7.5,3,10.5c3,7.5,6,13.5,10.5,18c1.5,1.5,3,3,4.5,4.5c0,0,0,0,0,1.5s1.5,4.5,4.5,6
		c1.5,1.5,4.5,0,6,0c4.5,1.5,9,4.5,13.5,6c6,1.5,12,3,16.5,3s9-1.5,13.5-4.5c1.5-1.5,4.5-3,4.5-4.5l0,0
		C246.7,184.5,240.7,183,236.2,183"/>
	<path d="M234.7,214.5c0-1.5-1.5-1.5-1.5-1.5c-3,0-1.5,9-6,9c-1.5,0-3-1.5-3-1.5c0-1.5,1.5-1.5,1.5-3s-1.5-1.5-1.5-1.5
		c-1.5,0-1.5,0-1.5,1.5s1.5,1.5,1.5,3s-1.5,1.5-3,1.5c-4.5,0-3-9-6-9c0,0-1.5,0-1.5,1.5c0-1.5-1.5-3-1.5-3c0-1.5,1.5-3,3-3
		c4.5,0,3,6,6,6c1.5,0,1.5,0,1.5-1.5s-3-3-3-6s1.5-4.5,4.5-6c3,1.5,4.5,4.5,4.5,6c0,3-3,4.5-3,6s0,1.5,1.5,1.5s1.5-6,6-6
		c3,0,3,1.5,3,3C234.7,211.5,234.7,213,234.7,214.5 M222.7,225c-1.5,0-1.5-1.5-1.5-1.5c0-1.5,1.5-1.5,1.5-1.5c1.5,0,1.5,1.5,1.5,1.5
		C225.7,225,224.2,225,222.7,225 M231.7,205.5h-1.5v-9c-4.5,0-9-1.5-13.5-1.5v12h-1.5c-3,0-6,3-6,6s1.5,4.5,3,6c0-1.5,1.5-3,1.5-3
		c1.5,0,1.5,7.5,6,9v1.5c0,1.5,1.5,3,3,3s3-1.5,3-3V225c4.5,0,4.5-9,6-9s1.5,1.5,1.5,3c1.5-1.5,3-3,3-6
		C236.2,208.5,234.7,205.5,231.7,205.5"/>
	<path d="M341.2,216C341.2,216,339.7,216,341.2,216c-12,3-25.5-6-39-15c-10.5-7.5-21-13.5-30-13.5c-3,0-6,0-9,1.5s-6,4.5-7.5,7.5
		s-3,6-4.5,7.5c-1.5,3-3,4.5-3,6s1.5,3,3,4.5s3,3,6,4.5c0,0,1.5,0,1.5,1.5c1.5,1.5,3,1.5,3,3c-4.5,1.5-10.5,3-16.5,4.5
		c-7.5,1.5-15,1.5-22.5,1.5c-9,0-16.5,0-22.5-1.5s-12-3-16.5-4.5c0-1.5,1.5-3,4.5-3c0,0,1.5,0,1.5-1.5c1.5-1.5,4.5-3,6-3
		c1.5-1.5,3-3,3-4.5s-1.5-4.5-3-6s-3-4.5-4.5-7.5s-4.5-6-7.5-7.5s-6-1.5-9-1.5c-9,0-19.5,7.5-30,13.5c-13.5,9-27,18-37.5,15h-1.5
		v1.5c3,1.5,6,3,9,6c4.5,3,7.5,6,12,6s7.5-1.5,13.5-4.5c4.5-3,9-6,13.5-9c9-6,18-12,25.5-12c-1.5,1.5-1.5,1.5-3,3
		c-3,1.5-4.5,4.5-4.5,7.5s1.5,4.5,3,9c0,1.5,1.5,1.5,1.5,3c1.5,1.5,1.5,3,1.5,6c0,1.5,0,1.5,1.5,3c0,1.5,1.5,6,7.5,9
		c7.5,3,19.5,6,36,6s30-1.5,36-6c6-3,7.5-7.5,7.5-9s0-3,1.5-3c0-3,1.5-4.5,1.5-6s1.5-3,1.5-4.5c1.5-3,3-4.5,3-7.5c0-4.5-3-6-4.5-9
		c-1.5,0-1.5-1.5-3-3c9,0,18,6,25.5,12c4.5,3,9,6,13.5,9s9,4.5,13.5,4.5s7.5-3,12-6C333.7,222,336.7,219,341.2,216
		C341.2,217.5,341.2,217.5,341.2,216"/>
	<path d="M224.2,132V91.5c4.5,0,9,1.5,12,3c4.5,1.5,7.5,4.5,12,9c3,4.5,6,9,7.5,13.5c1.5,4.5,3,10.5,3,15H224.2z M222.7,73.5
		c-12,0-19.5,3-24,6c-3,0-3-1.5-3-4.5c0-6,18-7.5,28.5-7.5l0,0c9,0,28.5,0,28.5,7.5c0,1.5-1.5,3-4.5,4.5
		C242.2,78,234.7,73.5,222.7,73.5 M222.7,132h-34.5c0-6,1.5-10.5,3-15s4.5-9,7.5-13.5s7.5-7.5,12-9s9-3,13.5-3L222.7,132L222.7,132z
		 M275.2,129c-1.5-1.5-3-3-4.5-4.5c-1.5-3-6-13.5-7.5-15c0-1.5-1.5-1.5-1.5-3s0-1.5,1.5-3c0,0,1.5-1.5,1.5-3c0,0,0-1.5,1.5-1.5
		c-1.5-3-4.5-6-6-9c-3-3-6-6-10.5-9c1.5-1.5,4.5-3,4.5-6c0-1.5-1.5-3-1.5-4.5c1.5-7.5,6-15,9-19.5l-7.5-3c1.5,4.5,1.5,7.5,1.5,9
		c-1.5-1.5-3-3-4.5-6c0,1.5-1.5,6-3,7.5c1.5-1.5,3-1.5,6,0c-1.5,1.5-4.5,4.5-9,3c-1.5,0-4.5-1.5-4.5-3s1.5-3,3-3s1.5,3,1.5,3
		c1.5-1.5,4.5-7.5,1.5-7.5s-4.5,3-6,6c0-3-1.5-6-4.5-6s-1.5,6-1.5,7.5c0-1.5,1.5-3,3-3s1.5,0,1.5,3c0,1.5-3,1.5-6,1.5s-7.5-1.5-9-6
		c1.5,0,4.5,1.5,6,3c0-3,0-6,0-9c-1.5,3-4.5,3-6,3c0-3,3-4.5,4.5-6h-12c3,1.5,4.5,4.5,4.5,6c-1.5,0-4.5-1.5-6-3c0,3,0,6,0,9
		c1.5-1.5,4.5-3,6-3c0,6-4.5,6-7.5,6s-6,0-6-3c0-1.5,1.5-3,1.5-3c1.5,1.5,1.5,1.5,1.5,4.5c1.5-1.5,1.5-7.5-1.5-7.5s-4.5,3-4.5,6
		c-1.5-3-3-6-6-6c-3,1.5-1.5,6,1.5,7.5c0-1.5,0-3,1.5-3s3,1.5,3,3s-3,3-4.5,4.5c-4.5,0-7.5-3-9-4.5c1.5-1.5,3,0,6,0
		c-1.5-1.5-1.5-4.5-3-7.5c0,3-1.5,4.5-4.5,6c0-1.5,0-4.5,1.5-7.5l-7.5,3c3,3,7.5,12,9,19.5c-1.5,1.5-1.5,3-1.5,4.5
		c0,3,1.5,4.5,4.5,6c-4.5,3-7.5,6-10.5,9c-4.5,6-9,12-10.5,18c1.5,1.5,6,6,6,7.5c1.5,1.5,3,4.5,3,6c0,3,1.5,4.5,3,6
		c0,0,1.5,3,1.5,4.5h34.5V171c-1.5,0-3,0-4.5,1.5c4.5,1.5,7.5,3,12,4.5c0-3,1.5-4.5,1.5-6c0,0-4.5,0-7.5,0v-37.5h34.5
		c0,4.5-1.5,10.5-3,15s-4.5,9-7.5,13.5s-7.5,7.5-12,9c0,0,0,1.5-1.5,1.5c0,0-1.5,1.5-1.5,3s0,1.5-1.5,3c1.5,0,3,0,4.5,1.5
		c12,3,15,1.5,15,1.5l0,0c3-1.5,4.5-4.5,7.5-7.5c4.5-6,9-12,10.5-18c3-7.5,4.5-15,4.5-22.5C275.2,132,275.2,130.5,275.2,129"/>
	<path d="M243.7,108L243.7,108C243.7,109.5,243.7,109.5,243.7,108c0,1.5,0,3-1.5,3h1.5v1.5c0,0,0,0,1.5,0c3,4.5,4.5,9,4.5,13.5
		c0,0,0,0-1.5,0v1.5h-9V126c0,0,0,0-1.5,0v-1.5v1.5h-1.5c0,0,0,0,0,1.5h-7.5V126h-1.5v-12h1.5v-1.5h1.5h-1.5V111c0,0,0,0-1.5,0V99
		c0,0,0,0,1.5,0v-1.5c3,0,4.5,1.5,6,3C239.2,103.5,242.2,105,243.7,108 M252.7,126C254.2,126,254.2,126,252.7,126
		c-1.5-4.5-3-10.5-7.5-16.5l0,0l1.5-1.5c-1.5,0-1.5,0-1.5,1.5c0,0,0,0-1.5-1.5c-1.5-3-3-6-6-7.5s-6-3-7.5-3c0,0,1.5-1.5,1.5,0
		c0-1.5-1.5-1.5-1.5-1.5s0,0,0,1.5c0,0-1.5,0-1.5-1.5v1.5c0,0,0,0-1.5,0c0,0,0,1.5,1.5,1.5v-1.5V111h-1.5c0,0,1.5,1.5,1.5,0v15
		c0,0-1.5-1.5,0-1.5c-1.5,0-1.5,1.5-1.5,1.5s0,0,1.5,0v1.5h1.5v1.5c0,0,1.5,0,1.5-1.5h-1.5h10.5v1.5c0,0,1.5-1.5,0-1.5h10.5
		c0,0-1.5,1.5-1.5,0c0,1.5,1.5,1.5,1.5,1.5s0,0,0-1.5h1.5V126C254.2,127.5,254.2,127.5,252.7,126C254.2,126,254.2,126,252.7,126"/>
	<path d="M246.7,121.5C248.2,121.5,248.2,121.5,246.7,121.5C248.2,121.5,246.7,121.5,246.7,121.5c0-1.5,0-1.5,0-1.5s0,0-1.5,0
		c0,0-3,0-3-1.5c0,0,0,0,1.5,1.5l0,0l0,0c0,0,0,0,1.5,0l0,0l0,0c0,0,1.5,0,1.5-1.5s-1.5-1.5-1.5-3c0,0-1.5,0-1.5-1.5s0-1.5-1.5-3
		v-1.5c0,1.5-1.5,3,0,4.5s3,3,3,3l0,0l0,0l0,0l0,0c0,0,0,0-1.5,0c-1.5-1.5-1.5-3-3-3c-1.5-1.5,0-3,0-4.5c1.5-1.5,0-3-1.5-4.5
		c0,0,0,0,0-1.5l0,0l0,0l0,0l0,0l0,0c0,0,0,0-1.5,0l0,0l0,0l0,0l0,0l0,0h1.5l0,0c0,0,0,0-1.5,0l0,0c0,0,0,0,1.5,0h1.5
		c0,1.5-1.5,1.5-1.5,3c0,0,0,0-1.5-1.5c0,0,0-1.5-1.5-1.5c0,0,0,0-1.5-1.5c0,0,0,0,0-1.5V99l0,0l0,0l0,0l0,0l0,0l0,0l0,0l0,0
		c0,0,0,0,0-1.5l0,0l0,0l0,0l0,0l0,0l0,0l0,0l0,0l0,0h-1.5l0,0l0,0l0,0l0,0l0,0l0,0l0,0l0,0l0,0c0,0,0,0,0,1.5h-1.5
		c0,1.5,0,1.5,1.5,1.5v1.5l0,0l0,0l0,0l0,0l0,0c0,0,1.5,1.5,3,3l-1.5,1.5c0,0-1.5,1.5-1.5,0l0,0l0,0l0,0c0,0,0,0-1.5,0l0,0l0,0
		c0,0,0,0,1.5,0l0,0l0,0l0,0l0,0l0,0c0,0,0,0,0,1.5l0,0l0,0c0,0,0,0,1.5,0l0,0v1.5l0,0l0,0c0,0,0,0,1.5,0l0,0l0,0c0,0,0,0,0-1.5l0,0
		l0,0l0,0h1.5c0,0,0,0,1.5-1.5h1.5c0,0,0,0,0-1.5c0,1.5,3,1.5,3,3c-1.5,0-1.5,0-3,0l-1.5,1.5c0,0,0,1.5,1.5,3c-1.5,0-1.5,0-1.5,0
		l0,0c0,0,0-1.5-1.5-1.5l0,0l0,0l0,0l0,0l0,0l0,0l0,0l0,0h-1.5l0,0l0,0l0,0l0,0l0,0l0,0l0,0l0,0l0,0c0,0,0,0,1.5,0l0,0l0,0l0,0l0,0
		l0,0l0,0l0,0l0,0l0,0c0,0,0,0,1.5,0l0,0c0,0,0,0,1.5,0l0,0c0,0,0,0,0-1.5s1.5-1.5,1.5-1.5s1.5,3,3,3s1.5,0,1.5,0
		C245.2,121.5,245.2,121.5,246.7,121.5C245.2,121.5,245.2,121.5,246.7,121.5c-1.5,1.5-1.5,1.5-3,1.5l0,0l0,0l0,0l0,0c0,0,0,0,1.5,0
		l0,0l0,0l0,0l0,0l0,0l0,0l0,0l0,0l0,0l0,0c0,0,0,0,1.5,0l0,0l0,0C246.7,123,246.7,123,246.7,121.5C246.7,123,246.7,123,246.7,121.5
		C246.7,123,246.7,123,246.7,121.5C248.2,123,248.2,121.5,246.7,121.5C248.2,121.5,246.7,121.5,246.7,121.5L246.7,121.5z"/>
	<path d="M215.2,141L215.2,141c-1.5,0-1.5,0-1.5,1.5c0,0,0,1.5,1.5,1.5l0,0l0,0c0,1.5,0,3,0,4.5l-4.5-7.5
		C213.7,139.5,215.2,139.5,215.2,141C215.2,138,215.2,139.5,215.2,141 M213.7,153l-7.5-12c1.5,0,1.5,0,3-1.5l6,9
		C213.7,151.5,213.7,153,213.7,153 M212.2,159l-12-16.5c0,0,0,0,1.5,0h1.5l9,13.5C213.7,156,213.7,157.5,212.2,159 M200.2,142.5
		l12,18C206.2,157.5,198.7,151.5,200.2,142.5 M218.2,141L218.2,141L218.2,141c0-3-1.5-4.5-4.5-4.5c-1.5,0-6,3-10.5,3
		c-3,0-4.5-1.5-6-1.5v1.5l0,0c0,0,0-1.5-1.5-1.5c0,0-1.5,0-1.5,1.5c0,0,0,1.5,1.5,1.5h1.5v1.5l0,0c-1.5,7.5,4.5,18,15,21
		c1.5,0,3,0,3,1.5s0,1.5-1.5,1.5c0,0-1.5,0-1.5-1.5c0,0,1.5,0,1.5-1.5c0,0,0-1.5-1.5-1.5c0,0-1.5,0-1.5,1.5s1.5,3,3,3s3,0,3-3h1.5
		V162l0,0v-18l0,0C219.7,142.5,219.7,142.5,218.2,141C219.7,141,219.7,141,218.2,141"/>
	<path d="M209.2,102L209.2,102L209.2,102L209.2,102L209.2,102C209.2,100.5,209.2,102,209.2,102C209.2,100.5,209.2,100.5,209.2,102
		C209.2,100.5,209.2,100.5,209.2,102L209.2,102C210.7,102,210.7,102,209.2,102C210.7,102,210.7,102,209.2,102
		C210.7,102,210.7,102,209.2,102C210.7,102,210.7,102,209.2,102C210.7,102,210.7,102,209.2,102L209.2,102
		C210.7,102,210.7,102,209.2,102C209.2,102,209.2,103.5,209.2,102L209.2,102 M210.7,100.5C210.7,100.5,209.2,100.5,210.7,100.5
		C209.2,100.5,209.2,100.5,210.7,100.5C209.2,100.5,210.7,100.5,210.7,100.5 M210.7,100.5L210.7,100.5
		C210.7,100.5,210.7,102,210.7,100.5C210.7,102,210.7,100.5,210.7,100.5 M209.2,100.5L209.2,100.5L209.2,100.5 M216.7,103.5
		c3,0,3-1.5,3-1.5c0-3-7.5-1.5-7.5-3c0,0,0,0,0-1.5l0,0c3,0,3-3,6-3c-3,0-3,1.5-4.5,1.5l1.5-1.5c0,1.5-1.5,1.5-3,1.5l0,0
		c0,0,0,0,0,1.5c0,3,7.5,1.5,7.5,3C219.7,103.5,218.2,103.5,216.7,103.5s-3-1.5-4.5-1.5c0,0,1.5-1.5,0-1.5l0,0l0,0l0,0l0,0l0,0l0,0
		l0,0l0,0l0,0l0,0l0,0l0,0v1.5l0,0v1.5l0,0c0,0,0,0,0-1.5c0,0,0,0,0-1.5l0,0l0,0l0,0l0,0l0,0l0,0l0,0l0,0l0,0l0,0l0,0l0,0l0,0l0,0
		l0,0l0,0l0,0l0,0c0,0,0,0-1.5,0l0,0l0,0l0,0l0,0l0,0l0,0l0,0l0,0l0,0l0,0l0,0h-1.5c0,0,0,1.5,1.5,1.5l0,0l0,0l0,0l0,0l0,0l0,0
		c0,0,0,0,0,1.5h-1.5h-1.5h-1.5l0,0l0,0l0,0l0,0l0,0l0,0l0,0l0,0l0,0l0,0l0,0l0,0l0,0l0,0l0,0c0,0,0,0,1.5,0l0,0l0,0l0,0l0,0l0,0
		l0,0l0,0l0,0l0,0l0,0l0,0l0,0l0,0l0,0l0,0l0,0l0,0l0,0l0,0l0,0l0,0l0,0l0,0c0-1.5,0,0,1.5-1.5l0,0l0,0l0,0l0,0l0,0l0,0h1.5
		c1.5,0-1.5-1.5,1.5-1.5c0,0,0,0,1.5,0v1.5l0,0l0,0l0,0c0,0,0-1.5-1.5,0l0,0l0,0l0,0l0,0l0,0l0,0l0,0c0,0-1.5,0,0,0l0,0l0,0l0,0l0,0
		l0,0l0,0l0,0l0,0l0,0l0,0l0,0l0,0l0,0l0,0l0,0l0,0l0,0l0,0l0,0h1.5v-1.5C215.2,106.5,215.2,105,216.7,103.5
		C215.2,105,216.7,105,216.7,103.5C216.7,105,216.7,105,216.7,103.5c0,1.5,1.5,1.5,1.5,1.5l0,0c0,0,0,0,0,1.5c0,0,0,0-1.5,0l0,0l0,0
		l0,0l0,0l0,0l0,0l0,0l0,0l0,0l0,0l0,0l0,0l0,0l0,0l0,0l0,0l0,0l0,0l0,0l0,0l0,0l0,0l0,0l0,0l0,0l0,0l0,0l0,0l0,0
		C218.2,105,218.2,103.5,216.7,103.5L216.7,103.5"/>
	<path d="M204.7,117L204.7,117L204.7,117 M203.2,112.5L203.2,112.5L203.2,112.5L203.2,112.5L203.2,112.5
		C203.2,111,203.2,112.5,203.2,112.5C203.2,111,203.2,111,203.2,112.5C203.2,111,203.2,111,203.2,112.5L203.2,112.5
		C204.7,112.5,204.7,112.5,203.2,112.5C204.7,112.5,204.7,112.5,203.2,112.5C204.7,112.5,204.7,112.5,203.2,112.5
		C204.7,112.5,204.7,112.5,203.2,112.5C204.7,112.5,204.7,112.5,203.2,112.5L203.2,112.5C204.7,112.5,204.7,112.5,203.2,112.5
		C203.2,114,203.2,114,203.2,112.5L203.2,112.5 M204.7,111C204.7,111,203.2,111,204.7,111C203.2,111,203.2,111,204.7,111
		C203.2,111,204.7,111,204.7,111 M204.7,111L204.7,111C204.7,111,204.7,112.5,204.7,111C204.7,112.5,204.7,111,204.7,111 M200.2,114
		L200.2,114L200.2,114 M219.7,112.5c0,0-1.5-1.5-3-1.5c-3,0-7.5,1.5-7.5,0c0,0,1.5,0,3,0l0,0c3,1.5,7.5,0,9,0c-1.5-1.5-4.5,0-6,0
		c1.5,0,1.5,0,1.5-1.5c-1.5,0-3,0-4.5,0l0,0c-1.5,0-3,0-3,1.5C209.2,114,215.2,112.5,219.7,112.5
		C218.2,112.5,219.7,112.5,219.7,112.5c-1.5,0-3,0-4.5,0s-7.5-1.5-10.5,0c0,0,1.5-1.5,0-1.5l0,0l0,0l0,0l0,0l0,0l0,0l0,0l0,0l0,0
		c0,0,0,0,0,1.5c0,0,0,1.5-1.5,0l0,0v1.5l0,0c0,0,0,0,0,1.5l0,0l0,0l0,0l0,0l0,0c0,0,0,0-1.5-1.5c0,0,0,0,0-1.5V111l0,0l0,0l0,0l0,0
		l0,0l0,0l0,0l0,0l0,0l0,0l0,0l0,0l0,0l0,0l0,0l0,0l0,0l0,0h-1.5l0,0l0,0l0,0l0,0l0,0l0,0l0,0l0,0l0,0c0,0,0,0,0,1.5l0,0h-1.5
		c0,1.5,0,1.5,1.5,1.5l0,0l0,0l0,0l0,0l0,0l0,0c0,0,0,0,1.5,1.5h1.5v1.5h-1.5h-1.5l0,0l0,0l0,0c0,0,0,0-1.5,0l0,0l0,0l0,0l0,0l0,0
		l0,0l0,0l0,0c0,0-1.5,0,0,0l0,0l0,0c0,0,0,0,1.5,0l0,0c0,0,0,0,0,1.5l0,0l0,0l0,0l0,0l0,0l0,0l0,0l0,0l0,0l0,0l0,0l0,0l0,0l0,0l0,0
		l0,0c0,0,0,0,1.5,0l0,0l0,0l0,0l0,0c0-1.5,0,0,1.5-1.5l0,0l0,0l1.5-1.5l0,0c1.5,0,0-1.5,4.5-1.5c0,0,0,0,1.5,0v1.5c0,0,0,0,1.5,0
		l0,0l0,0c0,0,0-1.5-1.5-1.5l0,0l0,0l0,0l0,0l0,0l0,0l0,0h-1.5l0,0l0,0l0,0l0,0l0,0l0,0l0,0l0,0l0,0c0,0,0,0,1.5,0l0,0l0,0l0,0l0,0
		l0,0l0,0l0,0l0,0l0,0h1.5v-1.5c0,0,0,0,0-1.5h1.5c1.5,0,1.5,0,1.5,0h1.5l0,0c0,0,0,0,0,1.5c0,0,0,0-1.5,0l0,0l0,0l0,0l0,0l0,0l0,0
		l0,0l0,0l0,0l0,0l0,0l0,0l0,0l0,0l0,0l0,0l0,0l0,0c0,0,0,0,0-1.5l0,0l0,0l0,0l0,0l0,0l0,0l0,0l0,0l0,0l0,0c0,0-1.5,0-3,0
		C218.2,114,219.7,114,219.7,112.5"/>
	<path d="M200.2,123L200.2,123C200.2,123,201.7,123,200.2,123C201.7,123,200.2,123,200.2,123S201.7,123,200.2,123L200.2,123
		L200.2,123C200.2,121.5,200.2,121.5,200.2,123L200.2,123C201.7,123,201.7,123,200.2,123C201.7,123,201.7,123,200.2,123
		C201.7,123,201.7,123,200.2,123C201.7,123,201.7,123,200.2,123C201.7,123,201.7,123,200.2,123C201.7,123,201.7,123,200.2,123
		C201.7,123,201.7,123,200.2,123C201.7,124.5,200.2,124.5,200.2,123C200.2,124.5,200.2,123,200.2,123 M201.7,121.5L201.7,121.5
		C200.2,121.5,200.2,121.5,201.7,121.5C200.2,121.5,201.7,121.5,201.7,121.5 M201.7,121.5C201.7,121.5,203.2,123,201.7,121.5
		C201.7,123,203.2,123,201.7,121.5C201.7,123,201.7,121.5,201.7,121.5 M218.2,124.5c0,0-1.5-1.5-3-1.5c-3,0-9,1.5-9,0s3,0,4.5,0l0,0
		c3,1.5,6-1.5,7.5,0c-1.5-1.5-4.5,0-6,0c1.5,0,3,0,3,0c-1.5,0-4.5,0-4.5,0l0,0c-1.5,0-4.5,0-4.5,1.5c0,3,7.5,1.5,10.5,1.5
		C218.2,123,218.2,123,218.2,124.5c-1.5,0-3,0-4.5,0s-9-1.5-12,0c0,0,1.5-1.5,0-1.5l0,0l0,0l0,0l0,0l0,0l0,0l0,0l0,0l0,0
		c0,0,0,0,0,1.5c0,0,0,0-1.5,0l0,0v1.5l0,0l0,0l0,0l0,0l0,0c0,0,0,0-1.5-1.5c0,0,0,0,0-1.5v-1.5l0,0l0,0l0,0l0,0l0,0l0,0l0,0l0,0
		l0,0l0,0l0,0l0,0l0,0l0,0l0,0l0,0l0,0l0,0h-1.5l0,0l0,0l0,0l0,0l0,0l0,0l0,0l0,0l0,0c0,0,0,0,0,1.5l0,0h-1.5c0,0,0,1.5,1.5,1.5l0,0
		l0,0l0,0l0,0l0,0l0,0c0,0,0,1.5,1.5,1.5l0,0l0,0v1.5h-1.5h-1.5l0,0l0,0l0,0l0,0l0,0l0,0l0,0l0,0l0,0l0,0l0,0l0,0l0,0l0,0l0,0
		c0,0,0,0,1.5,0l0,0c0,0,0,0,0,1.5l0,0l0,0l0,0l0,0l0,0l0,0l0,0l0,0l0,0l0,0l0,0l0,0l0,0l0,0l0,0l0,0c0,0,0,0,1.5,0l0,0l0,0l0,0l0,0
		c0-1.5,1.5,0,1.5-1.5l0,0l0,0c0,0,0,0,1.5,0l0,0h1.5l0,0l0,0l0,0c0,0,0,0,1.5,0c4.5,0,1.5-1.5,6-1.5l0,0v1.5c0,0,0,0,1.5,0l0,0l0,0
		c0,0,0-1.5-1.5,0l0,0l0,0l0,0l0,0l0,0l0,0l0,0c0,0-1.5,0,0,0l0,0l0,0l0,0l0,0l0,0l0,0l0,0l0,0l0,0c0,0,0,0,1.5,0l0,0l0,0l0,0l0,0
		l0,0l0,0l0,0l0,0l0,0h1.5V126c0,0,0,0,0-1.5h1.5C216.7,124.5,216.7,124.5,218.2,124.5L218.2,124.5L218.2,124.5c0,0,0,0,0,1.5
		c0,0,0,0-1.5,0l0,0l0,0l0,0l0,0l0,0l0,0l0,0l0,0l0,0l0,0l0,0l0,0l0,0l0,0l0,0l0,0l0,0l0,0C216.7,126,216.7,126,218.2,124.5
		L218.2,124.5L218.2,124.5L218.2,124.5L218.2,124.5L218.2,124.5L218.2,124.5L218.2,124.5L218.2,124.5
		C218.2,126,218.2,124.5,218.2,124.5c-1.5,1.5-3,1.5-3,1.5C216.7,124.5,218.2,124.5,218.2,124.5"/>
	<path d="M236.2,142.5L236.2,142.5L236.2,142.5 M233.2,136.5L233.2,136.5L233.2,136.5 M233.2,138L233.2,138L233.2,138z M233.2,139.5
		C233.2,139.5,233.2,138,233.2,139.5C234.7,138,234.7,138,233.2,139.5C234.7,138,234.7,138,233.2,139.5
		C234.7,138,234.7,138,233.2,139.5C233.2,138,233.2,138,233.2,139.5C233.2,138,233.2,138,233.2,139.5
		C233.2,138,234.7,138,233.2,139.5L233.2,139.5C234.7,138,234.7,138,233.2,139.5C234.7,138,234.7,138,233.2,139.5
		C234.7,138,234.7,138,233.2,139.5C234.7,138,234.7,138,233.2,139.5C234.7,138,234.7,138,233.2,139.5
		C234.7,138,234.7,138,233.2,139.5C234.7,139.5,234.7,139.5,233.2,139.5C234.7,139.5,234.7,139.5,233.2,139.5L233.2,139.5
		 M234.7,136.5C234.7,138,234.7,138,234.7,136.5C233.2,136.5,233.2,136.5,234.7,136.5C233.2,136.5,234.7,136.5,234.7,136.5
		 M234.7,138C234.7,138,236.2,138,234.7,138C236.2,138,236.2,138,234.7,138L234.7,138 M251.2,141L251.2,141
		C251.2,141,252.7,141,251.2,141L251.2,141L251.2,141c-1.5-1.5-1.5-1.5-3-1.5l0,0c1.5,0,3,0,3-1.5c0,0-1.5-1.5-3-1.5c-3,0-9,1.5-9,0
		s3,0,4.5,0l0,0c3,1.5,6-1.5,7.5-1.5c-3-1.5-4.5,0-6,0c1.5,0,3,0,3,0c-1.5,0-4.5,0-4.5,0l0,0c-1.5,0-4.5,0-4.5,1.5
		c0,3,7.5,1.5,10.5,1.5c1.5,0,3,0,3,0s-1.5,0-3,0s-9-1.5-12,0c0,0,1.5-1.5,0-1.5l0,0l0,0l0,0l0,0l0,0l0,0l0,0l0,0l0,0c0,0,0,0,0,1.5
		c0,0,0,0-1.5,0l0,0v1.5l0,0l0,0l0,0l0,0l0,0c0,0,0,0-1.5-1.5c0,0,0,0,0-1.5c0,0,0,0,0-1.5l0,0l0,0l0,0l0,0l0,0l0,0l0,0l0,0l0,0l0,0
		l0,0l0,0l0,0l0,0l0,0l0,0l0,0l0,0l0,0l0,0l0,0l0,0l0,0l0,0l0,0l0,0l0,0l0,0c0,0,0,0,0,1.5l0,0h-1.5c0,1.5,0,1.5,1.5,1.5l0,0l0,0
		l0,0l0,0l0,0l0,0c0,0,0,1.5,1.5,1.5l0,0l0,0l0,0v1.5h-1.5h-1.5l0,0l0,0l0,0l0,0l0,0l0,0l0,0l0,0l0,0l0,0l0,0l0,0c0,0-1.5,0,0,0l0,0
		l0,0c0,0,0,0,1.5,0l0,0c0,0,0,0,0,1.5l0,0l0,0l0,0l0,0l0,0l0,0l0,0l0,0l0,0l0,0l0,0l0,0l0,0l0,0l0,0l0,0c0,0,0,0,1.5,0l0,0l0,0l0,0
		l0,0c0-1.5,0,0,1.5-1.5l0,0l0,0c0,0,1.5,0,1.5-1.5l0,0c0,0,0,0,1.5,0c4.5,0,1.5-1.5,6-1.5l0,0v1.5c0,0,0,0,1.5,0l0,0l0,0
		c0,0,0-1.5-1.5-1.5l0,0l0,0l0,0l0,0l0,0l0,0l0,0c0,0-1.5,0,0,0l0,0l0,0l0,0l0,0l0,0l0,0l0,0l0,0l0,0c0,0,0,0,1.5,0l0,0l0,0l0,0l0,0
		l0,0l0,0l0,0l0,0l0,0h1.5v-1.5c0,0,0,0,0-1.5h1.5c1.5,0,1.5,0,1.5,0C249.7,141,249.7,141,251.2,141C249.7,141,251.2,141,251.2,141
		C249.7,142.5,251.2,142.5,251.2,141c-1.5,1.5-1.5,1.5-1.5,1.5l0,0l0,0l0,0l0,0l0,0l0,0l0,0l0,0l0,0l0,0l0,0l0,0l0,0l0,0l0,0l0,0
		l0,0l0,0c0,0,0,0,0-1.5C251.2,142.5,251.2,144,251.2,141C251.2,142.5,251.2,142.5,251.2,141C251.2,142.5,251.2,142.5,251.2,141
		C251.2,142.5,251.2,142.5,251.2,141C251.2,142.5,251.2,142.5,251.2,141"/>
	<path d="M234.7,148.5L234.7,148.5C234.7,147,234.7,148.5,234.7,148.5L234.7,148.5 M234.7,148.5L234.7,148.5L234.7,148.5
		L234.7,148.5C233.2,148.5,233.2,148.5,234.7,148.5L234.7,148.5C233.2,150,233.2,150,234.7,148.5C233.2,150,233.2,148.5,234.7,148.5
		C233.2,148.5,233.2,148.5,234.7,148.5C233.2,148.5,233.2,148.5,234.7,148.5C233.2,148.5,233.2,148.5,234.7,148.5
		C233.2,148.5,233.2,148.5,234.7,148.5C233.2,148.5,233.2,148.5,234.7,148.5C233.2,148.5,233.2,148.5,234.7,148.5
		C233.2,148.5,233.2,148.5,234.7,148.5L234.7,148.5L234.7,148.5L234.7,148.5 M234.7,147C234.7,147,233.2,147,234.7,147
		C233.2,147,233.2,147,234.7,147C233.2,147,234.7,147,234.7,147 M240.7,147C240.7,147,242.2,148.5,240.7,147c3,1.5,6-1.5,9,0
		c-1.5-1.5-3,0-6,0c1.5,0,3,0,3,0C245.2,147,242.2,145.5,240.7,147C242.2,147,240.7,147,240.7,147c-1.5,0-3,0-3,0
		c0,1.5,6,1.5,7.5,1.5s1.5,0,1.5,0s-1.5,0-3,0s-6-1.5-9,0c0,0,1.5-1.5,0-1.5l0,0l0,0l0,0l0,0l0,0l0,0l0,0l0,0l0,0c0,0,0,0,0,1.5
		c0,0,0,0-1.5,0l0,0v1.5l0,0c0,0,0,0,0,1.5l0,0l0,0c0,0,0,0-1.5,0c0,0,0,0,0-1.5c0,0,0,0,0-1.5l0,0l0,0l0,0l0,0l0,0l0,0l0,0l0,0l0,0
		l0,0l0,0l0,0l0,0l0,0l0,0l0,0l0,0l0,0l0,0l0,0l0,0l0,0l0,0l0,0l0,0l0,0l0,0l0,0l0,0l0,0h-1.5c0,0,0,1.5,1.5,1.5l0,0l0,0l0,0l0,0
		l0,0l0,0c0,0,0,0,1.5,0l0,0l0,0v1.5h-1.5h-1.5l0,0l0,0l0,0l0,0l0,0l0,0l0,0l0,0l0,0l0,0l0,0l0,0l0,0l0,0l0,0c0,0,0,0,1.5,0l0,0
		c0,0,0,0,0,1.5l0,0l0,0l0,0l0,0l0,0l0,0l0,0l0,0l0,0l0,0l0,0l0,0l0,0l0,0l0,0l0,0l0,0l0,0l0,0l0,0l0,0c0-1.5,1.5,0,1.5-1.5l0,0l0,0
		c0,0,1.5,0,1.5-1.5l0,0l0,0c0,0,0,0,1.5,0s0-1.5,3-1.5l0,0v1.5l0,0l0,0l0,0c0,0,0-1.5-1.5,0l0,0l0,0l0,0l0,0l0,0l0,0l0,0
		c0,0-1.5,0,0,0l0,0l0,0l0,0l0,0l0,0l0,0l0,0l0,0l0,0l0,0l0,0l0,0l0,0l0,0l0,0l0,0l0,0l0,0l0,0h1.5v-1.5l0,0h1.5c1.5,0,1.5,0,1.5,0
		h1.5l0,0c0,0,0,0,0,1.5c0,0,0,0-1.5,0l0,0l0,0l0,0l0,0l0,0l0,0l0,0l0,0l0,0l0,0l0,0l0,0l0,0l0,0l0,0l0,0l0,0l0,0c0,0,0,0,0-1.5l0,0
		l0,0l0,0l0,0l0,0l0,0l0,0l0,0l0,0l0,0c0,0-1.5,0-3,0l0,0c1.5,0,4.5,0,4.5-1.5c0,0,0-1.5-3-1.5c-1.5,0-7.5,1.5-7.5,0
		C239.2,147,240.7,147,240.7,147"/>
	<path d="M231.7,159C233.2,159,233.2,159,231.7,159C233.2,159,233.2,159,231.7,159C233.2,159,233.2,159,231.7,159
		C233.2,159,233.2,159,231.7,159C233.2,159,233.2,159,231.7,159C233.2,159,233.2,159,231.7,159C233.2,157.5,233.2,157.5,231.7,159
		L231.7,159C233.2,159,233.2,159,231.7,159C233.2,159,233.2,159,231.7,159C233.2,159,233.2,159,231.7,159
		C233.2,159,233.2,159,231.7,159C233.2,159,233.2,159,231.7,159C233.2,159,233.2,159,231.7,159C233.2,159,233.2,159,231.7,159
		C233.2,160.5,233.2,160.5,231.7,159L231.7,159 M233.2,157.5L233.2,157.5L233.2,157.5L233.2,157.5 M233.2,157.5
		C233.2,157.5,234.7,157.5,233.2,157.5C234.7,159,234.7,159,233.2,157.5C233.2,159,233.2,157.5,233.2,157.5 M239.2,157.5
		L239.2,157.5c3,1.5,6-1.5,9,0c-1.5-1.5-3,0-6,0c1.5,0,3,0,3,0C243.7,157.5,240.7,156,239.2,157.5L239.2,157.5c-1.5,0-1.5,0-1.5,1.5
		s7.5,0,7.5,1.5c0,0-1.5,1.5-3,1.5s-4.5-1.5-7.5,0l0,0c0,0,1.5-1.5,0-1.5l0,0l0,0l0,0l0,0l0,0l0,0l0,0l0,0l0,0c0,0,0,0,0,1.5l0,0
		l0,0v1.5l0,0v1.5l-1.5-1.5c0,0,0,0,0-1.5c0,0,0,0,0-1.5l0,0l0,0l0,0l0,0l0,0l0,0l0,0l0,0l0,0l0,0l0,0l0,0l0,0l0,0l0,0l0,0l0,0l0,0
		l0,0l0,0l0,0l0,0l0,0l0,0l0,0l0,0l0,0l0,0l0,0l0,0h-1.5c0,0,0,1.5,1.5,1.5l0,0l0,0l0,0l0,0l0,0l0,0c0,0,0,1.5,1.5,1.5
		c0,0,0,1.5,1.5,0l0,0h-1.5c0,0,0,0-1.5,0l0,0l0,0l0,0l0,0l0,0l0,0l0,0l0,0l0,0l0,0l0,0l0,0l0,0l0,0l0,0l0,0l0,0l0,0c0,0,0,0,1.5,0
		l0,0l0,0l0,0l0,0l0,0l0,0l0,0l0,0l0,0l0,0l0,0l0,0l0,0l0,0l0,0l0,0l0,0l0,0l0,0l0,0l0,0l0,0l0,0c0-1.5,0,0,1.5-1.5l0,0l0,0h1.5
		c0,0,0,0,0-1.5l0,0c1.5,0,1.5,0,1.5,0v1.5v1.5l0,0l0,0c0,0,0-1.5-1.5,0l0,0l0,0l0,0l0,0l0,0l0,0l0,0c0,0-1.5,0,0,0l0,0l0,0l0,0l0,0
		l0,0l0,0l0,0l0,0l0,0l0,0l0,0l0,0l0,0l0,0l0,0l0,0l0,0l0,0l0,0l0,0V162v-1.5c0,0,1.5,0,3,0h1.5l0,0l0,0l0,0l0,0l0,0l0,0l0,0l0,0
		l0,0l0,0l0,0l0,0l0,0l0,0l0,0l0,0l0,0l0,0l0,0l0,0l0,0l0,0l0,0l0,0c0,0,0,0,1.5,0l0,0l0,0l0,0l0,0l0,0l0,0l0,0c0,0-1.5,0,0,0l0,0
		c0,0-1.5,0-1.5-1.5l0,0c3,0,4.5,0,4.5-1.5C245.2,157.5,237.7,159,239.2,157.5C237.7,157.5,237.7,157.5,239.2,157.5"/>
	<path d="M120.7,30c0-1.5-1.5-1.5-1.5-1.5c-1.5,0-3,0-3,1.5s1.5,1.5,1.5,1.5C119.2,31.5,120.7,31.5,120.7,30"/>
	<path d="M119.2,25.5c0-1.5-1.5-1.5-1.5-1.5c-1.5,0-1.5,1.5-1.5,1.5c0,1.5,1.5,1.5,1.5,1.5C119.2,27,119.2,27,119.2,25.5"/>
	<path d="M120.7,24c1.5,0,1.5-1.5,1.5-1.5c0-1.5-1.5-1.5-1.5-1.5c-1.5,0-1.5,1.5-1.5,1.5S119.2,24,120.7,24"/>
	<path d="M125.2,22.5c1.5,0,1.5-1.5,1.5-1.5c0-1.5-1.5-1.5-1.5-1.5c-1.5,0-1.5,1.5-1.5,1.5C123.7,22.5,125.2,22.5,125.2,22.5"/>
	<path d="M146.2,19.5c0,0,1.5,0,3,0c0,0,0-1.5,0-3c0,0-1.5,0-3,0C144.7,18,144.7,19.5,146.2,19.5"/>
	<path d="M144.7,16.5c0,0,0-1.5,0-3c0,0-1.5,0-3,0c0,0,0,1.5,0,3C143.2,16.5,144.7,16.5,144.7,16.5"/>
	<path d="M140.2,15c0,0,0-1.5,0-3c0,0-1.5,0-3,0c0,0,0,1.5,0,3C138.7,16.5,140.2,16.5,140.2,15"/>
	<path d="M137.2,18c0,0,0-1.5,0-3c0,0-1.5,0-3,0c0,0,0,1.5,0,3S135.7,19.5,137.2,18"/>
	<path d="M125.2,15l1.5,3l1.5-1.5l0,0c0,1.5,0,3,0,4.5s1.5,3,1.5,3c1.5,0,3-1.5,3-3s0-1.5-1.5-1.5s-1.5-1.5-3-3l0,0h3v-3l-1.5,1.5
		l0,0v-3h-3l1.5,3l0,0H125.2z"/>
	<path d="M146.2,21c0,1.5,1.5,1.5,1.5,3C146.2,24,146.2,22.5,146.2,21v4.5l1.5-1.5c0,3-1.5,4.5-1.5,4.5c-1.5,0-1.5,0-1.5-1.5
		s1.5-1.5,1.5-1.5c0-3-1.5-3-3-1.5c1.5-3,0-4.5-1.5-6c-3,4.5-3,6,0,7.5c-1.5-1.5-3,0-1.5,3c0-1.5,1.5-1.5,1.5,0c0,0-1.5,1.5-3,1.5
		c-3,1.5-3,0-4.5-1.5c0,0,1.5,0,3,0v-3c-1.5,1.5-1.5,1.5-3,1.5c0-1.5,1.5-3,1.5-3l-4.5,1.5c0,0,1.5,1.5,3,1.5c-1.5,0-1.5,0-3,0
		l1.5,4.5c0-1.5,1.5-3,1.5-3c0,1.5,1.5,3-1.5,4.5c-1.5,1.5-3,0-4.5,0c0-1.5,0-3,1.5-1.5c0-3-1.5-3-3,0c0-3,0-4.5-3-4.5
		c0,3,0,4.5,3,4.5c-1.5,0-3,1.5-1.5,3c0-1.5,1.5-1.5,1.5,0c0,0,0,1.5,0,3c-1.5,0-3,0-4.5-1.5h1.5l-1.5-4.5c0,1.5,0,1.5,0,3
		c0,0,0-1.5-1.5-3l-1.5,1.5c1.5,1.5,4.5,3,6,6c3-1.5,7.5-4.5,10.5-6c4.5,0,9-1.5,12-3c0-4.5,0-7.5,0-9H146.2z"/>
	<path d="M150.7,45c-1.5,1.5-4.5,0-6-3c3-1.5,7.5-3,10.5-4.5C152.2,42,153.7,43.5,150.7,45 M150.7,70.5c-3,1.5-6-1.5-6-3
		s-1.5-3,0-4.5c1.5-1.5,1.5-3,0-4.5s-3-1.5-6,0c1.5-1.5,1.5-3,0-3s-1.5,3-3,3s0-1.5,0-3s1.5-1.5,1.5-1.5l9-3c1.5,0,1.5,0,3,0
		l1.5,1.5c0,1.5-3-1.5-3,0c-1.5,1.5,0,1.5,1.5,3c-1.5,0-3,0-3,3c1.5,1.5,3,1.5,4.5,1.5s1.5,1.5,3,3C153.7,66,153.7,69,150.7,70.5
		 M132.7,52.5c-3,0-3-1.5-7.5-3c3,0,7.5-1.5,10.5-3C137.2,48,135.7,51,132.7,52.5 M185.2,133.5c0-1.5-3-4.5-3-7.5s0-6-3-9
		s-13.5-15-16.5-18c1.5,0,3,0,4.5,1.5s3,3,6,6c3-7.5,6-12,12-18l1.5-1.5c-1.5,0-4.5,1.5-6,1.5c0-3,0-6-1.5-7.5c1.5-4.5,0-9-9-16.5
		c4.5,1.5,7.5,6,12,1.5c-3,0-3-7.5-16.5-13.5c4.5,0,9,7.5,13.5,3c-4.5,0-7.5-10.5-16.5-12c3,0,6,1.5,9-1.5c-3,1.5-4.5-1.5-9-3
		c1.5-4.5,1.5-6,0-9c-3,0-4.5,1.5-6,3c-3-3-4.5-3-7.5-3c0,1.5,0,3,0,3c-1.5,0-7.5,1.5-12,3s-9,4.5-10.5,6c-1.5,0-1.5-1.5-1.5-1.5
		c-1.5,1.5-3,3-3,4.5c-1.5,0-4.5,0-6,3c0,3,3,6,6,7.5c-6,4.5-1.5,10.5-6,15c7.5,0,6-9,9-10.5c0,6-4.5,7.5-4.5,15c0,4.5,3,9,0,10.5
		c6-1.5,4.5-15,7.5-19.5c0,1.5,0,4.5,0,6c-1.5,6,0,15-3,18c6,0,7.5-10.5,12-13.5c-4.5,9-9,28.5-15,37.5
		c-10.5,13.5-16.5,31.5-25.5,31.5c-4.5,0-7.5-3-7.5-7.5c0-16.5,27-27,27-43.5c0-7.5-6-10.5-10.5-10.5c-3,0-6,1.5-9,3c-1.5,0-3,0-3,0
		c-9,0-7.5,18-15,16.5c4.5,1.5,10.5-1.5,13.5-7.5c-1.5,12-18,9-16.5,22.5c3-10.5,28.5-9,28.5-25.5c0-1.5-1.5-3-1.5-4.5
		s3-1.5,4.5-1.5c3,0,6,3,6,7.5c0,13.5-27,25.5-27,43.5c0,3,1.5,6,1.5,7.5c-1.5,1.5-4.5,0-6-1.5c0,4.5,6,7.5,10.5,4.5
		c1.5,0,1.5,0,3,0c-1.5,3-6,4.5-7.5,4.5c7.5,6,18-1.5,18-7.5c6-4.5,9-12,12-16.5c0,1.5,0,1.5,0,3c-4.5,7.5-7.5,13.5-9,22.5
		c-1.5,7.5-4.5,15-10.5,15c-1.5,0-3-1.5-4.5-1.5c-1.5,1.5,0,3,0,4.5s-4.5,4.5-4.5,12c0,3,1.5,7.5,1.5,9c1.5-1.5,4.5-4.5,4.5-7.5
		c1.5,9-4.5,9,0,16.5c0-3,3-3,4.5-3c1.5,1.5,1.5,1.5,0,3c0,1.5-1.5,7.5,4.5,7.5c-1.5,0-1.5-3,1.5-3c4.5-1.5,4.5,1.5,9,1.5
		c3,0,3-3,4.5-3s1.5,1.5,1.5,3c3-1.5,3-3,3-4.5s-1.5-3,0-3s4.5,0,3,3c1.5,0,3-1.5,3-4.5s-3-3-4.5-3c0-1.5-3-1.5-4.5-1.5
		c-4.5,0-3,3-7.5,3s-9-6-9-16.5c0-6,6-7.5,10.5-9s12-6,16.5-15c4.5-7.5,4.5-13.5,3-21c6,3,7.5,9,7.5,12c0,4.5-3,6-4.5,7.5
		c-1.5,0-1.5,0-1.5,1.5s0,1.5,1.5,3s1.5,3,3,6c0,3,3,6,6,9c0-1.5,0-3,0-6c4.5,3,1.5,12,10.5,12c-1.5-1.5-1.5-3,0-4.5
		c1.5,0,1.5,0,4.5,3c1.5,3,1.5,3,6,3s3-1.5,4.5-1.5c3,0,1.5,3,1.5,4.5c4.5-1.5,4.5-4.5,3-7.5c3-1.5,4.5,1.5,6,3c3-3,0-7.5-3-7.5
		c0-1.5-1.5-3-3-3s-3,0-4.5,0s-3,3-4.5,3c-6,0-16.5-10.5-16.5-15s10.5-7.5,10.5-13.5c0-9-9-12-16.5-18c3-3,10.5-3,15-1.5
		c0-3,1.5-1.5,3-6c1.5,4.5,0,7.5,1.5,9c1.5-1.5,4.5-1.5,4.5-6c1.5,3-1.5,7.5,1.5,9c0-3,1.5-3,3-3s1.5,0,1.5,1.5c0,3-4.5,1.5-4.5,6
		c0,1.5,1.5,3,1.5,3c0,1.5-1.5,3-4.5,1.5c0,1.5,1.5,3,4.5,3c1.5,0,4.5-1.5,4.5-3c1.5,3,0,6-1.5,6c1.5,1.5,6,0,6-6c3,0,4.5,1.5,3,6
		c1.5,0,4.5-1.5,4.5-4.5C185.2,136.5,183.7,136.5,185.2,133.5"/>
	<path d="M360.7,178.5c0-3,3-6,6-6s6,3,6,6s-3,6-6,6C362.2,183,360.7,181.5,360.7,178.5 M357.7,178.5c0,4.5,3,7.5,7.5,7.5
		s7.5-3,7.5-7.5s-3-7.5-7.5-7.5C362.2,169.5,357.7,174,357.7,178.5"/>
	<path d="M333.7,192c-1.5,0-3-1.5-3-3s0-1.5,1.5-1.5s1.5-1.5,3,0c1.5,0,3,1.5,3,3l0,0C336.7,190.5,335.2,192,333.7,192 M329.2,184.5
		c-1.5,0-1.5,1.5-1.5,3s0,3,1.5,4.5s3,1.5,4.5,1.5s3,0,4.5,0s1.5-1.5,3-3c0-3-1.5-6-4.5-6C332.2,183,330.7,184.5,329.2,184.5"/>
	<path d="M287.2,82.5c0-1.5,0-1.5,1.5-3c1.5,0,1.5-1.5,3-1.5c0,0,1.5,0,1.5,1.5V81c0,1.5,0,1.5-1.5,3C290.2,84,288.7,84,287.2,82.5
		L287.2,82.5 M287.2,78c-1.5,1.5-3,4.5-1.5,6s4.5,1.5,7.5,0c1.5-1.5,1.5-3,3-4.5c0-1.5,0-1.5-1.5-3c0-1.5-1.5-1.5-3-1.5
		C290.2,76.5,288.7,76.5,287.2,78"/>
	<path d="M323.2,181.5L323.2,181.5c-1.5,0-1.5,0-1.5-1.5c-1.5-1.5-1.5-1.5-1.5-3s0-3,1.5-3l1.5-1.5c1.5,0,3,1.5,3,4.5
		c0,1.5,0,3-1.5,3C324.7,180,324.7,181.5,323.2,181.5 M320.2,172.5c-1.5,1.5-1.5,3-1.5,4.5l0,0c0,1.5,0,3,1.5,4.5s1.5,1.5,3,1.5
		s3,0,3-1.5c1.5-1.5,1.5-3,1.5-4.5s0-3-1.5-4.5s-1.5-1.5-3-1.5C323.2,171,321.7,171,320.2,172.5"/>
	<path d="M284.2,118.5c-1.5-1.5-3-3-3-4.5l1.5-1.5c1.5,0,3,0,3,0c1.5,0,1.5,1.5,3,3v1.5l-1.5,1.5
		C287.2,118.5,285.7,118.5,284.2,118.5 M282.7,111c-1.5,0-1.5,1.5-3,1.5c-1.5,3,0,6,3,7.5c3,0,4.5,0,6,0s1.5-1.5,3-1.5
		c0-1.5,0-1.5,0-3s-1.5-3-3-3C287.2,109.5,284.2,109.5,282.7,111"/>
	<path d="M338.2,145.5c-1.5,1.5-3,3-4.5,1.5s-1.5-3,0-4.5s3-3,4.5-1.5C339.7,141,339.7,144,338.2,145.5 M329.2,159
		c-1.5,1.5-3,3-4.5,1.5s-1.5-3,0-4.5s3-3,4.5-1.5S330.7,157.5,329.2,159 M299.2,81c1.5-3,3-10.5,3-10.5l3,1.5c-1.5,0-3,1.5-3,3
		c1.5,0,1.5,0,3,0l-1.5,3c0,0-1.5-1.5-3-1.5c0,3,1.5,4.5,3,4.5c1.5,1.5,3,1.5,4.5,0c0-1.5,0-3-3-1.5c0-1.5,1.5-3,1.5-3
		c1.5,0,1.5,1.5,1.5,1.5c0-3,1.5-6,4.5-6c1.5,3,0,4.5-1.5,7.5c1.5,0,3,0,3,0c0,1.5,0,3-1.5,3c0-1.5-3-1.5-3-1.5c0,1.5,0,3,3,3
		c1.5,1.5,4.5,0,6-1.5c-1.5,0-1.5,0-3,0l3-4.5c0,0,0,1.5,1.5,3c0-1.5,1.5-3,0-4.5l4.5,3c-1.5,0-3,1.5-3,1.5c1.5,0,3,0,3,0l-3,4.5
		c0-1.5,0-3-1.5-3c-1.5,1.5-1.5,4.5,1.5,6c1.5,1.5,3,1.5,4.5,0c0-1.5,0-3-3-3c0-1.5,1.5-3,1.5-3c1.5,0,1.5,1.5,1.5,3
		c0-3,1.5-4.5,4.5-4.5c0,3,0,4.5-3,6c1.5,0,3,0,3,0c0,1.5,0,3-1.5,3c0-1.5-3-3-3-1.5s0,1.5,3,3c1.5,1.5,3,1.5,4.5,0
		c0-1.5-3-1.5-3-1.5l3-3c0,1.5,0,3,1.5,3c0-1.5,0-3,0-4.5l3,3c0,0-4.5,4.5-7.5,7.5L299.2,81z M336.7,124.5V123h1.5
		c1.5,0,1.5,0,3,1.5s1.5,1.5,1.5,3v1.5l0,0h-1.5c-1.5,0-1.5,0-3-1.5S336.7,124.5,336.7,124.5 M350.2,187.5c0-1.5,1.5-1.5,1.5-3
		c1.5,0,3-1.5,3-1.5s1.5,0,1.5,1.5l0,0v1.5c0,1.5-1.5,1.5-1.5,3c-1.5,1.5-4.5,1.5-4.5,0V187.5 M284.2,91.5c0,1.5,0,1.5-1.5,3h-1.5
		c-1.5,0-3-1.5-3-3l0,0c0-1.5,0-1.5,1.5-3h1.5h1.5C284.2,90,284.2,91.5,284.2,91.5 M305.2,51c1.5-1.5,0-4.5,3-4.5c1.5,0,3,1.5,6,3
		C311.2,48,308.2,49.5,305.2,51 M363.7,102c3,7.5,7.5,9,10.5,7.5c-9-1.5-1.5-15-12-15h-1.5c-1.5-1.5-4.5-3-7.5-3
		c-4.5,0-12,4.5-12,13.5c0,19.5,22.5,21,22.5,39c0,4.5-4.5,9-7.5,9c-4.5,0-7.5-4.5-10.5-10.5c-1.5-3-4.5-7.5-9-12
		c1.5,0,1.5,1.5,3,1.5s3,0,3-1.5c1.5-1.5,3-3,3-4.5l0,0c0-1.5,0-3-1.5-4.5s-3-1.5-6-1.5c-1.5,0-3,0-3,1.5c-1.5,1.5-1.5,1.5-1.5,3
		l0,0v1.5c-4.5-6-9-13.5-9-16.5s1.5-6,4.5-9h1.5V99c1.5-1.5,3-3,7.5-7.5l0,0l0,0l1.5-1.5h-3c0-1.5,1.5-3,1.5-4.5
		c1.5,3,3,4.5,4.5,4.5c-1.5-3,1.5-7.5,0-15c1.5,3,4.5,4.5,6,4.5c-4.5-4.5,1.5-10.5-4.5-21c1.5,0,3,0,4.5-1.5c-6-1.5-3-9-13.5-12
		c3,0,4.5-1.5,4.5-3c-3,1.5-6-3-15-3c0-3-3-7.5-7.5-9c0,3,0,4.5,0,7.5l-30-30c-1.5-1.5-1.5-1.5-1.5,0V9l25.5,31.5
		c-1.5,0-4.5,1.5-6,1.5s-1.5,1.5-1.5,3c-4.5,3-9,6-10.5,7.5s-3,1.5-1.5,4.5c0,1.5-1.5,4.5,3,1.5c3-1.5,7.5-4.5,9-3c0,1.5-3,3-4.5,3
		s-4.5,1.5-3,3h1.5c0,1.5,0,1.5,1.5,1.5s1.5-1.5,3-1.5c0,0,0,4.5-1.5,4.5c3,0,4.5-3,4.5-6c0-1.5,0-3,1.5-3c0,0,1.5,3,0,4.5
		c1.5,0,3-3,3-6c1.5,0,1.5-1.5,1.5-1.5c1.5,0,3,3,6,3c4.5,0,7.5-4.5,7.5-6s0-3,0-4.5c1.5,1.5,3,4.5,3,6c0,7.5-12,10.5-18,15l0,0
		l-9,3V72c0,0,0,0,0,1.5s-1.5,6-3,9V84l0,0c-3,4.5-6,10.5-7.5,15c-1.5-1.5-3-3-4.5-4.5V93c0-1.5,0-3-1.5-4.5s-1.5-1.5-3-1.5
		s-1.5,0-3,1.5l0,0l0,0c-1.5-1.5-4.5-3-6-4.5c0,0-1.5-1.5-3-1.5c0,0-1.5,0-3,0s-1.5,0-3,1.5c0,0-1.5,1.5-3,3c0,1.5,1.5,1.5,1.5,3
		l1.5,1.5c0,0,1.5,0,1.5-1.5h1.5c1.5,0,1.5,0,3,1.5c0,1.5,6,7.5,9,12h-1.5c-1.5,0-6,0-7.5,0s-1.5,0-3,1.5l-1.5,1.5c0,0-1.5,1.5,0,3
		c1.5,3,6,10.5,7.5,15c1.5,3,3,4.5,6,6s7.5,4.5,7.5,4.5v-3c-1.5-1.5-3-1.5-4.5-1.5s-1.5-1.5,0-1.5s4.5,1.5,7.5,1.5c0-3-3-6-4.5-7.5
		c-1.5,0-4.5,0-4.5,0s0,1.5-1.5,1.5s-1.5,0-1.5-1.5s1.5-1.5,1.5-3s-1.5-1.5-3-1.5c-1.5-3-3-6-4.5-7.5s0-3,0-3
		c1.5-1.5,4.5,0,10.5,1.5c1.5,0,4.5,0,7.5,0c1.5,7.5,3,13.5,13.5,16.5c7.5,0,12,4.5,13.5,9c-19.5,0-22.5,7.5-22.5,15
		s7.5,7.5,7.5,13.5s-16.5,7.5-21,9c-4.5,0-6,1.5-9,3c-1.5,1.5-4.5,4.5-7.5,7.5c0,0,1.5,0,3,0l3-3c1.5-1.5,1.5-1.5,1.5-1.5s0,1.5,0,3
		l-3,4.5c9,0,10.5-3,10.5-4.5s-3-3-1.5-3c1.5-1.5,3,0,3,1.5c1.5,1.5,1.5,3,4.5,1.5c0,0,21-9,24-10.5s1.5-1.5,0-3s-1.5-3-1.5-6
		c0-6,4.5-9,10.5-7.5c0,1.5,0,1.5,0,3c0,10.5,15,19.5,19.5,19.5c1.5,0,4.5-1.5,4.5,4.5c0,4.5,1.5,7.5,0,12s-3,6-6,7.5s-6,9-7.5,10.5
		c1.5,1.5,3,1.5,4.5-3c1.5-3,1.5-4.5,3-6c-1.5,3-1.5,7.5-3,9c4.5,0,10.5-3,10.5-6s-1.5-3-1.5-4.5s1.5-1.5,1.5-1.5c1.5,0,3,1.5,3,1.5
		c1.5-1.5,3-3,3-6c0-1.5,0-3,0-4.5l0,0c1.5,1.5,1.5,1.5,3,1.5s3,0,4.5-1.5s3-3,3-4.5c0,0,0,0,0-1.5s0-1.5,0-3s-1.5-1.5-3-1.5
		s-3,0-4.5,1.5s-3,3-3,3c0-6,0-10.5,0-12c0-3,0-4.5,0-4.5c-1.5,0-1.5,1.5-3,1.5s-6-4.5-6-9s4.5-10.5,4.5-16.5c0-1.5,1.5-3,1.5-1.5
		c1.5,1.5,1.5,4.5,4.5,7.5c-1.5,7.5,7.5,15,13.5,9c-3,0-6-3-7.5-6h1.5c0,0,0,0,1.5,0c3,3,10.5,3,12-4.5c-1.5,1.5-4.5,3-6,3
		c3-1.5,4.5-6,4.5-9c0-19.5-22.5-21-22.5-37.5c0-6,6-10.5,9-10.5c1.5,0,3,0,3,1.5c-1.5,1.5-3,4.5-1.5,6c0,13.5,22.5,13.5,22.5,19.5
		C380.2,112.5,363.7,115.5,363.7,102"/>
</g>
</svg>
