<?xml version="1.0" encoding="utf-8"?>
<!-- Generator: Adobe Illustrator 21.1.0, SVG Export Plug-In . SVG Version: 6.00 Build 0)  -->
<svg version="1.1" id="Layer_1" xmlns="http://www.w3.org/2000/svg" xmlns:xlink="http://www.w3.org/1999/xlink" x="0px" y="0px"
	 viewBox="0 0 385.5 107.7" style="enable-background:new 0 0 385.5 107.7;" xml:space="preserve">
<style type="text/css">
	.st0{clip-path:url(#SVGID_3_);}
	.st1{clip-path:url(#SVGID_4_);fill:#06A039;}
	.st2{clip-path:url(#SVGID_7_);}
	.st3{clip-path:url(#SVGID_8_);fill:#06A039;}
	.st4{clip-path:url(#SVGID_11_);}
	.st5{clip-path:url(#SVGID_12_);fill:#06A039;}
	.st6{clip-path:url(#SVGID_15_);}
	.st7{clip-path:url(#SVGID_16_);fill:#06A039;}
	.st8{clip-path:url(#SVGID_19_);}
	.st9{clip-path:url(#SVGID_20_);fill:#06A039;}
	.st10{clip-path:url(#SVGID_23_);}
	.st11{clip-path:url(#SVGID_24_);fill:#06A039;}
	.st12{clip-path:url(#SVGID_27_);}
	.st13{clip-path:url(#SVGID_28_);fill:#06A039;}
	.st14{clip-path:url(#SVGID_31_);}
	.st15{clip-path:url(#SVGID_32_);fill:#06A039;}
	.st16{clip-path:url(#SVGID_35_);}
	.st17{clip-path:url(#SVGID_36_);fill:#06A039;}
	.st18{clip-path:url(#SVGID_39_);}
	.st19{clip-path:url(#SVGID_40_);fill:#06A039;}
	.st20{clip-path:url(#SVGID_43_);}
	.st21{clip-path:url(#SVGID_44_);fill:#06A039;}
	.st22{clip-path:url(#SVGID_47_);}
	.st23{clip-path:url(#SVGID_48_);fill:#06A039;}
	.st24{clip-path:url(#SVGID_51_);}
	.st25{clip-path:url(#SVGID_52_);fill:#06A039;}
	.st26{clip-path:url(#SVGID_55_);}
	.st27{clip-path:url(#SVGID_56_);fill:#06A039;}
	.st28{clip-path:url(#SVGID_59_);}
	.st29{clip-path:url(#SVGID_60_);fill:#06A039;}
	.st30{clip-path:url(#SVGID_63_);}
	.st31{clip-path:url(#SVGID_64_);fill:#06A039;}
	.st32{clip-path:url(#SVGID_67_);}
	.st33{clip-path:url(#SVGID_68_);fill:#06A039;}
	.st34{clip-path:url(#SVGID_71_);}
	.st35{clip-path:url(#SVGID_72_);fill:#06A039;}
	.st36{clip-path:url(#SVGID_75_);}
	.st37{clip-path:url(#SVGID_76_);fill:#FFFFFF;}
	.st38{clip-path:url(#SVGID_79_);}
	.st39{clip-path:url(#SVGID_80_);fill:#06A039;}
	.st40{clip-path:url(#SVGID_83_);}
	.st41{clip-path:url(#SVGID_84_);fill:#FFFFFF;}
	.st42{clip-path:url(#SVGID_87_);}
	.st43{clip-path:url(#SVGID_88_);fill:#FFFFFF;}
	.st44{clip-path:url(#SVGID_91_);}
	.st45{clip-path:url(#SVGID_92_);fill:#FFFFFF;}
</style>
<g>
	<g>
		<defs>
			<rect id="SVGID_1_" x="-22.2" y="-21.1" width="430" height="150"/>
		</defs>
		<defs>
			<path id="SVGID_2_" d="M143.1,23.2l1.5-0.1v-7.4l-15.9,0.1l-10.6-0.1v1.7c3.9,0.1,4.8,0.3,4.8,3.8v20.1c0,4.2-0.5,4.8-4.8,4.8
				v1.7l11.6-0.1l15,0.1c0.5-2.5,1.5-5.6,2.2-7.6l-1.6-0.3c-1.9,4.7-4.3,5.5-9.2,5.7h-2.7c-4.8,0-5-1-5-6v-7.2h5.2
				c4,0,5.3,0.3,5.3,4.3h1.6l-0.1-3.1l-0.1-2.2c0-1.6,0.1-4.5,0.2-5.6H139c-0.4,3.3-0.7,4.1-4,4.1h-6.5v-12h6.6
				C140.3,17.9,142.4,19.3,143.1,23.2"/>
		</defs>
		<clipPath id="SVGID_3_">
			<use xlink:href="#SVGID_1_"  style="overflow:visible;"/>
		</clipPath>
		<clipPath id="SVGID_4_" class="st0">
			<use xlink:href="#SVGID_2_"  style="overflow:visible;"/>
		</clipPath>
		<rect x="113.1" y="10.7" class="st1" width="38.8" height="42.1"/>
	</g>
	<g>
		<defs>
			<rect id="SVGID_5_" x="-22.2" y="-21.1" width="430" height="150"/>
		</defs>
		<defs>
			<path id="SVGID_6_" d="M148.8,28.4c1.9,0.4,2.9,1.4,2.9,3.1v13.1c0,1.3-0.6,1.4-2.1,1.4h-1.2v1.8l5.6-0.1l5.5,0.1V46h-1.2
				c-1.5,0-2.2-0.1-2.2-1.4V30.1c1.7-1.1,4.1-2,5.5-2c2.3,0,4.3,0.9,4.3,4.2v12.3c0,1.3-0.6,1.4-2.1,1.4h-1.2v1.8l5.6-0.1l5.5,0.1
				V46h-1.2c-1.5,0-2.2-0.1-2.2-1.4V31.8c0-4.9-2.5-7.2-6-7.2c-3,0-5.4,1.6-8.3,3.5v-2.9c0-0.6-0.5-0.6-0.7-0.5
				c-1.8,0.8-4.7,1.8-6.7,2.4v1.3H148.8L148.8,28.4z"/>
		</defs>
		<clipPath id="SVGID_7_">
			<use xlink:href="#SVGID_5_"  style="overflow:visible;"/>
		</clipPath>
		<clipPath id="SVGID_8_" class="st2">
			<use xlink:href="#SVGID_6_"  style="overflow:visible;"/>
		</clipPath>
		<rect x="143.4" y="19.6" class="st3" width="35.3" height="33.2"/>
	</g>
	<g>
		<defs>
			<rect id="SVGID_9_" x="-22.2" y="-21.1" width="430" height="150"/>
		</defs>
		<defs>
			<path id="SVGID_10_" d="M344.5,28.4c1.9,0.4,2.9,1.4,2.9,3.1v13.1c0,1.3-0.6,1.4-2.1,1.4h-1.2v1.8l5.6-0.1l5.5,0.1V46H354
				c-1.5,0-2.2-0.1-2.2-1.4V30.1c1.7-1.1,4.1-2,5.5-2c2.3,0,4.3,0.9,4.3,4.2v12.3c0,1.3-0.6,1.4-2.1,1.4h-1.2v1.8l5.6-0.1l5.5,0.1
				V46h-1.2c-1.5,0-2.2-0.1-2.2-1.4V31.8c0-4.9-2.5-7.2-6-7.2c-3,0-5.4,1.6-8.3,3.5v-2.9c0-0.6-0.5-0.6-0.7-0.5
				c-1.8,0.8-4.7,1.8-6.7,2.4v1.3H344.5L344.5,28.4z"/>
		</defs>
		<clipPath id="SVGID_11_">
			<use xlink:href="#SVGID_9_"  style="overflow:visible;"/>
		</clipPath>
		<clipPath id="SVGID_12_" class="st4">
			<use xlink:href="#SVGID_10_"  style="overflow:visible;"/>
		</clipPath>
		<rect x="339.1" y="19.6" class="st5" width="35.3" height="33.2"/>
	</g>
	<g>
		<defs>
			<rect id="SVGID_13_" x="-22.2" y="-21.1" width="430" height="150"/>
		</defs>
		<defs>
			<path id="SVGID_14_" d="M255.7,28.4c1.9,0.4,2.9,1.4,2.9,3.1v13.1c0,1.3-0.6,1.4-2.1,1.4h-1.2v1.8l5.6-0.1l5.5,0.1V46h-1.2
				c-1.5,0-2.2-0.1-2.2-1.4V30.1c1.7-1.1,4.1-2,5.5-2c2.3,0,4.3,0.9,4.3,4.2v12.3c0,1.3-0.6,1.4-2.1,1.4h-1.2v1.8l5.6-0.1l5.5,0.1
				V46h-1.2c-1.5,0-2.2-0.1-2.2-1.4V31.8c0-4.9-2.5-7.2-6-7.2c-3,0-5.4,1.6-8.3,3.5v-2.9c0-0.6-0.5-0.6-0.7-0.5
				c-1.8,0.8-4.7,1.8-6.7,2.4v1.3H255.7L255.7,28.4z"/>
		</defs>
		<clipPath id="SVGID_15_">
			<use xlink:href="#SVGID_13_"  style="overflow:visible;"/>
		</clipPath>
		<clipPath id="SVGID_16_" class="st6">
			<use xlink:href="#SVGID_14_"  style="overflow:visible;"/>
		</clipPath>
		<rect x="250.3" y="19.6" class="st7" width="35.3" height="33.2"/>
	</g>
	<g>
		<defs>
			<rect id="SVGID_17_" x="-22.2" y="-21.1" width="430" height="150"/>
		</defs>
		<defs>
			<path id="SVGID_18_" d="M197.1,27.2v-1.8l-4.9,0.1l-4.1-0.1v1.8c0.8,0,1.4,0,1.8,0.1c0.6,0.1,0.9,0.6,0.9,1.3
				c0,0.7-0.3,1.9-1,3.4l-4.1,9.5l-4.2-10.6c-0.9-2-0.8-3,0.1-3.5c0.3-0.1,1.2-0.2,2-0.2v-1.8l-5.8,0.1l-5.6-0.1v1.8
				c1.9,0,2.6,0,4.1,3.6l7.3,17.7h1.7l7.7-17.9C194,28.4,194.8,27.2,197.1,27.2"/>
		</defs>
		<clipPath id="SVGID_19_">
			<use xlink:href="#SVGID_17_"  style="overflow:visible;"/>
		</clipPath>
		<clipPath id="SVGID_20_" class="st8">
			<use xlink:href="#SVGID_18_"  style="overflow:visible;"/>
		</clipPath>
		<rect x="167.2" y="20.4" class="st9" width="34.9" height="33.1"/>
	</g>
	<g>
		<defs>
			<rect id="SVGID_21_" x="-22.2" y="-21.1" width="430" height="150"/>
		</defs>
		<defs>
			<path id="SVGID_22_" d="M198.7,26.7v1.1c1.4,0.4,2.6,1.4,2.6,3.3v13.4c0,1.3-0.6,1.4-2.1,1.4H198v1.8l5.7-0.1l5.5,0.1v-1.8h-1.1
				c-1.5,0-2.2-0.1-2.2-1.4v-19c0-1-0.5-1.1-1.2-0.7C203.4,25.4,200.6,26.2,198.7,26.7"/>
		</defs>
		<clipPath id="SVGID_23_">
			<use xlink:href="#SVGID_21_"  style="overflow:visible;"/>
		</clipPath>
		<clipPath id="SVGID_24_" class="st10">
			<use xlink:href="#SVGID_22_"  style="overflow:visible;"/>
		</clipPath>
		<rect x="193" y="19.5" class="st11" width="21.2" height="33.1"/>
	</g>
	<g>
		<defs>
			<rect id="SVGID_25_" x="-22.2" y="-21.1" width="430" height="150"/>
		</defs>
		<defs>
			<path id="SVGID_26_" d="M200.9,17.6c0,1.4,1.3,2.7,2.7,2.7c1.5,0,2.7-1.3,2.7-2.7c0-1.5-1.2-2.6-2.7-2.6
				C202.2,15,200.9,16.2,200.9,17.6"/>
		</defs>
		<clipPath id="SVGID_27_">
			<use xlink:href="#SVGID_25_"  style="overflow:visible;"/>
		</clipPath>
		<clipPath id="SVGID_28_" class="st12">
			<use xlink:href="#SVGID_26_"  style="overflow:visible;"/>
		</clipPath>
		<rect x="195.9" y="10" class="st13" width="15.4" height="15.3"/>
	</g>
	<g>
		<defs>
			<rect id="SVGID_29_" x="-22.2" y="-21.1" width="430" height="150"/>
		</defs>
		<defs>
			<path id="SVGID_30_" d="M212,28.6c1.7,0.4,2.6,1.1,2.6,3v13c0,1.3-0.6,1.4-2.1,1.4h-1.7v1.8l6.2-0.1l5.5,0.1h1.7V46h-3
				c-1.5,0-2.1-0.1-2.1-1.4V32.9c0-2.8,2.7-3.8,3.4-3.8c0.8,0,1.2,0.3,1.6,0.6c0.4,0.3,0.8,0.6,1.7,0.6c1.5,0,2.6-1.2,2.6-2.8
				c0-2-1.8-2.9-3.1-2.9c-2.1,0-4.7,1.8-6.2,4.1v-3.5c0-0.8-0.6-0.8-1.2-0.5c-1.1,0.6-4.1,2.1-5.8,2.7L212,28.6L212,28.6z"/>
		</defs>
		<clipPath id="SVGID_31_">
			<use xlink:href="#SVGID_29_"  style="overflow:visible;"/>
		</clipPath>
		<clipPath id="SVGID_32_" class="st14">
			<use xlink:href="#SVGID_30_"  style="overflow:visible;"/>
		</clipPath>
		<rect x="205.8" y="19.5" class="st15" width="27.6" height="33.3"/>
	</g>
	<g>
		<defs>
			<rect id="SVGID_33_" x="-22.2" y="-21.1" width="430" height="150"/>
		</defs>
		<defs>
			<path id="SVGID_34_" d="M234.4,36.1c0-4.5,2-9.5,6.8-9.5c4.9,0,6.9,5.4,6.9,10.3c0,4.5-2,9.5-6.8,9.5
				C236.4,46.4,234.4,41,234.4,36.1 M229.3,36.6c0,7.5,4.9,11.8,12,11.8c6.4,0,11.9-4.8,11.9-12c0-7.6-4.8-11.8-12-11.8
				C234.6,24.6,229.3,29.3,229.3,36.6"/>
		</defs>
		<clipPath id="SVGID_35_">
			<use xlink:href="#SVGID_33_"  style="overflow:visible;"/>
		</clipPath>
		<clipPath id="SVGID_36_" class="st16">
			<use xlink:href="#SVGID_34_"  style="overflow:visible;"/>
		</clipPath>
		<rect x="224.3" y="19.6" class="st17" width="33.9" height="33.8"/>
	</g>
	<g>
		<defs>
			<rect id="SVGID_37_" x="-22.2" y="-21.1" width="430" height="150"/>
		</defs>
		<defs>
			<path id="SVGID_38_" d="M303.7,28.3c-0.8-2.4-2.6-3.7-5.4-3.7c-3.4,0-5.7,1.6-8.2,3.4c0,0,0,0-0.1,0v-2.5c0-0.9-0.7-1.2-1.6-0.7
				c-0.2,0.1-3,1.1-5.4,1.8v1.1c1.5,0.4,2.6,1.4,2.6,3.3v13.4c0,1.3-0.6,1.4-2.1,1.4h-1.3v1.8l5.8-0.1l5.5,0.1v-1.8h-1.2
				c-1.5,0-2.2-0.1-2.2-1.4V30.1c1.4-0.9,3.9-2.3,5.6-2.3c2.8,0,4,1.7,4,5.8v10.9c0,1.3-0.6,1.4-2.1,1.4h-1.2v1.8l5.6-0.1l5.6,0.1
				v-1.8h-1.2c-1.5,0-2.3-0.1-2.3-1.4V30.1c1.4-0.9,3.9-2.3,5.6-2.3c2.8,0,4,1.7,4,5.8v10.9c0,1.3-0.6,1.4-2.1,1.4h-1.2v1.8l5.6-0.1
				l5.4,0.1v-1.8h-1c-1.5,0-2.2-0.1-2.2-1.4V31.8c0-4.5-2.3-7.2-6.2-7.2C309,24.6,305.7,26.7,303.7,28.3"/>
		</defs>
		<clipPath id="SVGID_39_">
			<use xlink:href="#SVGID_37_"  style="overflow:visible;"/>
		</clipPath>
		<clipPath id="SVGID_40_" class="st18">
			<use xlink:href="#SVGID_38_"  style="overflow:visible;"/>
		</clipPath>
		<rect x="277.2" y="19.5" class="st19" width="49.2" height="33.1"/>
	</g>
	<g>
		<defs>
			<rect id="SVGID_41_" x="-22.2" y="-21.1" width="430" height="150"/>
		</defs>
		<defs>
			<path id="SVGID_42_" d="M327.8,32c0.7-3.3,2.6-5.2,5.3-5.2c2.5,0,4,1.7,4,4.3c0,0.6-0.3,1-1.1,1h-8.2V32L327.8,32z M341.3,34.1
				l0.6-0.8c0-6-4.3-8.7-8.6-8.7c-4.1,0-10.3,3.4-10.3,12.8c0,3.8,2,11.1,9.7,11.1c4.5,0,7.4-3,9.4-5.7l-1.1-1
				c-2.2,2.2-4.2,3.2-6.5,3.2c-3.7,0-6.7-3.6-7-8.3c0-0.8-0.1-1.4-0.1-1.9c0-0.3,0-0.5,0-0.7H341.3L341.3,34.1z"/>
		</defs>
		<clipPath id="SVGID_43_">
			<use xlink:href="#SVGID_41_"  style="overflow:visible;"/>
		</clipPath>
		<clipPath id="SVGID_44_" class="st20">
			<use xlink:href="#SVGID_42_"  style="overflow:visible;"/>
		</clipPath>
		<rect x="318" y="19.6" class="st21" width="29.1" height="33.9"/>
	</g>
	<g>
		<defs>
			<rect id="SVGID_45_" x="-22.2" y="-21.1" width="430" height="150"/>
		</defs>
		<defs>
			<path id="SVGID_46_" d="M196.6,71.1c1.9,0.4,2.9,1.4,2.9,3.1v13.1c0,1.3-0.6,1.4-2.1,1.4h-1.2v1.7l5.6-0.1l5.5,0.1v-1.8h-1.2
				c-1.5,0-2.2-0.1-2.2-1.4V72.8c1.7-1.1,4.1-2,5.5-2c2.3,0,4.3,0.9,4.3,4.2v12.3c0,1.3-0.6,1.4-2.1,1.4h-1.2v1.7l5.6-0.1l5.5,0.1
				v-1.8h-1.2c-1.5,0-2.2-0.1-2.2-1.4V74.5c0-4.9-2.5-7.2-6-7.2c-3,0-5.4,1.6-8.3,3.5v-2.9c0-0.6-0.5-0.6-0.7-0.5
				c-1.8,0.8-4.7,1.8-6.7,2.4v1.3H196.6L196.6,71.1z"/>
		</defs>
		<clipPath id="SVGID_47_">
			<use xlink:href="#SVGID_45_"  style="overflow:visible;"/>
		</clipPath>
		<clipPath id="SVGID_48_" class="st22">
			<use xlink:href="#SVGID_46_"  style="overflow:visible;"/>
		</clipPath>
		<rect x="191.2" y="62.3" class="st23" width="35.3" height="33.1"/>
	</g>
	<g>
		<defs>
			<rect id="SVGID_49_" x="-22.2" y="-21.1" width="430" height="150"/>
		</defs>
		<defs>
			<path id="SVGID_50_" d="M180.1,74.7c0.7-3.3,2.6-5.3,5.3-5.3c2.5,0,4,1.7,4,4.3c0,0.6-0.3,1-1.1,1H180.1L180.1,74.7z M193.5,76.8
				l0.7-0.8c0-6.1-4.3-8.7-8.6-8.7c-4.1,0-10.3,3.4-10.3,12.8c0,3.8,2,11.1,9.7,11.1c4.5,0,7.4-3,9.4-5.7l-1.1-1
				c-2.2,2.2-4.2,3.2-6.5,3.2c-3.7,0-6.7-3.6-7-8.3c0-0.8-0.1-1.4-0.1-1.9c0-0.3,0-0.5,0.1-0.7H193.5L193.5,76.8z"/>
		</defs>
		<clipPath id="SVGID_51_">
			<use xlink:href="#SVGID_49_"  style="overflow:visible;"/>
		</clipPath>
		<clipPath id="SVGID_52_" class="st24">
			<use xlink:href="#SVGID_50_"  style="overflow:visible;"/>
		</clipPath>
		<rect x="170.3" y="62.3" class="st25" width="29.1" height="33.9"/>
	</g>
	<g>
		<defs>
			<rect id="SVGID_53_" x="-22.2" y="-21.1" width="430" height="150"/>
		</defs>
		<defs>
			<path id="SVGID_54_" d="M369.6,26.9v1.2h3.3v15.5c0,3.1,1.8,4.9,5,4.9c2.3,0,4.5-1.1,6.8-3.4l-1.1-1.1c-1.1,1-2.1,1.4-3.3,1.4
				c-0.7,0-2.8-0.3-2.8-3.9V28.1h7.1v-2.7h-7.1v-5h-1.1C374,23.9,371.5,25.7,369.6,26.9"/>
		</defs>
		<clipPath id="SVGID_55_">
			<use xlink:href="#SVGID_53_"  style="overflow:visible;"/>
		</clipPath>
		<clipPath id="SVGID_56_" class="st26">
			<use xlink:href="#SVGID_54_"  style="overflow:visible;"/>
		</clipPath>
		<rect x="364.6" y="15.4" class="st27" width="25.1" height="38.1"/>
	</g>
	<g>
		<defs>
			<rect id="SVGID_57_" x="-22.2" y="-21.1" width="430" height="150"/>
		</defs>
		<defs>
			<path id="SVGID_58_" d="M132.2,64.4l5.1,12.1h-9.8L132.2,64.4L132.2,64.4z M133.8,57.8c-0.7,1-2.6,1.9-3.3,2.1
				c0.5,1.6,0.2,2.7-0.8,5.1l-7.1,17.1c-0.5,1.2-1,2.5-1.6,3.7c-1.2,2.4-2,2.9-4.8,3v1.6l6.2-0.1l6.4,0.1v-1.7H127
				c-1.8-0.1-2.9-0.2-2.9-1.8c0-1.4,0.8-3.5,1.4-5.2l1.1-2.9h11.7l2.5,6.2c0.4,0.8,0.8,2,0.8,2.5c-0.1,0.9-0.9,1.2-2.6,1.2h-1.2v1.7
				l7.8-0.1l5.9,0.1v-1.7c-1.3,0-2.8,0-3.8-1.1c-0.6-0.7-1.6-3.2-2.3-5L135,57.8H133.8L133.8,57.8z"/>
		</defs>
		<clipPath id="SVGID_59_">
			<use xlink:href="#SVGID_57_"  style="overflow:visible;"/>
		</clipPath>
		<clipPath id="SVGID_60_" class="st28">
			<use xlink:href="#SVGID_58_"  style="overflow:visible;"/>
		</clipPath>
		<rect x="111.2" y="52.8" class="st29" width="45.3" height="42.6"/>
	</g>
	<g>
		<defs>
			<rect id="SVGID_61_" x="-22.2" y="-21.1" width="430" height="150"/>
		</defs>
		<defs>
			<path id="SVGID_62_" d="M157.6,74.5c0-2.6,1.5-5.4,4.3-5.4c3.2,0,4.6,3.1,4.6,6.2c0,2.7-1.2,5.5-4.5,5.5
				C159,80.9,157.6,78.2,157.6,74.5L157.6,74.5z M155.9,94.8c0-4.4,4.8-4.4,7.9-4.4c4.5,0,6.7,1.3,6.7,3.7c0,4.4-6.1,5.4-8.4,5.4
				C159.2,99.6,155.9,98.4,155.9,94.8L155.9,94.8z M153.8,83.9c-0.4,0.5-0.6,1.4-0.6,2c0,2.2,1.9,3.6,3.9,4.3
				c-2.8,0.6-5.3,2.5-5.3,5.8c0,3.4,3.3,5.8,9.6,5.8c10.5,0,13.4-6.6,13.4-9.5c0-3.6-2.3-5.5-7-5.5c-1.2,0-5.2,0-6.8,0
				c-3.2-0.1-3.2-1.5-3.2-2c0-1.1,0.6-1.6,1.3-2.2c0.9,0.2,1.9,0.3,2.6,0.3c6.2,0,9.4-4,9.4-7.9c0-1.3-0.4-2.5-1.1-3.5
				c0.8,0,4.7,0.2,4.7,0.2v-3c-1.3,0.2-2.3,0.3-3.1,0.3c-1.8,0-3.3-0.4-4.6-0.8c-1.5-0.4-3.3-0.7-4.6-0.7c-5.8,0-9.5,3.1-9.5,7.9
				c0,2.9,1.4,4.9,4.5,6.6L153.8,83.9L153.8,83.9z"/>
		</defs>
		<clipPath id="SVGID_63_">
			<use xlink:href="#SVGID_61_"  style="overflow:visible;"/>
		</clipPath>
		<clipPath id="SVGID_64_" class="st30">
			<use xlink:href="#SVGID_62_"  style="overflow:visible;"/>
		</clipPath>
		<rect x="146.8" y="62.5" class="st31" width="33" height="44.3"/>
	</g>
	<g>
		<defs>
			<rect id="SVGID_65_" x="-22.2" y="-21.1" width="430" height="150"/>
		</defs>
		<defs>
			<path id="SVGID_66_" d="M241.6,84.7c-2,1.5-3.6,2.4-6,2.4c-5.9,0-8.1-3.8-8.1-9.5c0-3.8,2.8-7.9,6.3-7.9c2.6,0,3.3,1.1,4.2,2.2
				c0.6,0.8,1.1,1.5,2.1,1.5c1.4,0,2.1-1.2,2.1-2.4c0-2.2-2.8-3.6-7-3.7c-6.9-0.1-12,5.4-12,12.9c0,6.2,4.5,10.7,10,10.7
				c4.2,0,7.5-2.5,9.7-5.1L241.6,84.7L241.6,84.7z"/>
		</defs>
		<clipPath id="SVGID_67_">
			<use xlink:href="#SVGID_65_"  style="overflow:visible;"/>
		</clipPath>
		<clipPath id="SVGID_68_" class="st32">
			<use xlink:href="#SVGID_66_"  style="overflow:visible;"/>
		</clipPath>
		<rect x="218.2" y="62.3" class="st33" width="29.7" height="33.6"/>
	</g>
	<g>
		<defs>
			<rect id="SVGID_69_" x="-22.2" y="-21.1" width="430" height="150"/>
		</defs>
		<defs>
			<path id="SVGID_70_" d="M253.6,89.4c-0.2,0.4-1.2,3.1-3.3,7.6c-0.6-0.5-1.1-0.6-1.9-0.6c-1.5,0-2.6,1.4-2.6,2.7
				c0,1.5,1.2,2.6,2.7,2.6c1.6,0,2.6-0.8,3.4-2.6l11.2-26.2c0.9-2.1,1.8-3,3.9-3v-1.8l-4,0.1l-4.9-0.1v1.8c0.7,0,1.3,0,1.7,0.2
				c0.7,0.2,1.1,0.7,1.1,1.7c0,0.3-0.2,0.9-0.5,1.8l-4.2,10.1l-4.1-10.3c-0.4-1-0.8-2-0.7-2.4c0.1-0.5,0.4-0.8,1-0.9
				c0.4-0.1,1-0.1,1.7-0.2v-1.8l-4.7,0.1l-6-0.1V70c0.3,0,0.8,0,1.2,0.1c0.9,0.2,1.6,0.7,2,1.6L253.6,89.4L253.6,89.4z"/>
		</defs>
		<clipPath id="SVGID_71_">
			<use xlink:href="#SVGID_69_"  style="overflow:visible;"/>
		</clipPath>
		<clipPath id="SVGID_72_" class="st34">
			<use xlink:href="#SVGID_70_"  style="overflow:visible;"/>
		</clipPath>
		<rect x="238.4" y="63.1" class="st35" width="33.6" height="43.6"/>
	</g>
	<g>
		<defs>
			<rect id="SVGID_73_" x="-22.2" y="-21.1" width="430" height="150"/>
		</defs>
		<defs>
			<path id="SVGID_74_" d="M106.9,53.5c0,29.3-23.8,53.1-53.1,53.1c-29.2-0.1-53-23.8-53-53.1c0-29.3,23.8-53.1,53.1-53.1
				S106.9,24.2,106.9,53.5"/>
		</defs>
		<clipPath id="SVGID_75_">
			<use xlink:href="#SVGID_73_"  style="overflow:visible;"/>
		</clipPath>
		<clipPath id="SVGID_76_" class="st36">
			<use xlink:href="#SVGID_74_"  style="overflow:visible;"/>
		</clipPath>
		<rect x="-4.2" y="-4.6" class="st37" width="116.1" height="116.2"/>
	</g>
	<g>
		<defs>
			<rect id="SVGID_77_" x="-22.2" y="-21.1" width="430" height="150"/>
		</defs>
		<defs>
			<path id="SVGID_78_" d="M53.9,0.4C24.6,0.4,0.8,24.2,0.8,53.5c0,22.5,14,41.7,33.7,49.4c4.5-12.1,9.9-24.3,13-30.8
				c-0.3-4.4-0.8-8.4-1.3-11.6c-12.2-3-20.8-11.3-20.8-11.3l3.5-5.1c0,0,11.8,9.5,25.9,9.5c14.1,0,25.9-9.5,25.9-9.5l3.5,5.1
				c0,0-8.7,8.3-20.9,11.3c-0.5,3.1-1.1,7-1.3,11.4c3,6.4,8.3,18.4,12.8,30.5c19-8.1,32.3-26.9,32.3-48.8
				C106.9,24.2,83.2,0.4,53.9,0.4 M41.3,105c4,1,8.2,1.5,12.6,1.5c4.9,0,9.6-0.7,14-1.9c-4-9.6-13.2-27-13.2-27S45.2,95.5,41.3,105"
				/>
		</defs>
		<clipPath id="SVGID_79_">
			<use xlink:href="#SVGID_77_"  style="overflow:visible;"/>
		</clipPath>
		<clipPath id="SVGID_80_" class="st38">
			<use xlink:href="#SVGID_78_"  style="overflow:visible;"/>
		</clipPath>
		<rect x="-4.2" y="-4.6" class="st39" width="116.3" height="116.1"/>
	</g>
	<g>
		<defs>
			<rect id="SVGID_81_" x="-22.2" y="-21.1" width="430" height="150"/>
		</defs>
		<defs>
			<path id="SVGID_82_" d="M42.2,22c-1.5-2.3-4-3.8-6.9-3.9c-4.6-0.1-8.4,3.6-8.5,8.2c0,0.5,0,0.9,0.1,1.4c2.6,0.7,6.8,3.5,7,9.1
				c-2.3-3.1-4.4-4-7.9-4.3c-5-0.4-9.3,4-9.4,8.9c0,1.9,0.5,3.7,1.5,5.2c-2.3,2.1-3.8,5.1-3.9,8.4c-0.1,6.4,3.2,10.9,8.7,11.9
				c3,0.5,8-0.2,10.9-3.4c-2.6,5.5-7.3,7.6-12,7.7c-7.9,0-14.1-7-13.9-14.8c0.1-4.2,2-8,4.9-10.5c-1-1.8-1.6-4-1.5-6.2
				c0.1-6.2,4.8-11.3,10.7-12.2c0-0.4,0-0.8,0-1.2c0.1-7.2,6.1-13,13.3-12.9c2.3,0,4.5,0.7,6.4,1.8c2.2-2.3,5.4-3.7,8.8-3.6
				c5.9,0.1,10.8,4.4,11.7,10.1c-2.3-2.9-5.7-4.7-9.7-4.8C48.3,16.8,44.5,18.8,42.2,22"/>
		</defs>
		<clipPath id="SVGID_83_">
			<use xlink:href="#SVGID_81_"  style="overflow:visible;"/>
		</clipPath>
		<clipPath id="SVGID_84_" class="st40">
			<use xlink:href="#SVGID_82_"  style="overflow:visible;"/>
		</clipPath>
		<rect x="2.9" y="6.6" class="st41" width="64.3" height="69.6"/>
	</g>
	<g>
		<defs>
			<rect id="SVGID_85_" x="-22.2" y="-21.1" width="430" height="150"/>
		</defs>
		<defs>
			<path id="SVGID_86_" d="M61.2,45.2c0.2-0.5,0.3-1,0.3-1.6c0-2.7-2.1-5-4.7-5s-4.7,2.2-4.7,5s2.1,5,4.7,5c0.2,0,0.3,0,0.5,0
				c-0.4,0.1-0.7,0.2-1.1,0.3c-4.2,0.8-8.1-2.2-8.9-6.5c-0.7-4.4,2.1-8.6,6.2-9.3c4.2-0.8,8.1,2.2,8.9,6.5
				C62.6,41.5,62.2,43.5,61.2,45.2"/>
		</defs>
		<clipPath id="SVGID_87_">
			<use xlink:href="#SVGID_85_"  style="overflow:visible;"/>
		</clipPath>
		<clipPath id="SVGID_88_" class="st42">
			<use xlink:href="#SVGID_86_"  style="overflow:visible;"/>
		</clipPath>
		<rect x="42.1" y="27.9" class="st43" width="25.3" height="26.1"/>
	</g>
	<g>
		<defs>
			<rect id="SVGID_89_" x="-22.2" y="-21.1" width="430" height="150"/>
		</defs>
		<defs>
			<path id="SVGID_90_" d="M94,55.8c1.4-3.8,1.2-8.1-0.9-11.9c-2.3-4-6.4-6.5-10.7-6.9c0.7-3,1-5.8-0.3-8.7
				c-2.1-5.2-9.1-7.6-13.9-5.7c6.5-4.6,15-3.7,18.7,2.9c1.1,2,1.7,4.8,1.7,7.2c3.4,0.8,6.5,3,8.4,6.3C100.1,44.7,98.8,51.8,94,55.8"
				/>
		</defs>
		<clipPath id="SVGID_91_">
			<use xlink:href="#SVGID_89_"  style="overflow:visible;"/>
		</clipPath>
		<clipPath id="SVGID_92_" class="st44">
			<use xlink:href="#SVGID_90_"  style="overflow:visible;"/>
		</clipPath>
		<rect x="63.2" y="14.7" class="st45" width="40.5" height="46.1"/>
	</g>
</g>
</svg>
