<?xml version="1.0" encoding="utf-8"?>
<!-- Generator: Adobe Illustrator 21.1.0, SVG Export Plug-In . SVG Version: 6.00 Build 0)  -->
<svg version="1.1" id="Layer_1" xmlns="http://www.w3.org/2000/svg" xmlns:xlink="http://www.w3.org/1999/xlink" x="0px" y="0px"
	 viewBox="0 0 179.6 49.7" style="enable-background:new 0 0 179.6 49.7;" xml:space="preserve">
<style type="text/css">
	.st0{fill:#0DA039;}
	.st1{fill:#FFFFFF;}
</style>
<path class="st0" d="M66.6,10.7l0.7,0V7.2l-7.4,0l-4.9,0l0,0.8c1.8,0.1,2.3,0.1,2.3,1.8v9.4c0,2-0.3,2.3-2.3,2.3v0.8l5.4,0l7,0
	c0.2-1.2,0.7-2.6,1-3.6l-0.8-0.1c-0.9,2.2-2,2.6-4.3,2.7h-1.2c-2.3,0-2.3-0.5-2.3-2.8c0,0,0-3.1,0-3.4c0.2,0,2.4,0,2.4,0
	c1.8,0,2.5,0.1,2.5,2h0.7l-0.1-1.4l0-1c0-0.7,0.1-2.1,0.1-2.6h-0.7c-0.2,1.5-0.3,1.9-1.9,1.9c0,0-2.8,0-3,0c0-0.2,0-5.4,0-5.6
	c0.2,0,3.1,0,3.1,0C65.3,8.2,66.3,8.8,66.6,10.7"/>
<path class="st0" d="M69.3,13.1c0.9,0.2,1.3,0.7,1.3,1.4v6.1c0,0.6-0.3,0.6-1,0.6h-0.5v0.9l2.6,0l2.6,0l0-0.9h-0.5c-0.7,0-1,0-1-0.6
	c0,0,0-6.6,0-6.8c0.8-0.5,1.9-0.9,2.6-0.9c1.1,0,2,0.4,2,2v5.8c0,0.6-0.3,0.6-1,0.6h-0.5v0.9l2.6,0l2.6,0l0-0.9h-0.5
	c-0.7,0-1,0-1-0.6v-6c0-2.3-1.2-3.4-2.8-3.4c-1.4,0-2.5,0.7-3.9,1.6c0-0.3,0-1.4,0-1.4c0-0.3-0.2-0.3-0.3-0.2
	c-0.8,0.4-2.2,0.9-3.1,1.1V13.1"/>
<path class="st0" d="M160.8,13.1c0.9,0.2,1.3,0.7,1.3,1.4v6.1c0,0.6-0.3,0.6-1,0.6h-0.5v0.9l2.6,0l2.6,0l0-0.9h-0.5
	c-0.7,0-1,0-1-0.6c0,0,0-6.6,0-6.8c0.8-0.5,1.9-0.9,2.6-0.9c1.1,0,2,0.4,2,2v5.8c0,0.6-0.3,0.6-1,0.6h-0.5v0.9l2.6,0l2.6,0l0-0.9
	H172c-0.7,0-1,0-1-0.6v-6c0-2.3-1.2-3.4-2.8-3.4c-1.4,0-2.5,0.7-3.9,1.6c0-0.3,0-1.4,0-1.4c0-0.3-0.2-0.3-0.3-0.2
	c-0.8,0.4-2.2,0.9-3.1,1.1V13.1"/>
<path class="st0" d="M119.3,13.1c0.9,0.2,1.3,0.7,1.3,1.4v6.1c0,0.6-0.3,0.6-1,0.6h-0.5v0.9l2.6,0l2.6,0l0-0.9h-0.5
	c-0.7,0-1,0-1-0.6c0,0,0-6.6,0-6.8c0.8-0.5,1.9-0.9,2.6-0.9c1.1,0,2,0.4,2,2v5.8c0,0.6-0.3,0.6-1,0.6h-0.5v0.9l2.6,0l2.6,0l0-0.9
	h-0.5c-0.7,0-1,0-1-0.6v-6c0-2.3-1.2-3.4-2.8-3.4c-1.4,0-2.5,0.7-3.9,1.6c0-0.3,0-1.4,0-1.4c0-0.3-0.2-0.3-0.3-0.2
	c-0.8,0.4-2.2,0.9-3.1,1.1V13.1"/>
<path class="st0" d="M91.9,12.5v-0.9l-2.3,0l-1.9,0l0,0.8c0.4,0,0.7,0,0.9,0.1c0.3,0.1,0.4,0.3,0.4,0.6c0,0.3-0.2,0.9-0.5,1.6
	l-1.9,4.5l-2-5c-0.4-1-0.4-1.4,0-1.6c0.1-0.1,0.6-0.1,0.9-0.1v-0.9l-2.7,0l-2.6,0l0,0.9c0.9,0,1.2,0,1.9,1.7l3.4,8.3h0.8l3.6-8.4
	C90.4,13.1,90.8,12.5,91.9,12.5"/>
<path class="st0" d="M92.6,12.3v0.5c0.7,0.2,1.2,0.6,1.2,1.5v6.3c0,0.6-0.3,0.6-1,0.6h-0.6v0.9l2.6,0l2.6,0v-0.9H97
	c-0.7,0-1,0-1-0.6v-8.9c0-0.5-0.2-0.5-0.6-0.3C94.8,11.7,93.5,12.1,92.6,12.3"/>
<path class="st0" d="M93.6,8.1c0,0.7,0.6,1.3,1.3,1.3c0.7,0,1.3-0.6,1.3-1.3c0-0.7-0.6-1.2-1.3-1.2C94.2,6.8,93.6,7.4,93.6,8.1"/>
<path class="st0" d="M98.8,13.2c0.8,0.2,1.2,0.5,1.2,1.4v6.1c0,0.6-0.3,0.6-1,0.6h-0.8v0.9l2.9,0l2.6,0l0.8,0v-0.9h-1.4
	c-0.7,0-1,0-1-0.6v-5.4c0-1.3,1.2-1.8,1.6-1.8c0.4,0,0.6,0.1,0.7,0.3c0.2,0.1,0.4,0.3,0.8,0.3c0.7,0,1.2-0.6,1.2-1.3
	c0-0.9-0.8-1.4-1.4-1.4c-1,0-2.2,0.9-2.9,1.9v-1.6c0-0.4-0.3-0.4-0.6-0.2c-0.5,0.3-1.9,1-2.7,1.3L98.8,13.2"/>
<path class="st0" d="M106.9,17c0,3.5,2.3,5.5,5.6,5.5c3,0,5.6-2.2,5.6-5.6c0-3.6-2.3-5.5-5.6-5.5C109.4,11.3,106.9,13.5,106.9,17
	 M109.3,16.7c0-2.1,0.9-4.4,3.2-4.4c2.3,0,3.2,2.5,3.2,4.8c0,2.1-0.9,4.4-3.2,4.4C110.2,21.5,109.3,19,109.3,16.7z"/>
<path class="st0" d="M141.7,13c-0.4-1.1-1.2-1.7-2.5-1.7c-1.6,0-2.6,0.7-3.9,1.6c0,0,0,0,0,0c0-0.3,0-1.2,0-1.2
	c0-0.4-0.3-0.6-0.8-0.3c-0.1,0.1-1.4,0.5-2.5,0.8v0.5c0.7,0.2,1.2,0.6,1.2,1.5v6.3c0,0.6-0.3,0.6-1,0.6h-0.6v0.9l2.7,0l2.6,0l0-0.9
	h-0.5c-0.7,0-1,0-1-0.6c0,0,0-6.6,0-6.8c0.6-0.4,1.8-1.1,2.6-1.1c1.3,0,1.9,0.8,1.9,2.7v5.1c0,0.6-0.3,0.6-1,0.6h-0.5v0.9l2.6,0
	l2.6,0v-0.9H143c-0.7,0-1.1,0-1.1-0.6c0,0,0-6.6,0-6.8c0.6-0.4,1.8-1.1,2.6-1.1c1.3,0,1.9,0.8,1.9,2.7v5.1c0,0.6-0.3,0.6-1,0.6h-0.5
	v0.9l2.6,0l2.5,0l0-0.9h-0.5c-0.7,0-1,0-1-0.6v-5.9c0-2.1-1.1-3.4-2.9-3.4C144.2,11.3,142.7,12.3,141.7,13"/>
<path class="st0" d="M159.3,15.8l0.3-0.4c0-2.8-2-4.1-4-4.1c-1.9,0-4.8,1.6-4.8,6c0,1.8,1,5.2,4.5,5.2c2.1,0,3.4-1.4,4.4-2.7
	l-0.5-0.5c-1,1-2,1.5-3,1.5c-1.7,0-3.1-1.7-3.3-3.9c0-0.4,0-0.7,0-0.9c0-0.2,0-0.2,0-0.3H159.3 M153,14.8c0.3-1.5,1.2-2.5,2.5-2.5
	c1.1,0,1.9,0.8,1.9,2c0,0.3-0.2,0.5-0.5,0.5H153z"/>
<path class="st0" d="M91.6,33.1c0.9,0.2,1.3,0.7,1.3,1.4v6.1c0,0.6-0.3,0.6-1,0.6h-0.5v0.9l2.6,0l2.6,0l0-0.9h-0.5c-0.7,0-1,0-1-0.6
	c0,0,0-6.6,0-6.8c0.8-0.5,1.9-0.9,2.6-0.9c1.1,0,2,0.4,2,2v5.8c0,0.6-0.3,0.6-1,0.6h-0.5v0.9l2.6,0l2.6,0l0-0.9h-0.5
	c-0.7,0-1,0-1-0.6v-6c0-2.3-1.2-3.4-2.8-3.4c-1.4,0-2.5,0.7-3.9,1.6c0-0.3,0-1.4,0-1.4c0-0.3-0.2-0.3-0.3-0.2
	c-0.8,0.4-2.2,0.9-3.1,1.1V33.1"/>
<path class="st0" d="M90.2,35.7l0.3-0.4c0-2.8-2-4.1-4-4.1c-1.9,0-4.8,1.6-4.8,6c0,1.8,1,5.2,4.5,5.2c2.1,0,3.4-1.4,4.4-2.7
	l-0.5-0.5c-1,1-2,1.5-3,1.5c-1.7,0-3.1-1.7-3.3-3.9c0-0.4,0-0.7,0-0.9c0-0.2,0-0.2,0-0.3H90.2 M83.9,34.8c0.3-1.5,1.2-2.5,2.5-2.5
	c1.1,0,1.9,0.8,1.9,2c0,0.3-0.2,0.5-0.5,0.5H83.9z"/>
<path class="st0" d="M172.6,12.4v0.6h1.5v7.3c0,1.5,0.8,2.3,2.3,2.3c1.1,0,2.1-0.5,3.2-1.6l-0.5-0.5c-0.5,0.5-1,0.6-1.5,0.6
	c-0.3,0-1.3-0.1-1.3-1.8v-6.2h3.3v-1.3h-3.3V9.3h-0.5C174.6,11,173.5,11.8,172.6,12.4"/>
<path class="st0" d="M62.2,26.9c-0.3,0.4-1.2,0.9-1.5,1c0.2,0.8,0.1,1.2-0.4,2.4c0,0-3.3,8-3.3,8c-0.2,0.6-0.5,1.2-0.7,1.7
	c-0.6,1.1-0.9,1.3-2.2,1.4v0.8l2.9,0l3,0l0-0.8l-0.9,0c-0.9,0-1.3-0.1-1.3-0.9c0-0.6,0.4-1.6,0.6-2.4l0.5-1.4h5.5l1.2,2.9
	c0.2,0.4,0.4,1,0.4,1.2c0,0.4-0.4,0.6-1.2,0.6h-0.6v0.8l3.6,0l2.8,0l0-0.8c-0.6,0-1.3,0-1.8-0.5c-0.3-0.3-0.8-1.5-1.1-2.4l-4.9-11.6
	H62.2 M61.5,29.9l2.4,5.7h-4.6L61.5,29.9z"/>
<path class="st0" d="M71.6,39c-0.2,0.2-0.3,0.7-0.3,0.9c0,1,0.9,1.7,1.8,2c-1.3,0.3-2.5,1.2-2.5,2.7c0,1.6,1.5,2.7,4.5,2.7
	c4.9,0,6.3-3.1,6.3-4.5c0-1.7-1.1-2.6-3.3-2.6c-0.6,0-2.4,0-3.2,0c-1.5,0-1.5-0.7-1.5-0.9c0-0.5,0.3-0.8,0.6-1
	c0.4,0.1,0.9,0.1,1.2,0.1c2.9,0,4.4-1.9,4.4-3.7c0-0.6-0.2-1.2-0.5-1.6c0.4,0,2.2,0.1,2.2,0.1v-1.4C80.7,32,80.3,32,79.9,32
	c-0.9,0-1.5-0.2-2.1-0.4c-0.7-0.2-1.5-0.3-2.1-0.3c-2.7,0-4.5,1.4-4.5,3.7c0,1.3,0.7,2.3,2.1,3.1L71.6,39 M72.6,44.2
	c0-2.1,2.2-2.1,3.7-2.1c2.1,0,3.1,0.6,3.1,1.8c0,2.1-2.8,2.5-3.9,2.5C74.1,46.4,72.6,45.8,72.6,44.2z M73.4,34.7
	c0-1.2,0.7-2.5,2-2.5c1.5,0,2.1,1.5,2.1,2.9c0,1.2-0.6,2.6-2.1,2.6C74,37.6,73.4,36.4,73.4,34.7z"/>
<path class="st0" d="M112.7,39.4c-0.9,0.7-1.7,1.1-2.8,1.1c-2.7,0-3.8-1.8-3.8-4.4c0-1.8,1.3-3.7,2.9-3.7c1.2,0,1.6,0.5,2,1.1
	c0.3,0.4,0.5,0.7,1,0.7c0.6,0,1-0.6,1-1.1c0-1-1.3-1.7-3.3-1.7c-3.2,0-5.6,2.5-5.6,6c0,2.9,2.1,5,4.7,5c2,0,3.5-1.2,4.5-2.4
	L112.7,39.4"/>
<path class="st0" d="M118.3,41.6c-0.1,0.2-0.6,1.4-1.5,3.5c-0.3-0.2-0.5-0.3-0.9-0.3c-0.7,0-1.2,0.7-1.2,1.3c0,0.7,0.5,1.2,1.3,1.2
	c0.7,0,1.2-0.4,1.6-1.2l5.2-12.3c0.4-1,0.9-1.4,1.8-1.4v-0.9l-1.9,0l-2.3,0l0,0.9c0.3,0,0.6,0,0.8,0.1c0.3,0.1,0.5,0.3,0.5,0.8
	c0,0.1-0.1,0.4-0.2,0.8l-1.9,4.7l-1.9-4.8c-0.2-0.5-0.4-0.9-0.3-1.1c0-0.2,0.2-0.4,0.5-0.4c0.2,0,0.5-0.1,0.8-0.1l0-0.8l-2.2,0
	l-2.8,0v0.9c0.2,0,0.4,0,0.5,0c0.4,0.1,0.7,0.3,0.9,0.7L118.3,41.6"/>
<path class="st1" d="M49.7,24.8c0,13.7-11.1,24.8-24.8,24.8S0,38.5,0,24.8S11.1,0,24.8,0S49.7,11.1,49.7,24.8"/>
<path class="st0" d="M18.9,49c1.9,0.5,3.9,0.7,5.9,0.7c2.3,0,4.5-0.3,6.6-0.9c-1.9-4.5-6.2-12.6-6.2-12.6S20.8,44.5,18.9,49 M24.8,0
	C11.1,0,0,11.1,0,24.8c0,10.5,6.5,19.5,15.8,23.1c2.1-5.7,4.6-11.4,6.1-14.4c-0.1-2.1-0.4-3.9-0.6-5.4c-5.7-1.4-9.7-5.3-9.7-5.3
	l1.6-2.4c0,0,5.5,4.4,12.1,4.4c6.6,0,12.1-4.4,12.1-4.4l1.6,2.4c0,0-4.1,3.9-9.8,5.3c-0.2,1.4-0.5,3.3-0.6,5.3c1.4,3,3.9,8.6,6,14.3
	c8.9-3.8,15.1-12.6,15.1-22.9C49.7,11.1,38.5,0,24.8,0z"/>
<path class="st1" d="M19.4,10.1c-0.7-1.1-1.9-1.8-3.2-1.8c-2.2,0-4,1.7-4,3.9c0,0.2,0,0.4,0,0.6c1.2,0.3,3.2,1.6,3.3,4.3
	c-1.1-1.4-2.1-1.9-3.7-2c-2.4-0.2-4.4,1.9-4.4,4.2c0,0.9,0.3,1.7,0.7,2.4c-1.1,1-1.8,2.4-1.8,3.9c-0.1,3,1.5,5.1,4.1,5.6
	c1.4,0.2,3.7-0.1,5.1-1.6C14.2,32,12,33,9.8,33.1c-3.7,0-6.5-3.2-6.5-6.9c0-2,0.9-3.7,2.3-4.9c-0.5-0.9-0.7-1.9-0.7-2.9
	c0.1-2.9,2.2-5.3,5-5.7c0-0.2,0-0.4,0-0.6c0.1-3.4,2.8-6.1,6.2-6c1.1,0,2.1,0.3,3,0.8c1-1.1,2.5-1.7,4.1-1.7c2.8,0,5,2.1,5.5,4.7
	c-1.1-1.3-2.7-2.2-4.5-2.3C22.2,7.7,20.5,8.6,19.4,10.1"/>
<path class="st1" d="M28.3,20.9c0.1-0.2,0.1-0.5,0.1-0.8c0-1.3-1-2.3-2.2-2.3c-1.2,0-2.2,1-2.2,2.3c0,1.3,1,2.3,2.2,2.3
	c0.1,0,0.1,0,0.2,0c-0.2,0.1-0.4,0.1-0.5,0.1c-2,0.4-3.8-1-4.2-3.1c-0.3-2.1,1-4,2.9-4.4c1.9-0.4,3.8,1,4.2,3.1
	C28.9,19.2,28.7,20.2,28.3,20.9"/>
<path class="st1" d="M43.6,25.9c0.7-1.8,0.6-3.8-0.4-5.5c-1.1-1.9-3-3-5-3.2c0.3-1.4,0.5-2.7-0.1-4.1c-1-2.4-4.3-3.5-6.5-2.7
	c3-2.2,7-1.7,8.7,1.4c0.5,0.9,0.8,2.3,0.8,3.4c1.6,0.4,3,1.4,3.9,2.9C46.5,20.8,45.8,24,43.6,25.9"/>
</svg>
