<?xml version="1.0" encoding="utf-8"?>
<!-- Generator: Adobe Illustrator 21.1.0, SVG Export Plug-In . SVG Version: 6.00 Build 0)  -->
<svg version="1.1" id="Layer_1" xmlns="http://www.w3.org/2000/svg" xmlns:xlink="http://www.w3.org/1999/xlink" x="0px" y="0px"
	 viewBox="0 0 531.9 92.2" style="enable-background:new 0 0 531.9 92.2;" xml:space="preserve">
<style type="text/css">
	.st0{fill:#FFFFFF;stroke:#008577;stroke-width:2.469;stroke-linecap:round;}
	.st1{fill:none;stroke:#008577;stroke-width:2.469;}
	.st2{fill:#008577;stroke:#008577;stroke-width:2.469;}
	.st3{fill:#FFFFFF;}
	.st4{fill:#008577;}
	.st5{fill:#FFFFFF;stroke:#008577;stroke-width:2.2;}
	.st6{fill:#FFFFFF;stroke:#008577;stroke-width:1.15;}
	.st7{fill:#FFFFFF;stroke:#000000;stroke-width:1.2347;}
</style>
<g>
	<g>
		<path class="st0" d="M39.2,5.8c0.9-0.8,3.1-4.5,4.2-4.5c1.1,0,2.6,2.7,4.1,4.1c2.5,2.4,0.9,1.3,4.2,4c-3.7,1.5-6,2.6-7.6,6.6
			c-2.7-3.5-4-5.6-8.6-5.9C36.4,9.3,39.2,5.8,39.2,5.8z"/>
	</g>
	<path class="st1" d="M43.5,2.5c0.6,5.6-0.1,7,0.5,11.7c0-0.2,0-0.2,0.2-0.2"/>
	<g>
		<path class="st0" d="M4.1,40.1c-0.4-1.1-3.2-4.4-2.8-5.5c0.3-1,3.4-1.5,5.2-2.5c3.1-1.5,1.5-0.4,5.1-2.6c0.2,4,0.4,6.6,3.7,9.4
			c-4.2,1.4-6.6,1.8-8.5,6.1C6.5,43.9,4.1,40.1,4.1,40.1z"/>
	</g>
	<path class="st1" d="M2.5,35C8,36.3,9,37.4,13.7,38.4c-0.2,0-0.2-0.1-0.1-0.2"/>
	<g>
		<path class="st0" d="M24.4,86.2c-1.2,0.1-5.2,1.7-6.1,1.1c-0.9-0.6-0.5-3.7-0.8-5.7c-0.6-3.4,0-1.5-1-5.7c3.9,1,6.4,1.5,10-0.8
			c0.1,4.5-0.2,6.9,3.3,9.9C28.8,85.1,24.4,86.2,24.4,86.2z"/>
	</g>
	<path class="st1" d="M19.1,86.3c2.9-4.9,4.3-5.5,6.6-9.7c-0.1,0.2-0.1,0.1-0.2,0"/>
	<g>
		<path class="st0" d="M73.7,80.2c-0.2,1.2,0.2,5.5-0.7,6.2c-0.8,0.7-3.7-0.6-5.7-0.8c-3.4-0.4-1.5-0.5-5.7-0.7
			c2.1-3.4,3.3-5.7,2.1-9.8c4.3,1.2,6.5,2.1,10.4-0.4C73.9,75.6,73.7,80.2,73.7,80.2z"/>
	</g>
	<path class="st1" d="M72.3,85.3c-3.8-4.2-4.1-5.7-7.5-9.1c0.1,0.1,0.1,0.2,0,0.2"/>
	<g>
		<path class="st0" d="M83.6,31.3c1.1,0.5,5.3,1.2,5.8,2.2c0.4,1-1.5,3.4-2.2,5.3c-1.3,3.2-0.8,1.3-2.1,5.4c-2.8-2.8-4.7-4.6-9-4.4
			c2.2-3.9,3.7-5.8,2.2-10.2C79.3,30.1,83.6,31.3,83.6,31.3z"/>
	</g>
	<path class="st1" d="M88.2,34c-5,2.7-6.5,2.6-10.6,5c0.1-0.1,0.2-0.1,0.2,0.1"/>
	<path class="st2" d="M13.7,38.4c-2.5-0.1-2.7,0.9-5.8,3.2c-3.6,2.6-2.9,3.2-4.2,7c-1,3.1-0.3,3.7,0.2,7.4c0.5,3.8,2.2,9.1,4.2,12.7
		c1.7,3.1,3.2,5.7,5.6,7.6c4.7,3.6,11.4,0.3,11.4,0.3c-0.3,1,1.2,5,2.4,7c1.5,2.5,2.8,3.3,6.2,5.4c2.8,1.7,3,1.5,6.7,1.8
		c3.8,0.4,9.4-0.1,13.3-1.1c3.4-0.9,6.6-1.6,8.3-4.1c2.9-4.4,3.1-5.4,2.9-10c0,0,3.8,1.1,6.5,0.9c2.7-0.1,5.1-1.4,8.3-4.6
		c2.2-2.2,2.3-2.9,3.9-6.4c1.6-3.5,3.1-8.2,3.4-12.3c0.3-3.5,0.4-6.3-1.5-8.7c-3.2-4.2-3.3-4.8-7.8-6.2c0,0,2.2-5.2,2.5-7.9
		c0.3-2.9-0.4-4.4-2-8.1c-1.2-3-1.5-2.9-4.3-5.5c-2.9-2.6-7.6-5.5-11.4-7c-3.3-1.3-6.1-2.1-9.1-1.6c-6.3,1.1-7.1,2.5-9.8,6.4
		c0,0-2.1-2.4-4.4-4c-2.3-1.5-4.3-2.5-8.8-2.3c-3.2,0.2-3.3,0.8-6.6,2.6c-3.4,1.9-7.2,5.3-9.9,8.3c-2.3,2.7-3.2,5-4,7.9
		C8.6,33.3,13.7,38.4,13.7,38.4z"/>
	<path class="st3" d="M45.5,33.9c-2.7-0.3-4.8-3-3.6-6c1.3-3.3,1.3-8.7-0.1-12c-1.1-2.6-3.6-4.4-6.1-4.7c-7.5-1-9.8,1.1-14.2,5.1
		c-1.6,1.5-8.8,7.4-9.1,9.7c-0.9,8.6,1.9,13.2,15.3,13.8c2.2,0.1,4.8,2.6,4.5,5.1L31.9,46c-1.3,2.5-5.8,2.8-8.1,0.4
		c-3.2-3.4-5.4-5.4-8.6-5.5c-2.8-0.1-6.4,1.4-7.8,3.5c-4.1,6.4-1.4,11.6,0.4,17.3c0.6,2.1,3.2,7.7,4.8,9.4
		c6.3,6.9,13.1,7.2,17.1-7.9c0.6-2.1,4.3-4.6,6.4-3.2l0.9,0.6c2.9,2.7,1.3,6-1.6,7.7c-3,1.8-6.5,4.4-7.5,7.9
		c-0.7,2.7,0.1,5.6,1.9,7.5c5.3,5.4,8.4,5.2,14.3,4.8c2.2-0.2,11.5-1.1,13.6-2.2c8.2-4.7,5.6-13.3-4.3-20.2
		c-1.8-1.3-2.8-4.5-0.4-6.6l1.7-0.8c2.5-1,5.4,2.1,6.1,4.6c1.2,4.5,0.9,7.6,3.3,9.6c2.2,1.8,5.7,2.3,8.1,1.5
		c7.1-2.5,8.4-7.8,10.5-13.4c0.8-2,2.2-8,2-10.3c-0.7-9.3-7.6-13.1-18.3-4.2c-2,1.7-6.2,1.3-7.1-0.6l-0.7-1.4l0-1.3
		c0-1.2,2.9-4.2,6.1-3.4c6.7,1.5,10.9-3.8,10.9-3.8c2.2-1.8,2.5-5.4,2.1-8c-1.1-7.5-6-9.8-11-13c-1.8-1.2-7.1-3.7-9.4-4
		c-9.3-1.2-14.7,1.9-9.9,17.5C48.9,32.1,45.5,33.9,45.5,33.9z"/>
	<path class="st4" d="M37.8,29.1c0-4.5,4-6.2,3.9-9.7c-0.1-4-4-7.3-7.8-6.7c-3.9,0.6-3.5,4.8-4.1,7.9c-1.1,5.6-7.3,5.8-12.1,6.7
		c-1.7,0.3-3.6,2.5-3.3,4.5c0.2,1.5,1.2,2.3,2.2,3.3c3,3.1,7.7,2.4,11.8,2.8c0.9,0.1,1.8,0.1,2.8,0.2c-7.9-1.5-10.8-2.7-12.6-4.3
		c-1.1-1.1-1.3-0.6-1.2-1.9c0.1-1.3,2.2-1.2,3.2-1.2c5.9,0.3,13.5-2.8,13.2-9.9c0-1,0.1-2.9,0.9-3.8c1.2-1.4,3.4-0.6,4.5,0.7
		c0.3,0.4,0.1,1.2,0.1,1.9c-0.2,3.8-3.7,5.8-2.9,9.7c0,0.2,1.8,2.5,2.1,2.4C38.7,31.7,37.8,30.3,37.8,29.1z"/>
	<path class="st4" d="M62.2,37c4.4-1,4.6,0.5,8-0.3c3.9-0.9,8.2-4.7,5-8.9c-2.3-3.1-5.4-2.5-8.6-2.4c-5.7,0-7.8-5.8-9.6-10.3
		c-0.7-1.6-2.4-2.9-4.5-2.7c-1.6,0.2-3,1-3.8,2.1c-2.5,3.5-0.8,7.9,1.1,11.6c0.5,0.9,0.2,2.8,0.4,3.8c3.1-3.8-2.6-10.6,0.5-13.4
		c1.2-1,1.2-0.9,2.4-1c1.3-0.1,1.7,2,1.8,2.9c0.8,5.9,5.4,12.7,12.3,11c0.9-0.2,2.8-0.4,3.9,0.1c3.6,1.9,2.7,2.9,0.2,4.6
		c-0.4,0.3-1.2,0.4-1.9,0.5c-3.8,0.5-4.1-0.2-7.8,1.4c-0.2,0.1-2.1,2.2-1.9,2.6C59.9,38.5,61.7,37.1,62.2,37z"/>
	<path class="st4" d="M62.4,60.2c2.2,3.9,0.6,7.1,2.4,10.1c2.2,3.4,5.6,3.2,8.6,0.8c3-2.5-0.1-9,1.1-11.9c1.7-4.3,2.9-5,6.5-8.2
		c1.3-1.2,1.7-3.9,0.6-5.6c-1.5-2.2-1-1.7-2.4-2.1c-3.3-0.9-5.1,1.7-10.6,4.2c-0.5,0.2-2.8,1.4-3.6,1.8c7.6-2.7,10.1-3.6,11.9-3.6
		c1.5,0,1.4-0.3,2.2,1.2c0.6,1.1-1.3,2.2-2.2,2.7c-5.3,2.7-10.4,8.5-6.5,14.4c0.5,0.8,0.7,2.9,0.5,4.1c-0.3,1.8-1.3,2.5-2.9,1.9
		c-0.5-0.2-1.2-0.8-1.5-1.4c-1.7-3.4-0.3-5.9-3-8.8c-0.1-0.1-2.6-1.5-2.9-1.3C60.4,58.5,61.9,59.4,62.4,60.2z"/>
	<g>
		<path class="st4" d="M38.1,69.4c-2.8,3.5-4.9,2.2-7,5c-2.4,3.2-2.2,6.4,1.1,8.3c3.4,2,5.8,0.1,8.6-1.4c4.6-2.5,9.7-0.2,13.9,1.9
			c1.6,0.8,4.4,0.3,5.4-1.4c0.8-1.3,0.5-2.6,0.4-4c-0.4-4.3-4.5-6.7-7.5-9.6c-0.7-0.7-1.9-1-2.6-1.6c3.1,5,7.3,8.6,7.6,11
			c0.2,1.5,0.6,1.3-0.3,2.2c-0.9,0.9-2.5-0.4-3.3-1.1c-4.4-4-11.6-4.6-16.5-0.6c-0.8,0.6-1.9,2.2-3.1,2.4c-1.8,0.3-3.1-1.7-3.1-3.4
			c0-0.5,0.7-1.1,1.1-1.5c2.6-2.8,4.4-2,6.2-5.6c0.1-0.2,0.2-3-0.1-3.2C39.1,66.8,38.5,69,38.1,69.4z"/>
	</g>
	<path class="st4" d="M21.3,46.3c-2.4-1.6-2.2-1.9-5.5-3c-3.8-1.3-7.5,0-8.3,3.8c-0.8,3.8,2.7,6.4,5.3,8.2c3.6,2.4,2.8,8.7,2,13.5
		c-0.3,1.8,1.2,4,3.2,4.4c1.5,0.3,2.6-0.3,3.9-0.9c3.9-1.7,4.3-4.2,5.7-8.1c0.3-0.9,0.4-3.1,0.4-3.2c-3.2,7-4.4,9.3-6.3,9.8
		c-1.9,0.4-1.3,0.6-2.5,0.1c-1.1-0.5-0.5-3.1-0.1-4c2.4-5.5,2.1-13.7-4.7-15.8c-0.9-0.3-2.7-1.1-3.2-2.2c-0.9-1.6,0-2.7,1.6-3.3
		c0.5-0.2,2.4-0.7,3-0.4c3.5,1.5,2.9,1.4,4.2,2.1c0.9,0.5,2.1,1.5,4,1.5C24.1,48.9,21.8,46.6,21.3,46.3z"/>
	<path class="st5" d="M29.7,28.5c3.8,3.5,8.6,6.2,13.8,7.2c6.3,1.3,13.2-4.3,16.8-7.8c-2.2,6.1-4.5,11.4-2.9,17.8
		c1.3,5,8,8.7,12.1,11C65,57,59.2,55.3,54.9,56.4c-7.2,1.8-8.9,12.3-9.5,19.1c-0.8-5.1-1.9-9.8-4.1-14.3c-3.4-7.4-14.2-5-21.1-3.7
		c0.6-0.4,5.7-2.7,6.7-3.4c6.4-4.4,9.1-9.1,6.9-16.1C32.9,34.7,31,31.5,29.7,28.5z"/>
	<circle class="st6" cx="45.8" cy="47.8" r="11.4"/>
	<path class="st7" d="M45.8,47.8"/>
	<g>
		<circle class="st4" cx="45.8" cy="47.8" r="9.2"/>
	</g>
	<path d="M45.8,47.8"/>
	<g>
		<circle class="st3" cx="45.8" cy="47.9" r="1.8"/>
		<path class="st3" d="M45.8,47.9"/>
	</g>
	<g>
		<path class="st3" d="M47.5,46c0.7,0.5,2.2-0.1,3.3-1.4c1.1-1.3,1.5-2.8,0.8-3.4c-0.7-0.5-2.2,0.1-3.3,1.4
			C47.1,44,46.8,45.5,47.5,46z"/>
		<path class="st3" d="M49.5,43.7"/>
	</g>
	<g>
		<path class="st3" d="M39.8,54.2c0.7,0.5,2.2-0.1,3.3-1.4c1.1-1.3,1.5-2.8,0.8-3.4c-0.7-0.5-2.2,0.1-3.3,1.4
			C39.5,52.2,39.1,53.7,39.8,54.2z"/>
		<path class="st3" d="M41.8,51.9"/>
	</g>
	<g>
		<g>
			<path class="st3" d="M44.2,46.3c0.6-0.7,0-2.2-1.3-3.3c-1.3-1.2-2.8-1.5-3.3-0.9c-0.6,0.7,0,2.2,1.3,3.3
				C42.2,46.5,43.7,46.9,44.2,46.3z"/>
			<path class="st3" d="M41.9,44.2"/>
		</g>
		<g>
			<path class="st3" d="M52,53.8c0.6-0.7,0-2.2-1.3-3.3c-1.3-1.2-2.8-1.5-3.3-0.9c-0.6,0.7,0,2.2,1.3,3.3
				C49.9,54.1,51.4,54.4,52,53.8z"/>
			<path class="st3" d="M49.7,51.7"/>
		</g>
	</g>
	<g>
		<path class="st3" d="M38,49.4c1,0,2-0.8,2-1.4c0-0.7-0.7-1.5-2-1.4L38,49.4z"/>
	</g>
	<g>
		<path class="st3" d="M53.9,46.6c-1,0-2,0.8-2,1.4c0,0.7,0.7,1.5,2,1.4L53.9,46.6z"/>
	</g>
	<g>
		<path class="st3" d="M44.2,39.6c0,1,0.8,2,1.4,2c0.7,0,1.5-0.7,1.4-2L44.2,39.6z"/>
	</g>
	<g>
		<path class="st3" d="M47.2,55.9c0-1-0.7-2-1.4-2c-0.7,0-1.5,0.7-1.4,2L47.2,55.9z"/>
	</g>
	<path d="M114.7,2.6c2,0,3.9,0.1,5.6,0.1c2.5,0,4.2,0,4.9,0c1.5,0,2.5,0,3.1,0c1.8,0,3.6-0.1,5.5-0.1c0.8,0,1.5,0,2.3,0.1
		c0,0.4,0,0.8,0,1.3c0,1.6-0.1,3.4-0.1,5.5h-1.3c0-0.1,0-0.2,0-0.3c0-4.9-2.3-5.1-8.7-5.1c-4.3,0-4.7,0.8-4.7,5.2v7.8
		c0.9,0,1.8,0.1,2.8,0.1c0.3,0,0.8,0,1.6,0c3.7,0,5.3-0.4,5.9-3.7h1.2c-0.1,2.3-0.2,5.6-0.2,9.9h-1.2c-0.3-4.3-1.4-4.4-5.5-4.4
		c-0.3,0-0.7,0-1,0c-1.1,0-2.3,0-3.5,0.1v9.5c0,4.1,1,5.1,5.1,5.1h5.6c3.1,0,3.9-1.2,5.8-5.3l1.3,0.2l-1.9,6.6
		c-1.5,0.1-2.9,0.1-4.3,0.1c-4,0-7.8-0.2-11.5-0.2c-2.8,0-5.8,0.3-9,0.3c-0.2,0-0.4,0-0.6,0v-1.3c4.2,0,5.3-0.7,5.3-4.3V7
		c0-2.3-1.6-3.1-5-3.1V2.7C113,2.7,113.9,2.6,114.7,2.6z"/>
	<path d="M152.3,33.8c2.6-0.1,3.9-0.4,4.8-2.4c0.8-1.6,1.8-4.7,3.2-9.1c3.4-10.2,5.2-16.2,5.6-17.9l0.1-0.5c0.2-0.8,1.2-1.5,3-2.5
		l0.6,0.2c6.1,15.7,9.4,24.3,10,25.7c1.3,3.1,2.1,5.1,3,5.8c0.5,0.4,1.5,0.6,3,0.7v1.4c-0.5,0-1,0-1.4,0c-1.8,0-3.2-0.1-4.2-0.1
		c-1.4,0-3,0.1-4.9,0.1c-0.6,0-1.1,0-1.7,0v-1.4h0.9c1.7,0,2.6-0.5,2.6-1.7c0-0.5-0.1-1.2-0.5-2.1l-3-7.6c-1.5,0-5.1-0.1-11-0.2
		l-1.8,5.6c-0.6,1.8-0.8,3-0.8,3.6c0,1.8,1.1,2.4,3.7,2.5v1.3c-0.3,0-0.6,0-0.8,0c-2.2,0-4-0.1-5.5-0.1c-0.5,0-2.1,0-4.9,0.1V33.8z
		 M172.5,20.5c-1.6-4.6-3.3-9.1-5.3-13.3c-1.3,4.2-2.9,8.6-4.2,13.3L172.5,20.5z"/>
	<path d="M200.1,28.6l1.4-0.1c1.1,4.2,3.6,6.3,7,6.3c3.8,0,6.6-2.8,6.6-6.4c0-0.8-0.1-1.6-0.4-2.4c-0.9-2.6-3.1-3.6-5.8-5.2
		c-2.2-1.3-4.7-2.3-6.7-4.4c-1.2-1.3-1.7-2.9-1.7-4.9c0-5.6,4-9.4,10.3-9.4c2.2,0,4.2,0.4,6.2,1.3c0.1,2.4,0.4,4.2,0.4,5.5
		c0,0.3,0,0.5,0,0.8h-1.4c-0.6-3.9-2.9-6.1-6.1-6.1c-3.3,0-5.9,2.5-5.9,5.5c0,3.4,2.6,5,6.8,7.2c2.2,1.1,4.5,2.1,6.4,4.3
		c1.4,1.6,2.1,3.6,2.1,5.9c0,5.8-4.6,9.9-11.7,9.9c-2.4,0-4.6-0.6-6.7-1.8C200.5,32.5,200.5,30.6,200.1,28.6z"/>
	<path d="M240.1,33.9c3.9,0,5.3-0.9,5.3-4V4.6c-1.3,0-2.4-0.1-3.4-0.1c-2.5,0-4.1,0.2-4.8,0.5c-1.8,0.8-2.4,2.3-3.1,5.1l-1.5-0.5
		c0.4-2.8,0.6-5.2,0.6-7.3c0-0.6,0-1.1,0-1.6l1.5,0.1c0.9,1.7,2.2,1.9,4.4,1.9c0.7,0,1.4,0,2.2,0h11.4c4.2,0,6.7,0,8.2-2.4l1.3,0.3
		v0c0,0.5-0.6,3.4-1.3,9h-1.6c0.1-0.7,0.2-1.4,0.2-1.9c0-2.9-1.7-3.3-5.7-3.3h-4.2v24.2c0,4,0.5,5.1,4.7,5.1c0.2,0,0.4,0,0.6,0v1.5
		c-4.3,0-6.7-0.1-7.3-0.1c-1.2,0-3.1,0.2-5.5,0.2c-0.6,0-1.2,0-1.9,0V33.9z"/>
	<path d="M292.7,34c3.8,0,4.9-1,4.9-4.3V7.1c0-2.7-1.1-3.1-5.1-3.1V2.6c0.4,0,0.8,0,1.1,0c2.2,0,4.3,0.2,6.2,0.2
		c1.7,0,3.5-0.1,5.4-0.1c7.1,0,11.2,3.2,11.2,7.8c0,3.6-2.6,6.4-7.5,7.6c3.1,2.1,4.8,6.2,7.7,10.5c1.7,2.6,3,4.2,4.1,4.7
		c0.7,0.3,1.7,0.5,3.1,0.5v1.3c-0.3,0-0.6,0-0.9,0c-2.4,0-4.2,0.2-5.6,0.2c-0.2,0-0.4,0-0.5,0c-4.6-4.9-6.6-10.2-9.1-13.8
		c-1.5-2.1-2.8-2.9-4.9-2.9c-0.3,0-0.6,0-0.9,0v12.5c0,2.4,1.3,2.8,4.7,2.8v1.4c-0.9,0-1.7,0.1-2.5,0.1c-1.9,0-3.4-0.1-4.6-0.1
		c-1.6,0-3.5,0.2-5.9,0.2c-0.3,0-0.5,0-0.8,0V34z M304.2,17.3c5,0,7.9-2.4,7.9-6.6c0-3.7-2.9-6.6-7.2-6.6c-2.1,0-3.1,0.6-3.1,1.9
		v11.2C302.8,17.2,303.6,17.3,304.2,17.3z"/>
	<path d="M336.6,33.8c4.2-0.1,4.8-0.8,4.8-3.8V7.3c0-2.4-1.2-3.1-4.8-3.2V2.7c0.3,0,0.6,0,0.8,0c2.7,0,5,0.2,6.9,0.2
		c0.1,0,0.4,0,0.8,0c0.5,0,2.5-0.1,6-0.2v1.4c-4,0.2-5.4,0.5-5.4,2.8v23.7c0,2.7,0.8,3.2,3.9,3.2c0.3,0,0.6,0,0.9,0v1.4
		c-0.8,0-1.6,0-2.4,0c-2,0-3.6-0.1-4.8-0.1c-1.1,0-2.6,0.1-4.5,0.1c-0.7,0-1.4,0-2.2,0V33.8z"/>
	<path d="M365.6,33.9c4.1-0.3,5.2-0.7,5.2-3.9V7.1c0-2.1-0.8-2.8-3.5-2.8c-0.5,0-1.1,0-1.8,0.1V3.1c5.7-0.8,10.4-1.3,13.9-1.3
		c6.1,0,10.7,1.2,14.3,3.9c4.1,3.1,6.3,7.7,6.3,12.9c0,10-7.3,16.7-18.5,16.7c-2.2,0-4.7-0.2-7.7-0.2c-2.1,0-4.9,0.2-8.4,0.2V33.9z
		 M381.3,33.6c8.5,0,14-5.7,14-15.2c0-4.1-1-7.3-3.5-10c-2.9-3.2-6.7-4.9-11.2-4.9c-4.2,0-5.5,0.6-5.5,3.5V29
		C375,31.9,377.2,33.6,381.3,33.6z"/>
	<path d="M415.9,33.8c4.2-0.1,4.8-0.8,4.8-3.8V7.3c0-2.4-1.2-3.1-4.8-3.2V2.7c0.3,0,0.6,0,0.8,0c2.7,0,5,0.2,6.9,0.2
		c0.1,0,0.4,0,0.8,0c0.5,0,2.5-0.1,6-0.2v1.4c-4,0.2-5.4,0.5-5.4,2.8v23.7c0,2.7,0.8,3.2,3.9,3.2c0.3,0,0.6,0,0.9,0v1.4
		c-0.8,0-1.6,0-2.4,0c-2,0-3.6-0.1-4.8-0.1c-1.1,0-2.6,0.1-4.5,0.1c-0.7,0-1.4,0-2.2,0V33.8z"/>
	<path d="M445,33.9c3.5-0.2,4.6-1,4.6-3.9V6.8c-1.5-1.9-3-2.7-5.2-2.7c-0.2,0-0.5,0-0.8,0V2.7c0.5,0,1,0,1.6,0c2,0,4.8,0.1,8.4,0.2
		c8,9.5,14.9,18.3,21.9,25.5V6.9c0-2.2-1-2.8-4-2.8c-0.2,0-0.5,0-0.7,0V2.8c0.7,0,1.3-0.1,1.9-0.1c1.6,0,3,0.1,4.4,0.1
		c1.1,0,2.5-0.1,4.2-0.1c0.4,0,0.8,0,1.3,0v1.4c-2.3,0.1-3.8,0.2-4.4,1.1c-0.6,0.8-0.7,4.6-0.7,11.5c0,0.9,0,1.9,0,2.9
		c0,4.8,0.1,10.4,0.2,16.9l-0.6,0.2c0,0,0,0,0,0c0,0,0,0,0,0c-0.1,0-0.5-0.3-0.5-0.3s-7.8-9.4-25-29.2v22.5c0,3,1.1,4,4.6,4
		c0,0,0.1,0,0.2,0v1.4c-0.6,0-1,0-1.6,0c-1.6,0-3-0.1-4-0.1c-1.1,0-2.4,0.1-3.9,0.1c-0.6,0-1.2,0-1.9-0.1V33.9z"/>
	<path d="M516.5,36c-5.5,0-9.9-1.3-13.5-4.2c-3.8-3-5.8-7.4-5.8-12.6c0-4.7,2-9,5.5-12.2c3.5-3.2,8.2-4.9,13.5-4.9
		c3.9,0,7.6,0.8,10.8,2.5c0.2,2.5,0.3,4.4,0.3,5.7c0,0.2,0,0.3,0,0.5l-1.3-0.1c-1.3-4.5-4.7-7-9.5-7c-2.5,0-5,0.7-7.1,2.1
		c-4.6,2.9-7,7.3-7,13.1c0,4.6,1.5,8.5,4.3,11.4c2.5,2.6,5.8,4,9.3,4c5,0,7.7-1.9,7.7-5.5v-3.1c0-2.4-1.7-3.2-5.5-3.2
		c-0.3,0-0.7,0-1.1,0v-1.3c1.6,0,3-0.1,4.1-0.1c2.5,0,5.8,0,9.9,0v1.1c-3.1,0.1-3.9,0.8-3.9,3.6v2.7c0,1.6,0.1,3.1,0.3,4.6
		C524.5,34.9,520.8,36,516.5,36z"/>
	<path class="st4" d="M109.8,67.1c17.5-2.2,13.1-3.8,57.2-8c45.4-4.4,35.3-4,68.5-4.8c37.5-0.9,103.5,11.9,171,11.6
		c67.5-0.3,98.3-5.2,108.3-7.1c10-2,9.3-1.2,11.6-2c4.1-1.3,5.9-1.7,5.5-2.9c-0.4-1.4-0.6-2.1-5.7-1.1c-5.1,1-33.5,4.6-61.5,4.8
		c-28,0.2-45.5,0.5-64,0.8C364.2,59,275.5,46.2,235,46.9c-36.2,0.6-51.1,3.6-78.4,7.7c-32.9,5-37.3,6.5-43.8,7.7
		c-6.2,1.2-6.5,2.7-6.3,4.4C106.7,68,109.8,67.1,109.8,67.1z"/>
	<path d="M113.6,89.6c-1.5-1.2-2.2-2.7-2.2-4.5c0-1.6,0.6-3,1.7-4.1c1.2-1.3,2.7-1.9,4.6-1.9c1.7,0,3.1,0.5,4.2,1.4
		c1.3,1.1,2.1,2.7,2.1,4.2c0,1.6-0.6,2.9-1.7,4.1c-1.3,1.4-3,2.1-4.8,2.1C116,90.9,114.7,90.4,113.6,89.6z M120.4,81.4
		c-0.8-1.1-1.8-1.6-3-1.6c-2.3,0-3.8,1.7-3.8,4.4c0,1.1,0.2,2.2,0.7,3.2c0.8,1.7,2.2,2.7,3.7,2.7c2.1,0,3.8-1.9,3.8-4.4
		C121.8,84,121.2,82.4,120.4,81.4z"/>
	<path d="M136.2,90.1l0.6-0.1c0.7-0.1,0.8-0.5,0.8-1.5v-6.9c0-1.2,0-1.5-1.5-1.6v-0.5c1,0,2.1,0,3.1,0c0.8,0,2.6,0,5.5,0
		c0,0.4,0,0.8,0,1.2c0,0.4,0,0.8,0,1.3h-0.6c0-1.4-0.7-1.8-2.5-1.8c-0.8,0-1.4,0-1.7,0.2c-0.3,0.1-0.3,0.4-0.3,1.1v3.1
		c0.3,0,0.6,0,1,0c1.9,0,2.7,0,2.8-1.3l0.5-0.1c0,1,0,1.6,0,1.7c0,0.3,0,0.6,0,1.2c0,0.2,0,0.4,0,0.6l-0.5,0c0-0.1,0-0.1,0-0.2
		c0-1.1-0.6-1.3-2.2-1.3c-0.4,0-1,0-1.6,0v3.5c0,1,0.1,1.3,1.4,1.3v0.6c-0.5,0-1,0-1.5,0c-1.3,0-2.5,0.1-3.4,0.2V90.1z"/>
	<path d="M170.4,90c1.2,0,1.4-0.3,1.4-1.5v-2.7c0-0.4,0-0.6-0.1-0.7c-0.1-0.2-0.8-1.2-2.2-3.2c-0.8-1.2-1.1-1.9-2.3-2v-0.5
		c0.1,0,0.3,0,0.4,0c0.7,0,1.3,0,1.9,0c0.5,0,1,0,1.6,0c0.4,0,0.7,0,1,0V80c-0.2,0-0.4,0-0.5,0c-0.5,0-0.8,0.1-0.8,0.3
		c0,0.2,0.1,0.4,0.3,0.7l2.3,3.4c1.6-2.3,2.4-3.6,2.4-4c0-0.3-0.2-0.3-0.7-0.3c-0.1,0-0.3,0-0.5,0v-0.5c0.3,0,0.5,0,0.7,0
		c0.4,0,0.9,0,1.4,0c0.3,0,0.7,0,1.2,0v0.5c-0.9,0.1-1.2,0.5-1.5,1.1l-1.9,2.8c-0.5,0.7-0.9,1.1-0.9,2.2v2.4c0,1.2,0.1,1.6,1.5,1.6
		v0.6c-0.8,0-1.4-0.1-1.9-0.1c-1,0-2,0.1-3,0.1V90z"/>
	<path d="M192.3,89.6c-1.5-1.2-2.2-2.7-2.2-4.5c0-1.6,0.6-3,1.7-4.1c1.2-1.3,2.7-1.9,4.6-1.9c1.7,0,3.1,0.5,4.2,1.4
		c1.3,1.1,2.1,2.7,2.1,4.2c0,1.6-0.6,2.9-1.7,4.1c-1.3,1.4-3,2.1-4.8,2.1C194.7,90.9,193.4,90.4,192.3,89.6z M199.1,81.4
		c-0.8-1.1-1.8-1.6-3-1.6c-2.3,0-3.8,1.7-3.8,4.4c0,1.1,0.2,2.2,0.7,3.2c0.8,1.7,2.2,2.7,3.7,2.7c2.1,0,3.8-1.9,3.8-4.4
		C200.4,84,199.9,82.4,199.1,81.4z"/>
	<path d="M221.4,82.2c0-1.3-0.8-2.2-2.2-2.2c-0.8,0-0.9,0.3-0.9,1.1v3.1h0.6C220.6,84.2,221.4,83.5,221.4,82.2z M214.8,90
		c0,0,0.1,0,0.1,0c0.9,0,1.4-0.4,1.4-1.2v-7.2c0-1.2,0-1.5-0.8-1.6l-0.7-0.1v-0.5c0.2,0,0.5,0,0.7,0c0.7,0,1.3,0,1.7,0
		c0.8,0,1.7-0.1,2.5-0.1c2.5,0,3.9,1.1,3.9,2.7c0,1.2-0.8,2-2.5,2.4c1.4,1.1,2.1,2.9,3.2,4.5c0.5,0.7,1.1,1.1,1.8,1.1
		c0,0,0.1,0,0.1,0v0.6c-0.2,0-0.3,0-0.5,0c-0.5,0-0.9,0-1.3,0c-0.4,0-0.8,0-1.3,0.1c-1.2-1.5-1.8-3-2.4-4.1c-0.6-1-0.9-1.5-1.7-1.5
		h-0.5v3.7c0,1,0.1,1.3,1.4,1.3v0.5c-0.2,0-0.4,0-0.6,0c-0.8,0-1.4,0-2,0c-0.5,0-1.2,0-2.1,0c-0.1,0-0.2,0-0.4,0V90z"/>
	<path d="M241,85.3v3.4c0,1,0.1,1.3,1.4,1.3v0.6c-0.1,0-0.3,0-0.4,0c-0.8,0-1.5,0-2.2,0c-0.4,0-0.9,0-1.6,0c-0.2,0-0.5,0-0.8,0V90
		c0,0,0.1,0,0.1,0c0.9,0,1.4-0.4,1.4-1.2v-7.5c0-0.9-0.2-1.2-1.5-1.3v-0.5c1.1,0,1.9,0.1,2.5,0.1c0.7,0,1.5,0,2.5,0V80
		c-1.1,0-1.4,0.2-1.4,1.2v3.3c2.6-2.2,3.8-3.7,3.8-4.1c0-0.3-0.4-0.4-1.3-0.4v-0.6c0.8,0,1.5,0,1.9,0c0.4,0,1,0,1.7,0
		c0.1,0,0.3,0,0.4,0V80c-0.1,0-0.2,0-0.3,0c-0.7,0-1.1,0.2-1.6,0.7c-0.2,0.2-0.8,1.2-2.3,2.6l3.4,5.1c0.7,1,1.1,1.6,1.7,1.6l0.4,0
		v0.5c-0.3,0-0.5,0-0.8,0c-0.7,0-1.4,0-1.9,0c-0.3,0-1.1,0-2.4,0.1V90l0.5,0c0.5,0,0.7-0.1,0.7-0.4c0-0.1,0-0.2-0.1-0.4l-2.9-4.6
		C241.6,84.9,241.3,85.1,241,85.3z"/>
	<path d="M260.6,88.1h0.6c0.4,1.4,1.3,2.1,2.5,2.1c1.3,0,2.2-0.9,2.2-2c0-1.2-0.9-1.7-2.4-2.4c-1.9-0.9-2.9-1.8-2.9-3.5
		c0-1.8,1.5-3.2,3.6-3.2c0.9,0,1.7,0.2,2.6,0.7c0,0.2,0,0.4,0,0.6c0,0.5,0,1,0,1.5h-0.6c-0.3-1.4-1.1-2.1-2.2-2.1
		c-1.1,0-1.9,0.8-1.9,1.8c0,0.7,0.4,1.4,1.3,1.8c1.6,0.8,2.7,1.2,3.2,1.9c0.6,0.7,0.8,1.4,0.8,2.2c0,2-1.6,3.5-4,3.5
		c-0.9,0-1.8-0.2-2.8-0.6C260.7,89.6,260.7,88.9,260.6,88.1z"/>
	<path d="M279.9,90c0,0,0.1,0,0.1,0c0.9,0,1.4-0.4,1.4-1.2v-7.5c0-0.9-0.2-1.2-1.5-1.3v-0.5c1.1,0,1.9,0.1,2.5,0.1
		c0.7,0,1.5,0,2.5,0V80c-1.1,0-1.4,0.2-1.4,1.2v3h6v-3.4c0-0.6-0.3-0.8-1.4-0.8v-0.5c1.2,0,2,0.1,2.4,0.1c0.2,0,1,0,2.5-0.1V80
		c-1.1,0-1.4,0.2-1.4,1.2v7.3c0,1.2,0.2,1.5,1.4,1.5v0.6c-0.2,0-0.4,0-0.6,0c-0.7,0-1.3,0-1.8,0c-0.4,0-1,0-1.7,0
		c-0.2,0-0.5,0-0.8,0V90c0,0,0.1,0,0.2,0c0.9,0,1.3-0.3,1.3-1.2V85h-6v3.7c0,1,0.1,1.3,1.4,1.3v0.6c-0.1,0-0.3,0-0.4,0
		c-0.8,0-1.5,0-2.2,0c-0.4,0-0.9,0-1.6,0c-0.2,0-0.5,0-0.8,0V90z"/>
	<path d="M305.1,90c0,0,0.1,0,0.1,0c0.9,0,1.4-0.4,1.4-1.2v-7.5c0-0.9-0.2-1.2-1.5-1.3v-0.5c1.1,0,1.9,0.1,2.5,0.1
		c0.7,0,1.5,0,2.5,0V80c-1.1,0-1.4,0.2-1.4,1.2v7.5c0,1,0.1,1.3,1.4,1.3v0.6c-0.1,0-0.3,0-0.4,0c-0.8,0-1.5,0-2.2,0
		c-0.4,0-1,0-1.7,0c-0.2,0-0.5,0-0.7,0V90z"/>
	<path d="M328.8,82.2c0-1.3-0.8-2.2-2.2-2.2c-0.8,0-0.9,0.3-0.9,1.1v3.1h0.6C328,84.2,328.8,83.5,328.8,82.2z M322.2,90
		c0,0,0.1,0,0.1,0c0.9,0,1.4-0.4,1.4-1.2v-7.2c0-1.2,0-1.5-0.8-1.6l-0.7-0.1v-0.5c0.2,0,0.5,0,0.7,0c0.7,0,1.3,0,1.7,0
		c0.8,0,1.7-0.1,2.5-0.1c2.5,0,3.9,1.1,3.9,2.7c0,1.2-0.8,2-2.5,2.4c1.4,1.1,2.1,2.9,3.2,4.5c0.5,0.7,1.1,1.1,1.8,1.1
		c0,0,0.1,0,0.1,0v0.6c-0.2,0-0.3,0-0.5,0c-0.5,0-0.9,0-1.3,0c-0.4,0-0.8,0-1.3,0.1c-1.2-1.5-1.8-3-2.4-4.1c-0.6-1-0.9-1.5-1.7-1.5
		h-0.5v3.7c0,1,0.1,1.3,1.4,1.3v0.5c-0.2,0-0.4,0-0.6,0c-0.8,0-1.4,0-2,0c-0.5,0-1.2,0-2.1,0c-0.1,0-0.2,0-0.4,0V90z"/>
	<path d="M345,90.1l0.6-0.1c0.7-0.1,0.8-0.5,0.8-1.5v-6.9c0-1.2,0-1.5-1.5-1.6v-0.5c1,0,2,0.1,3,0.1c0.7,0,2.5-0.1,5.2-0.1
		c0,0.2,0,0.4,0,0.5c0,0.6,0,1.1,0,1.7l-0.6,0c0,0,0,0,0,0c0-1.3-0.6-1.6-2.3-1.6c-1.6,0-1.8,0.1-1.8,1.2v3.1c0.1,0,0.1,0,0.2,0
		c0.1,0,0.2,0,0.3,0c0.1,0,0.1,0,0.2,0c1.3,0,2,0,2.2-0.7l0.2-0.6h0.5c0,1,0,1.6,0,1.8c0,0.3,0,0.7,0,1.3c0,0.1,0,0.3,0,0.4
		l-0.6-0.1c0,0,0-0.1,0-0.1c0-1-0.5-1.3-1.7-1.3c-0.4,0-0.8,0-1.3,0v3.2c0,1.4,0.2,1.6,1.4,1.6h1.9c0.6,0,1-0.2,1.3-0.6l0.7-1.2
		l0.6,0.2c-0.3,0.7-0.5,1.5-0.7,2.2c-0.6,0.1-1.1,0.1-1.5,0.1c-1,0-2.2,0-3.6,0c-1.4,0-2.6,0.1-3.6,0.2V90.1z"/>
	<path d="M383.5,90.7c-4.1,0-6.6-2.4-6.6-5.8c0-1.6,0.6-3,1.7-4c1.2-1.1,2.8-1.7,4.8-1.7c1.3,0,2.5,0.3,3.7,0.8
		c0.1,1,0.3,1.7,0.3,2.3l-0.6,0.1c-0.5-1.6-1.9-2.5-3.5-2.5c-2.4,0-4.1,2-4.1,5c0,3,1.9,5.1,4.6,5.1c1.7,0,2.7-0.7,3.3-2.4l0.6,0.1
		c-0.2,0.9-0.4,1.6-0.5,2.3C386.2,90.5,384.9,90.7,383.5,90.7z"/>
	<path d="M402.4,89.6c-1.5-1.2-2.2-2.7-2.2-4.5c0-1.6,0.6-3,1.7-4.1c1.2-1.3,2.7-1.9,4.6-1.9c1.7,0,3.1,0.5,4.2,1.4
		c1.3,1.1,2.1,2.7,2.1,4.2c0,1.6-0.6,2.9-1.7,4.1c-1.3,1.4-3,2.1-4.8,2.1C404.8,90.9,403.5,90.4,402.4,89.6z M409.2,81.4
		c-0.8-1.1-1.8-1.6-3-1.6c-2.3,0-3.8,1.7-3.8,4.4c0,1.1,0.2,2.2,0.7,3.2c0.8,1.7,2.2,2.7,3.7,2.7c2.1,0,3.8-1.9,3.8-4.4
		C410.6,84,410,82.4,409.2,81.4z"/>
	<path d="M425,79.4c0.1,0,0.3,0,0.4,0c0.8,0,1.5,0.1,2,0.1c0.6,0,1.4-0.1,2.4-0.1c0.1,0,0.2,0,0.2,0v0.5c-1.2,0-1.5,0.3-1.5,1.4v4.7
		c0,1.3,0,2.2,0.4,2.7c0.5,0.7,1.4,1.2,2.6,1.2c2.3,0,3.5-1.2,3.5-3.7v-4.4c0-1.4-0.1-1.8-1.5-1.9v-0.5c0.1,0,0.1,0,0.2,0
		c0.7,0,1.3,0.1,1.8,0.1c0.4,0,0.8,0,1.5,0c0.1,0,0.2,0,0.3,0V80c-0.7,0-1.1,0.1-1.2,0.3c-0.2,0.2-0.2,0.7-0.2,1.6v3.4
		c0,1.7,0,3-0.8,4c-0.8,1.1-2.2,1.6-4.1,1.6c-3,0-4.5-1.3-4.5-3.9c0-0.8,0.1-2.6,0.1-5.2c0-0.1,0-0.1,0-0.2c0-1.3,0-1.7-1.5-1.7
		V79.4z"/>
	<path d="M449.1,90c1.6,0,1.6-0.6,1.6-2.6v-5.5c0-1.4-0.4-1.8-1.9-1.9v-0.6c0.2,0,0.3,0,0.5,0c0.7,0,1.5,0.1,2.3,0.1
		c0.3,0,0.6,0,1,0c2.5,3,4.8,5.8,6.9,8.2v-6.3c0-0.9-0.2-1.3-1-1.3l-0.5,0v-0.5c0.1,0,0.2,0,0.2,0c0.8,0,1.4,0.1,1.8,0.1
		c0.4,0,0.9,0,1.5,0c0.1,0,0.2,0,0.3,0V80c-1.2,0-1.5,0.3-1.5,1.5v5.1c0,1.7,0,3.2,0,4.3h-0.9c-2.6-3.2-5.3-6.3-8-9.4v6.4
		c0,0.9,0,1.5,0.2,1.7c0.2,0.2,0.6,0.3,1.3,0.4v0.6c-0.1,0-0.2,0-0.2,0c-0.8,0-1.5-0.1-2-0.1c-0.4,0-0.8,0.1-1.4,0.1
		c-0.1,0-0.3,0-0.4,0V90z"/>
	<path d="M480.6,90.7c-4.1,0-6.6-2.4-6.6-5.8c0-1.6,0.6-3,1.7-4c1.2-1.1,2.8-1.7,4.8-1.7c1.3,0,2.5,0.3,3.7,0.8
		c0.1,1,0.3,1.7,0.3,2.3l-0.6,0.1c-0.5-1.6-1.9-2.5-3.5-2.5c-2.4,0-4.1,2-4.1,5c0,3,1.9,5.1,4.6,5.1c1.7,0,2.7-0.7,3.3-2.4l0.6,0.1
		c-0.2,0.9-0.4,1.6-0.5,2.3C483.2,90.5,481.9,90.7,480.6,90.7z"/>
	<path d="M497.1,90c0,0,0.1,0,0.1,0c0.9,0,1.4-0.4,1.4-1.2v-7.5c0-0.9-0.2-1.2-1.5-1.3v-0.5c1.1,0,1.9,0.1,2.5,0.1
		c0.7,0,1.5,0,2.5,0V80c-1.1,0-1.4,0.2-1.4,1.2v7.5c0,1,0.1,1.3,1.4,1.3v0.6c-0.1,0-0.3,0-0.4,0c-0.8,0-1.5,0-2.2,0
		c-0.4,0-1,0-1.7,0c-0.2,0-0.5,0-0.7,0V90z"/>
	<path d="M514.3,90.1l0.6-0.1c0.7-0.1,0.8-0.5,0.8-1.5v-7.2c0-1-0.2-1.3-1.3-1.3v-0.5c0.1,0,0.2,0,0.3,0c0.9,0,1.6,0,2,0
		c0.5,0,1.1,0,1.8,0c0.2,0,0.4,0,0.7,0V80c-1.1,0-1.5,0.2-1.5,1.2v7c0,1.3,0.4,1.7,1.8,1.7c1.4,0,2.1-0.1,2.6-0.9l0.6-0.9l0.6,0.2
		c-0.2,0.6-0.5,1.4-0.7,2.3c-2.1,0-3.3-0.1-3.7-0.1c-1.3,0-2.9,0-4.7,0.2V90.1z"/>
</g>
</svg>
