<?xml version="1.0" encoding="utf-8"?>
<!-- Generator: Adobe Illustrator 21.1.0, SVG Export Plug-In . SVG Version: 6.00 Build 0)  -->
<svg version="1.1" id="Layer_1" xmlns="http://www.w3.org/2000/svg" xmlns:xlink="http://www.w3.org/1999/xlink" x="0px" y="0px"
	 viewBox="0 0 1305.6 667.7" style="enable-background:new 0 0 1305.6 667.7;" xml:space="preserve">
<style type="text/css">
	.st0{fill:#010202;}
	.st1{fill:none;stroke:#86368C;stroke-width:15;}
	.st2{fill:#020203;}
</style>
<g>
	<path class="st0" d="M168.6,442.5c-7.4,2.9-14.9,4.4-22.5,4.4c-9.6,0-18.2-1.8-25.7-5.3c-7.6-3.5-14-8.3-19.3-14.3
		c-5.3-6-9.3-12.9-12.1-20.7c-2.8-7.8-4.1-15.9-4.1-24.3c0-9.4,1.3-18.3,3.9-26.7c2.6-8.5,6.4-15.9,11.5-22.2
		c5.1-6.4,11.5-11.4,19.1-15.2c7.6-3.8,16.5-5.7,26.7-5.7c7,0,13.5,0.8,19.7,2.4c6.2,1.6,11.7,4.2,16.6,7.6
		c4.9,3.5,8.9,7.9,12.2,13.2c3.3,5.3,5.5,11.8,6.8,19.4h-17.1c-0.8-4.9-2.4-9.1-4.7-12.7c-2.3-3.5-5.1-6.4-8.5-8.7
		c-3.4-2.3-7.2-4-11.4-5.1c-4.3-1.1-8.8-1.7-13.6-1.7c-7.8,0-14.5,1.6-20.1,4.7c-5.6,3.1-10.1,7.2-13.7,12.3
		c-3.5,5.1-6.2,10.9-7.8,17.5c-1.7,6.5-2.5,13.2-2.5,20.1c0,6.7,1,13.2,2.9,19.4c1.9,6.2,4.7,11.6,8.5,16.4
		c3.7,4.7,8.3,8.5,13.8,11.3c5.5,2.8,11.8,4.2,19,4.2c6.7,0,12.7-1.1,17.8-3.2c5.2-2.2,9.5-5.1,13.1-8.9c3.5-3.8,6.2-8.2,8-13.3
		c1.8-5.1,2.6-10.6,2.3-16.5h-41v-14.4h56.3v67.7h-10.8l-4.5-16C182.3,434.8,176.1,439.6,168.6,442.5z"/>
	<path class="st0" d="M218.9,378.5c1.9-5.9,4.8-11.1,8.6-15.5c3.8-4.4,8.6-7.8,14.2-10.4c5.6-2.5,12.1-3.8,19.4-3.8
		c7.4,0,13.9,1.3,19.5,3.8s10.3,6,14.1,10.4c3.8,4.4,6.7,9.5,8.6,15.5c1.9,5.9,2.9,12.3,2.9,19.2s-1,13.2-2.9,19.1
		c-1.9,5.9-4.8,11-8.6,15.4c-3.8,4.4-8.5,7.8-14.1,10.3s-12.1,3.7-19.5,3.7c-7.3,0-13.8-1.2-19.4-3.7c-5.6-2.5-10.4-5.9-14.2-10.3
		c-3.8-4.4-6.7-9.5-8.6-15.4c-1.9-5.9-2.9-12.2-2.9-19.1S216.9,384.4,218.9,378.5z M234.4,412.7c1.5,4.4,3.6,8,6.2,11
		c2.6,2.9,5.7,5.2,9.3,6.8c3.5,1.6,7.3,2.3,11.2,2.3s7.7-0.8,11.2-2.3c3.5-1.6,6.6-3.8,9.3-6.8c2.6-2.9,4.7-6.6,6.2-11
		c1.5-4.4,2.2-9.4,2.2-15c0-5.6-0.8-10.6-2.2-15c-1.5-4.4-3.6-8.1-6.2-11.1c-2.6-3-5.7-5.3-9.3-6.8c-3.5-1.6-7.3-2.3-11.2-2.3
		s-7.7,0.8-11.2,2.3c-3.5,1.6-6.6,3.8-9.3,6.8c-2.6,3-4.7,6.7-6.2,11.1c-1.5,4.4-2.2,9.4-2.2,15
		C232.2,403.3,232.9,408.3,234.4,412.7z"/>
	<path class="st0" d="M345.6,444.1L311,351h17.1l26.1,77.6h0.4L380,351h16l-34,93.1H345.6z"/>
	<path class="st0" d="M471.4,438.1c-7,5.3-15.7,7.9-26.3,7.9c-7.4,0-13.9-1.2-19.4-3.6c-5.5-2.4-10.1-5.8-13.8-10.1
		c-3.7-4.3-6.5-9.5-8.4-15.5c-1.9-6-2.9-12.5-3.1-19.6c0-7.1,1.1-13.6,3.2-19.4c2.2-5.9,5.2-11,9.1-15.3c3.9-4.3,8.5-7.7,13.9-10.1
		c5.3-2.4,11.2-3.6,17.6-3.6c8.3,0,15.1,1.7,20.6,5.1c5.5,3.4,9.8,7.8,13.1,13c3.3,5.3,5.6,11,6.8,17.3c1.3,6.2,1.8,12.2,1.5,17.8
		h-69.7c-0.1,4.1,0.4,8,1.4,11.6c1.1,3.7,2.8,6.9,5.2,9.7c2.4,2.8,5.5,5.1,9.2,6.8c3.7,1.7,8.1,2.5,13.1,2.5
		c6.5,0,11.8-1.5,15.9-4.5c4.1-3,6.9-7.6,8.2-13.7h15.1C482.9,425,478.4,432.9,471.4,438.1z M467.7,378.4c-1.4-3.2-3.2-6-5.6-8.4
		c-2.3-2.3-5.1-4.2-8.3-5.6c-3.2-1.4-6.7-2.1-10.5-2.1c-4,0-7.5,0.7-10.7,2.1c-3.2,1.4-5.9,3.3-8.2,5.7c-2.3,2.4-4.1,5.2-5.4,8.4
		c-1.3,3.2-2.1,6.6-2.3,10.2h53.5C469.9,385,469.1,381.6,467.7,378.4z"/>
	<path class="st0" d="M511.7,351v19.6h0.4c3.7-7.6,8.3-13.1,13.7-16.7c5.4-3.6,12.2-5.3,20.5-5v16.2c-6.1,0-11.3,0.8-15.7,2.5
		c-4.3,1.7-7.8,4.1-10.4,7.4c-2.6,3.2-4.6,7.2-5.8,11.8c-1.2,4.6-1.8,9.9-1.8,15.9v41.4h-15.3V351H511.7z"/>
	<path class="st0" d="M570.9,351v14.8h0.4c6.4-11.3,16.4-16.9,30.2-16.9c6.1,0,11.2,0.8,15.3,2.5c4.1,1.7,7.4,4,9.9,7
		c2.5,3,4.3,6.6,5.3,10.7c1,4.1,1.5,8.7,1.5,13.8v61.2h-15.3v-63c0-5.8-1.7-10.3-5-13.7c-3.4-3.4-8-5-13.9-5
		c-4.7,0-8.7,0.7-12.1,2.2s-6.3,3.5-8.5,6.1c-2.3,2.6-4,5.7-5.1,9.3c-1.1,3.5-1.7,7.4-1.7,11.6v52.6h-15.3V351H570.9z"/>
	<path class="st0" d="M666.5,351v13.7h0.4c7-10.6,17-15.8,30.1-15.8c5.8,0,11,1.2,15.7,3.6c4.7,2.4,8,6.5,9.9,12.2
		c3.1-5,7.2-8.9,12.3-11.7c5.1-2.8,10.7-4.1,16.8-4.1c4.7,0,8.9,0.5,12.7,1.5c3.8,1,7,2.6,9.7,4.8c2.7,2.2,4.8,4.9,6.3,8.4
		c1.5,3.4,2.2,7.5,2.2,12.3v68.2h-15.3v-61c0-2.9-0.2-5.6-0.7-8.1c-0.5-2.5-1.4-4.7-2.7-6.6c-1.3-1.9-3.1-3.3-5.5-4.4
		s-5.4-1.6-9.1-1.6c-7.6,0-13.5,2.2-17.8,6.5c-4.3,4.3-6.5,10.1-6.5,17.3v58h-15.3v-61c0-3-0.3-5.8-0.8-8.3s-1.5-4.7-2.8-6.6
		c-1.3-1.9-3.1-3.3-5.3-4.3c-2.2-1-5.1-1.5-8.5-1.5c-4.4,0-8.3,0.9-11.4,2.7c-3.2,1.8-5.8,4-7.7,6.5c-2,2.5-3.4,5.1-4.3,7.8
		s-1.4,5-1.4,6.8v58h-15.3V351H666.5z"/>
	<path class="st0" d="M867,438.1c-7,5.3-15.7,7.9-26.3,7.9c-7.4,0-13.9-1.2-19.4-3.6c-5.5-2.4-10.1-5.8-13.8-10.1
		c-3.7-4.3-6.5-9.5-8.4-15.5c-1.9-6-2.9-12.5-3.1-19.6c0-7.1,1.1-13.6,3.2-19.4c2.2-5.9,5.2-11,9.1-15.3c3.9-4.3,8.5-7.7,13.9-10.1
		c5.3-2.4,11.2-3.6,17.6-3.6c8.3,0,15.1,1.7,20.6,5.1c5.5,3.4,9.8,7.8,13.1,13c3.3,5.3,5.6,11,6.8,17.3c1.3,6.2,1.8,12.2,1.5,17.8
		h-69.7c-0.1,4.1,0.4,8,1.4,11.6c1.1,3.7,2.8,6.9,5.2,9.7c2.4,2.8,5.5,5.1,9.2,6.8c3.7,1.7,8.1,2.5,13.1,2.5
		c6.5,0,11.8-1.5,15.9-4.5c4.1-3,6.9-7.6,8.2-13.7h15.1C878.5,425,874,432.9,867,438.1z M863.4,378.4c-1.4-3.2-3.2-6-5.6-8.4
		c-2.3-2.3-5.1-4.2-8.3-5.6c-3.2-1.4-6.7-2.1-10.5-2.1c-4,0-7.5,0.7-10.7,2.1c-3.2,1.4-5.9,3.3-8.2,5.7c-2.3,2.4-4.1,5.2-5.4,8.4
		c-1.3,3.2-2.1,6.6-2.3,10.2h53.5C865.5,385,864.7,381.6,863.4,378.4z"/>
	<path class="st0" d="M907.9,351v14.8h0.4c6.4-11.3,16.4-16.9,30.2-16.9c6.1,0,11.2,0.8,15.3,2.5c4.1,1.7,7.4,4,9.9,7
		c2.5,3,4.3,6.6,5.3,10.7c1,4.1,1.5,8.7,1.5,13.8v61.2h-15.3v-63c0-5.8-1.7-10.3-5-13.7c-3.4-3.4-8-5-13.9-5
		c-4.7,0-8.7,0.7-12.2,2.2s-6.3,3.5-8.5,6.1c-2.3,2.6-4,5.7-5.1,9.3c-1.1,3.5-1.7,7.4-1.7,11.6v52.6h-15.3V351H907.9z"/>
	<path class="st0" d="M1025.3,351v13.5h-18.5v57.8c0,1.8,0.1,3.2,0.5,4.3c0.3,1.1,0.9,1.9,1.7,2.5c0.8,0.6,2,1,3.5,1.2
		c1.5,0.2,3.4,0.3,5.9,0.3h7v13.5h-11.7c-4,0-7.4-0.3-10.2-0.8c-2.8-0.5-5.1-1.5-6.8-3c-1.7-1.4-3-3.5-3.9-6.1
		c-0.8-2.6-1.3-6.1-1.3-10.4v-59.2h-15.8V351h15.8v-27.9h15.3V351H1025.3z"/>
</g>
<path class="st0" d="M91.2,503.6H180V518h-71.6v40.9h66.8v14.4h-66.8v44.5h72.2v14.4H91.2V503.6z M277.4,667.7h-15.3v-48.2h-0.4
	c-5,10.3-16.9,14.8-29.7,14.8c-28.6,0-42.8-22.7-42.8-49s14-48.4,42.5-48.4c9.5,0,23.2,3.6,30.1,14.6h0.4V539h15.3V667.7z
	 M234.2,620.7c20.5,0,28.4-17.6,28.4-35.1c0-18.4-8.3-35.3-29.3-35.3c-20.9,0-27.9,17.8-27.9,36
	C205.4,603.8,214.4,620.7,234.2,620.7z M373.5,632.1h-14.4v-14.8h-0.4c-6.5,11.5-16.9,16.9-30.2,16.9c-24.5,0-32-14-32-34V539h15.3
	v63c0,11.3,7.2,18.7,18.9,18.7c18.5,0,27.5-12.4,27.5-29.2V539h15.3V632.1z M474.5,631.7c-2.7,1.6-6.1,2.5-11,2.5
	c-7.9,0-13-4.3-13-14.4c-8.5,9.9-19.8,14.4-32.8,14.4c-16.9,0-30.8-7.6-30.8-26.1c0-21.1,15.7-25.6,31.5-28.6
	c16.9-3.2,31.3-2.2,31.3-13.7c0-13.3-11-15.5-20.7-15.5c-13,0-22.5,4-23.2,17.6h-15.3c0.9-23,18.7-31.1,39.4-31.1
	c16.7,0,34.9,3.8,34.9,25.6v47.9c0,7.2,0,10.4,4.9,10.4c1.3,0,2.7-0.2,4.7-0.9V631.7z M449.6,584c-5.9,4.3-17.5,4.5-27.7,6.3
	c-10.1,1.8-18.7,5.4-18.7,16.7c0,10.1,8.6,13.7,18,13.7c20.2,0,28.4-12.6,28.4-21.1V584z M485.1,503.6h15.3v128.5h-15.3V503.6z
	 M535.8,522.3h-15.3v-18.7h15.3V522.3z M520.5,539h15.3v93.1h-15.3V539z M576.3,539h18.5v13.5h-18.5v57.8c0,7,2,8.3,11.5,8.3h7v13.5
	h-11.7c-15.8,0-22.1-3.2-22.1-20.3v-59.2h-15.8V539H561v-27.9h15.3V539z M623.5,522.3h-15.3v-18.7h15.3V522.3z M608.2,539h15.3v93.1
	h-15.3V539z M722.1,602.6c-4.1,20.5-18.9,31.7-39.8,31.7c-29.7,0-43.7-20.5-44.6-49c0-27.9,18.4-48.4,43.7-48.4
	c32.9,0,43,30.8,42.1,53.3h-69.7c-0.5,16.2,8.6,30.6,29,30.6c12.6,0,21.4-6.1,24.1-18.2H722.1z M707.4,576.6
	c-0.7-14.6-11.7-26.3-26.8-26.3c-16,0-25.6,12.1-26.6,26.3H707.4z M744.3,602.7c0.5,13.7,12.4,18,25,18c9.5,0,22.5-2.2,22.5-13.9
	c0-11.9-15.1-13.9-30.4-17.3c-15.1-3.4-30.4-8.5-30.4-26.3c0-18.7,18.5-26.5,34.7-26.5c20.5,0,36.9,6.5,38.2,29.2h-15.3
	c-1.1-11.9-11.5-15.7-21.6-15.7c-9.2,0-19.8,2.5-19.8,11.9c0,11,16.2,12.8,30.4,16.2c15.3,3.4,30.4,8.5,30.4,26.5
	c0,22.1-20.7,29.3-39.6,29.3c-20.9,0-38.5-8.5-39.4-31.5H744.3z M922.8,500.5c40.9,0,61.6,32.4,61.6,67.3s-20.7,67.3-61.6,67.3
	s-61.6-32.4-61.6-67.3S882,500.5,922.8,500.5z M922.8,620.7c31.3,0,44.5-27,44.5-52.9s-13.1-52.9-44.5-52.9s-44.5,27-44.5,52.9
	S891.5,620.7,922.8,620.7z M1004.6,552.5h-15.7V539h15.7v-13.9c0-15.1,9-23,25.7-23c2.9,0,7,0.5,9.9,1.4v13.3
	c-2.7-0.9-5.9-1.3-8.6-1.3c-7.4,0-11.7,2.3-11.7,10.4v13h18v13.5h-18v79.6h-15.3V552.5z M1050.1,552.5h-15.7V539h15.7v-13.9
	c0-15.1,9-23,25.7-23c2.9,0,7,0.5,9.9,1.4v13.3c-2.7-0.9-5.9-1.3-8.6-1.3c-7.4,0-11.7,2.3-11.7,10.4v13h18v13.5h-18v79.6h-15.3
	V552.5z M1098,522.3v-18.7h15.3v18.7H1098z M1098,632.1V539h15.3v93.1H1098z M1195.7,568.9c-2.3-11.7-10.4-18.5-23-18.5
	c-22.1,0-29,17.5-29,36.4c0,17.1,7.7,34,27.2,34c14.8,0,23.6-8.6,25.6-22.7h15.7c-3.4,22.7-17.6,36.2-41,36.2
	c-28.4,0-43.6-19.8-43.6-47.5c0-27.9,14.4-49.9,43.9-49.9c21.1,0,38,9.9,40.1,32H1195.7z M1304.1,602.6
	c-4.1,20.5-18.9,31.7-39.8,31.7c-29.7,0-43.7-20.5-44.6-49c0-27.9,18.4-48.4,43.7-48.4c32.9,0,43,30.8,42.1,53.3h-69.7
	c-0.5,16.2,8.6,30.6,29,30.6c12.6,0,21.4-6.1,24.1-18.2H1304.1z M1289.3,576.6c-0.7-14.6-11.7-26.3-26.8-26.3
	c-16,0-25.6,12.1-26.6,26.3H1289.3z"/>
<line class="st1" x1="7.5" y1="0" x2="7.5" y2="634.7"/>
<g>
	<path class="st2" d="M206.8,40.6c-1.5,3-3,4.5-3,6c0,1.5,3,3,3,6c1.5-3,3-4.5,3-6C209.8,45.1,206.8,42.1,206.8,40.6"/>
	<path class="st2" d="M242.8,40.6c1.5,3,3,4.5,3,6c0,1.5-3,3-3,6c-1.5-3-3-4.5-3-6C239.8,45.1,242.8,42.1,242.8,40.6"/>
	<path class="st2" d="M185.8,39.1c1.5,0,3-1.5,3-3c0-1.5-1.5-3-3-3c-1.5,0-3,1.5-3,3S184.3,39.1,185.8,39.1"/>
	<path class="st2" d="M187.3,42.1c0-1.5-1.5-3-3-3s-3,1.5-3,3c1.5,1.5,3,3,4.5,3C185.8,45.1,187.3,43.6,187.3,42.1"/>
	<path class="st2" d="M188.8,48.1c0-1.5-1.5-3-3-3c-1.5,0-3,1.5-3,3s1.5,3,3,3S188.8,49.6,188.8,48.1"/>
	<path class="st2" d="M199.3,27.1c1.5,0,3-1.5,3-3c0-1.5-1.5-3-3-3c-1.5,1.5-1.5,3-1.5,4.5C197.8,25.6,197.8,27.1,199.3,27.1"/>
	<path class="st2" d="M193.3,28.6c1.5,0,3-1.5,3-3s-1.5-3-3-3c-1.5,0-3,1.5-3,3C190.3,28.6,191.8,28.6,193.3,28.6"/>
	<path class="st2" d="M188.8,33.1c1.5,0,3-1.5,3-3s-1.5-3-3-3c-1.5,0-3,1.5-3,3C185.8,33.1,187.3,33.1,188.8,33.1"/>
	<path class="st2" d="M206.8,28.6c1.5,0,3-1.5,3-3s-1.5-3-3-3c-1.5,0-3,1.5-3,3C203.8,27.1,205.3,28.6,206.8,28.6"/>
	<path class="st2" d="M212.8,30.1c1.5,0,3-1.5,3-3s-1.5-3-3-3c-1.5,0-3,1.5-3,3S211.3,30.1,212.8,30.1"/>
	<path class="st2" d="M217.3,33.1c1.5,0,3-1.5,3-3s-1.5-3-3-3c-1.5,0-3,1.5-3,3C215.8,31.6,217.3,33.1,217.3,33.1"/>
	<path class="st2" d="M262.3,36.1c0,1.5,1.5,3,3,3s3-1.5,3-3c0-1.5-1.5-3-3-3C263.8,34.6,262.3,36.1,262.3,36.1"/>
	<path class="st2" d="M265.3,40.6c-1.5,0-3,1.5-3,3s1.5,3,3,3s3-1.5,3-3C268.3,42.1,266.8,40.6,265.3,40.6"/>
	<path class="st2" d="M263.8,46.6c-1.5,0-3,1.5-3,3c0,1.5,1.5,3,3,3s3-1.5,3-3C266.8,46.6,265.3,46.6,263.8,46.6"/>
	<path class="st2" d="M250.3,27.1c1.5,0,3-1.5,3-3c0-1.5-1.5-3-3-3c-1.5,0-3,1.5-3,3C248.8,25.6,248.8,27.1,250.3,27.1"/>
	<path class="st2" d="M256.3,28.6c1.5,0,3-1.5,3-3s-1.5-3-3-3c-1.5,0-3,1.5-3,3C254.8,28.6,256.3,28.6,256.3,28.6"/>
	<path class="st2" d="M262.3,33.1c1.5,0,3-1.5,3-3s-1.5-3-3-3c-1.5,0-3,1.5-3,3C259.3,33.1,260.8,33.1,262.3,33.1"/>
	<path class="st2" d="M244.3,28.6c1.5,0,3-1.5,3-3s-1.5-3-3-3s-3,1.5-3,3C241.3,27.1,242.8,28.6,244.3,28.6"/>
	<path class="st2" d="M238.3,30.1c1.5,0,3-1.5,3-3s-1.5-3-3-3s-3,1.5-3,3S236.8,30.1,238.3,30.1"/>
	<path class="st2" d="M229.3,30.1c0,1.5,1.5,3,3,3s3-1.5,3-3s-1.5-3-3-3C230.8,27.1,229.3,28.6,229.3,30.1"/>
	<path class="st2" d="M220.3,43.6h3V33.1c-1.5,0-1.5,0-3-1.5V43.6z"/>
	<path class="st2" d="M229.3,31.6c-1.5,0-1.5,0-3,1.5v10.5h3V31.6z"/>
	<path class="st2" d="M223.3,19.6v-6c-3,0-6,3-6,6H223.3z"/>
	<path class="st2" d="M226.3,19.6h6c0-3-3-6-6-6V19.6z"/>
	<path class="st2" d="M217.3,22.6c1.5,4.5,4.5,7.5,7.5,7.5s7.5-3,7.5-6h-15V22.6z"/>
	<path class="st2" d="M229.3,13.6c-1.5-1.5-3-3-3-6c1.5,0,4.5,1.5,6,3V3.1c-1.5,1.5-3,3-6,3c0-1.5,1.5-4.5,3-6h-7.5
		c1.5,1.5,3,4.5,3,6c-1.5,0-4.5-1.5-6-3v9c1.5-1.5,3-3,6-3c0,1.5-1.5,4.5-3,6h7.5V13.6z"/>
	<path class="st2" d="M229.3,190.6c-1.5,0-3-1.5-3-3c0-1.5,1.5-3,3-3s3,1.5,3,3S230.8,190.6,229.3,190.6 M215.8,186.1
		c-1.5,0-3-1.5-3-3c0-1.5,1.5-3,3-3c1.5,0,3,1.5,3,3S217.3,186.1,215.8,186.1 M209.8,171.1L209.8,171.1c-3-1.5-3-1.5-4.5,0l-1.5,1.5
		l-1.5,1.5l0,0c1.5,1.5,1.5,3,1.5,3s0,0-1.5,0c-1.5,0-1.5,0-3-1.5l0,0l0,0l0,0l0,0c-1.5,4.5-1.5,4.5-1.5,6l0,0
		c0,1.5,1.5,1.5,1.5,1.5l0,0c0,0,1.5,1.5,3,1.5c-1.5,1.5-3,1.5-4.5,0c-1.5-1.5-3-3-3-4.5c0-1.5,1.5-4.5,3-6l0,0l0,0
		c0-1.5-1.5-1.5-1.5-1.5c1.5,0,1.5,0,3,0l0,0l0,0c1.5-1.5,4.5-4.5,7.5-4.5C208.3,168.1,209.8,168.1,209.8,171.1
		C211.3,169.6,211.3,171.1,209.8,171.1C211.3,171.1,211.3,171.1,209.8,171.1 M238.3,183.1c-7.5-1.5-16.5-6-25.5-9l0,0
		c0-1.5,0-3-1.5-4.5c-1.5-1.5-3-3-4.5-3c-1.5,0-1.5,0-3,0c-1.5-1.5-3-3-3-3c-3-4.5-6-9-7.5-13.5c-1.5-3-1.5-6-1.5-9c0,3-3,6-7.5,6
		v-1.5c-1.5,1.5-3,3-7.5,1.5c0,3,1.5,7.5,3,10.5c3,7.5,6,13.5,10.5,18c1.5,1.5,3,3,4.5,4.5c0,0,0,0,0,1.5s1.5,4.5,4.5,6
		c1.5,1.5,4.5,0,6,0c4.5,1.5,9,4.5,13.5,6c6,1.5,12,3,16.5,3c4.5,0,9-1.5,13.5-4.5c1.5-1.5,4.5-3,4.5-4.5l0,0
		C248.8,184.6,242.8,183.1,238.3,183.1"/>
	<path class="st2" d="M236.8,214.6c0-1.5-1.5-1.5-1.5-1.5c-3,0-1.5,9-6,9c-1.5,0-3-1.5-3-1.5c0-1.5,1.5-1.5,1.5-3
		c0-1.5-1.5-1.5-1.5-1.5c-1.5,0-1.5,0-1.5,1.5s1.5,1.5,1.5,3s-1.5,1.5-3,1.5c-4.5,0-3-9-6-9c0,0-1.5,0-1.5,1.5c0-1.5-1.5-3-1.5-3
		c0-1.5,1.5-3,3-3c4.5,0,3,6,6,6c1.5,0,1.5,0,1.5-1.5c0-1.5-3-3-3-6s1.5-4.5,4.5-6c3,1.5,4.5,4.5,4.5,6c0,3-3,4.5-3,6s0,1.5,1.5,1.5
		c1.5,0,1.5-6,6-6c3,0,3,1.5,3,3C236.8,211.6,236.8,213.1,236.8,214.6 M224.8,225.1c-1.5,0-1.5-1.5-1.5-1.5c0-1.5,1.5-1.5,1.5-1.5
		c1.5,0,1.5,1.5,1.5,1.5C227.8,225.1,226.3,225.1,224.8,225.1 M233.8,205.6h-1.5v-9c-4.5,0-9-1.5-13.5-1.5v12h-1.5c-3,0-6,3-6,6
		s1.5,4.5,3,6c0-1.5,1.5-3,1.5-3c1.5,0,1.5,7.5,6,9v1.5c0,1.5,1.5,3,3,3s3-1.5,3-3v-1.5c4.5,0,4.5-9,6-9c1.5,0,1.5,1.5,1.5,3
		c1.5-1.5,3-3,3-6C238.3,208.6,236.8,205.6,233.8,205.6"/>
	<path class="st2" d="M343.3,216.1C343.3,216.1,341.8,216.1,343.3,216.1c-12,3-25.5-6-39-15c-10.5-7.5-21-13.5-30-13.5
		c-3,0-6,0-9,1.5c-3,1.5-6,4.5-7.5,7.5s-3,6-4.5,7.5c-1.5,3-3,4.5-3,6c0,1.5,1.5,3,3,4.5c1.5,1.5,3,3,6,4.5c0,0,1.5,0,1.5,1.5
		c1.5,1.5,3,1.5,3,3c-4.5,1.5-10.5,3-16.5,4.5c-7.5,1.5-15,1.5-22.5,1.5c-9,0-16.5,0-22.5-1.5c-6-1.5-12-3-16.5-4.5
		c0-1.5,1.5-3,4.5-3c0,0,1.5,0,1.5-1.5c1.5-1.5,4.5-3,6-3c1.5-1.5,3-3,3-4.5c0-1.5-1.5-4.5-3-6c-1.5-1.5-3-4.5-4.5-7.5
		c-1.5-3-4.5-6-7.5-7.5c-3-1.5-6-1.5-9-1.5c-9,0-19.5,7.5-30,13.5c-13.5,9-27,18-37.5,15h-1.5v1.5c3,1.5,6,3,9,6c4.5,3,7.5,6,12,6
		s7.5-1.5,13.5-4.5c4.5-3,9-6,13.5-9c9-6,18-12,25.5-12c-1.5,1.5-1.5,1.5-3,3c-3,1.5-4.5,4.5-4.5,7.5s1.5,4.5,3,9
		c0,1.5,1.5,1.5,1.5,3c1.5,1.5,1.5,3,1.5,6c0,1.5,0,1.5,1.5,3c0,1.5,1.5,6,7.5,9c7.5,3,19.5,6,36,6s30-1.5,36-6c6-3,7.5-7.5,7.5-9
		c0-1.5,0-3,1.5-3c0-3,1.5-4.5,1.5-6s1.5-3,1.5-4.5c1.5-3,3-4.5,3-7.5c0-4.5-3-6-4.5-9c-1.5,0-1.5-1.5-3-3c9,0,18,6,25.5,12
		c4.5,3,9,6,13.5,9c4.5,3,9,4.5,13.5,4.5c4.5,0,7.5-3,12-6C335.8,222.1,338.8,219.1,343.3,216.1
		C343.3,217.6,343.3,217.6,343.3,216.1"/>
	<path class="st2" d="M226.3,132.1V91.6c4.5,0,9,1.5,12,3c4.5,1.5,7.5,4.5,12,9c3,4.5,6,9,7.5,13.5c1.5,4.5,3,10.5,3,15
		C260.8,132.1,226.3,132.1,226.3,132.1z M224.8,73.6c-12,0-19.5,3-24,6c-3,0-3-1.5-3-4.5c0-6,18-7.5,28.5-7.5l0,0
		c9,0,28.5,0,28.5,7.5c0,1.5-1.5,3-4.5,4.5C244.3,78.1,236.8,73.6,224.8,73.6 M224.8,132.1h-34.5c0-6,1.5-10.5,3-15
		c1.5-4.5,4.5-9,7.5-13.5c3-4.5,7.5-7.5,12-9c4.5-1.5,9-3,13.5-3L224.8,132.1L224.8,132.1z M277.3,129.1c-1.5-1.5-3-3-4.5-4.5
		c-1.5-3-6-13.5-7.5-15c0-1.5-1.5-1.5-1.5-3c0-1.5,0-1.5,1.5-3c0,0,1.5-1.5,1.5-3c0,0,0-1.5,1.5-1.5c-1.5-3-4.5-6-6-9
		c-3-3-6-6-10.5-9c1.5-1.5,4.5-3,4.5-6c0-1.5-1.5-3-1.5-4.5c1.5-7.5,6-15,9-19.5l-7.5-3c1.5,4.5,1.5,7.5,1.5,9c-1.5-1.5-3-3-4.5-6
		c0,1.5-1.5,6-3,7.5c1.5-1.5,3-1.5,6,0c-1.5,1.5-4.5,4.5-9,3c-1.5,0-4.5-1.5-4.5-3s1.5-3,3-3c1.5,0,1.5,3,1.5,3
		c1.5-1.5,4.5-7.5,1.5-7.5c-3,0-4.5,3-6,6c0-3-1.5-6-4.5-6c-3,0-1.5,6-1.5,7.5c0-1.5,1.5-3,3-3s1.5,0,1.5,3c0,1.5-3,1.5-6,1.5
		c-3,0-7.5-1.5-9-6c1.5,0,4.5,1.5,6,3c0-3,0-6,0-9c-1.5,3-4.5,3-6,3c0-3,3-4.5,4.5-6h-12c3,1.5,4.5,4.5,4.5,6c-1.5,0-4.5-1.5-6-3
		c0,3,0,6,0,9c1.5-1.5,4.5-3,6-3c0,6-4.5,6-7.5,6s-6,0-6-3c0-1.5,1.5-3,1.5-3c1.5,1.5,1.5,1.5,1.5,4.5c1.5-1.5,1.5-7.5-1.5-7.5
		c-3,0-4.5,3-4.5,6c-1.5-3-3-6-6-6c-3,1.5-1.5,6,1.5,7.5c0-1.5,0-3,1.5-3c1.5,0,3,1.5,3,3c0,1.5-3,3-4.5,4.5c-4.5,0-7.5-3-9-4.5
		c1.5-1.5,3,0,6,0c-1.5-1.5-1.5-4.5-3-7.5c0,3-1.5,4.5-4.5,6c0-1.5,0-4.5,1.5-7.5l-7.5,3c3,3,7.5,12,9,19.5c-1.5,1.5-1.5,3-1.5,4.5
		c0,3,1.5,4.5,4.5,6c-4.5,3-7.5,6-10.5,9c-4.5,6-9,12-10.5,18c1.5,1.5,6,6,6,7.5c1.5,1.5,3,4.5,3,6c0,3,1.5,4.5,3,6
		c0,0,1.5,3,1.5,4.5h34.5v37.5c-1.5,0-3,0-4.5,1.5c4.5,1.5,7.5,3,12,4.5c0-3,1.5-4.5,1.5-6c0,0-4.5,0-7.5,0v-37.5h34.5
		c0,4.5-1.5,10.5-3,15s-4.5,9-7.5,13.5s-7.5,7.5-12,9c0,0,0,1.5-1.5,1.5c0,0-1.5,1.5-1.5,3c0,1.5,0,1.5-1.5,3c1.5,0,3,0,4.5,1.5
		c12,3,15,1.5,15,1.5l0,0c3-1.5,4.5-4.5,7.5-7.5c4.5-6,9-12,10.5-18c3-7.5,4.5-15,4.5-22.5C277.3,132.1,277.3,130.6,277.3,129.1"/>
	<path class="st2" d="M245.8,108.1L245.8,108.1C245.8,109.6,245.8,109.6,245.8,108.1c0,1.5,0,3-1.5,3h1.5v1.5c0,0,0,0,1.5,0
		c3,4.5,4.5,9,4.5,13.5c0,0,0,0-1.5,0v1.5h-9v-1.5c0,0,0,0-1.5,0v-1.5v1.5h-1.5c0,0,0,0,0,1.5h-7.5v-1.5h-1.5v-12h1.5v-1.5h1.5h-1.5
		v-1.5c0,0,0,0-1.5,0v-12c0,0,0,0,1.5,0v-1.5c3,0,4.5,1.5,6,3C241.3,103.6,244.3,105.1,245.8,108.1 M254.8,126.1
		C256.3,126.1,256.3,126.1,254.8,126.1c-1.5-4.5-3-10.5-7.5-16.5l0,0l1.5-1.5c-1.5,0-1.5,0-1.5,1.5c0,0,0,0-1.5-1.5
		c-1.5-3-3-6-6-7.5c-3-1.5-6-3-7.5-3c0,0,1.5-1.5,1.5,0c0-1.5-1.5-1.5-1.5-1.5s0,0,0,1.5c0,0-1.5,0-1.5-1.5v1.5c0,0,0,0-1.5,0
		c0,0,0,1.5,1.5,1.5v-1.5v13.5h-1.5c0,0,1.5,1.5,1.5,0v15c0,0-1.5-1.5,0-1.5c-1.5,0-1.5,1.5-1.5,1.5s0,0,1.5,0v1.5h1.5v1.5
		c0,0,1.5,0,1.5-1.5h-1.5h10.5v1.5c0,0,1.5-1.5,0-1.5h10.5c0,0-1.5,1.5-1.5,0c0,1.5,1.5,1.5,1.5,1.5s0,0,0-1.5h1.5L254.8,126.1
		C256.3,127.6,256.3,127.6,254.8,126.1C256.3,126.1,256.3,126.1,254.8,126.1"/>
	<path class="st2" d="M248.8,121.6C250.3,121.6,250.3,121.6,248.8,121.6C250.3,121.6,248.8,121.6,248.8,121.6c0-1.5,0-1.5,0-1.5
		s0,0-1.5,0c0,0-3,0-3-1.5c0,0,0,0,1.5,1.5l0,0l0,0c0,0,0,0,1.5,0l0,0l0,0c0,0,1.5,0,1.5-1.5s-1.5-1.5-1.5-3c0,0-1.5,0-1.5-1.5
		s0-1.5-1.5-3v-1.5c0,1.5-1.5,3,0,4.5c1.5,1.5,3,3,3,3l0,0l0,0l0,0l0,0c0,0,0,0-1.5,0c-1.5-1.5-1.5-3-3-3c-1.5-1.5,0-3,0-4.5
		c1.5-1.5,0-3-1.5-4.5c0,0,0,0,0-1.5l0,0l0,0l0,0l0,0l0,0c0,0,0,0-1.5,0l0,0l0,0l0,0l0,0l0,0h1.5l0,0c0,0,0,0-1.5,0l0,0
		c0,0,0,0,1.5,0h1.5c0,1.5-1.5,1.5-1.5,3c0,0,0,0-1.5-1.5c0,0,0-1.5-1.5-1.5c0,0,0,0-1.5-1.5c0,0,0,0,0-1.5v-1.5l0,0l0,0l0,0l0,0
		l0,0l0,0l0,0l0,0c0,0,0,0,0-1.5l0,0l0,0l0,0l0,0l0,0l0,0l0,0l0,0l0,0h-1.5l0,0l0,0l0,0l0,0l0,0l0,0l0,0l0,0l0,0c0,0,0,0,0,1.5h-1.5
		c0,1.5,0,1.5,1.5,1.5v1.5l0,0l0,0l0,0l0,0l0,0c0,0,1.5,1.5,3,3l-1.5,1.5c0,0-1.5,1.5-1.5,0l0,0l0,0l0,0c0,0,0,0-1.5,0l0,0l0,0
		c0,0,0,0,1.5,0l0,0l0,0l0,0l0,0l0,0c0,0,0,0,0,1.5l0,0l0,0c0,0,0,0,1.5,0l0,0v1.5l0,0l0,0c0,0,0,0,1.5,0l0,0l0,0c0,0,0,0,0-1.5l0,0
		l0,0l0,0h1.5c0,0,0,0,1.5-1.5h1.5c0,0,0,0,0-1.5c0,1.5,3,1.5,3,3c-1.5,0-1.5,0-3,0l-1.5,1.5c0,0,0,1.5,1.5,3c-1.5,0-1.5,0-1.5,0
		l0,0c0,0,0-1.5-1.5-1.5l0,0l0,0l0,0l0,0l0,0l0,0l0,0l0,0h-1.5l0,0l0,0l0,0l0,0l0,0l0,0l0,0l0,0l0,0c0,0,0,0,1.5,0l0,0l0,0l0,0l0,0
		l0,0l0,0l0,0l0,0l0,0c0,0,0,0,1.5,0l0,0c0,0,0,0,1.5,0l0,0c0,0,0,0,0-1.5c0-1.5,1.5-1.5,1.5-1.5s1.5,3,3,3c1.5,0,1.5,0,1.5,0
		C247.3,121.6,247.3,121.6,248.8,121.6C247.3,121.6,247.3,121.6,248.8,121.6c-1.5,1.5-1.5,1.5-3,1.5l0,0l0,0l0,0l0,0c0,0,0,0,1.5,0
		l0,0l0,0l0,0l0,0l0,0l0,0l0,0l0,0l0,0l0,0c0,0,0,0,1.5,0l0,0l0,0C248.8,123.1,248.8,123.1,248.8,121.6
		C248.8,123.1,248.8,123.1,248.8,121.6C248.8,123.1,248.8,123.1,248.8,121.6C250.3,123.1,250.3,121.6,248.8,121.6
		C250.3,121.6,248.8,121.6,248.8,121.6L248.8,121.6z"/>
	<path class="st2" d="M217.3,141.1L217.3,141.1c-1.5,0-1.5,0-1.5,1.5c0,0,0,1.5,1.5,1.5l0,0l0,0c0,1.5,0,3,0,4.5l-4.5-7.5
		C215.8,139.6,217.3,139.6,217.3,141.1C217.3,138.1,217.3,139.6,217.3,141.1 M215.8,153.1l-7.5-12c1.5,0,1.5,0,3-1.5l6,9
		C215.8,151.6,215.8,153.1,215.8,153.1 M214.3,159.1l-12-16.5c0,0,0,0,1.5,0h1.5l9,13.5C215.8,156.1,215.8,157.6,214.3,159.1
		 M202.3,142.6l12,18C208.3,157.6,200.8,151.6,202.3,142.6 M220.3,141.1L220.3,141.1L220.3,141.1c0-3-1.5-4.5-4.5-4.5
		c-1.5,0-6,3-10.5,3c-3,0-4.5-1.5-6-1.5v1.5l0,0c0,0,0-1.5-1.5-1.5c0,0-1.5,0-1.5,1.5c0,0,0,1.5,1.5,1.5h1.5v1.5l0,0
		c-1.5,7.5,4.5,18,15,21c1.5,0,3,0,3,1.5c0,1.5,0,1.5-1.5,1.5c0,0-1.5,0-1.5-1.5c0,0,1.5,0,1.5-1.5c0,0,0-1.5-1.5-1.5
		c0,0-1.5,0-1.5,1.5c0,1.5,1.5,3,3,3c1.5,0,3,0,3-3h1.5v-1.5l0,0v-18l0,0C221.8,142.6,221.8,142.6,220.3,141.1
		C221.8,141.1,221.8,141.1,220.3,141.1"/>
	<path class="st2" d="M211.3,102.1L211.3,102.1L211.3,102.1L211.3,102.1L211.3,102.1C211.3,100.6,211.3,102.1,211.3,102.1
		C211.3,100.6,211.3,100.6,211.3,102.1C211.3,100.6,211.3,100.6,211.3,102.1L211.3,102.1C212.8,102.1,212.8,102.1,211.3,102.1
		C212.8,102.1,212.8,102.1,211.3,102.1C212.8,102.1,212.8,102.1,211.3,102.1C212.8,102.1,212.8,102.1,211.3,102.1
		C212.8,102.1,212.8,102.1,211.3,102.1L211.3,102.1C212.8,102.1,212.8,102.1,211.3,102.1C211.3,102.1,211.3,103.6,211.3,102.1
		L211.3,102.1 M212.8,100.6C212.8,100.6,211.3,100.6,212.8,100.6C211.3,100.6,211.3,100.6,212.8,100.6
		C211.3,100.6,212.8,100.6,212.8,100.6 M212.8,100.6L212.8,100.6C212.8,100.6,212.8,102.1,212.8,100.6
		C212.8,102.1,212.8,100.6,212.8,100.6 M211.3,100.6L211.3,100.6L211.3,100.6 M218.8,103.6c3,0,3-1.5,3-1.5c0-3-7.5-1.5-7.5-3
		c0,0,0,0,0-1.5l0,0c3,0,3-3,6-3c-3,0-3,1.5-4.5,1.5l1.5-1.5c0,1.5-1.5,1.5-3,1.5l0,0c0,0,0,0,0,1.5c0,3,7.5,1.5,7.5,3
		C221.8,103.6,220.3,103.6,218.8,103.6s-3-1.5-4.5-1.5c0,0,1.5-1.5,0-1.5l0,0l0,0l0,0l0,0l0,0l0,0l0,0l0,0l0,0l0,0l0,0l0,0v1.5l0,0
		v1.5l0,0c0,0,0,0,0-1.5c0,0,0,0,0-1.5l0,0l0,0l0,0l0,0l0,0l0,0l0,0l0,0l0,0l0,0l0,0l0,0l0,0l0,0l0,0l0,0l0,0l0,0c0,0,0,0-1.5,0l0,0
		l0,0l0,0l0,0l0,0l0,0l0,0l0,0l0,0l0,0l0,0h-1.5c0,0,0,1.5,1.5,1.5l0,0l0,0l0,0l0,0l0,0l0,0c0,0,0,0,0,1.5h-1.5h-1.5h-1.5l0,0l0,0
		l0,0l0,0l0,0l0,0l0,0l0,0l0,0l0,0l0,0l0,0l0,0l0,0l0,0c0,0,0,0,1.5,0l0,0l0,0l0,0l0,0l0,0l0,0l0,0l0,0l0,0l0,0l0,0l0,0l0,0l0,0l0,0
		l0,0l0,0l0,0l0,0l0,0l0,0l0,0l0,0c0-1.5,0,0,1.5-1.5l0,0l0,0l0,0l0,0l0,0l0,0h1.5c1.5,0-1.5-1.5,1.5-1.5c0,0,0,0,1.5,0v1.5l0,0l0,0
		l0,0c0,0,0-1.5-1.5,0l0,0l0,0l0,0l0,0l0,0l0,0l0,0c0,0-1.5,0,0,0l0,0l0,0l0,0l0,0l0,0l0,0l0,0l0,0l0,0l0,0l0,0l0,0l0,0l0,0l0,0l0,0
		l0,0l0,0l0,0h1.5v-1.5C217.3,106.6,217.3,105.1,218.8,103.6C217.3,105.1,218.8,105.1,218.8,103.6
		C218.8,105.1,218.8,105.1,218.8,103.6c0,1.5,1.5,1.5,1.5,1.5l0,0c0,0,0,0,0,1.5c0,0,0,0-1.5,0l0,0l0,0l0,0l0,0l0,0l0,0l0,0l0,0l0,0
		l0,0l0,0l0,0l0,0l0,0l0,0l0,0l0,0l0,0l0,0l0,0l0,0l0,0l0,0l0,0l0,0l0,0l0,0l0,0l0,0C220.3,105.1,220.3,103.6,218.8,103.6
		L218.8,103.6"/>
	<path class="st2" d="M206.8,117.1L206.8,117.1L206.8,117.1 M205.3,112.6L205.3,112.6L205.3,112.6L205.3,112.6L205.3,112.6
		C205.3,111.1,205.3,112.6,205.3,112.6C205.3,111.1,205.3,111.1,205.3,112.6C205.3,111.1,205.3,111.1,205.3,112.6L205.3,112.6
		C206.8,112.6,206.8,112.6,205.3,112.6C206.8,112.6,206.8,112.6,205.3,112.6C206.8,112.6,206.8,112.6,205.3,112.6
		C206.8,112.6,206.8,112.6,205.3,112.6C206.8,112.6,206.8,112.6,205.3,112.6L205.3,112.6C206.8,112.6,206.8,112.6,205.3,112.6
		C205.3,114.1,205.3,114.1,205.3,112.6L205.3,112.6 M206.8,111.1C206.8,111.1,205.3,111.1,206.8,111.1
		C205.3,111.1,205.3,111.1,206.8,111.1C205.3,111.1,206.8,111.1,206.8,111.1 M206.8,111.1L206.8,111.1
		C206.8,111.1,206.8,112.6,206.8,111.1C206.8,112.6,206.8,111.1,206.8,111.1 M202.3,114.1L202.3,114.1L202.3,114.1 M221.8,112.6
		c0,0-1.5-1.5-3-1.5c-3,0-7.5,1.5-7.5,0c0,0,1.5,0,3,0l0,0c3,1.5,7.5,0,9,0c-1.5-1.5-4.5,0-6,0c1.5,0,1.5,0,1.5-1.5
		c-1.5,0-3,0-4.5,0l0,0c-1.5,0-3,0-3,1.5C211.3,114.1,217.3,112.6,221.8,112.6C220.3,112.6,221.8,112.6,221.8,112.6
		c-1.5,0-3,0-4.5,0c-1.5,0-7.5-1.5-10.5,0c0,0,1.5-1.5,0-1.5l0,0l0,0l0,0l0,0l0,0l0,0l0,0l0,0l0,0c0,0,0,0,0,1.5c0,0,0,1.5-1.5,0
		l0,0v1.5l0,0c0,0,0,0,0,1.5l0,0l0,0l0,0l0,0l0,0c0,0,0,0-1.5-1.5c0,0,0,0,0-1.5v-1.5l0,0l0,0l0,0l0,0l0,0l0,0l0,0l0,0l0,0l0,0l0,0
		l0,0l0,0l0,0l0,0l0,0l0,0l0,0h-1.5l0,0l0,0l0,0l0,0l0,0l0,0l0,0l0,0l0,0c0,0,0,0,0,1.5l0,0h-1.5c0,1.5,0,1.5,1.5,1.5l0,0l0,0l0,0
		l0,0l0,0l0,0c0,0,0,0,1.5,1.5h1.5v1.5h-1.5h-1.5l0,0l0,0l0,0c0,0,0,0-1.5,0l0,0l0,0l0,0l0,0l0,0l0,0l0,0l0,0c0,0-1.5,0,0,0l0,0l0,0
		c0,0,0,0,1.5,0l0,0c0,0,0,0,0,1.5l0,0l0,0l0,0l0,0l0,0l0,0l0,0l0,0l0,0l0,0l0,0l0,0l0,0l0,0l0,0l0,0c0,0,0,0,1.5,0l0,0l0,0l0,0l0,0
		c0-1.5,0,0,1.5-1.5l0,0l0,0l1.5-1.5l0,0c1.5,0,0-1.5,4.5-1.5c0,0,0,0,1.5,0v1.5c0,0,0,0,1.5,0l0,0l0,0c0,0,0-1.5-1.5-1.5l0,0l0,0
		l0,0l0,0l0,0l0,0l0,0h-1.5l0,0l0,0l0,0l0,0l0,0l0,0l0,0l0,0l0,0c0,0,0,0,1.5,0l0,0l0,0l0,0l0,0l0,0l0,0l0,0l0,0l0,0h1.5v-1.5
		c0,0,0,0,0-1.5h1.5c1.5,0,1.5,0,1.5,0h1.5l0,0c0,0,0,0,0,1.5c0,0,0,0-1.5,0l0,0l0,0l0,0l0,0l0,0l0,0l0,0l0,0l0,0l0,0l0,0l0,0l0,0
		l0,0l0,0l0,0l0,0l0,0c0,0,0,0,0-1.5l0,0l0,0l0,0l0,0l0,0l0,0l0,0l0,0l0,0l0,0c0,0-1.5,0-3,0C220.3,114.1,221.8,114.1,221.8,112.6"
		/>
	<path class="st2" d="M202.3,123.1L202.3,123.1C202.3,123.1,203.8,123.1,202.3,123.1C203.8,123.1,202.3,123.1,202.3,123.1
		S203.8,123.1,202.3,123.1L202.3,123.1L202.3,123.1C202.3,121.6,202.3,121.6,202.3,123.1L202.3,123.1
		C203.8,123.1,203.8,123.1,202.3,123.1C203.8,123.1,203.8,123.1,202.3,123.1C203.8,123.1,203.8,123.1,202.3,123.1
		C203.8,123.1,203.8,123.1,202.3,123.1C203.8,123.1,203.8,123.1,202.3,123.1C203.8,123.1,203.8,123.1,202.3,123.1
		C203.8,123.1,203.8,123.1,202.3,123.1C203.8,124.6,202.3,124.6,202.3,123.1C202.3,124.6,202.3,123.1,202.3,123.1 M203.8,121.6
		L203.8,121.6C202.3,121.6,202.3,121.6,203.8,121.6C202.3,121.6,203.8,121.6,203.8,121.6 M203.8,121.6
		C203.8,121.6,205.3,123.1,203.8,121.6C203.8,123.1,205.3,123.1,203.8,121.6C203.8,123.1,203.8,121.6,203.8,121.6 M220.3,124.6
		c0,0-1.5-1.5-3-1.5c-3,0-9,1.5-9,0s3,0,4.5,0l0,0c3,1.5,6-1.5,7.5,0c-1.5-1.5-4.5,0-6,0c1.5,0,3,0,3,0c-1.5,0-4.5,0-4.5,0l0,0
		c-1.5,0-4.5,0-4.5,1.5c0,3,7.5,1.5,10.5,1.5C220.3,123.1,220.3,123.1,220.3,124.6c-1.5,0-3,0-4.5,0c-1.5,0-9-1.5-12,0
		c0,0,1.5-1.5,0-1.5l0,0l0,0l0,0l0,0l0,0l0,0l0,0l0,0l0,0c0,0,0,0,0,1.5c0,0,0,0-1.5,0l0,0v1.5l0,0l0,0l0,0l0,0l0,0c0,0,0,0-1.5-1.5
		c0,0,0,0,0-1.5v-1.5l0,0l0,0l0,0l0,0l0,0l0,0l0,0l0,0l0,0l0,0l0,0l0,0l0,0l0,0l0,0l0,0l0,0l0,0h-1.5l0,0l0,0l0,0l0,0l0,0l0,0l0,0
		l0,0l0,0c0,0,0,0,0,1.5l0,0h-1.5c0,0,0,1.5,1.5,1.5l0,0l0,0l0,0l0,0l0,0l0,0c0,0,0,1.5,1.5,1.5l0,0l0,0v1.5h-1.5h-1.5l0,0l0,0l0,0
		l0,0l0,0l0,0l0,0l0,0l0,0l0,0l0,0l0,0l0,0l0,0l0,0c0,0,0,0,1.5,0l0,0c0,0,0,0,0,1.5l0,0l0,0l0,0l0,0l0,0l0,0l0,0l0,0l0,0l0,0l0,0
		l0,0l0,0l0,0l0,0l0,0c0,0,0,0,1.5,0l0,0l0,0l0,0l0,0c0-1.5,1.5,0,1.5-1.5l0,0l0,0c0,0,0,0,1.5,0l0,0h1.5l0,0l0,0l0,0c0,0,0,0,1.5,0
		c4.5,0,1.5-1.5,6-1.5l0,0v1.5c0,0,0,0,1.5,0l0,0l0,0c0,0,0-1.5-1.5,0l0,0l0,0l0,0l0,0l0,0l0,0l0,0c0,0-1.5,0,0,0l0,0l0,0l0,0l0,0
		l0,0l0,0l0,0l0,0l0,0c0,0,0,0,1.5,0l0,0l0,0l0,0l0,0l0,0l0,0l0,0l0,0l0,0h1.5v-1.5c0,0,0,0,0-1.5h1.5
		C218.8,124.6,218.8,124.6,220.3,124.6L220.3,124.6L220.3,124.6c0,0,0,0,0,1.5c0,0,0,0-1.5,0l0,0l0,0l0,0l0,0l0,0l0,0l0,0l0,0l0,0
		l0,0l0,0l0,0l0,0l0,0l0,0l0,0l0,0l0,0C218.8,126.1,218.8,126.1,220.3,124.6L220.3,124.6L220.3,124.6L220.3,124.6L220.3,124.6
		L220.3,124.6L220.3,124.6L220.3,124.6L220.3,124.6C220.3,126.1,220.3,124.6,220.3,124.6c-1.5,1.5-3,1.5-3,1.5
		C218.8,124.6,220.3,124.6,220.3,124.6"/>
	<path class="st2" d="M238.3,142.6L238.3,142.6L238.3,142.6 M235.3,136.6L235.3,136.6L235.3,136.6 M235.3,138.1L235.3,138.1
		L235.3,138.1z M235.3,139.6C235.3,139.6,235.3,138.1,235.3,139.6C236.8,138.1,236.8,138.1,235.3,139.6
		C236.8,138.1,236.8,138.1,235.3,139.6C236.8,138.1,236.8,138.1,235.3,139.6C235.3,138.1,235.3,138.1,235.3,139.6
		C235.3,138.1,235.3,138.1,235.3,139.6C235.3,138.1,236.8,138.1,235.3,139.6L235.3,139.6C236.8,138.1,236.8,138.1,235.3,139.6
		C236.8,138.1,236.8,138.1,235.3,139.6C236.8,138.1,236.8,138.1,235.3,139.6C236.8,138.1,236.8,138.1,235.3,139.6
		C236.8,138.1,236.8,138.1,235.3,139.6C236.8,138.1,236.8,138.1,235.3,139.6C236.8,139.6,236.8,139.6,235.3,139.6
		C236.8,139.6,236.8,139.6,235.3,139.6L235.3,139.6 M236.8,136.6C236.8,138.1,236.8,138.1,236.8,136.6
		C235.3,136.6,235.3,136.6,236.8,136.6C235.3,136.6,236.8,136.6,236.8,136.6 M236.8,138.1C236.8,138.1,238.3,138.1,236.8,138.1
		C238.3,138.1,238.3,138.1,236.8,138.1L236.8,138.1 M253.3,141.1L253.3,141.1C253.3,141.1,254.8,141.1,253.3,141.1L253.3,141.1
		L253.3,141.1c-1.5-1.5-1.5-1.5-3-1.5l0,0c1.5,0,3,0,3-1.5c0,0-1.5-1.5-3-1.5c-3,0-9,1.5-9,0c0-1.5,3,0,4.5,0l0,0
		c3,1.5,6-1.5,7.5-1.5c-3-1.5-4.5,0-6,0c1.5,0,3,0,3,0c-1.5,0-4.5,0-4.5,0l0,0c-1.5,0-4.5,0-4.5,1.5c0,3,7.5,1.5,10.5,1.5
		c1.5,0,3,0,3,0s-1.5,0-3,0s-9-1.5-12,0c0,0,1.5-1.5,0-1.5l0,0l0,0l0,0l0,0l0,0l0,0l0,0l0,0l0,0c0,0,0,0,0,1.5c0,0,0,0-1.5,0l0,0
		v1.5l0,0l0,0l0,0l0,0l0,0c0,0,0,0-1.5-1.5c0,0,0,0,0-1.5c0,0,0,0,0-1.5l0,0l0,0l0,0l0,0l0,0l0,0l0,0l0,0l0,0l0,0l0,0l0,0l0,0l0,0
		l0,0l0,0l0,0l0,0l0,0l0,0l0,0l0,0l0,0l0,0l0,0l0,0l0,0l0,0c0,0,0,0,0,1.5l0,0h-1.5c0,1.5,0,1.5,1.5,1.5l0,0l0,0l0,0l0,0l0,0l0,0
		c0,0,0,1.5,1.5,1.5l0,0l0,0l0,0v1.5h-1.5h-1.5l0,0l0,0l0,0l0,0l0,0l0,0l0,0l0,0l0,0l0,0l0,0l0,0c0,0-1.5,0,0,0l0,0l0,0
		c0,0,0,0,1.5,0l0,0c0,0,0,0,0,1.5l0,0l0,0l0,0l0,0l0,0l0,0l0,0l0,0l0,0l0,0l0,0l0,0l0,0l0,0l0,0l0,0c0,0,0,0,1.5,0l0,0l0,0l0,0l0,0
		c0-1.5,0,0,1.5-1.5l0,0l0,0c0,0,1.5,0,1.5-1.5l0,0c0,0,0,0,1.5,0c4.5,0,1.5-1.5,6-1.5l0,0v1.5c0,0,0,0,1.5,0l0,0l0,0
		c0,0,0-1.5-1.5-1.5l0,0l0,0l0,0l0,0l0,0l0,0l0,0c0,0-1.5,0,0,0l0,0l0,0l0,0l0,0l0,0l0,0l0,0l0,0l0,0c0,0,0,0,1.5,0l0,0l0,0l0,0l0,0
		l0,0l0,0l0,0l0,0l0,0h1.5v-1.5c0,0,0,0,0-1.5h1.5c1.5,0,1.5,0,1.5,0C251.8,141.1,251.8,141.1,253.3,141.1
		C251.8,141.1,253.3,141.1,253.3,141.1C251.8,142.6,253.3,142.6,253.3,141.1c-1.5,1.5-1.5,1.5-1.5,1.5l0,0l0,0l0,0l0,0l0,0l0,0l0,0
		l0,0l0,0l0,0l0,0l0,0l0,0l0,0l0,0l0,0l0,0l0,0c0,0,0,0,0-1.5C253.3,142.6,253.3,144.1,253.3,141.1
		C253.3,142.6,253.3,142.6,253.3,141.1C253.3,142.6,253.3,142.6,253.3,141.1C253.3,142.6,253.3,142.6,253.3,141.1
		C253.3,142.6,253.3,142.6,253.3,141.1"/>
	<path class="st2" d="M236.8,148.6L236.8,148.6C236.8,147.1,236.8,148.6,236.8,148.6L236.8,148.6 M236.8,148.6L236.8,148.6
		L236.8,148.6L236.8,148.6C235.3,148.6,235.3,148.6,236.8,148.6L236.8,148.6C235.3,150.1,235.3,150.1,236.8,148.6
		C235.3,150.1,235.3,148.6,236.8,148.6C235.3,148.6,235.3,148.6,236.8,148.6C235.3,148.6,235.3,148.6,236.8,148.6
		C235.3,148.6,235.3,148.6,236.8,148.6C235.3,148.6,235.3,148.6,236.8,148.6C235.3,148.6,235.3,148.6,236.8,148.6
		C235.3,148.6,235.3,148.6,236.8,148.6C235.3,148.6,235.3,148.6,236.8,148.6L236.8,148.6L236.8,148.6L236.8,148.6 M236.8,147.1
		C236.8,147.1,235.3,147.1,236.8,147.1C235.3,147.1,235.3,147.1,236.8,147.1C235.3,147.1,236.8,147.1,236.8,147.1 M242.8,147.1
		C242.8,147.1,244.3,148.6,242.8,147.1c3,1.5,6-1.5,9,0c-1.5-1.5-3,0-6,0c1.5,0,3,0,3,0C247.3,147.1,244.3,145.6,242.8,147.1
		C244.3,147.1,242.8,147.1,242.8,147.1c-1.5,0-3,0-3,0c0,1.5,6,1.5,7.5,1.5c1.5,0,1.5,0,1.5,0s-1.5,0-3,0c-1.5,0-6-1.5-9,0
		c0,0,1.5-1.5,0-1.5l0,0l0,0l0,0l0,0l0,0l0,0l0,0l0,0l0,0c0,0,0,0,0,1.5c0,0,0,0-1.5,0l0,0v1.5l0,0c0,0,0,0,0,1.5l0,0l0,0
		c0,0,0,0-1.5,0c0,0,0,0,0-1.5c0,0,0,0,0-1.5l0,0l0,0l0,0l0,0l0,0l0,0l0,0l0,0l0,0l0,0l0,0l0,0l0,0l0,0l0,0l0,0l0,0l0,0l0,0l0,0l0,0
		l0,0l0,0l0,0l0,0l0,0l0,0l0,0l0,0l0,0h-1.5c0,0,0,1.5,1.5,1.5l0,0l0,0l0,0l0,0l0,0l0,0c0,0,0,0,1.5,0l0,0l0,0v1.5h-1.5h-1.5l0,0
		l0,0l0,0l0,0l0,0l0,0l0,0l0,0l0,0l0,0l0,0l0,0l0,0l0,0l0,0c0,0,0,0,1.5,0l0,0c0,0,0,0,0,1.5l0,0l0,0l0,0l0,0l0,0l0,0l0,0l0,0l0,0
		l0,0l0,0l0,0l0,0l0,0l0,0l0,0l0,0l0,0l0,0l0,0l0,0c0-1.5,1.5,0,1.5-1.5l0,0l0,0c0,0,1.5,0,1.5-1.5l0,0l0,0c0,0,0,0,1.5,0
		c1.5,0,0-1.5,3-1.5l0,0v1.5l0,0l0,0l0,0c0,0,0-1.5-1.5,0l0,0l0,0l0,0l0,0l0,0l0,0l0,0c0,0-1.5,0,0,0l0,0l0,0l0,0l0,0l0,0l0,0l0,0
		l0,0l0,0l0,0l0,0l0,0l0,0l0,0l0,0l0,0l0,0l0,0l0,0h1.5v-1.5l0,0h1.5c1.5,0,1.5,0,1.5,0h1.5l0,0c0,0,0,0,0,1.5c0,0,0,0-1.5,0l0,0
		l0,0l0,0l0,0l0,0l0,0l0,0l0,0l0,0l0,0l0,0l0,0l0,0l0,0l0,0l0,0l0,0l0,0c0,0,0,0,0-1.5l0,0l0,0l0,0l0,0l0,0l0,0l0,0l0,0l0,0l0,0
		c0,0-1.5,0-3,0l0,0c1.5,0,4.5,0,4.5-1.5c0,0,0-1.5-3-1.5c-1.5,0-7.5,1.5-7.5,0C241.3,147.1,242.8,147.1,242.8,147.1"/>
	<path class="st2" d="M233.8,159.1C235.3,159.1,235.3,159.1,233.8,159.1C235.3,159.1,235.3,159.1,233.8,159.1
		C235.3,159.1,235.3,159.1,233.8,159.1C235.3,159.1,235.3,159.1,233.8,159.1C235.3,159.1,235.3,159.1,233.8,159.1
		C235.3,159.1,235.3,159.1,233.8,159.1C235.3,157.6,235.3,157.6,233.8,159.1L233.8,159.1C235.3,159.1,235.3,159.1,233.8,159.1
		C235.3,159.1,235.3,159.1,233.8,159.1C235.3,159.1,235.3,159.1,233.8,159.1C235.3,159.1,235.3,159.1,233.8,159.1
		C235.3,159.1,235.3,159.1,233.8,159.1C235.3,159.1,235.3,159.1,233.8,159.1C235.3,159.1,235.3,159.1,233.8,159.1
		C235.3,160.6,235.3,160.6,233.8,159.1L233.8,159.1 M235.3,157.6L235.3,157.6L235.3,157.6L235.3,157.6 M235.3,157.6
		C235.3,157.6,236.8,157.6,235.3,157.6C236.8,159.1,236.8,159.1,235.3,157.6C235.3,159.1,235.3,157.6,235.3,157.6 M241.3,157.6
		L241.3,157.6c3,1.5,6-1.5,9,0c-1.5-1.5-3,0-6,0c1.5,0,3,0,3,0C245.8,157.6,242.8,156.1,241.3,157.6L241.3,157.6
		c-1.5,0-1.5,0-1.5,1.5c0,1.5,7.5,0,7.5,1.5c0,0-1.5,1.5-3,1.5c-1.5,0-4.5-1.5-7.5,0l0,0c0,0,1.5-1.5,0-1.5l0,0l0,0l0,0l0,0l0,0l0,0
		l0,0l0,0l0,0c0,0,0,0,0,1.5l0,0l0,0v1.5l0,0v1.5l-1.5-1.5c0,0,0,0,0-1.5c0,0,0,0,0-1.5l0,0l0,0l0,0l0,0l0,0l0,0l0,0l0,0l0,0l0,0
		l0,0l0,0l0,0l0,0l0,0l0,0l0,0l0,0l0,0l0,0l0,0l0,0l0,0l0,0l0,0l0,0l0,0l0,0l0,0l0,0h-1.5c0,0,0,1.5,1.5,1.5l0,0l0,0l0,0l0,0l0,0
		l0,0c0,0,0,1.5,1.5,1.5c0,0,0,1.5,1.5,0l0,0h-1.5c0,0,0,0-1.5,0l0,0l0,0l0,0l0,0l0,0l0,0l0,0l0,0l0,0l0,0l0,0l0,0l0,0l0,0l0,0l0,0
		l0,0l0,0c0,0,0,0,1.5,0l0,0l0,0l0,0l0,0l0,0l0,0l0,0l0,0l0,0l0,0l0,0l0,0l0,0l0,0l0,0l0,0l0,0l0,0l0,0l0,0l0,0l0,0l0,0
		c0-1.5,0,0,1.5-1.5l0,0l0,0h1.5c0,0,0,0,0-1.5l0,0c1.5,0,1.5,0,1.5,0v1.5v1.5l0,0l0,0c0,0,0-1.5-1.5,0l0,0l0,0l0,0l0,0l0,0l0,0l0,0
		c0,0-1.5,0,0,0l0,0l0,0l0,0l0,0l0,0l0,0l0,0l0,0l0,0l0,0l0,0l0,0l0,0l0,0l0,0l0,0l0,0l0,0l0,0l0,0v-1.5v-1.5c0,0,1.5,0,3,0h1.5l0,0
		l0,0l0,0l0,0l0,0l0,0l0,0l0,0l0,0l0,0l0,0l0,0l0,0l0,0l0,0l0,0l0,0l0,0l0,0l0,0l0,0l0,0l0,0l0,0c0,0,0,0,1.5,0l0,0l0,0l0,0l0,0l0,0
		l0,0l0,0c0,0-1.5,0,0,0l0,0c0,0-1.5,0-1.5-1.5l0,0c3,0,4.5,0,4.5-1.5C247.3,157.6,239.8,159.1,241.3,157.6
		C239.8,157.6,239.8,157.6,241.3,157.6"/>
	<path class="st2" d="M122.8,30.1c0-1.5-1.5-1.5-1.5-1.5c-1.5,0-3,0-3,1.5c0,1.5,1.5,1.5,1.5,1.5C121.3,31.6,122.8,31.6,122.8,30.1"
		/>
	<path class="st2" d="M121.3,25.6c0-1.5-1.5-1.5-1.5-1.5c-1.5,0-1.5,1.5-1.5,1.5c0,1.5,1.5,1.5,1.5,1.5
		C121.3,27.1,121.3,27.1,121.3,25.6"/>
	<path class="st2" d="M122.8,24.1c1.5,0,1.5-1.5,1.5-1.5c0-1.5-1.5-1.5-1.5-1.5c-1.5,0-1.5,1.5-1.5,1.5S121.3,24.1,122.8,24.1"/>
	<path class="st2" d="M127.3,22.6c1.5,0,1.5-1.5,1.5-1.5c0-1.5-1.5-1.5-1.5-1.5c-1.5,0-1.5,1.5-1.5,1.5
		C125.8,22.6,127.3,22.6,127.3,22.6"/>
	<path class="st2" d="M148.3,19.6c0,0,1.5,0,3,0c0,0,0-1.5,0-3c0,0-1.5,0-3,0C146.8,18.1,146.8,19.6,148.3,19.6"/>
	<path class="st2" d="M146.8,16.6c0,0,0-1.5,0-3c0,0-1.5,0-3,0c0,0,0,1.5,0,3C145.3,16.6,146.8,16.6,146.8,16.6"/>
	<path class="st2" d="M142.3,15.1c0,0,0-1.5,0-3c0,0-1.5,0-3,0c0,0,0,1.5,0,3C140.8,16.6,142.3,16.6,142.3,15.1"/>
	<path class="st2" d="M139.3,18.1c0,0,0-1.5,0-3c0,0-1.5,0-3,0c0,0,0,1.5,0,3C136.3,19.6,137.8,19.6,139.3,18.1"/>
	<path class="st2" d="M127.3,15.1l1.5,3l1.5-1.5l0,0c0,1.5,0,3,0,4.5c0,1.5,1.5,3,1.5,3c1.5,0,3-1.5,3-3c0-1.5,0-1.5-1.5-1.5
		c-1.5,0-1.5-1.5-3-3l0,0h3v-3l-1.5,1.5l0,0v-3h-3l1.5,3l0,0H127.3z"/>
	<path class="st2" d="M148.3,21.1c0,1.5,1.5,1.5,1.5,3C148.3,24.1,148.3,22.6,148.3,21.1v4.5l1.5-1.5c0,3-1.5,4.5-1.5,4.5
		c-1.5,0-1.5,0-1.5-1.5s1.5-1.5,1.5-1.5c0-3-1.5-3-3-1.5c1.5-3,0-4.5-1.5-6c-3,4.5-3,6,0,7.5c-1.5-1.5-3,0-1.5,3
		c0-1.5,1.5-1.5,1.5,0c0,0-1.5,1.5-3,1.5c-3,1.5-3,0-4.5-1.5c0,0,1.5,0,3,0v-3c-1.5,1.5-1.5,1.5-3,1.5c0-1.5,1.5-3,1.5-3l-4.5,1.5
		c0,0,1.5,1.5,3,1.5c-1.5,0-1.5,0-3,0l1.5,4.5c0-1.5,1.5-3,1.5-3c0,1.5,1.5,3-1.5,4.5c-1.5,1.5-3,0-4.5,0c0-1.5,0-3,1.5-1.5
		c0-3-1.5-3-3,0c0-3,0-4.5-3-4.5c0,3,0,4.5,3,4.5c-1.5,0-3,1.5-1.5,3c0-1.5,1.5-1.5,1.5,0c0,0,0,1.5,0,3c-1.5,0-3,0-4.5-1.5h1.5
		l-1.5-4.5c0,1.5,0,1.5,0,3c0,0,0-1.5-1.5-3l-1.5,1.5c1.5,1.5,4.5,3,6,6c3-1.5,7.5-4.5,10.5-6c4.5,0,9-1.5,12-3c0-4.5,0-7.5,0-9
		H148.3z"/>
	<path class="st2" d="M152.8,45.1c-1.5,1.5-4.5,0-6-3c3-1.5,7.5-3,10.5-4.5C154.3,42.1,155.8,43.6,152.8,45.1 M152.8,70.6
		c-3,1.5-6-1.5-6-3s-1.5-3,0-4.5c1.5-1.5,1.5-3,0-4.5s-3-1.5-6,0c1.5-1.5,1.5-3,0-3c-1.5,0-1.5,3-3,3c-1.5,0,0-1.5,0-3
		s1.5-1.5,1.5-1.5l9-3c1.5,0,1.5,0,3,0l1.5,1.5c0,1.5-3-1.5-3,0c-1.5,1.5,0,1.5,1.5,3c-1.5,0-3,0-3,3c1.5,1.5,3,1.5,4.5,1.5
		c1.5,0,1.5,1.5,3,3C155.8,66.1,155.8,69.1,152.8,70.6 M134.8,52.6c-3,0-3-1.5-7.5-3c3,0,7.5-1.5,10.5-3
		C139.3,48.1,137.8,51.1,134.8,52.6 M187.3,133.6c0-1.5-3-4.5-3-7.5c0-3,0-6-3-9c-3-3-13.5-15-16.5-18c1.5,0,3,0,4.5,1.5
		c1.5,1.5,3,3,6,6c3-7.5,6-12,12-18l1.5-1.5c-1.5,0-4.5,1.5-6,1.5c0-3,0-6-1.5-7.5c1.5-4.5,0-9-9-16.5c4.5,1.5,7.5,6,12,1.5
		c-3,0-3-7.5-16.5-13.5c4.5,0,9,7.5,13.5,3c-4.5,0-7.5-10.5-16.5-12c3,0,6,1.5,9-1.5c-3,1.5-4.5-1.5-9-3c1.5-4.5,1.5-6,0-9
		c-3,0-4.5,1.5-6,3c-3-3-4.5-3-7.5-3c0,1.5,0,3,0,3c-1.5,0-7.5,1.5-12,3c-4.5,1.5-9,4.5-10.5,6c-1.5,0-1.5-1.5-1.5-1.5
		c-1.5,1.5-3,3-3,4.5c-1.5,0-4.5,0-6,3c0,3,3,6,6,7.5c-6,4.5-1.5,10.5-6,15c7.5,0,6-9,9-10.5c0,6-4.5,7.5-4.5,15c0,4.5,3,9,0,10.5
		c6-1.5,4.5-15,7.5-19.5c0,1.5,0,4.5,0,6c-1.5,6,0,15-3,18c6,0,7.5-10.5,12-13.5c-4.5,9-9,28.5-15,37.5
		c-10.5,13.5-16.5,31.5-25.5,31.5c-4.5,0-7.5-3-7.5-7.5c0-16.5,27-27,27-43.5c0-7.5-6-10.5-10.5-10.5c-3,0-6,1.5-9,3c-1.5,0-3,0-3,0
		c-9,0-7.5,18-15,16.5c4.5,1.5,10.5-1.5,13.5-7.5c-1.5,12-18,9-16.5,22.5c3-10.5,28.5-9,28.5-25.5c0-1.5-1.5-3-1.5-4.5
		s3-1.5,4.5-1.5c3,0,6,3,6,7.5c0,13.5-27,25.5-27,43.5c0,3,1.5,6,1.5,7.5c-1.5,1.5-4.5,0-6-1.5c0,4.5,6,7.5,10.5,4.5
		c1.5,0,1.5,0,3,0c-1.5,3-6,4.5-7.5,4.5c7.5,6,18-1.5,18-7.5c6-4.5,9-12,12-16.5c0,1.5,0,1.5,0,3c-4.5,7.5-7.5,13.5-9,22.5
		c-1.5,7.5-4.5,15-10.5,15c-1.5,0-3-1.5-4.5-1.5c-1.5,1.5,0,3,0,4.5c0,1.5-4.5,4.5-4.5,12c0,3,1.5,7.5,1.5,9
		c1.5-1.5,4.5-4.5,4.5-7.5c1.5,9-4.5,9,0,16.5c0-3,3-3,4.5-3c1.5,1.5,1.5,1.5,0,3c0,1.5-1.5,7.5,4.5,7.5c-1.5,0-1.5-3,1.5-3
		c4.5-1.5,4.5,1.5,9,1.5c3,0,3-3,4.5-3c1.5,0,1.5,1.5,1.5,3c3-1.5,3-3,3-4.5c0-1.5-1.5-3,0-3c1.5,0,4.5,0,3,3c1.5,0,3-1.5,3-4.5
		s-3-3-4.5-3c0-1.5-3-1.5-4.5-1.5c-4.5,0-3,3-7.5,3c-4.5,0-9-6-9-16.5c0-6,6-7.5,10.5-9c4.5-1.5,12-6,16.5-15c4.5-7.5,4.5-13.5,3-21
		c6,3,7.5,9,7.5,12c0,4.5-3,6-4.5,7.5c-1.5,0-1.5,0-1.5,1.5c0,1.5,0,1.5,1.5,3c1.5,1.5,1.5,3,3,6c0,3,3,6,6,9c0-1.5,0-3,0-6
		c4.5,3,1.5,12,10.5,12c-1.5-1.5-1.5-3,0-4.5c1.5,0,1.5,0,4.5,3c1.5,3,1.5,3,6,3c4.5,0,3-1.5,4.5-1.5c3,0,1.5,3,1.5,4.5
		c4.5-1.5,4.5-4.5,3-7.5c3-1.5,4.5,1.5,6,3c3-3,0-7.5-3-7.5c0-1.5-1.5-3-3-3c-1.5,0-3,0-4.5,0c-1.5,0-3,3-4.5,3
		c-6,0-16.5-10.5-16.5-15s10.5-7.5,10.5-13.5c0-9-9-12-16.5-18c3-3,10.5-3,15-1.5c0-3,1.5-1.5,3-6c1.5,4.5,0,7.5,1.5,9
		c1.5-1.5,4.5-1.5,4.5-6c1.5,3-1.5,7.5,1.5,9c0-3,1.5-3,3-3c1.5,0,1.5,0,1.5,1.5c0,3-4.5,1.5-4.5,6c0,1.5,1.5,3,1.5,3
		c0,1.5-1.5,3-4.5,1.5c0,1.5,1.5,3,4.5,3c1.5,0,4.5-1.5,4.5-3c1.5,3,0,6-1.5,6c1.5,1.5,6,0,6-6c3,0,4.5,1.5,3,6
		c1.5,0,4.5-1.5,4.5-4.5C187.3,136.6,185.8,136.6,187.3,133.6"/>
	<path class="st2" d="M362.8,178.6c0-3,3-6,6-6c3,0,6,3,6,6s-3,6-6,6C364.3,183.1,362.8,181.6,362.8,178.6 M359.8,178.6
		c0,4.5,3,7.5,7.5,7.5s7.5-3,7.5-7.5c0-4.5-3-7.5-7.5-7.5C364.3,169.6,359.8,174.1,359.8,178.6"/>
	<path class="st2" d="M335.8,192.1c-1.5,0-3-1.5-3-3s0-1.5,1.5-1.5c1.5,0,1.5-1.5,3,0c1.5,0,3,1.5,3,3l0,0
		C338.8,190.6,337.3,192.1,335.8,192.1 M331.3,184.6c-1.5,0-1.5,1.5-1.5,3s0,3,1.5,4.5s3,1.5,4.5,1.5c1.5,0,3,0,4.5,0
		c1.5,0,1.5-1.5,3-3c0-3-1.5-6-4.5-6C334.3,183.1,332.8,184.6,331.3,184.6"/>
	<path class="st2" d="M289.3,82.6c0-1.5,0-1.5,1.5-3c1.5,0,1.5-1.5,3-1.5c0,0,1.5,0,1.5,1.5v1.5c0,1.5,0,1.5-1.5,3
		C292.3,84.1,290.8,84.1,289.3,82.6L289.3,82.6 M289.3,78.1c-1.5,1.5-3,4.5-1.5,6s4.5,1.5,7.5,0c1.5-1.5,1.5-3,3-4.5
		c0-1.5,0-1.5-1.5-3c0-1.5-1.5-1.5-3-1.5C292.3,76.6,290.8,76.6,289.3,78.1"/>
	<path class="st2" d="M325.3,181.6L325.3,181.6c-1.5,0-1.5,0-1.5-1.5c-1.5-1.5-1.5-1.5-1.5-3c0-1.5,0-3,1.5-3l1.5-1.5
		c1.5,0,3,1.5,3,4.5c0,1.5,0,3-1.5,3C326.8,180.1,326.8,181.6,325.3,181.6 M322.3,172.6c-1.5,1.5-1.5,3-1.5,4.5l0,0
		c0,1.5,0,3,1.5,4.5s1.5,1.5,3,1.5s3,0,3-1.5c1.5-1.5,1.5-3,1.5-4.5c0-1.5,0-3-1.5-4.5c-1.5-1.5-1.5-1.5-3-1.5
		C325.3,171.1,323.8,171.1,322.3,172.6"/>
	<path class="st2" d="M286.3,118.6c-1.5-1.5-3-3-3-4.5l1.5-1.5c1.5,0,3,0,3,0c1.5,0,1.5,1.5,3,3v1.5l-1.5,1.5
		C289.3,118.6,287.8,118.6,286.3,118.6 M284.8,111.1c-1.5,0-1.5,1.5-3,1.5c-1.5,3,0,6,3,7.5c3,0,4.5,0,6,0c1.5,0,1.5-1.5,3-1.5
		c0-1.5,0-1.5,0-3c0-1.5-1.5-3-3-3C289.3,109.6,286.3,109.6,284.8,111.1"/>
	<path class="st2" d="M340.3,145.6c-1.5,1.5-3,3-4.5,1.5c-1.5-1.5-1.5-3,0-4.5c1.5-1.5,3-3,4.5-1.5
		C341.8,141.1,341.8,144.1,340.3,145.6 M331.3,159.1c-1.5,1.5-3,3-4.5,1.5s-1.5-3,0-4.5c1.5-1.5,3-3,4.5-1.5
		C332.8,156.1,332.8,157.6,331.3,159.1 M301.3,81.1c1.5-3,3-10.5,3-10.5l3,1.5c-1.5,0-3,1.5-3,3c1.5,0,1.5,0,3,0l-1.5,3
		c0,0-1.5-1.5-3-1.5c0,3,1.5,4.5,3,4.5c1.5,1.5,3,1.5,4.5,0c0-1.5,0-3-3-1.5c0-1.5,1.5-3,1.5-3c1.5,0,1.5,1.5,1.5,1.5
		c0-3,1.5-6,4.5-6c1.5,3,0,4.5-1.5,7.5c1.5,0,3,0,3,0c0,1.5,0,3-1.5,3c0-1.5-3-1.5-3-1.5c0,1.5,0,3,3,3c1.5,1.5,4.5,0,6-1.5
		c-1.5,0-1.5,0-3,0l3-4.5c0,0,0,1.5,1.5,3c0-1.5,1.5-3,0-4.5l4.5,3c-1.5,0-3,1.5-3,1.5c1.5,0,3,0,3,0l-3,4.5c0-1.5,0-3-1.5-3
		c-1.5,1.5-1.5,4.5,1.5,6c1.5,1.5,3,1.5,4.5,0c0-1.5,0-3-3-3c0-1.5,1.5-3,1.5-3c1.5,0,1.5,1.5,1.5,3c0-3,1.5-4.5,4.5-4.5
		c0,3,0,4.5-3,6c1.5,0,3,0,3,0c0,1.5,0,3-1.5,3c0-1.5-3-3-3-1.5c0,1.5,0,1.5,3,3c1.5,1.5,3,1.5,4.5,0c0-1.5-3-1.5-3-1.5l3-3
		c0,1.5,0,3,1.5,3c0-1.5,0-3,0-4.5l3,3c0,0-4.5,4.5-7.5,7.5L301.3,81.1z M338.8,124.6v-1.5h1.5c1.5,0,1.5,0,3,1.5
		c1.5,1.5,1.5,1.5,1.5,3v1.5l0,0h-1.5c-1.5,0-1.5,0-3-1.5C338.8,126.1,338.8,124.6,338.8,124.6 M352.3,187.6c0-1.5,1.5-1.5,1.5-3
		c1.5,0,3-1.5,3-1.5s1.5,0,1.5,1.5l0,0v1.5c0,1.5-1.5,1.5-1.5,3c-1.5,1.5-4.5,1.5-4.5,0C352.3,189.1,352.3,187.6,352.3,187.6
		 M286.3,91.6c0,1.5,0,1.5-1.5,3h-1.5c-1.5,0-3-1.5-3-3l0,0c0-1.5,0-1.5,1.5-3h1.5h1.5C286.3,90.1,286.3,91.6,286.3,91.6
		 M307.3,51.1c1.5-1.5,0-4.5,3-4.5c1.5,0,3,1.5,6,3C313.3,48.1,310.3,49.6,307.3,51.1 M365.8,102.1c3,7.5,7.5,9,10.5,7.5
		c-9-1.5-1.5-15-12-15h-1.5c-1.5-1.5-4.5-3-7.5-3c-4.5,0-12,4.5-12,13.5c0,19.5,22.5,21,22.5,39c0,4.5-4.5,9-7.5,9
		c-4.5,0-7.5-4.5-10.5-10.5c-1.5-3-4.5-7.5-9-12c1.5,0,1.5,1.5,3,1.5c1.5,0,3,0,3-1.5c1.5-1.5,3-3,3-4.5l0,0c0-1.5,0-3-1.5-4.5
		c-1.5-1.5-3-1.5-6-1.5c-1.5,0-3,0-3,1.5c-1.5,1.5-1.5,1.5-1.5,3l0,0v1.5c-4.5-6-9-13.5-9-16.5s1.5-6,4.5-9h1.5v-1.5
		c1.5-1.5,3-3,7.5-7.5l0,0l0,0l1.5-1.5h-3c0-1.5,1.5-3,1.5-4.5c1.5,3,3,4.5,4.5,4.5c-1.5-3,1.5-7.5,0-15c1.5,3,4.5,4.5,6,4.5
		c-4.5-4.5,1.5-10.5-4.5-21c1.5,0,3,0,4.5-1.5c-6-1.5-3-9-13.5-12c3,0,4.5-1.5,4.5-3c-3,1.5-6-3-15-3c0-3-3-7.5-7.5-9
		c0,3,0,4.5,0,7.5l-30-30c-1.5-1.5-1.5-1.5-1.5,0v1.5l25.5,31.5c-1.5,0-4.5,1.5-6,1.5s-1.5,1.5-1.5,3c-4.5,3-9,6-10.5,7.5
		c-1.5,1.5-3,1.5-1.5,4.5c0,1.5-1.5,4.5,3,1.5c3-1.5,7.5-4.5,9-3c0,1.5-3,3-4.5,3c-1.5,0-4.5,1.5-3,3h1.5c0,1.5,0,1.5,1.5,1.5
		s1.5-1.5,3-1.5c0,0,0,4.5-1.5,4.5c3,0,4.5-3,4.5-6c0-1.5,0-3,1.5-3c0,0,1.5,3,0,4.5c1.5,0,3-3,3-6c1.5,0,1.5-1.5,1.5-1.5
		c1.5,0,3,3,6,3c4.5,0,7.5-4.5,7.5-6s0-3,0-4.5c1.5,1.5,3,4.5,3,6c0,7.5-12,10.5-18,15l0,0l-9,3v1.5c0,0,0,0,0,1.5c0,1.5-1.5,6-3,9
		v1.5l0,0c-3,4.5-6,10.5-7.5,15c-1.5-1.5-3-3-4.5-4.5v-1.5c0-1.5,0-3-1.5-4.5s-1.5-1.5-3-1.5c-1.5,0-1.5,0-3,1.5l0,0l0,0
		c-1.5-1.5-4.5-3-6-4.5c0,0-1.5-1.5-3-1.5c0,0-1.5,0-3,0c-1.5,0-1.5,0-3,1.5c0,0-1.5,1.5-3,3c0,1.5,1.5,1.5,1.5,3l1.5,1.5
		c0,0,1.5,0,1.5-1.5h1.5c1.5,0,1.5,0,3,1.5c0,1.5,6,7.5,9,12h-1.5c-1.5,0-6,0-7.5,0s-1.5,0-3,1.5l-1.5,1.5c0,0-1.5,1.5,0,3
		c1.5,3,6,10.5,7.5,15c1.5,3,3,4.5,6,6c3,1.5,7.5,4.5,7.5,4.5v-3c-1.5-1.5-3-1.5-4.5-1.5s-1.5-1.5,0-1.5c1.5,0,4.5,1.5,7.5,1.5
		c0-3-3-6-4.5-7.5c-1.5,0-4.5,0-4.5,0s0,1.5-1.5,1.5s-1.5,0-1.5-1.5s1.5-1.5,1.5-3s-1.5-1.5-3-1.5c-1.5-3-3-6-4.5-7.5
		c-1.5-1.5,0-3,0-3c1.5-1.5,4.5,0,10.5,1.5c1.5,0,4.5,0,7.5,0c1.5,7.5,3,13.5,13.5,16.5c7.5,0,12,4.5,13.5,9
		c-19.5,0-22.5,7.5-22.5,15s7.5,7.5,7.5,13.5s-16.5,7.5-21,9c-4.5,0-6,1.5-9,3c-1.5,1.5-4.5,4.5-7.5,7.5c0,0,1.5,0,3,0l3-3
		c1.5-1.5,1.5-1.5,1.5-1.5s0,1.5,0,3l-3,4.5c9,0,10.5-3,10.5-4.5s-3-3-1.5-3c1.5-1.5,3,0,3,1.5c1.5,1.5,1.5,3,4.5,1.5
		c0,0,21-9,24-10.5s1.5-1.5,0-3s-1.5-3-1.5-6c0-6,4.5-9,10.5-7.5c0,1.5,0,1.5,0,3c0,10.5,15,19.5,19.5,19.5c1.5,0,4.5-1.5,4.5,4.5
		c0,4.5,1.5,7.5,0,12c-1.5,4.5-3,6-6,7.5c-3,1.5-6,9-7.5,10.5c1.5,1.5,3,1.5,4.5-3c1.5-3,1.5-4.5,3-6c-1.5,3-1.5,7.5-3,9
		c4.5,0,10.5-3,10.5-6c0-3-1.5-3-1.5-4.5c0-1.5,1.5-1.5,1.5-1.5c1.5,0,3,1.5,3,1.5c1.5-1.5,3-3,3-6c0-1.5,0-3,0-4.5l0,0
		c1.5,1.5,1.5,1.5,3,1.5s3,0,4.5-1.5c1.5-1.5,3-3,3-4.5c0,0,0,0,0-1.5c0-1.5,0-1.5,0-3c0-1.5-1.5-1.5-3-1.5s-3,0-4.5,1.5
		c-1.5,1.5-3,3-3,3c0-6,0-10.5,0-12c0-3,0-4.5,0-4.5c-1.5,0-1.5,1.5-3,1.5s-6-4.5-6-9s4.5-10.5,4.5-16.5c0-1.5,1.5-3,1.5-1.5
		c1.5,1.5,1.5,4.5,4.5,7.5c-1.5,7.5,7.5,15,13.5,9c-3,0-6-3-7.5-6h1.5c0,0,0,0,1.5,0c3,3,10.5,3,12-4.5c-1.5,1.5-4.5,3-6,3
		c3-1.5,4.5-6,4.5-9c0-19.5-22.5-21-22.5-37.5c0-6,6-10.5,9-10.5c1.5,0,3,0,3,1.5c-1.5,1.5-3,4.5-1.5,6c0,13.5,22.5,13.5,22.5,19.5
		C382.3,112.6,365.8,115.6,365.8,102.1"/>
</g>
</svg>
