<?xml version="1.0" encoding="utf-8"?>
<!-- Generator: Adobe Illustrator 21.1.0, SVG Export Plug-In . SVG Version: 6.00 Build 0)  -->
<svg version="1.1" id="Artwork" xmlns="http://www.w3.org/2000/svg" xmlns:xlink="http://www.w3.org/1999/xlink" x="0px" y="0px"
	 viewBox="0 0 178.8 57.2" style="enable-background:new 0 0 178.8 57.2;" xml:space="preserve">
<style type="text/css">
	.st0{fill:#B2B2B2;}
	.st1{fill:#76B82A;}
	.st2{fill:#BCCF00;}
	.st3{fill:#F2E500;}
</style>
<g>
	<g>
		<polygon class="st0" points="129.7,14.2 127,9.4 129.7,4.7 135.2,4.7 137.9,9.4 135.2,14.2 		"/>
		<polygon class="st0" points="121.5,28.4 118.8,23.6 121.5,18.9 127,18.9 129.7,23.6 127,28.4 		"/>
		<polygon class="st0" points="162.4,14.2 159.7,9.4 162.4,4.7 167.9,4.7 170.6,9.4 167.9,14.2 		"/>
		<polygon class="st0" points="170.6,28.3 167.9,23.6 170.6,18.9 176.1,18.9 178.8,23.6 176.1,28.3 		"/>
		<polygon class="st0" points="137.9,56.7 135.2,52 137.9,47.3 143.3,47.3 146.1,52 143.3,56.7 		"/>
		<polygon class="st0" points="154.3,56.7 151.5,52 154.3,47.3 159.7,47.3 162.4,52 159.7,56.7 		"/>
		<polygon class="st0" points="146.1,23.6 143.3,18.9 146.1,14.2 151.5,14.2 151.5,14.2 154.3,18.9 151.5,23.6 		"/>
		<polygon class="st0" points="137.9,37.8 135.2,33.1 137.9,28.3 143.3,28.3 146.1,33.1 143.3,37.8 		"/>
		<polygon class="st0" points="154.3,37.8 151.5,33.1 154.3,28.3 159.7,28.3 162.4,33.1 159.7,37.8 		"/>
		<polygon class="st1" points="129.7,23.6 127,18.9 129.7,14.2 135.2,14.2 137.9,18.9 135.2,23.6 		"/>
		<polygon class="st1" points="146.1,14.2 143.3,9.4 146.1,4.7 151.5,4.7 154.3,9.4 153.3,11.2 151.5,14.2 		"/>
		<polygon class="st1" points="129.7,42.5 127,37.8 129.7,33.1 129.7,33.1 129.7,33.1 135.2,33.1 135.2,33.1 137.9,37.8 135.2,42.5 
					"/>
		<polygon class="st1" points="162.4,23.6 159.7,18.9 162.4,14.2 167.9,14.2 170.6,18.9 167.9,23.6 		"/>
		<polygon class="st1" points="146.1,52 143.3,47.3 146.1,42.5 151.5,42.5 151.5,42.5 154.3,47.3 151.5,52 		"/>
		<polygon class="st1" points="162.4,42.5 159.7,37.8 162.4,33.1 167.9,33.1 167.9,33.1 170.6,37.8 167.9,42.5 		"/>
		<polygon class="st2" points="137.9,9.4 135.2,4.7 137.9,0 143.3,0 146.1,4.7 143.3,9.4 		"/>
		<polygon class="st2" points="154.3,9.4 151.5,4.7 154.3,0 159.7,0 162.4,4.7 159.7,9.4 		"/>
		<polygon class="st2" points="121.5,37.8 118.8,33.1 121.5,28.4 127,28.4 129.7,33.1 127,37.8 		"/>
		<polygon class="st2" points="129.7,52 127,47.3 129.7,42.5 135.2,42.5 137.9,47.3 135.2,52 		"/>
		<polygon class="st2" points="170.6,37.8 167.9,33.1 170.6,28.3 176.1,28.3 178.8,33.1 176.1,37.8 		"/>
		<polygon class="st2" points="162.4,52 159.7,47.3 162.4,42.5 167.9,42.5 170.6,47.3 167.9,52 		"/>
		<polygon class="st2" points="143.3,28.3 137.9,28.3 135.2,23.6 137.9,18.9 143.3,18.9 146.1,23.6 143.3,28.3 		"/>
		<polygon class="st2" points="159.7,28.3 154.3,28.3 151.5,23.6 154.3,18.9 159.7,18.9 162.4,23.6 159.7,28.3 		"/>
		<polygon class="st2" points="146.1,42.5 143.3,37.8 146.1,33.1 151.5,33.1 154.3,37.8 151.5,42.5 		"/>
		<polygon class="st3" points="143.3,18.9 137.9,18.9 135.2,14.2 137.9,9.4 143.3,9.4 146.1,14.2 143.3,18.9 		"/>
		<polygon class="st3" points="129.7,33.1 127,28.4 129.7,23.6 135.2,23.6 137.9,28.4 135.2,33.1 		"/>
		<polygon class="st3" points="159.7,18.9 154.3,18.9 151.5,14.2 153.3,11.2 154.3,9.4 154.3,9.4 154.3,9.4 159.7,9.4 162.4,14.2 
			159.7,18.9 		"/>
		<polygon class="st3" points="143.3,47.3 137.9,47.3 135.2,42.5 137.9,37.8 143.3,37.8 146.1,42.5 143.3,47.3 		"/>
		<polygon class="st3" points="162.4,33.1 159.7,28.3 162.4,23.6 167.9,23.6 170.6,28.3 167.9,33.1 		"/>
		<polygon class="st3" points="159.7,47.3 154.3,47.3 151.5,42.5 154.3,37.8 159.7,37.8 162.4,42.5 159.7,47.3 		"/>
	</g>
	<g>
		<path class="st0" d="M12.1,21.6V11.2H2.2v10.4H0V0.4h2.2v8.8h9.9V0.4h2.2v21.2H12.1z"/>
		<path class="st0" d="M33.9,21.6V3.7l-5.5,11.8c-0.3,0.6-0.5,1.4-0.5,2.2v1.9h-2.2v-1.9c0-0.9-0.3-1.7-0.5-2.2L19.7,3.7v17.9h-2.1
			V0.4h2.7l6.6,13.8l6.5-13.8h2.7v21.2H33.9z"/>
		<path class="st0" d="M44.3,21.6V0.4h2.2v19.2h8.3v2H44.3z"/>
		<path class="st0" d="M66.8,21.6h-6.7c-1,0-1.8-0.3-2.3-0.8L57,20c-0.7-0.7-1-1.2-1-2.2v-1.7c0-0.9,0.3-1.5,1-2.2l0.9-0.8
			c0.6-0.5,1.4-0.8,2.4-0.8h5.5v-1.5c0-0.6-0.4-1-0.8-1.4l-0.5-0.4c-0.7-0.6-1-0.7-1.9-0.7h-5V6.6h5.8c1.1,0,1.7,0.3,2.2,0.8
			l1.2,1.1c0.9,0.8,1.1,1.3,1.1,2.4v9.6L66.8,21.6z M65.8,14.2h-5c-0.7,0-1.1,0.1-1.5,0.4l-0.6,0.5c-0.3,0.3-0.6,0.6-0.6,1.1v1.7
			c0,0.4,0.2,0.8,0.5,1l0.7,0.6c0.3,0.2,0.7,0.4,1.4,0.4h5V14.2z"/>
		<path class="st0" d="M80.6,21.6V12c0-1-0.4-1.5-1.1-2.2l-0.6-0.6c-0.5-0.4-1.1-0.8-2.2-0.8H73v13.1h-2.2V7.8l1.1-1.2h5.9
			c1,0,1.7,0.2,2.2,0.8L82,9.1c0.6,0.5,0.8,0.9,0.8,1.8v10.7H80.6z"/>
		<path class="st0" d="M96.5,21.6h-6.1c-0.9,0-1.7-0.2-2.7-1l-1.5-1.2c-0.6-0.5-0.9-1.2-0.9-2.6v-5.4c0-1.4,0.3-2.1,0.9-2.6l1.5-1.2
			c1-0.8,1.7-1,2.6-1h5.1V0.4h2.2v20L96.5,21.6z M95.4,8.5h-4.1c-1,0-1.6,0.3-2.1,0.7l-0.8,0.6c-0.4,0.3-0.9,0.9-0.9,2.1v4.5
			c0,1.2,0.6,1.8,0.9,2.1l0.8,0.6c0.5,0.4,1.1,0.7,2.1,0.7h4.1V8.5z"/>
		<path class="st0" d="M11.1,51v-2.1c0-0.6-0.1-1.2-0.5-1.9L8,42.2H2.2V51H0V31l1.2-1.2h6.5c2.2,0,2.6,0.7,4.1,2
			c1,0.8,1.2,1.5,1.2,2.5v3.6c0,1-0.3,1.7-1.3,2.5l-1.6,1.3l2.7,4.9c0.4,0.8,0.5,1.6,0.5,2.3V51H11.1z M10.8,34.7
			c0-0.8-0.3-1.4-0.8-1.8l-0.8-0.7c-0.5-0.4-0.9-0.6-2.1-0.6H2.2v8.7h4.9c1.2,0,1.6-0.1,2.1-0.6l0.8-0.7c0.5-0.4,0.8-1,0.8-1.8V34.7
			z"/>
		<path class="st0" d="M27.1,44.1h-8.9v1.6c0,1.2,0.5,1.8,0.8,2.1l0.7,0.6c0.5,0.4,1,0.7,2,0.7h5.6V51h-6.6c-0.8,0-1.5-0.2-2.5-1
			l-1.4-1.2c-0.6-0.5-0.8-1.2-0.8-2.6v-5.6c0-1.4,0.3-2.1,0.8-2.6l1.4-1.2c0.9-0.8,1.7-1,2.5-1h2.7c0.8,0,1.5,0.2,2.5,1l1.4,1.2
			c0.6,0.5,0.9,1.2,0.9,2.6V43L27.1,44.1z M26.1,40.8c0-1.2-0.5-1.8-0.9-2.1l-0.7-0.6c-0.5-0.4-1-0.7-2-0.7h-0.7c-1,0-1.5,0.3-2,0.7
			l-0.7,0.6c-0.4,0.3-0.8,0.9-0.8,2.1v1.6h7.9V40.8z"/>
		<path class="st0" d="M42.1,55.3l-1.2,1.1c-0.5,0.4-1.2,0.8-2.2,0.8h-6.4v-1.9h5.6c0.9,0,1.2-0.1,1.9-0.7l0.6-0.4
			c0.4-0.3,0.8-0.8,0.8-1.4V51H36c-0.9,0-1.7-0.2-2.7-1l-1.5-1.2c-0.6-0.5-0.9-1.2-0.9-2.6v-5.4c0-1.4,0.3-2.1,0.9-2.6l1.5-1.2
			c1-0.8,1.7-1,2.6-1h7.3v17C43.2,54,43.1,54.5,42.1,55.3z M41,37.8H37c-1,0-1.6,0.3-2.1,0.7L34,39.1c-0.4,0.3-0.9,0.9-0.9,2.1v4.5
			c0,1.2,0.6,1.8,0.9,2.1l0.8,0.6c0.5,0.4,1.1,0.7,2.1,0.7H41V37.8z"/>
		<path class="st0" d="M45.9,33.6v-2.8h2.3v2.8H45.9z M46,51V36h2.2v15H46z"/>
		<path class="st0" d="M62.4,49.5l-1.2,0.9c-0.4,0.3-1.2,0.6-2,0.6h-8.1v-1.9h7.5c0.7,0,1-0.1,1.3-0.4l0.5-0.4
			c0.3-0.2,0.5-0.6,0.5-1.1v-1.2c0-1-0.5-1.4-1.8-1.5L54,44.1c-2.3-0.2-3.1-1.5-3.1-3v-1.6c0-1.1,0.3-1.6,0.8-2l1.2-0.9
			c0.4-0.3,1.2-0.6,2-0.6h7.4v1.9h-6.9c-0.7,0-1,0.1-1.3,0.4l-0.5,0.4c-0.3,0.2-0.5,0.6-0.5,1.1v0.9c0,0.9,0.5,1.4,1.7,1.5l5,0.5
			c2.5,0.3,3.5,1.4,3.5,3v2C63.2,48.6,62.8,49.1,62.4,49.5z"/>
		<path class="st0" d="M70.4,51c-1.1,0-1.7-0.2-2.3-0.7l-1.2-1.1c-0.9-0.8-1-1.3-1-2.4V32.7H68V36h4.6v1.9H68v8.8
			c0,0.5,0.2,1,0.9,1.6l0.4,0.3c0.7,0.6,1.1,0.6,2,0.6h1.5V51H70.4z"/>
		<path class="st0" d="M77.5,37.8V51h-2.2V37.2l1.1-1.2h6.5v1.9H77.5z"/>
		<path class="st0" d="M96.5,55.3l-1.2,1.1c-0.5,0.4-1.2,0.8-2.2,0.8h-6.6v-1.9h5.7c0.9,0,1.2-0.1,1.9-0.7l0.6-0.4
			c0.4-0.3,0.8-0.8,0.8-1.4V51h-4.9c-1,0-1.7-0.2-2.2-0.8l-1.9-1.7c-0.6-0.5-0.8-0.9-0.8-1.8V36h2.2v9.6c0,1,0.4,1.5,1.1,2.2
			l0.6,0.6c0.5,0.4,1.1,0.8,2.2,0.8h3.8V36h2.2v17C97.6,54,97.4,54.5,96.5,55.3z"/>
	</g>
</g>
</svg>
