<svg xmlns="http://www.w3.org/2000/svg" viewBox="0 0 178.82 57.2"><defs><style>.a{fill:#b2b2b2;}.b{fill:#76b82a;}.c{fill:#bccf00;}.d{fill:#f2e500;}</style></defs><title>HMLR Logo Unit CMYK white background (1)</title><polygon class="a" points="129.71 14.17 126.98 9.45 129.71 4.72 135.16 4.72 137.89 9.45 135.16 14.17 129.71 14.17"/><polygon class="a" points="121.52 28.35 118.79 23.63 121.52 18.9 126.98 18.9 129.71 23.63 126.98 28.35 121.52 28.35"/><polygon class="a" points="162.45 14.17 159.72 9.45 162.45 4.72 167.91 4.72 170.63 9.45 167.91 14.17 162.45 14.17"/><polygon class="a" points="170.63 28.35 167.91 23.63 170.63 18.9 176.09 18.9 178.82 23.63 176.09 28.35 170.63 28.35"/><polygon class="a" points="137.89 56.71 135.16 51.98 137.89 47.26 143.35 47.26 146.08 51.98 143.35 56.71 137.89 56.71"/><polygon class="a" points="154.26 56.71 151.54 51.98 154.26 47.26 159.72 47.26 162.45 51.98 159.72 56.71 154.26 56.71"/><polygon class="a" points="146.08 23.63 143.35 18.9 146.08 14.17 151.53 14.17 151.54 14.17 154.26 18.9 151.53 23.63 146.08 23.63"/><polygon class="a" points="137.89 37.8 135.16 33.08 137.89 28.35 143.35 28.35 146.08 33.08 143.35 37.8 137.89 37.8"/><polygon class="a" points="154.26 37.8 151.54 33.08 154.26 28.35 159.72 28.35 162.45 33.08 159.72 37.8 154.26 37.8"/><polygon class="b" points="129.71 23.63 126.98 18.9 129.71 14.17 135.16 14.17 137.89 18.9 135.16 23.63 129.71 23.63"/><polygon class="b" points="146.08 14.17 143.35 9.45 146.08 4.72 151.54 4.72 154.26 9.45 153.26 11.18 151.53 14.17 146.08 14.17"/><polygon class="b" points="129.71 42.53 126.98 37.8 129.71 33.08 129.71 33.08 129.71 33.08 135.16 33.08 135.16 33.08 137.89 37.8 135.16 42.53 129.71 42.53"/><polygon class="b" points="162.45 23.63 159.72 18.9 162.45 14.17 167.91 14.17 170.63 18.9 167.91 23.63 162.45 23.63"/><polygon class="b" points="146.08 51.98 143.35 47.26 146.08 42.53 151.53 42.53 151.54 42.53 154.26 47.26 151.53 51.98 146.08 51.98"/><polygon class="b" points="162.45 42.53 159.72 37.8 162.45 33.08 167.91 33.08 167.91 33.08 170.63 37.8 167.91 42.53 162.45 42.53"/><polygon class="c" points="137.89 9.45 135.16 4.72 137.89 0 143.35 0 146.08 4.72 143.35 9.45 137.89 9.45"/><polygon class="c" points="154.26 9.45 151.54 4.72 154.26 0 159.72 0 162.45 4.72 159.72 9.45 154.26 9.45"/><polygon class="c" points="121.52 37.8 118.79 33.08 121.52 28.35 126.98 28.35 129.71 33.08 126.98 37.8 121.52 37.8"/><polygon class="c" points="129.71 51.98 126.98 47.26 129.71 42.53 135.16 42.53 137.89 47.26 135.16 51.98 129.71 51.98"/><polygon class="c" points="170.63 37.8 167.91 33.08 170.63 28.35 176.09 28.35 178.82 33.08 176.09 37.8 170.63 37.8"/><polygon class="c" points="162.45 51.98 159.72 47.26 162.45 42.53 167.91 42.53 170.63 47.26 167.91 51.98 162.45 51.98"/><polygon class="c" points="143.35 28.35 137.89 28.35 135.16 23.63 137.89 18.9 143.35 18.9 146.08 23.63 143.35 28.35 143.35 28.35"/><polygon class="c" points="159.72 28.35 154.26 28.35 151.54 23.63 154.26 18.9 159.72 18.9 162.45 23.63 159.72 28.35 159.72 28.35"/><polygon class="c" points="146.08 42.53 143.35 37.8 146.08 33.08 151.54 33.08 154.26 37.8 151.53 42.53 146.08 42.53"/><polygon class="d" points="143.35 18.9 137.89 18.9 135.16 14.17 137.89 9.45 143.35 9.45 146.08 14.17 143.35 18.9 143.35 18.9"/><polygon class="d" points="129.71 33.08 126.98 28.35 129.71 23.63 135.16 23.63 137.89 28.35 135.16 33.08 129.71 33.08"/><polygon class="d" points="159.72 18.9 154.26 18.9 151.54 14.17 153.26 11.18 154.26 9.45 154.26 9.45 154.26 9.45 159.72 9.45 162.45 14.17 159.72 18.9 159.72 18.9"/><polygon class="d" points="143.35 47.26 137.89 47.26 135.16 42.53 137.89 37.8 143.35 37.8 146.08 42.53 143.35 47.26 143.35 47.26"/><polygon class="d" points="162.45 33.08 159.72 28.35 162.45 23.63 167.91 23.63 170.63 28.35 167.91 33.08 162.45 33.08"/><polygon class="d" points="159.72 47.26 154.26 47.26 151.54 42.53 154.26 37.8 159.72 37.8 162.45 42.53 159.72 47.26 159.72 47.26"/><path class="a" d="M12.11,21.59V11.18H2.22V21.59H0V.4H2.22V9.22h9.89V.4h2.22V21.59Z"/><path class="a" d="M33.92,21.59V3.66L28.44,15.47a5.38,5.38,0,0,0-.5,2.25v1.92H25.72V17.72a5.49,5.49,0,0,0-.5-2.25L19.68,3.66V21.59h-2.1V.4h2.69L26.9,14.22,33.42.4h2.69V21.59Z"/><path class="a" d="M44.31,21.59V.4h2.22V19.64h8.35v2Z"/><path class="a" d="M66.83,21.59H60.18a3.45,3.45,0,0,1-2.34-.83L57,20a2.61,2.61,0,0,1-1-2.16V16.15A2.62,2.62,0,0,1,57,14l.89-.8a3.41,3.41,0,0,1,2.37-.77h5.48V10.94A1.81,1.81,0,0,0,65,9.55l-.5-.44a2.3,2.3,0,0,0-1.89-.71h-5V6.59h5.83a3.17,3.17,0,0,1,2.22.77l1.21,1.07A2.58,2.58,0,0,1,68,10.79v9.59Zm-1.07-7.37h-5a2.06,2.06,0,0,0-1.48.42l-.56.47a1.38,1.38,0,0,0-.56,1.07v1.66a1.28,1.28,0,0,0,.53,1l.68.56a2.13,2.13,0,0,0,1.39.35h5Z"/><path class="a" d="M80.6,21.59V12a2.64,2.64,0,0,0-1.06-2.19l-.62-.56a2.87,2.87,0,0,0-2.16-.83H73V21.59H70.77V7.8L71.9,6.59h5.92a3,3,0,0,1,2.25.77L82,9.07a2.17,2.17,0,0,1,.83,1.83V21.59Z"/><path class="a" d="M96.49,21.59H90.36a3.92,3.92,0,0,1-2.66-1l-1.48-1.21a3,3,0,0,1-.92-2.57V11.41a3,3,0,0,1,.92-2.58L87.7,7.62a3.85,3.85,0,0,1,2.63-1h5.09V.4h2.19v20ZM95.42,8.45H91.34a3.11,3.11,0,0,0-2.13.68l-.8.59a2.5,2.5,0,0,0-.92,2.1v4.53a2.49,2.49,0,0,0,.92,2.1l.8.59a3.11,3.11,0,0,0,2.13.68h4.08Z"/><path class="a" d="M11.07,51V48.91A3.66,3.66,0,0,0,10.6,47L8,42.19H2.16V51H0V31l1.18-1.21H7.7c2.16,0,2.58.65,4.11,2a2.9,2.9,0,0,1,1.24,2.49v3.55a2.8,2.8,0,0,1-1.27,2.49l-1.57,1.27,2.69,4.91a4.74,4.74,0,0,1,.5,2.31V51Zm-.3-16.31A2.14,2.14,0,0,0,10,32.89l-.77-.68a2.79,2.79,0,0,0-2.13-.56H2.16v8.67H7.1a2.79,2.79,0,0,0,2.13-.56l.77-.65a2.2,2.2,0,0,0,.77-1.81Z"/><path class="a" d="M27.12,44.14H18.24v1.63a2.5,2.5,0,0,0,.83,2.1l.74.56a3,3,0,0,0,2,.68h5.59V51h-6.6a3.58,3.58,0,0,1-2.49-1l-1.42-1.21a3.08,3.08,0,0,1-.83-2.58V40.59A3.08,3.08,0,0,1,16.91,38l1.42-1.21a3.58,3.58,0,0,1,2.49-1h2.66a3.58,3.58,0,0,1,2.49,1L27.39,38a3.08,3.08,0,0,1,.86,2.58V43Zm-1-3.34a2.49,2.49,0,0,0-.86-2.1l-.74-.59a2.79,2.79,0,0,0-2-.71h-.68a2.79,2.79,0,0,0-2,.71l-.74.59a2.5,2.5,0,0,0-.83,2.1v1.57h7.87Z"/><path class="a" d="M42.14,55.33l-1.24,1.1a3.17,3.17,0,0,1-2.22.77H32.25V55.33h5.56a2.42,2.42,0,0,0,1.89-.71l.56-.44A1.76,1.76,0,0,0,41,52.79V51H36a3.92,3.92,0,0,1-2.66-1l-1.48-1.21a3,3,0,0,1-.92-2.58V40.8a3,3,0,0,1,.92-2.58L33.31,37A3.86,3.86,0,0,1,36,36h7.28V53A2.6,2.6,0,0,1,42.14,55.33ZM41,37.84H37a3.1,3.1,0,0,0-2.13.68l-.8.59a2.5,2.5,0,0,0-.92,2.1v4.53a2.5,2.5,0,0,0,.92,2.1l.8.59a3.11,3.11,0,0,0,2.13.68H41Z"/><path class="a" d="M45.9,33.6V30.79h2.31V33.6ZM46,51V36h2.19V51Z"/><path class="a" d="M62.37,49.5l-1.18.92a3.4,3.4,0,0,1-2,.56H51.18V49.11h7.55a2.05,2.05,0,0,0,1.33-.35l.5-.39a1.44,1.44,0,0,0,.53-1.07V46.15c0-1-.47-1.42-1.78-1.54L54,44.08c-2.28-.24-3.11-1.51-3.11-3v-1.6a2.2,2.2,0,0,1,.8-2l1.18-.92a3.4,3.4,0,0,1,2-.56h7.43v1.87H55.32a2.05,2.05,0,0,0-1.33.35l-.5.38A1.43,1.43,0,0,0,53,39.64v.92c0,.92.47,1.36,1.72,1.48l5,.5c2.55.27,3.46,1.36,3.46,3v2A2.2,2.2,0,0,1,62.37,49.5Z"/><path class="a" d="M70.37,51a3.33,3.33,0,0,1-2.28-.68l-1.21-1.07a2.66,2.66,0,0,1-1-2.43V32.72H68V36h4.65v1.87H68V46.6a2,2,0,0,0,.86,1.6l.36.3a2.46,2.46,0,0,0,2,.62h1.48V51Z"/><path class="a" d="M77.54,37.84V51H75.35V37.19L76.47,36h6.45v1.87Z"/><path class="a" d="M96.52,55.33l-1.24,1.1a3.17,3.17,0,0,1-2.22.77H86.49V55.33H92.2a2.42,2.42,0,0,0,1.89-.71l.56-.44a1.76,1.76,0,0,0,.77-1.39V51H90.57a3,3,0,0,1-2.25-.77l-1.89-1.72a2.18,2.18,0,0,1-.83-1.84V36h2.19v9.56a2.64,2.64,0,0,0,1.06,2.19l.62.56a2.87,2.87,0,0,0,2.16.83h3.79V36h2.19V53A2.6,2.6,0,0,1,96.52,55.33Z"/></svg>