<?xml version="1.0" encoding="utf-8"?>
<!-- Generator: Adobe Illustrator 21.1.0, SVG Export Plug-In . SVG Version: 6.00 Build 0)  -->
<svg version="1.1" xmlns="http://www.w3.org/2000/svg" xmlns:xlink="http://www.w3.org/1999/xlink" x="0px" y="0px"
	 viewBox="0 0 1125.4 652" style="enable-background:new 0 0 1125.4 652;" xml:space="preserve">
<style type="text/css">
	.st0{fill:#86368C;}
	.st1{clip-path:url(#SVGID_2_);}
	.st2{clip-path:url(#SVGID_4_);}
	.st3{clip-path:url(#SVGID_6_);}
	.st4{clip-path:url(#SVGID_8_);}
	.st5{clip-path:url(#SVGID_10_);}
	.st6{clip-path:url(#SVGID_12_);}
	.st7{clip-path:url(#SVGID_14_);}
	.st8{clip-path:url(#SVGID_16_);}
	.st9{fill:#010202;}
	.st10{font-family:'HelveticaNeue';}
	.st11{font-size:180px;}
	.st12{letter-spacing:-4;}
</style>
<g id="Layer_1">
	<rect x="3.1" y="10.8" class="st0" width="15" height="634.7"/>
	<g>
		<defs>
			<rect id="SVGID_1_" x="-129.3" y="-119" width="1920" height="1080"/>
		</defs>
		<clipPath id="SVGID_2_">
			<use xlink:href="#SVGID_1_"  style="overflow:visible;"/>
		</clipPath>
		<path class="st1" d="M158.6,28.5v8.4c4.3,0.3,7.4,1,9.1,1.5C166.8,33.6,163.3,29.8,158.6,28.5"/>
		<path class="st1" d="M153.3,22.5L153.3,22.5c0,2.8-0.6,4.7-1.5,6c0.1,0,1.5-0.5,3.4-0.5c1.2,0,3.2,0.4,3.4,0.5
			c-0.9-1.2-1.5-3.1-1.5-6c6.4,0,8,3,8,5.4h1.2v-7.3v-7.4h-1.2c0,2.5-1.6,5.5-8,5.5c0-6.4,3-8,5.5-8V9.6h-7.4h-7.4v1.2
			c2.5,0,5.5,1.6,5.5,8c-6.4,0-8-3-8-5.5h-1.2v7.4V28h1.2C145.4,25.5,146.9,22.5,153.3,22.5"/>
		<path class="st1" d="M151.9,28.5c-4.6,1.3-8.2,5.1-9.1,9.9c1.7-0.5,4.8-1.2,9.1-1.5V28.5z"/>
		<path class="st1" d="M162.5,239.9c0-1.5,1.2-2.7,2.7-2.7c1.5,0,2.7,1.2,2.7,2.7c0,1.5-1.2,2.7-2.7,2.7
			C163.7,242.6,162.5,241.4,162.5,239.9 M159.8,239.9c0,3,2.4,5.4,5.4,5.4c3,0,5.4-2.4,5.4-5.4c0-3-2.4-5.4-5.4-5.4
			C162.2,234.5,159.8,236.9,159.8,239.9"/>
		<path class="st1" d="M145.1,171.1l-0.7,4.6l-3.6-7.2c0.4-0.2,0.8-0.3,1.3-0.3C143.8,168.1,145.3,169.6,145.1,171.1 M143.6,181.6
			l-5.5-11.2c0.6-0.4,1.2-0.8,1.7-1.2l4.3,8.8L143.6,181.6z M142.8,187.6l-7.8-15.8c0.7-0.2,1.3-0.5,1.9-0.8l6.4,13L142.8,187.6z
			 M141.9,193.6l-10.5-21.2c0.7-0.1,1.5-0.2,2.1-0.3l8.8,17.9L141.9,193.6z M141.1,199.6l-13.5-27.4c0.8,0.1,1.6,0.2,2.4,0.3
			l11.6,23.5L141.1,199.6z M125.6,171.7c0.1,0,0.2,0.1,0.3,0.1l14.8,30C122.4,193.6,124.2,178.7,125.6,171.7 M150,169.2
			c0-2.6-2.1-4.8-4.8-4.8h-0.9h-26.1c-2.3,0-4.1,1.9-4.1,4.1c0,1.6,1.3,3,3,3c1.6,0,3-1.3,3-3.1c0.6,0.6,1.3,1.1,2,1.6
			c-0.3,1.6-0.8,3.9-1,6.7c-0.4-0.6-1-0.9-1.7-0.9c-1.1,0-2,0.9-2,2c0,1.1,0.9,2,2,2c0.7,0,1.3-0.3,1.6-0.8c0,1.4,0.1,2.9,0.3,4.5
			c-0.3-0.2-0.8-0.4-1.2-0.4c-1.1,0-2,0.9-2,2c0,1.1,0.9,2,2,2c0.7,0,1.4-0.4,1.7-1c0,0.2,0.1,0.4,0.1,0.5c0.3,1.2,0.7,2.4,1.2,3.5
			c-0.3-0.2-0.6-0.2-1-0.2c-1.1,0-2,0.9-2,2c0,1.1,0.9,2,2,2c1,0,1.8-0.7,2-1.7c0.7,1.3,1.5,2.6,2.5,3.7c-0.1,0-0.2,0-0.4,0
			c-1.1,0-2,0.9-2,2c0,1.1,0.9,2,2,2c1.1,0,2-0.9,2-2V198c3,3.1,7,5.7,11.9,7.8l-0.8,6.1c0,0,1.9,0.9,4.9,1.8
			c2.9,0.8,5.7,1.3,5.7,1.3L150,169.2z"/>
		<path class="st1" d="M132.1,48.8c0-1.8,1.4-3.2,3.2-3.2c1.8,0,3.2,1.4,3.2,3.2c0,1.8-1.4,3.2-3.2,3.2
			C133.5,52,132.1,50.6,132.1,48.8"/>
		<path class="st1" d="M90.7,70.8c0-1.8,1.4-3.2,3.2-3.2c1.8,0,3.2,1.4,3.2,3.2c0,1.8-1.4,3.2-3.2,3.2C92.1,74,90.7,72.6,90.7,70.8"
			/>
		<path class="st1" d="M89,62.7c0-1.8,1.4-3.2,3.2-3.2c1.8,0,3.2,1.4,3.2,3.2c0,1.8-1.4,3.2-3.2,3.2C90.4,66,89,64.5,89,62.7"/>
		<path class="st1" d="M89.8,54.6c0-1.8,1.4-3.2,3.2-3.2c1.8,0,3.2,1.4,3.2,3.2c0,1.8-1.4,3.2-3.2,3.2
			C91.2,57.8,89.8,56.3,89.8,54.6"/>
		<path class="st1" d="M94.1,47.6c0-1.8,1.4-3.2,3.2-3.2c1.8,0,3.2,1.4,3.2,3.2c0,1.8-1.4,3.2-3.2,3.2
			C95.5,50.8,94.1,49.3,94.1,47.6"/>
		<path class="st1" d="M100.8,42.8c0-1.8,1.4-3.2,3.2-3.2c1.8,0,3.2,1.4,3.2,3.2c0,1.8-1.4,3.2-3.2,3.2
			C102.2,46,100.8,44.5,100.8,42.8"/>
		<path class="st1" d="M108.8,41.3c0-1.8,1.4-3.2,3.2-3.2c1.8,0,3.2,1.4,3.2,3.2c0,1.8-1.4,3.2-3.2,3.2
			C110.3,44.5,108.8,43.1,108.8,41.3"/>
		<path class="st1" d="M116.8,43c0-1.8,1.4-3.2,3.2-3.2c1.8,0,3.2,1.4,3.2,3.2c0,1.8-1.4,3.2-3.2,3.2
			C118.3,46.2,116.8,44.8,116.8,43"/>
		<path class="st1" d="M124.5,46c0-1.8,1.4-3.2,3.2-3.2c1.8,0,3.2,1.4,3.2,3.2c0,1.8-1.4,3.2-3.2,3.2C126,49.2,124.5,47.7,124.5,46"
			/>
		<path class="st1" d="M178.4,48.8c0-1.8-1.4-3.2-3.2-3.2c-1.8,0-3.2,1.4-3.2,3.2c0,1.8,1.4,3.2,3.2,3.2
			C177,52,178.4,50.6,178.4,48.8"/>
		<path class="st1" d="M219.8,70.8c0-1.8-1.4-3.2-3.2-3.2c-1.8,0-3.2,1.4-3.2,3.2c0,1.8,1.4,3.2,3.2,3.2
			C218.3,74,219.8,72.6,219.8,70.8"/>
		<path class="st1" d="M221.5,62.7c0-1.8-1.4-3.2-3.2-3.2c-1.8,0-3.2,1.4-3.2,3.2c0,1.8,1.4,3.2,3.2,3.2
			C220,66,221.5,64.5,221.5,62.7"/>
		<path class="st1" d="M220.7,54.6c0-1.8-1.4-3.2-3.2-3.2c-1.8,0-3.2,1.4-3.2,3.2c0,1.8,1.4,3.2,3.2,3.2
			C219.3,57.8,220.7,56.3,220.7,54.6"/>
		<path class="st1" d="M216.4,47.6c0-1.8-1.4-3.2-3.2-3.2c-1.8,0-3.2,1.4-3.2,3.2c0,1.8,1.4,3.2,3.2,3.2
			C214.9,50.8,216.4,49.3,216.4,47.6"/>
		<path class="st1" d="M209.7,42.8c0-1.8-1.4-3.2-3.2-3.2c-1.8,0-3.2,1.4-3.2,3.2c0,1.8,1.4,3.2,3.2,3.2
			C208.3,46,209.7,44.5,209.7,42.8"/>
		<path class="st1" d="M201.6,41.3c0-1.8-1.4-3.2-3.2-3.2c-1.8,0-3.2,1.4-3.2,3.2c0,1.8,1.4,3.2,3.2,3.2
			C200.2,44.5,201.6,43.1,201.6,41.3"/>
		<path class="st1" d="M193.6,43c0-1.8-1.4-3.2-3.2-3.2c-1.8,0-3.2,1.4-3.2,3.2c0,1.8,1.4,3.2,3.2,3.2
			C192.2,46.2,193.6,44.8,193.6,43"/>
		<path class="st1" d="M185.9,46c0-1.8-1.4-3.2-3.2-3.2c-1.7,0-3.2,1.4-3.2,3.2c0,1.8,1.5,3.2,3.2,3.2
			C184.5,49.2,185.9,47.7,185.9,46"/>
		<path class="st1" d="M182.6,94.7c0-1.9-1.6-3.5-3.5-3.5c-2,0-3.5,1.6-3.5,3.5c0,1.9,1.6,3.5,3.5,3.5
			C181,98.2,182.6,96.7,182.6,94.7"/>
	</g>
	<path d="M194.3,155.3h-33.6v-38.2h13.2h5h15.4V155.3z M159.6,116v40.4h35.7l0-40.4H159.6z"/>
	<path d="M190.9,119.6v1.1h1.1v31.2h-1.1v1h-26.7v-1h-1v-31.2h1v-1.1H190.9z M164.2,118.5L164.2,118.5h-2.1v33.4v2.1h2.1h26.7h2.1
		v-2.1v-31.2v-2.1h-2.1h-11.5h-5.9H164.2z"/>
	<g>
		<defs>
			<rect id="SVGID_3_" x="-129.3" y="-119" width="1920" height="1080"/>
		</defs>
		<clipPath id="SVGID_4_">
			<use xlink:href="#SVGID_3_"  style="overflow:visible;"/>
		</clipPath>
		<path class="st2" d="M189.3,128.7l-1.7,1.6h0c0,0-0.1,0.1-0.2,0.2h0l-3.1,2.9c-1,0.9-1.2,2.3-0.5,3.3l1.8,2.5
			c0.2,0.2,0.2,0.5,0.2,0.8c-0.1,0.3-0.2,0.5-0.4,0.7c-0.2,0.2-0.5,0.2-0.8,0.2c-0.3,0-0.5-0.2-0.7-0.4c0,0-1.8-2.4-2.7-3.7v-3.5
			l4.4-4.1v-3.7l-1.5-1.5l1.9-1.9h-7.7l-1.9,1.8v2c0.3-0.1,0.5-0.2,0.8-0.2c0.9,0,1.7,0.7,1.7,1.6c0,0.9-0.7,1.6-1.7,1.6
			c-0.3,0-0.6-0.1-0.8-0.2v2.5h-2.6l-3.2-4.3c0.4-0.4,0.7-0.9,0.7-1.6c0-1.2-1-2.1-2.1-2.1c-0.4,0-0.9,0.1-1.2,0.4v1.2v2.1v0.1
			c0,0,0.1,0.1,0.1,0.1l3,4.1l1.6,2.1h2.6h0.9l-2,1.9h-3.5c-0.3-0.8-1.1-1.3-2-1.3c-0.9,0-1.6,0.6-1.9,1.3c-0.1,0.2-0.2,0.5-0.2,0.8
			c0,0.5,0.2,1,0.5,1.4h3.3h5.2l1.5,2h-3.4h-2.4v0.1l2.2,3l1.2,1.6h-3c-0.3-0.9-1.1-1.5-2-1.5c-0.9,0-1.7,0.6-2,1.5
			c-0.1,0.2-0.1,0.4-0.1,0.6c0,0.6,0.2,1.1,0.6,1.5h3h4.9h2.5l-1.5-2.1l-1.2-1.6h3.4l1.2,1.6l1.6,2.1h4.4h0.5v2.4h-0.7
			c-0.3-0.9-1.1-1.5-2-1.5c-0.9,0-1.7,0.6-2,1.5c-0.1,0.2-0.1,0.4-0.1,0.6c0,0.6,0.2,1.1,0.6,1.5h6.3v-4.5v-2.1H187h-2.1l-2.1-2.8
			c0.4,0.4,0.9,0.7,1.5,0.8c0.7,0.1,1.3-0.1,1.8-0.4c0.5-0.4,0.9-1,1-1.6c0.1-0.6-0.1-1.3-0.4-1.8l-1.8-2.5
			c-0.4-0.5-0.1-1.2,0.3-1.5c0,0,0.4-0.4,0.9-0.9c0.7,0.7,1.9,0.7,2.6,0c0.4-0.4,0.6-0.8,0.6-1.3L189.3,128.7z"/>
	</g>
	<polygon points="150.4,94.7 155.2,89.9 160.1,94.7 155.2,99.6 	"/>
	<g>
		<defs>
			<rect id="SVGID_5_" x="-129.3" y="-119" width="1920" height="1080"/>
		</defs>
		<clipPath id="SVGID_6_">
			<use xlink:href="#SVGID_5_"  style="overflow:visible;"/>
		</clipPath>
		<path class="st3" d="M127.8,94.7c0-1.9,1.6-3.5,3.5-3.5c2,0,3.5,1.6,3.5,3.5c0,1.9-1.6,3.5-3.5,3.5
			C129.4,98.2,127.8,96.7,127.8,94.7"/>
		<path class="st3" d="M169.8,185.7l-2.1-2.1h4.3L169.8,185.7z M192.9,185.4L192.9,185.4l-0.2,0c0.1-0.3,0.3-0.7,0.3-1.1
			c0-1.4-1.1-2.5-2.5-2.5h-8.9c0-1.2-1-2.1-2.1-2.1c-0.6,0-1.1,0.2-1.5,0.6l-2.8,2.8h2.7h0h3.2h9.4c0.6,0,1.1,0.5,1.1,1.1
			c0,0.6-0.5,1.1-1.1,1.1v0h-6v0h-11.6v-2.5l3.1-3.1h-12.2l3.1,3.1v4.6l-4.9-3.9c0.4-0.4,0.7-1,0.7-1.6c0-1.2-1-2.1-2.1-2.1
			c-0.5,0-1,0.2-1.4,0.5v3.2v0.5l7.6,6l-3.6,1.1c-0.3-0.8-1.1-1.5-2-1.5c-1.2,0-2.1,1-2.1,2.1c0,0.5,0.2,1,0.5,1.4h2.4h1.9l19.2-6v3
			l-2.5,1.2c-0.2-1-1.1-1.6-2.1-1.6c-1.2,0-2.1,1-2.1,2.1c0,0.5,0.2,1,0.5,1.4h2.4h2.4l3-1.4l2-0.9l-0.9-1.9l-0.4-0.9h7.1
			c-0.1,0.3-0.2,0.6-0.3,0.8c-0.2,0.5-0.3,1-0.5,1.5c-0.4-0.4-1-0.7-1.6-0.7c-1.2,0-2.1,1-2.1,2.1c0,0.5,0.2,1,0.5,1.4h3.3h1.1
			c0.6-1.2,1-2.7,1.3-3.6c0.6-1.8,0.9-3.5,1-4.2H192.9z"/>
		<path class="st3" d="M169.8,170.3l-2.1-2.1h4.3L169.8,170.3z M193.2,170c0.2-0.3,0.2-0.7,0.2-1.1c0-1.4-1.1-2.5-2.5-2.5h-9.5
			c0-1.1-1-2-2.1-2c-0.6,0-1.1,0.2-1.5,0.6l-2.8,2.8h2.7h0h3.2h10c0.6,0,1.1,0.5,1.1,1.1c0,0.6-0.5,1.1-1.1,1.1h-6.5h-11.6v-2.5
			l3.1-3.1h-12.2l3.1,3.1v4.6l-5-4c0.4-0.4,0.7-0.9,0.7-1.5c0-1.2-1-2.1-2.1-2.1c-0.5,0-1,0.2-1.4,0.5v3.2v0v0.5l7.6,6l-3.6,1.1
			c-0.3-0.8-1.1-1.5-2-1.5c-1.2,0-2.1,1-2.1,2.1c0,0.5,0.2,1,0.5,1.4c0,0,3.3,0,3.3,0h1.1l19.2-6v3.1l-2.6,0.8
			c-0.3-0.8-1.1-1.5-2-1.5c-1.2,0-2.1,1-2.1,2.1c0,0.5,0.2,1,0.5,1.4c0,0,3.3,0,3.3,0h1.1l4.8-1.5l2.3-0.7l-1.8-1.7l-1.3-1.2h8.5
			v2.4c-0.4-0.4-1-0.7-1.6-0.7c-1.2,0-2.1,1-2.1,2.1c0,0.5,0.2,1,0.5,1.4c0,0,3.3,0,3.3,0h2.1v-5.1v-1.1V170H193.2z"/>
		<path class="st3" d="M169.8,201.1l-2.1-2.1h4.3L169.8,201.1z M168.4,204.9L168.4,204.9L168.4,204.9z M185.2,197.2h-3.7
			c0-1.1-1-2-2.1-2c-0.6,0-1.1,0.2-1.5,0.6l-2.8,2.8h2.7c0,0,0,0,0,0c0,0,3.2,0,3.2,0h4.2c0.6,0,1.1,0.5,1.1,1.1
			c0,0.6-0.5,1.1-1.1,1.1h-6.1h-6.3v-2.5l3.1-3.1h-12.2l3.1,3.1v5.2l-5-4.5c0.4-0.4,0.7-1,0.7-1.6c0-1.2-1-2.1-2.1-2.1
			c-0.5,0-1,0.2-1.4,0.5v2.3v1.3l8,7.2l0.4-0.4l-5.1,5.9c-0.4-0.3-1-0.5-1.5-0.5c-1.2,0.1-2,1.2-1.9,2.4c0.1,0.4,0.2,0.8,0.5,1.2
			c0.7-0.1,1.9-0.2,3.5-0.4l5.6-6.6c0.8-0.3,1.5-0.6,2.3-0.9l2.2,2c-0.5,0.2-0.9,0.4-1.3,0.6c-0.6-0.5-1.4-0.7-2.2-0.4
			c-1.1,0.4-1.6,1.7-1.2,2.8c0.1,0.4,0.4,0.7,0.7,0.9c0,0,0.9-0.3,1.8-0.6c0.8-0.3,1.6-0.7,1.6-0.7c0,0,0.1,0,0.1,0
			c1-0.4,1.9-0.9,2.7-1.3v-2.5V205c1.4-0.9,2.6-1.8,3.7-2.7l2.1,1.9c-0.5,0.4-0.9,0.7-1.4,1.1c-0.6-0.4-1.4-0.4-2,0
			c-0.5,0.3-0.9,0.8-1,1.3c-0.1,0.3-0.1,0.5-0.1,0.8c0,0.3,0.1,0.5,0.3,0.8c0.2,0.4,0.7,0.7,1,0.9c1-0.6,1.9-1.3,2.9-1.9
			c0.7-0.5,1.4-1,2-1.6c0.2-0.2,0.4-0.4,0.6-0.5v-2.2v-0.7h2c1.4,0,2.5-1.1,2.5-2.5C187.7,198.4,186.6,197.2,185.2,197.2"/>
		<path class="st3" d="M125.1,150.2l-2.1-2.1h4.3L125.1,150.2z M148.5,149.9c0.2-0.3,0.3-0.7,0.3-1.1c0-1.4-1.1-2.5-2.5-2.5h-9.4
			c0-1.1-1-2-2.1-2c-0.6,0-1.1,0.2-1.5,0.6l-2.8,2.8h2.7h3.2h9.9c0.6,0,1.1,0.5,1.1,1.1c0,0.6-0.5,1.1-1.1,1.1h-6.5h-11.6v-2.5
			l3.1-3.1H119l3.1,3.1v4.6l-5-3.9c0.4-0.4,0.7-1,0.7-1.6c0-1.2-1-2.1-2.1-2.1c-0.5,0-1,0.2-1.4,0.5v3.2v0.5l7.6,6l-3.6,1.1
			c-0.3-0.8-1.1-1.5-2-1.5c-1.2,0-2.1,1-2.1,2.1c0,0.5,0.2,1,0.5,1.3h3.3h1.1l19.2-6v3.1l-2.6,0.8c-0.3-0.8-1.1-1.5-2-1.5
			c-1.2,0-2.1,1-2.1,2.1c0,0.5,0.2,1,0.5,1.3h3.3h1.1l4.8-1.5l2.3-0.7l-1.8-1.7l-1.3-1.2h8.5v2.4c-0.4-0.5-1-0.8-1.6-0.8
			c-1.2,0-2.1,1-2.1,2.1c0,0.5,0.2,1,0.5,1.3h3.3h2.1v-5.1v-2.6H148.5z"/>
		<path class="st3" d="M125.1,135.3l-2.1-2.1h4.3L125.1,135.3z M148.5,135.1c0.2-0.3,0.3-0.7,0.3-1.1c0-1.4-1.1-2.5-2.5-2.5h-9.4
			c0-1.1-1-2.1-2.1-2.1c-0.6,0-1.1,0.2-1.5,0.6l-2.8,2.8h2.7v0h3.1h10c0.6,0,1.1,0.5,1.1,1.1c0,0.6-0.5,1.1-1.1,1.1h-6.5h-11.6v-2.5
			l3.1-3.1H119l3.1,3.1v4.6l-5-4c0.4-0.4,0.7-0.9,0.7-1.6c0-1.2-1-2.1-2.1-2.1c-0.5,0-1,0.2-1.4,0.5v3.2v0.5l7.6,6l-3.6,1.1
			c-0.3-0.9-1.1-1.5-2-1.5c-1.2,0-2.1,0.9-2.1,2.1c0,0.5,0.2,1,0.5,1.4h3.3h1.1l19.2-6v3.1l-2.6,0.8c-0.3-0.9-1.1-1.5-2-1.5
			c-1.2,0-2.1,0.9-2.1,2.1c0,0.5,0.2,1,0.5,1.4h3.3h1.1l4.8-1.5l2.3-0.7l-1.8-1.7l-1.3-1.2h8.5v2.4c-0.4-0.5-1-0.8-1.6-0.8
			c-1.2,0-2.1,0.9-2.1,2.1c0,0.5,0.2,1,0.5,1.4h3.3h2.1v-5.1v-2.6H148.5z"/>
		<path class="st3" d="M125.1,120.5l-2.1-2.1h4.3L125.1,120.5z M148.5,120.2c0.2-0.3,0.3-0.7,0.3-1.1c0-1.4-1.1-2.5-2.5-2.5h-9.4
			c0-1.1-1-2.1-2.1-2.1c-0.6,0-1.1,0.2-1.5,0.6l-2.8,2.8h2.6h0h3.2h10c0.6,0,1.1,0.5,1.1,1.1c0,0.6-0.5,1.1-1.1,1.1v0h-6.5v0h-11.6
			v-2.5l3.1-3.1H119l3.1,3.1v4.6l-5-4c0.4-0.4,0.7-0.9,0.7-1.6c0-1.2-1-2.1-2.1-2.1c-0.5,0-1,0.2-1.4,0.5v3.2v0.5l7.6,6l-3.6,1.1
			c-0.3-0.8-1.1-1.5-2-1.5c-1.2,0-2.1,1-2.1,2.1c0,0.5,0.2,1,0.5,1.4h3.3h1.1l19.2-6v3.1l-2.6,0.8c-0.3-0.8-1.1-1.5-2-1.5
			c-1.2,0-2.1,1-2.1,2.1c0,0.5,0.2,1,0.5,1.4h3.3h1.1l4.8-1.5l2.3-0.7l-1.8-1.7l-1.3-1.2h8.5v2.4c-0.4-0.5-1-0.8-1.6-0.8
			c-1.2,0-2.1,1-2.1,2.1c0,0.5,0.2,1,0.5,1.4h3.3h2.1v-5.1v-2.6H148.5z"/>
		<path class="st3" d="M213.8,158.1L213.8,158.1c1.4-0.4,2.1-1.8,1.7-3.2c-0.2-0.7-0.6-1.2-1.2-1.5c-0.6-0.3-1.3-0.4-2-0.2
			c-0.6,0.2-1.2,0.6-1.5,1.2c-0.3,0.6-0.4,1.3-0.2,2C211,157.8,212.4,158.5,213.8,158.1"/>
		<path class="st3" d="M206.4,163.9l0.3,2.3c0,0,8.3-1.2,8.4-1.2c0.1,0,8.4,4.2,8.4,4.2l-0.4-2.8c0,0-5.4-2.7-5.8-2.9
			c0.4-0.3,4.8-4.4,4.8-4.4l-0.4-2.8l-0.2,0.2c0,0-6.5,6.1-6.6,6.2C214.7,162.6,206.4,163.9,206.4,163.9"/>
		<path class="st3" d="M212.9,171.9c0,0.7,0.3,1.3,0.8,1.8c0.5,0.5,1.1,0.7,1.8,0.7c0.7,0,1.3-0.3,1.8-0.8c0.5-0.5,0.7-1.1,0.7-1.8
			c0-0.7-0.3-1.3-0.8-1.8c-0.5-0.5-1.1-0.7-1.8-0.7C214,169.3,212.9,170.5,212.9,171.9"/>
		<path class="st3" d="M220.5,180.2c-0.1,0.3-0.3,2.2-0.3,2.2c-0.3,2-1.9,2-2.5,1.9c-1.3-0.2-2-1-2-2.2c0-0.1,0-0.3,0-0.5
			c0,0,0.2-1.6,0.3-2.1C216.3,179.6,220.2,180.1,220.5,180.2 M207.1,176.1l-0.3,2.2c0,0,6.4,0.9,6.8,1c0,0.3-0.3,1.9-0.3,1.9
			c-0.1,0.4-0.1,0.7-0.1,1c0,1.1,0.3,2.1,0.9,2.8c0.7,0.9,1.8,1.5,3.1,1.7c2.9,0.4,4.9-1.1,5.3-4l0.6-4.6l-16.1-2.2L207.1,176.1z"/>
		<path class="st3" d="M205.6,185.5l-2.6,7.9l2.3,0.8c0,0,1.8-5.5,1.9-5.9c0.3,0.1,4,1.4,4.3,1.5c-0.1,0.3-1.8,5.5-1.8,5.5l2.3,0.8
			c0,0,1.7-5.2,1.8-5.5c0.3,0.1,3.9,1.3,4.2,1.4c-0.1,0.3-1.9,5.7-1.9,5.7l2.3,0.8l2.6-7.9l-15.4-5.1L205.6,185.5z"/>
		<path class="st3" d="M202.5,194.9l-1.1,1.7c0,0,9.2,5.8,10,6.4c-1,0.1-14.9,1.3-14.9,1.3l-1.1,1.7l13.7,8.7l1.2-1.9
			c0,0-9.3-5.9-10.1-6.4c1-0.1,15-1.3,15-1.3l1-1.6l-13.7-8.7L202.5,194.9z"/>
		<path class="st3" d="M197,214.4c-1.6,0.3-3.2,0.6-4.2-0.4c-0.5-0.5-0.9-1.7,0.3-2.8c0.9-0.9,2.4-1.3,4.1-0.9l0.6,0.1l-2.5-2.5
			h-0.1c-1.6,0.1-2.8,0.7-4,1.8c-0.8,0.8-1.2,1.8-1.2,2.9c0,1.2,0.5,2.3,1.4,3.3c2,2.1,4.4,1.6,6.4,1.2c1.5-0.3,2.8-0.6,3.7,0.3
			c0.3,0.3,0.4,0.7,0.4,1.1c0,0.5-0.3,1.1-0.8,1.6c-0.8,0.8-2,1.2-3.4,1.1l-0.4,0l2.2,2.2h0.1c1.2-0.2,2.3-0.7,3.1-1.5
			c1-0.9,1.5-2,1.5-3.2c0-1.1-0.4-2.2-1.4-3.1C201.2,213.6,199,214.1,197,214.4"/>
		<path class="st3" d="M187.2,213.6l-6.9,4.7l1.3,2c0,0,4.8-3.3,5.1-3.5c0.2,0.3,2.4,3.5,2.6,3.8c-0.3,0.2-4.8,3.2-4.8,3.2l1.3,2
			c0,0,4.5-3,4.8-3.2c0.2,0.3,2.3,3.4,2.5,3.7c-0.3,0.2-4.9,3.3-4.9,3.3l1.3,2l6.9-4.7l-9.1-13.4L187.2,213.6z"/>
		<path class="st3" d="M127,224.3c-0.3-0.2-6.2-3.9-6.4-4.1c0.2-0.3,3.7-5.8,3.7-5.8l-2-1.3l-0.1,0.2l-8.6,13.5l2,1.3
			c0,0,3.5-5.6,3.7-5.9c0.3,0.2,6.2,3.9,6.5,4.1c-0.2,0.3-3.7,5.8-3.7,5.8l2,1.3l8.7-13.7l-2-1.3C130.7,218.5,127.2,224.1,127,224.3
			"/>
		<path class="st3" d="M116.1,212.3c-0.1,1.5-0.8,3-2.1,4.2c-2.5,2.3-5.9,2.2-7.9-0.1c-0.9-1.1-1.4-2.4-1.4-3.8
			c0.1-1.5,0.9-3,2.1-4.2c1.3-1.1,2.8-1.7,4.4-1.6c1.4,0.1,2.6,0.7,3.6,1.8C115.7,209.6,116.2,211,116.1,212.3 M118.6,212.4
			c0.1-2-0.6-3.9-1.9-5.4c-3.5-3.9-8.4-3.1-11.5-0.4c-1.8,1.6-2.9,3.7-3,5.9c-0.1,2,0.6,3.9,2,5.5c3,3.3,7.9,3.5,11.4,0.3
			C117.4,216.8,118.5,214.6,118.6,212.4"/>
		<path class="st3" d="M110.1,198.7c0,0-9.9,4.6-10.7,5c0.4-0.9,6.8-13.4,6.8-13.4l-0.9-1.8l-0.2,0.1l-14.5,6.8l1,2.1
			c0,0,10-4.7,10.8-5.1c-0.4,0.9-6.8,13.6-6.8,13.6l0.8,1.7l14.7-6.9L110.1,198.7z"/>
	</g>
	<polygon points="104.6,184.1 104.4,184.2 88.9,188.1 89.5,190.4 105.2,186.5 	"/>
	<g>
		<defs>
			<rect id="SVGID_7_" x="-129.3" y="-119" width="1920" height="1080"/>
		</defs>
		<clipPath id="SVGID_8_">
			<use xlink:href="#SVGID_7_"  style="overflow:visible;"/>
		</clipPath>
		<path class="st4" d="M97.1,178.8c-0.6-0.4-1.2-0.6-1.9-0.5c-0.7,0.1-1.3,0.5-1.7,1c-0.4,0.5-0.6,1.2-0.5,1.9
			c0.1,0.7,0.4,1.3,1,1.7c0.5,0.4,1.2,0.6,1.9,0.5c1.4-0.2,2.4-1.5,2.2-2.9C98,179.8,97.6,179.2,97.1,178.8"/>
		<path class="st4" d="M96.1,172.6c0.9-1.4,1.8-2.7,3.3-2.6c0.4,0,0.9,0.2,1.2,0.5c0.4,0.4,0.6,1,0.6,1.6c0,1.4-0.8,2.6-2.3,3.6
			l-0.5,0.3l3.5,0l0.1-0.1c1-1.2,1.5-2.5,1.5-4.1c0-1.1-0.4-2.1-1.1-2.9c-0.8-0.8-2-1.3-3.3-1.3c-2.9,0-4.2,2-5.3,3.7
			c-0.8,1.3-1.5,2.4-2.8,2.4c-0.4,0-0.8-0.2-1.1-0.4c-0.4-0.4-0.6-1-0.6-1.6c0-1.1,0.6-2.2,1.6-3.2l0.3-0.3l-3.1,0l-0.1,0.1
			c-0.8,1-1.2,2.1-1.2,3.3c0,1.4,0.4,2.5,1.2,3.3c0.8,0.8,1.9,1.2,3.2,1.2C93.7,176.1,95,174.2,96.1,172.6"/>
		<path class="st4" d="M91.3,156.8c0.3-1.4,1.2-2.5,2.3-3.2c1.3-0.8,3-1,4.6-0.6c1.7,0.4,3,1.4,3.8,2.7c0.7,1.2,0.9,2.6,0.6,4
			c-0.7,3-3.7,4.6-7,3.8C92.4,162.6,90.5,159.8,91.3,156.8 M95.1,165.8c2.3,0.6,4.7,0.2,6.6-0.9c1.7-1,2.9-2.6,3.4-4.7
			c0.5-2.1,0.2-4.1-0.8-5.9c-1.1-1.9-3.1-3.2-5.4-3.8c-4.7-1.2-8.9,1.2-9.9,5.6c-0.2,0.7-0.3,1.3-0.3,2c0,1.4,0.4,2.7,1.1,3.8
			C90.8,163.9,92.8,165.2,95.1,165.8"/>
		<path class="st4" d="M203.1,138.1c0.4-0.1,4.5-1.1,5.2-1.3c-0.4,0.6-2.9,4.1-3.1,4.5C205,140.9,203.3,138.5,203.1,138.1
			 M203.8,143.4c0,0.1-0.4,0.6-0.8,1.2l0-2.5C203.4,142.9,203.7,143.4,203.8,143.4 M192.8,232.7c-5.1-0.7-11.8-2.2-20.8-5
			c-0.4-0.1-0.8-0.2-1.2-0.4c0.9-5.2,2.6-8.5,5.4-10.1c4.6-2.2,8.9-5,12.5-8.5c3.3-3,6.6-6.4,9.2-11.4c4.3-7.3,6.7-15.8,6.7-24.8
			c0-4.3-0.5-8.5-1.6-12.5l0-7.9l2.3,5.8l2.2-0.9c0,0-2.2-5.5-2.3-5.9c0.3-0.1,12.8-5.1,12.8-5.1l-0.9-2.2l-0.2,0.1l-14,5.6v-1
			l9.3-13.4l-0.9-1.4l-0.1,0l-8.3,1.9l0-15.6c0.8,0.8,1.7,1.5,2.5,2.3c13.4,13.4,20.7,31.2,20.7,50.1c0,12.4-3.2,24.5-9.3,35.2
			C211,217.9,202.7,226.5,192.8,232.7 M207.5,231.2c-1.1,1-3.6,2.1-8.7,2.1c3.4-2.5,6.7-5.3,9.7-8.3
			C209.2,227.8,208.9,229.9,207.5,231.2 M168.2,250.2c-11.6-2.4-25.1-6.8-33-9.5c0.8-1.9,2.1-5.3,3.5-8.7l2.2,0.9c0,0.1,0,0.3,0,0.4
			c0,3,2.4,5.4,5.4,5.4c3,0,5.4-2.4,5.4-5.4c0-3-2.4-5.4-5.4-5.4c-1.6,0-3,0.7-4,1.8l-2.2-0.9c1.2-3.1,2.4-6,3.1-7.7
			c7.9,3.3,18.1,7.3,27.9,10.4c10.3,3.2,18.6,5.1,25.1,5.6C184.9,242.2,168.9,249.9,168.2,250.2 M166.5,267.6c0,1.5-0.3,2.9-0.9,4.2
			c-0.6,1-1.6,1.6-2.8,1.6c-1.4,0-2.7-0.9-3.1-2.2c-0.1-0.2-0.2-0.9-0.5-1.8c0.4,0.1,0.8,0.2,1.2,0.2c1.8,0,3.2-1.4,3.2-3.2
			c0-1.8-1.4-3.2-3.2-3.2c-1,0-1.8,0.4-2.4,1.1c-1-4.2-2-8.8-2-8.8h-0.7h-0.9c0,0-1,4.5-2,8.7c-0.6-0.7-1.4-1.1-2.4-1.1
			c-1.8,0-3.2,1.4-3.2,3.2c0,1.8,1.5,3.2,3.2,3.2c0.4,0,0.8-0.1,1.2-0.2c-0.2,0.9-0.4,1.6-0.5,1.8c-0.4,1.3-1.7,2.2-3.1,2.2
			c-1.2,0-2.2-0.6-2.8-1.6c-0.6-1.3-0.9-2.7-0.9-4.2v-20.1c6.7,2.1,14.9,4.5,22.6,6.2V267.6z M131.9,239.5c-0.7-0.3-1.2-0.5-1.7-0.7
			c-13.3-5-24.7-13.9-32.9-25.6c-8.4-12-12.8-26-12.8-40.7c0-18.9,7.4-36.7,20.7-50.1c0.8-0.8,1.6-1.6,2.5-2.3l0,19.3
			c-3-2-6.3-4.2-6.5-4.3c0.2-0.3,2.8-4.1,2.8-4.1l-2-1.3l-0.1,0.2L95.1,140l2,1.3c0,0,2.5-3.8,2.7-4.1c0.2,0.1,4.5,3,7.8,5.2v6.8
			l-13.7-6.4l-0.1,0.2l-0.9,2l14.7,6.8v8.3c-1,4-1.6,8.2-1.6,12.4c0,8.9,2.4,17.3,6.6,24.6c2.7,5.3,6.2,8.8,9.6,11.9
			c1.4,1.3,3,2.5,4.6,3.7c0.1,0.1,0.2,0.2,0.4,0.3c0.2,0.1,0.4,0.3,0.5,0.4c0.2,0.2,0.4,0.3,0.7,0.4c0.1,0.1,0.2,0.1,0.2,0.1
			c1.3,0.8,2.6,1.6,3.9,2.3l0,0c1.8,0.9,4.4,2.1,7.4,3.4l-3.1,7.7l-1.4-0.6c-0.9-0.4-1.9,0.1-2.3,0.9c-0.4,0.9,0.1,1.9,0.9,2.2
			l1.5,0.6L131.9,239.5z M111.4,161.9h42.8V218c-8.8-0.2-17.3-2.9-24.5-7.8c0,0,0,0,0,0c-0.3-0.2-0.5-0.4-0.8-0.6
			c-0.1-0.1-0.2-0.1-0.3-0.2c-0.2-0.1-0.4-0.3-0.5-0.4c-0.2-0.2-0.4-0.3-0.7-0.5c-0.1,0-0.1-0.1-0.2-0.1c-4.6-3.6-8.5-8.1-11.4-13.3
			c-2.6-5.2-4.4-12.2-4.4-22.5L111.4,161.9z M111.5,149.7l0.1-37.4h6.6h36.1v47.7h-42.8L111.5,149.7z M111.6,104.3l10.9,2.2
			l-10.9,2.2V104.3z M131.2,104.3l10.9,2.2l-10.9,2.2V104.3z M151.2,104.3l10.9,2.2l-10.9,2.2V104.3z M171.2,104.3l10.9,2.2
			l-10.9,2.2V104.3z M156.2,159.9v-47.7h36.2h6.6l0.1,37.4l0,10.2H156.2z M169.2,219.9c-0.8,1.8-1.5,3.9-1.9,6.3
			c-4.1-1.4-8.2-2.9-12-4.3h0C160.1,221.9,164.8,221.2,169.2,219.9 M156.2,218v-56.1h42.9l0,10.7c0,10.4-1.8,17.5-4.5,22.7
			c-2.2,3.9-5,7.3-8.2,10.4c-0.2,0.2-0.4,0.4-0.6,0.6C177.7,213.6,167.2,217.8,156.2,218 M191,104.3l10.9,2.2l-10.9,2.2V104.3z
			 M229.9,172.6c0-19.9-7.8-38.7-21.9-52.8c-1.7-1.7-3.4-3.2-5.1-4.7v-2.9c3-0.1,5.4-2.6,5.4-5.6c0-3.1-2.5-5.6-5.6-5.6
			c-0.1,0-0.2,0-0.4,0l5.5-2.5l-2.1-4.6l8.2-19l-3.5-1.5L202,92.7l-4.4,2l2.9,6.3h-24h-42.4h-24l2.9-6.3l-4.5-2.1l-8.3-19.3
			l-3.5,1.5l8.2,19l-2.1,4.6l5.5,2.5c0,0-0.1,0-0.1,0c-3.1,0-5.6,2.5-5.6,5.6c0,3,2.3,5.4,5.2,5.6l0,2.9c-1.8,1.5-3.5,3-5.1,4.7
			c-14.1,14.1-21.8,32.8-21.8,52.8c0,15.5,4.7,30.3,13.5,42.9c8.7,12.3,20.6,21.6,34.7,26.9c0.1,0,0.8,0.3,2.1,0.8
			c0.1,2,1.4,3.9,3.4,4.6c2,0.7,4.3,0.1,5.6-1.5c0.1,0,0.1,0.1,0.2,0.1v21.3c0,7.8,6.7,14.2,15,14.2c8.2,0,15-6.4,15-14.2v-14.2
			l36.7-17.6c1.3-0.5,2.4-1.2,3.2-1.9c2.9-2.7,3.4-6.8,1.4-12.3c3.2-3.7,6.1-7.8,8.6-12.1C226.5,198.4,229.9,185.6,229.9,172.6"/>
		<path class="st4" d="M207.7,69.3c-1.2-3.8-4.7-6.5-8.9-6.5c-3.3,0-6.3,1.8-7.9,4.4c-1.2-2.6-3.5-4.6-6.5-5.3
			c-4.1-0.9-8.1,1.1-10,4.5c-1.6-2.8-4.6-4.7-8.1-4.7c-0.2,0-0.5,0-0.7,0c0.2-1.2,0.4-2.3,0.7-3.5c7,0.9,13.5-1.7,19.8-4.3
			c4.8-2,9.4-3.8,13.7-3.8c1.7,0,5.6,0.9,7.9,4.5C210,58.3,210,63.3,207.7,69.3 M159,53.7c-1-0.9-2.3-1.5-3.8-1.5
			c-1.4,0-2.7,0.6-3.7,1.5v-0.2c0-2.1,1.7-3.8,3.8-3.8c2.1,0,3.8,1.7,3.8,3.8C159,53.5,159,53.6,159,53.7 M158.8,59
			c-0.9-0.8-2.2-1.3-3.5-1.3c-1.4,0-2.6,0.5-3.5,1.3c-0.1-0.4-0.2-0.8-0.2-1.3c0-2.1,1.7-3.8,3.8-3.8c2.1,0,3.8,1.7,3.8,3.8
			C159,58.2,158.9,58.6,158.8,59 M155.2,67c-2.1,0-3.8-1.7-3.8-3.8c0-2.1,1.7-3.8,3.8-3.8c2.1,0,3.8,1.7,3.8,3.8
			C159,65.3,157.3,67,155.2,67 M155.2,46.1c1.9,0,3.5,1.5,3.7,3.3c-1-0.9-2.3-1.5-3.7-1.5c-1.4,0-2.8,0.5-3.7,1.5
			C151.7,47.5,153.3,46.1,155.2,46.1 M155.2,42.5c1.9,0,3.5,1.4,3.7,3.2c-1-0.9-2.3-1.5-3.7-1.5c-1.4,0-2.7,0.6-3.7,1.5
			C151.7,43.9,153.3,42.5,155.2,42.5 M144.2,61.8c-3.5,0-6.5,1.9-8.1,4.7c-1.9-3.4-6-5.4-10-4.5c-3,0.6-5.4,2.7-6.5,5.3
			c-1.7-2.6-4.6-4.4-7.9-4.4c-4.1,0-7.7,2.7-8.9,6.5c-2.2-6.1-2.3-11.1,0-14.6c2.3-3.6,6.2-4.5,7.9-4.5c4.3,0,8.9,1.9,13.7,3.8
			c6.3,2.5,12.8,5.2,19.8,4.3c0.3,1.1,0.5,2.3,0.7,3.5C144.6,61.8,144.4,61.8,144.2,61.8 M211.1,52.6c-2.8-4.4-7.7-6.3-11.2-6.3
			c-5.1,0-10.2,2.1-15.2,4.1c-5.6,2.3-11.4,4.6-17.2,4.1c0.7-2.1,1.6-4.2,2.5-5.9l-3.5-1.7c0.7-1.3,1.2-2.8,1.4-4.3
			c-0.4-0.2-5.1-1.9-12.8-1.9c-7.7,0-12,1.7-12.4,1.8c0.2,1.6,0.7,3.1,1.4,4.4l-3.5,1.7c1,1.7,1.8,3.8,2.5,5.9
			c-5.8,0.6-11.6-1.8-17.2-4.1c-5-2-10.1-4.1-15.2-4.1c-3.6,0-8.4,1.9-11.2,6.3c-2.3,3.6-4.1,10.1,0.8,20.9l-0.1-0.2l7.2-3.1
			l0.5,1.2c-2.4,1-4.6,3.8-2,9.9c6.2-2.6,6.5-6.2,5.4-8.6l1.2-0.5l3.1,7.1l3.1,7.1l-1.2,0.5c-1-2.4-3.8-4.6-9.9-2
			c2.6,6.2,7.5,8.7,11.2,8.7c6.4,0,11.1-4,10.4-8c-0.5-3-3.2-4-4.2-3.8c-1.3,0.3-2.1,1.6-1.9,2.6c0.1,0.2,0.1,0.4,0.3,0.6l-0.2,0.2
			c-1.7-0.1-3.2-1.4-3.5-3.2c-0.4-2.1,1-4.2,3.1-4.6c1.3-0.2,2.6,0.2,3.5,1l0.4-0.6c-1.2-0.6-2-1.7-2.3-3.1
			c-0.6-3.4,3.2-6.7,3.2-6.7c0.1,0,4.8,1.7,5.5,5c0.3,1.4-0.1,2.8-1,3.7l0.6,0.4c0.5-1.1,1.5-2,2.8-2.2c2.1-0.4,4.2,1,4.6,3.1
			c0.3,1.8-0.6,3.5-2.1,4.3l-0.2-0.2c0-0.2,0-0.4,0-0.7c-0.2-1-1.4-2-2.7-1.7c-1,0.2-3.1,2.2-2.5,5.1c1,5,5.1,8.6,10.2,8.6
			c5.1,0,10.4-4.2,10.4-10.4c-7.2,0-9,3.4-9,6.2h-1.4v-8.3v-8.3h1.4c0,2.8,1.8,6.2,9,6.2c0-7.2-3.4-9-6.2-9v-1.4h7.2h2.3h7.2V70
			c-2.8,0-6.2,1.8-6.2,9c7.2,0,9-3.4,9-6.2h1.4v8.3v8.3h-1.4c0-2.8-1.8-6.2-9-6.2c0,6.2,5.3,10.4,10.4,10.4c5.1,0,9.3-3.6,10.2-8.6
			c0.6-2.9-1.5-4.9-2.5-5.1c-1.3-0.3-2.5,0.7-2.7,1.7c0,0.2,0,0.5,0,0.7l-0.2,0.2c-1.5-0.8-2.4-2.5-2.1-4.3c0.4-2.1,2.5-3.5,4.6-3.1
			c1.3,0.3,2.3,1.1,2.9,2.3l0.6-0.4c-0.9-1-1.3-2.4-1-3.7c0.6-3.4,5.4-5,5.5-5c0.1,0,3.9,3.3,3.2,6.7c-0.3,1.4-1.2,2.5-2.3,3.1
			l0.4,0.6c0.9-0.9,2.2-1.3,3.5-1.1c2.1,0.4,3.5,2.5,3.1,4.6c-0.3,1.8-1.8,3-3.5,3.2l-0.2-0.2c0.1-0.2,0.2-0.4,0.3-0.6
			c0.2-1-0.6-2.3-1.9-2.6c-1-0.2-3.7,0.8-4.2,3.8c-0.7,4,4.1,8,10.4,8c3.7,0,8.5-2.5,11.2-8.7c-6.2-2.6-8.9-0.4-9.9,2l-1.2-0.5
			l3.1-7.1l3.1-7.1l1.2,0.5c-1,2.4-0.8,5.9,5.4,8.6c2.7-6.2,0.4-8.9-2-9.9l0.5-1.2l7.2,3.1l-0.1,0.2
			C215.1,62.8,213.4,56.2,211.1,52.6"/>
	</g>
	<polygon points="177.5,114.9 177.5,114.9 176.1,114.9 176.8,116.6 177.5,116.6 177.7,116.7 177.4,117.1 177.8,116.7 177.9,116.8 
		178.2,116.6 178.9,114.9 	"/>
	<polyline points="160.2,116.3 159.9,116.6 160,117.2 158.6,117 158.6,116.1 157.5,114.1 157.8,113.9 159.6,115 160.7,115 
		160.7,116.5 160.2,116.3 	"/>
	<g>
		<defs>
			<rect id="SVGID_9_" x="-129.3" y="-119" width="1920" height="1080"/>
		</defs>
		<clipPath id="SVGID_10_">
			<use xlink:href="#SVGID_9_"  style="overflow:visible;"/>
		</clipPath>
		<path class="st5" d="M161.2,116.1c-0.3,0-0.5-0.2-0.5-0.5c0-0.3,0.2-0.5,0.5-0.5c0.2,0,0.3,0.1,0.4,0.2h0.2c0-0.1,0.1-0.2,0.1-0.3
			c0-0.6-0.5-1.1-1.1-1.1c-0.6,0-1.1,0.5-1.1,1.1c0,0.6,0.5,1.1,1.1,1.1H161.2L161.2,116.1"/>
		<path class="st5" d="M159.7,117.6c0-0.3-0.2-0.5-0.5-0.5c-0.3,0-0.5,0.2-0.5,0.5c0,0.2,0.1,0.3,0.2,0.4v0.2
			c-0.1,0-0.2,0.1-0.3,0.1c-0.6,0-1.1-0.5-1.1-1.1c0-0.6,0.5-1.1,1.1-1.1c0.6,0,1.1,0.5,1.1,1.1V117.6L159.7,117.6z"/>
	</g>
	<polyline points="160.2,156.2 159.9,155.9 160,155.2 158.6,155.4 158.6,156.4 157.5,158.3 157.8,158.6 159.6,157.5 160.7,157.5 
		160.7,156 160.2,156.2 	"/>
	<g>
		<defs>
			<rect id="SVGID_11_" x="-129.3" y="-119" width="1920" height="1080"/>
		</defs>
		<clipPath id="SVGID_12_">
			<use xlink:href="#SVGID_11_"  style="overflow:visible;"/>
		</clipPath>
		<path class="st6" d="M161.2,156.4c-0.3,0-0.5,0.2-0.5,0.5c0,0.3,0.2,0.5,0.5,0.5c0.2,0,0.3-0.1,0.4-0.2h0.2c0,0.1,0.1,0.2,0.1,0.3
			c0,0.6-0.5,1.1-1.1,1.1c-0.6,0-1.1-0.5-1.1-1.1c0-0.6,0.5-1.1,1.1-1.1H161.2L161.2,156.4"/>
		<path class="st6" d="M159.7,154.8c0,0.3-0.2,0.5-0.5,0.5c-0.3,0-0.5-0.2-0.5-0.5c0-0.2,0.1-0.3,0.2-0.4v-0.2
			c-0.1,0-0.2-0.1-0.3-0.1c-0.6,0-1.1,0.5-1.1,1.1c0,0.6,0.5,1.1,1.1,1.1c0.6,0,1.1-0.5,1.1-1.1V154.8L159.7,154.8z"/>
	</g>
	<polyline points="194.8,156.2 195.1,155.9 195,155.2 196.5,155.4 196.4,156.4 197.5,158.3 197.2,158.6 195.4,157.5 194.3,157.5 
		194.3,156 194.8,156.2 	"/>
	<g>
		<defs>
			<rect id="SVGID_13_" x="-129.3" y="-119" width="1920" height="1080"/>
		</defs>
		<clipPath id="SVGID_14_">
			<use xlink:href="#SVGID_13_"  style="overflow:visible;"/>
		</clipPath>
		<path class="st7" d="M193.8,156.4c0.3,0,0.5,0.2,0.5,0.5c0,0.3-0.2,0.5-0.5,0.5c-0.2,0-0.3-0.1-0.4-0.2h-0.2
			c0,0.1-0.1,0.2-0.1,0.3c0,0.6,0.5,1.1,1.1,1.1c0.6,0,1.1-0.5,1.1-1.1c0-0.6-0.5-1.1-1.1-1.1H193.8L193.8,156.4"/>
		<path class="st7" d="M195.3,154.8c0,0.3,0.2,0.5,0.5,0.5c0.3,0,0.5-0.2,0.5-0.5c0-0.2-0.1-0.3-0.2-0.4v-0.2c0.1,0,0.2-0.1,0.3-0.1
			c0.6,0,1.1,0.5,1.1,1.1c0,0.6-0.5,1.1-1.1,1.1c-0.6,0-1.1-0.5-1.1-1.1V154.8L195.3,154.8z"/>
	</g>
	<polyline points="194.8,116.3 195.1,116.6 195,117.2 196.5,117 196.4,116.1 197.5,114.1 197.2,113.9 195.4,115 194.3,115 
		194.3,116.5 194.8,116.3 	"/>
	<g>
		<defs>
			<rect id="SVGID_15_" x="-129.3" y="-119" width="1920" height="1080"/>
		</defs>
		<clipPath id="SVGID_16_">
			<use xlink:href="#SVGID_15_"  style="overflow:visible;"/>
		</clipPath>
		<path class="st8" d="M193.8,116.1c0.3,0,0.5-0.2,0.5-0.5c0-0.3-0.2-0.5-0.5-0.5c-0.2,0-0.3,0.1-0.4,0.2h-0.2
			c0-0.1-0.1-0.2-0.1-0.3c0-0.6,0.5-1.1,1.1-1.1c0.6,0,1.1,0.5,1.1,1.1c0,0.6-0.5,1.1-1.1,1.1H193.8L193.8,116.1"/>
		<path class="st8" d="M195.4,117.6c0-0.3,0.2-0.5,0.5-0.5c0.3,0,0.5,0.2,0.5,0.5c0,0.2-0.1,0.3-0.2,0.4v0.2c0.1,0,0.2,0.1,0.3,0.1
			c0.6,0,1.1-0.5,1.1-1.1c0-0.6-0.5-1.1-1.1-1.1c-0.6,0-1.1,0.5-1.1,1.1V117.6L195.4,117.6z"/>
	</g>
	<rect x="175.9" y="119" width="3.1" height="1.4"/>
	<polygon points="177.7,121.6 177.3,121.6 176.7,120.3 178.3,120.3 	"/>
	<polygon points="179.4,119.5 179.4,119.5 179.5,119.5 	"/>
	<g>
		<path d="M179.7,120.1c-0.1,0.1-0.1,0.1-0.3,0.1c-0.2,0-0.3-0.1-0.3-0.3c0-0.2,0.2-0.3,0.3-0.3l-0.3,0c-0.4,0-0.8,0.4-0.8,0.8
			c0,0.4,0.3,0.8,0.8,0.8c0.4,0,0.8-0.4,0.8-0.8c0,0,0,0,0-0.1L179.7,120.1z"/>
	</g>
	<path d="M175.6,119.5L175.6,119.5L175.6,119.5z"/>
	<g>
		<path d="M175.3,120.1c0.1,0.1,0.1,0.1,0.3,0.1c0.2,0,0.4-0.1,0.4-0.3c0-0.2-0.2-0.3-0.3-0.3l0.3,0c0.4,0,0.8,0.4,0.8,0.8
			c0,0.4-0.3,0.8-0.8,0.8c-0.4,0-0.8-0.4-0.8-0.8c0,0,0,0,0-0.1L175.3,120.1z"/>
	</g>
	<polygon points="177.5,157.5 177.5,157.5 178.9,157.5 178.2,155.9 177.5,155.8 177.4,155.8 177.6,155.4 177.2,155.7 177.2,155.6 
		176.8,155.9 176.1,157.5 	"/>
	<rect x="176" y="152.1" width="3.1" height="1.3"/>
	<polygon points="177.3,150.8 177.7,150.8 178.3,152.1 176.7,152.1 	"/>
	<path d="M175.6,152.9L175.6,152.9L175.6,152.9z"/>
	<g>
		<path d="M175.3,152.4c0.1-0.1,0.2-0.1,0.3-0.1c0.2,0,0.3,0.1,0.3,0.3c0,0.2-0.2,0.3-0.3,0.3h0.3c0.4,0,0.8-0.3,0.8-0.8
			c0-0.4-0.3-0.8-0.8-0.8c-0.4,0-0.8,0.4-0.8,0.8v0.1L175.3,152.4z"/>
	</g>
	<polygon points="179.4,152.9 179.4,152.9 179.5,152.9 	"/>
	<g>
		<path d="M179.7,152.4c-0.1-0.1-0.1-0.1-0.3-0.1c-0.2,0-0.3,0.1-0.3,0.3c0,0.2,0.1,0.3,0.3,0.3h-0.3c-0.4,0-0.8-0.3-0.8-0.8
			c0-0.4,0.4-0.8,0.8-0.8c0.4,0,0.8,0.4,0.8,0.8c0,0,0,0.1,0,0.1L179.7,152.4z"/>
	</g>
	<polygon points="196.5,136.2 196.5,136.2 196.5,134.8 194.8,135.5 194.8,136.2 194.8,136.4 194.3,136.1 194.7,136.5 194.6,136.6 
		194.8,136.9 196.5,137.6 	"/>
	<rect x="191.1" y="134.7" width="1.4" height="3.1"/>
	<polygon points="189.8,136.4 189.8,136 191.1,135.4 191.1,137 	"/>
	<polygon points="191.9,138.2 191.9,138.2 191.9,138.1 	"/>
	<polygon points="191.9,134.3 191.9,134.3 191.9,134.3 	"/>
	<polygon points="158.6,136.2 158.6,136.2 158.6,134.8 160.2,135.5 160.2,136.2 160.3,136.4 160.7,136.1 160.3,136.5 160.4,136.6 
		160.2,136.9 158.6,137.6 	"/>
	<rect x="162.6" y="134.7" width="1.4" height="3.1"/>
	<polygon points="165.2,136.4 165.2,136 163.9,135.4 163.9,137 	"/>
</g>
<g id="Layer_3">
	<text transform="matrix(1 0 0 1 80.3085 455.2331)"><tspan x="0" y="0" class="st9 st10 st11 st12">HM</tspan><tspan x="278.1" y="0" class="st9 st10 st11 st12"> </tspan><tspan x="323.6" y="0" class="st9 st10 st11">Passport</tspan></text>
	<text transform="matrix(1 0 0 1 80.3085 643.2332)" class="st9 st10 st11 st12">Office</text>
</g>
</svg>
