<?xml version="1.0" encoding="utf-8"?>
<!-- Generator: Adobe Illustrator 21.1.0, SVG Export Plug-In . SVG Version: 6.00 Build 0)  -->
<svg version="1.1" id="Layer_1" xmlns="http://www.w3.org/2000/svg" xmlns:xlink="http://www.w3.org/1999/xlink" x="0px" y="0px"
	 viewBox="0 0 1090.1 859.1" style="enable-background:new 0 0 1090.1 859.1;" xml:space="preserve">
<style type="text/css">
	.st0{fill:#010202;}
	.st1{fill:none;stroke:#07A33B;stroke-width:15;}
	.st2{fill:#020203;}
</style>
<g>
	<path class="st0" d="M115,315.9l40.5,108l40.7-108h23.4v128.5h-16.2V337.5H203l-40.1,106.9h-14.6l-40.1-106.9h-0.4v106.9H91.6
		V315.9H115z"/>
	<path class="st0" d="M323.6,444.1c-2.6,1.6-6.3,2.3-11,2.3c-4,0-7.1-1.1-9.5-3.3c-2.3-2.2-3.5-5.9-3.5-10.9
		c-4.2,5-9.1,8.7-14.7,10.9c-5.6,2.2-11.6,3.3-18.1,3.3c-4.2,0-8.2-0.5-12-1.4c-3.8-1-7.1-2.5-9.8-4.5c-2.8-2-5-4.7-6.6-8
		c-1.6-3.3-2.4-7.3-2.4-12c0-5.3,0.9-9.6,2.7-13c1.8-3.4,4.2-6.1,7.1-8.2c2.9-2.1,6.3-3.7,10.1-4.8c3.8-1.1,7.6-2,11.6-2.7
		c4.2-0.8,8.2-1.5,12-1.9c3.8-0.4,7.1-1,10-1.8c2.9-0.8,5.2-1.9,6.8-3.4c1.7-1.5,2.5-3.7,2.5-6.6c0-3.4-0.6-6.1-1.9-8.1
		c-1.3-2-2.9-3.6-4.9-4.7s-4.2-1.8-6.7-2.2c-2.5-0.4-4.9-0.5-7.3-0.5c-6.5,0-11.9,1.2-16.2,3.7c-4.3,2.5-6.7,7.1-7,13.9h-15.3
		c0.2-5.8,1.4-10.6,3.6-14.6c2.2-4,5-7.2,8.6-9.6c3.6-2.5,7.7-4.2,12.3-5.3c4.6-1.1,9.6-1.6,14.9-1.6c4.2,0,8.4,0.3,12.5,0.9
		c4.1,0.6,7.9,1.8,11.2,3.7c3.4,1.9,6.1,4.5,8.1,7.8c2,3.4,3.1,7.7,3.1,13.1v47.8c0,3.6,0.2,6.2,0.6,7.9c0.4,1.7,1.8,2.5,4.2,2.5
		c1.3,0,2.9-0.2,4.7-0.7V444.1z M298.8,396.4c-1.9,1.4-4.4,2.5-7.6,3.1c-3.1,0.7-6.4,1.2-9.8,1.6c-3.4,0.4-6.9,0.9-10.4,1.4
		c-3.5,0.5-6.6,1.4-9.4,2.6c-2.8,1.2-5,2.9-6.8,5.1c-1.7,2.2-2.6,5.2-2.6,9c0,2.5,0.5,4.6,1.5,6.4c1,1.7,2.3,3.1,4,4.2
		c1.6,1.1,3.5,1.9,5.7,2.3c2.2,0.5,4.4,0.7,6.8,0.7c5,0,9.4-0.7,13-2.1c3.6-1.4,6.5-3.1,8.8-5.2c2.3-2.1,4-4.4,5-6.8
		c1.1-2.4,1.6-4.7,1.6-6.9V396.4z"/>
	<path class="st0" d="M347.4,351.4V371h0.4c3.7-7.6,8.3-13.1,13.7-16.7c5.4-3.6,12.2-5.3,20.5-5v16.2c-6.1,0-11.3,0.8-15.7,2.5
		c-4.3,1.7-7.8,4.1-10.4,7.4c-2.6,3.2-4.6,7.2-5.8,11.8c-1.2,4.6-1.8,9.9-1.8,15.9v41.4H333v-93.1H347.4z"/>
	<path class="st0" d="M390,334.6v-18.7h15.3v18.7H390z M405.3,351.4v93.1H390v-93.1H405.3z"/>
	<path class="st0" d="M439.2,351.4v14.8h0.4c6.4-11.3,16.4-16.9,30.2-16.9c6.1,0,11.2,0.8,15.3,2.5c4.1,1.7,7.4,4,9.9,7
		c2.5,3,4.3,6.6,5.3,10.7c1,4.1,1.5,8.7,1.5,13.8v61.2h-15.3v-63c0-5.8-1.7-10.3-5-13.7c-3.4-3.4-8-5-13.9-5
		c-4.7,0-8.7,0.7-12.1,2.2s-6.3,3.5-8.5,6.1c-2.3,2.6-4,5.7-5.1,9.3c-1.1,3.5-1.7,7.4-1.7,11.6v52.6h-15.3v-93.1H439.2z"/>
	<path class="st0" d="M586.4,438.5c-7,5.3-15.7,7.9-26.3,7.9c-7.4,0-13.9-1.2-19.4-3.6c-5.5-2.4-10.1-5.8-13.8-10.1
		c-3.7-4.3-6.5-9.5-8.4-15.5c-1.9-6-2.9-12.5-3.1-19.6c0-7.1,1.1-13.6,3.2-19.4c2.2-5.9,5.2-11,9.1-15.3c3.9-4.3,8.5-7.7,13.9-10.1
		c5.3-2.4,11.2-3.6,17.6-3.6c8.3,0,15.1,1.7,20.6,5.1c5.5,3.4,9.8,7.8,13.1,13c3.3,5.3,5.6,11,6.8,17.3c1.3,6.2,1.8,12.2,1.5,17.8
		h-69.7c-0.1,4.1,0.4,8,1.4,11.6c1.1,3.7,2.8,6.9,5.2,9.7c2.4,2.8,5.5,5.1,9.2,6.8c3.7,1.7,8.1,2.5,13.1,2.5
		c6.5,0,11.8-1.5,15.9-4.5c4.1-3,6.9-7.6,8.2-13.7h15.1C597.9,425.4,593.4,433.2,586.4,438.5z M582.7,378.7c-1.4-3.2-3.2-6-5.6-8.4
		c-2.3-2.3-5.1-4.2-8.3-5.6c-3.2-1.4-6.7-2.1-10.5-2.1c-4,0-7.5,0.7-10.7,2.1c-3.2,1.4-5.9,3.3-8.2,5.7c-2.3,2.4-4.1,5.2-5.4,8.4
		c-1.3,3.2-2.1,6.6-2.3,10.2h53.5C584.9,385.4,584.1,382,582.7,378.7z"/>
</g>
<g>
	<path class="st0" d="M115,503.9l40.5,108l40.7-108h23.4v128.5h-16.2V525.5H203l-40.1,106.9h-14.6l-40.1-106.9h-0.4v106.9H91.6
		V503.9H115z"/>
	<path class="st0" d="M323.6,632.1c-2.6,1.6-6.3,2.3-11,2.3c-4,0-7.1-1.1-9.5-3.3c-2.3-2.2-3.5-5.9-3.5-10.9
		c-4.2,5-9.1,8.7-14.7,10.9c-5.6,2.2-11.6,3.3-18.1,3.3c-4.2,0-8.2-0.5-12-1.4c-3.8-1-7.1-2.5-9.8-4.5c-2.8-2-5-4.7-6.6-8
		c-1.6-3.3-2.4-7.3-2.4-12c0-5.3,0.9-9.6,2.7-13c1.8-3.4,4.2-6.1,7.1-8.2c2.9-2.1,6.3-3.7,10.1-4.8c3.8-1.1,7.6-2,11.6-2.7
		c4.2-0.8,8.2-1.5,12-1.9c3.8-0.4,7.1-1,10-1.8c2.9-0.8,5.2-1.9,6.8-3.4c1.7-1.5,2.5-3.7,2.5-6.6c0-3.4-0.6-6.1-1.9-8.1
		c-1.3-2-2.9-3.6-4.9-4.7c-2-1.1-4.2-1.8-6.7-2.2c-2.5-0.4-4.9-0.5-7.3-0.5c-6.5,0-11.9,1.2-16.2,3.7c-4.3,2.5-6.7,7.1-7,14h-15.3
		c0.2-5.8,1.4-10.6,3.6-14.6c2.2-4,5-7.2,8.6-9.6c3.6-2.5,7.7-4.2,12.3-5.3c4.6-1.1,9.6-1.6,14.9-1.6c4.2,0,8.4,0.3,12.5,0.9
		c4.1,0.6,7.9,1.8,11.2,3.7c3.4,1.9,6.1,4.5,8.1,7.8c2,3.4,3.1,7.7,3.1,13.1v47.8c0,3.6,0.2,6.2,0.6,7.9c0.4,1.7,1.8,2.5,4.2,2.5
		c1.3,0,2.9-0.2,4.7-0.7V632.1z M298.8,584.4c-1.9,1.4-4.4,2.5-7.6,3.1c-3.1,0.7-6.4,1.2-9.8,1.6c-3.4,0.4-6.9,0.9-10.4,1.4
		c-3.5,0.5-6.6,1.4-9.4,2.6c-2.8,1.2-5,2.9-6.8,5.1c-1.7,2.2-2.6,5.2-2.6,9c0,2.5,0.5,4.6,1.5,6.4c1,1.7,2.3,3.1,4,4.2
		c1.6,1.1,3.5,1.9,5.7,2.3c2.2,0.5,4.4,0.7,6.8,0.7c5,0,9.4-0.7,13-2.1c3.6-1.4,6.5-3.1,8.8-5.2c2.3-2.1,4-4.4,5-6.8
		c1.1-2.4,1.6-4.7,1.6-6.9V584.4z"/>
	<path class="st0" d="M347.9,539.4v14.8h0.4c6.4-11.3,16.4-16.9,30.2-16.9c6.1,0,11.2,0.8,15.3,2.5c4.1,1.7,7.4,4,9.9,7
		c2.5,3,4.3,6.6,5.3,10.7c1,4.1,1.5,8.7,1.5,13.8v61.2h-15.3v-63c0-5.8-1.7-10.3-5-13.7c-3.4-3.4-8-5-13.9-5
		c-4.7,0-8.7,0.7-12.1,2.2c-3.4,1.4-6.3,3.5-8.5,6.1c-2.3,2.6-4,5.7-5.1,9.3c-1.1,3.5-1.7,7.4-1.7,11.6v52.6h-15.3v-93.1H347.9z"/>
	<path class="st0" d="M511.7,632.1c-2.6,1.6-6.3,2.3-11,2.3c-4,0-7.1-1.1-9.5-3.3c-2.3-2.2-3.5-5.9-3.5-10.9
		c-4.2,5-9.1,8.7-14.7,10.9c-5.6,2.2-11.6,3.3-18.1,3.3c-4.2,0-8.2-0.5-12-1.4c-3.8-1-7.1-2.5-9.8-4.5c-2.8-2-5-4.7-6.6-8
		c-1.6-3.3-2.4-7.3-2.4-12c0-5.3,0.9-9.6,2.7-13c1.8-3.4,4.2-6.1,7.1-8.2c2.9-2.1,6.3-3.7,10.1-4.8c3.8-1.1,7.6-2,11.6-2.7
		c4.2-0.8,8.2-1.5,12-1.9c3.8-0.4,7.1-1,10-1.8c2.9-0.8,5.2-1.9,6.8-3.4c1.7-1.5,2.5-3.7,2.5-6.6c0-3.4-0.6-6.1-1.9-8.1
		c-1.3-2-2.9-3.6-4.9-4.7c-2-1.1-4.2-1.8-6.7-2.2c-2.5-0.4-4.9-0.5-7.3-0.5c-6.5,0-11.9,1.2-16.2,3.7c-4.3,2.5-6.7,7.1-7,14h-15.3
		c0.2-5.8,1.4-10.6,3.6-14.6c2.2-4,5-7.2,8.6-9.6c3.6-2.5,7.7-4.2,12.3-5.3c4.6-1.1,9.6-1.6,14.9-1.6c4.2,0,8.4,0.3,12.5,0.9
		c4.1,0.6,7.9,1.8,11.2,3.7c3.4,1.9,6.1,4.5,8.1,7.8c2,3.4,3.1,7.7,3.1,13.1v47.8c0,3.6,0.2,6.2,0.6,7.9c0.4,1.7,1.8,2.5,4.2,2.5
		c1.3,0,2.9-0.2,4.7-0.7V632.1z M486.9,584.4c-1.9,1.4-4.4,2.5-7.6,3.1c-3.1,0.7-6.4,1.2-9.8,1.6c-3.4,0.4-6.9,0.9-10.4,1.4
		c-3.5,0.5-6.6,1.4-9.4,2.6c-2.8,1.2-5,2.9-6.8,5.1c-1.7,2.2-2.6,5.2-2.6,9c0,2.5,0.5,4.6,1.5,6.4c1,1.7,2.3,3.1,4,4.2
		c1.6,1.1,3.5,1.9,5.7,2.3c2.2,0.5,4.4,0.7,6.8,0.7c5,0,9.4-0.7,13-2.1c3.6-1.4,6.5-3.1,8.8-5.2c2.3-2.1,4-4.4,5-6.8
		c1.1-2.4,1.6-4.7,1.6-6.9V584.4z"/>
	<path class="st0" d="M591.5,658.7c-7,7.6-17.9,11.3-32.8,11.3c-4.3,0-8.7-0.5-13.2-1.4c-4.5-1-8.6-2.5-12.2-4.7
		c-3.7-2.2-6.7-5-9.1-8.5c-2.4-3.5-3.7-7.7-4-12.8h15.3c0.1,2.8,1,5.1,2.6,7c1.6,1.9,3.6,3.5,5.9,4.7c2.3,1.2,4.9,2.1,7.6,2.6
		c2.8,0.5,5.4,0.8,7.9,0.8c5,0,9.3-0.9,12.8-2.6c3.5-1.7,6.4-4.1,8.6-7.2c2.3-3.1,3.9-6.8,5-11.1c1-4.3,1.5-9.1,1.5-14.2v-6.1h-0.4
		c-2.6,5.8-6.6,10-12,12.7c-5.3,2.7-11,4.1-17,4.1c-7,0-13-1.3-18.2-3.8c-5.2-2.5-9.5-5.9-13-10.2c-3.5-4.3-6.1-9.2-7.8-14.9
		c-1.7-5.7-2.6-11.7-2.6-18.1c0-5.5,0.7-11.2,2.2-17c1.4-5.8,3.8-11.1,7.2-15.8c3.4-4.7,7.8-8.6,13.3-11.7
		c5.5-3.1,12.3-4.6,20.3-4.6c5.9,0,11.3,1.3,16.2,3.9c4.9,2.6,8.8,6.5,11.5,11.6h0.2v-13.3h14.4v85.1
		C601.9,639.8,598.4,651.2,591.5,658.7z M571.9,616.9c3.5-2.1,6.4-4.9,8.5-8.3c2.2-3.4,3.7-7.3,4.8-11.6c1-4.3,1.5-8.6,1.5-13
		c0-4.1-0.5-8.1-1.4-12.1c-1-4-2.5-7.5-4.6-10.7c-2.1-3.2-4.8-5.7-8.2-7.6c-3.4-1.9-7.4-2.9-12.2-2.9c-4.9,0-9.1,0.9-12.6,2.8
		c-3.5,1.9-6.3,4.4-8.6,7.5c-2.2,3.1-3.8,6.7-4.9,10.8c-1,4.1-1.5,8.3-1.5,12.8c0,4.2,0.4,8.4,1.3,12.6c0.8,4.2,2.3,8,4.3,11.4
		c2,3.4,4.7,6.2,8.1,8.3c3.4,2.1,7.6,3.2,12.6,3.2S568.4,619,571.9,616.9z"/>
	<path class="st0" d="M686.5,626.5c-7,5.3-15.7,7.9-26.3,7.9c-7.4,0-13.9-1.2-19.4-3.6c-5.5-2.4-10.1-5.8-13.8-10.1
		c-3.7-4.3-6.5-9.5-8.4-15.5c-1.9-6-2.9-12.5-3.1-19.6c0-7.1,1.1-13.6,3.2-19.4c2.2-5.9,5.2-11,9.1-15.3c3.9-4.3,8.5-7.7,13.9-10.1
		c5.3-2.4,11.2-3.6,17.6-3.6c8.3,0,15.1,1.7,20.6,5.1c5.5,3.4,9.8,7.8,13.1,13c3.3,5.3,5.6,11,6.8,17.3c1.3,6.2,1.8,12.2,1.5,17.8
		h-69.7c-0.1,4.1,0.4,8,1.4,11.6c1.1,3.7,2.8,6.9,5.2,9.7c2.4,2.8,5.5,5.1,9.2,6.8c3.7,1.7,8.1,2.5,13.1,2.5
		c6.5,0,11.8-1.5,15.9-4.5c4.1-3,6.9-7.6,8.2-13.7H700C698,613.4,693.5,621.2,686.5,626.5z M682.8,566.7c-1.4-3.2-3.2-6-5.6-8.4
		c-2.3-2.3-5.1-4.2-8.3-5.6c-3.2-1.4-6.7-2.1-10.5-2.1c-4,0-7.5,0.7-10.7,2.1c-3.2,1.4-5.9,3.3-8.2,5.7c-2.3,2.4-4.1,5.2-5.4,8.4
		c-1.3,3.2-2.1,6.6-2.3,10.2h53.5C685,573.4,684.2,570,682.8,566.7z"/>
	<path class="st0" d="M727.4,539.4v13.7h0.4c7-10.6,17-15.8,30.1-15.8c5.8,0,11,1.2,15.7,3.6c4.7,2.4,8,6.5,9.9,12.2
		c3.1-5,7.2-8.9,12.3-11.7c5.1-2.8,10.7-4.1,16.8-4.1c4.7,0,8.9,0.5,12.7,1.5c3.8,1,7,2.6,9.7,4.8s4.8,5,6.3,8.4
		c1.5,3.4,2.2,7.5,2.2,12.3v68.2h-15.3v-61c0-2.9-0.2-5.6-0.7-8.1c-0.5-2.5-1.4-4.7-2.7-6.6c-1.3-1.9-3.1-3.3-5.5-4.4
		s-5.4-1.6-9.1-1.6c-7.6,0-13.5,2.2-17.8,6.5c-4.3,4.3-6.5,10.1-6.5,17.3v58h-15.3v-61c0-3-0.3-5.8-0.8-8.3
		c-0.5-2.5-1.5-4.7-2.8-6.6c-1.3-1.9-3.1-3.3-5.3-4.3c-2.2-1-5.1-1.5-8.5-1.5c-4.4,0-8.3,0.9-11.4,2.7c-3.2,1.8-5.8,4-7.7,6.5
		c-2,2.5-3.4,5.1-4.3,7.8s-1.4,5-1.4,6.8v58H713v-93.1H727.4z"/>
	<path class="st0" d="M928.1,626.5c-7,5.3-15.7,7.9-26.3,7.9c-7.4,0-13.9-1.2-19.4-3.6c-5.5-2.4-10.1-5.8-13.8-10.1
		c-3.7-4.3-6.5-9.5-8.4-15.5c-1.9-6-2.9-12.5-3.1-19.6c0-7.1,1.1-13.6,3.2-19.4c2.2-5.9,5.2-11,9.1-15.3c3.9-4.3,8.5-7.7,13.9-10.1
		c5.3-2.4,11.2-3.6,17.5-3.6c8.3,0,15.1,1.7,20.6,5.1c5.5,3.4,9.8,7.8,13.1,13c3.3,5.3,5.6,11,6.8,17.3c1.3,6.2,1.8,12.2,1.5,17.8
		h-69.7c-0.1,4.1,0.4,8,1.4,11.6c1.1,3.7,2.8,6.9,5.2,9.7c2.4,2.8,5.5,5.1,9.2,6.8c3.7,1.7,8.1,2.5,13.1,2.5
		c6.5,0,11.8-1.5,15.9-4.5c4.1-3,6.9-7.6,8.2-13.7h15.1C939.5,613.4,935,621.2,928.1,626.5z M924.4,566.7c-1.4-3.2-3.2-6-5.6-8.4
		s-5.1-4.2-8.3-5.6c-3.2-1.4-6.7-2.1-10.5-2.1c-4,0-7.5,0.7-10.7,2.1c-3.2,1.4-5.9,3.3-8.2,5.7c-2.3,2.4-4.1,5.2-5.4,8.4
		c-1.3,3.2-2.1,6.6-2.3,10.2h53.5C926.6,573.4,925.7,570,924.4,566.7z"/>
	<path class="st0" d="M968.9,539.4v14.8h0.4c6.4-11.3,16.4-16.9,30.2-16.9c6.1,0,11.2,0.8,15.3,2.5c4.1,1.7,7.4,4,9.9,7
		c2.5,3,4.3,6.6,5.3,10.7c1,4.1,1.5,8.7,1.5,13.8v61.2h-15.3v-63c0-5.8-1.7-10.3-5-13.7c-3.4-3.4-8-5-13.9-5
		c-4.7,0-8.7,0.7-12.2,2.2c-3.4,1.4-6.3,3.5-8.5,6.1c-2.3,2.6-4,5.7-5.1,9.3c-1.1,3.5-1.7,7.4-1.7,11.6v52.6h-15.3v-93.1H968.9z"/>
	<path class="st0" d="M1090.1,539.4v13.5h-18.5v57.8c0,1.8,0.1,3.2,0.5,4.3c0.3,1.1,0.9,1.9,1.7,2.5c0.8,0.6,2,1,3.5,1.2
		c1.5,0.2,3.4,0.3,5.9,0.3h7v13.5h-11.7c-4,0-7.4-0.3-10.2-0.8c-2.8-0.5-5.1-1.5-6.8-3c-1.7-1.4-3-3.5-3.9-6.1
		c-0.8-2.6-1.3-6.1-1.3-10.4v-59.2h-15.8v-13.5h15.8v-27.9h15.3v27.9H1090.1z"/>
	<path class="st0" d="M87.9,731.9c2.6-8.1,6.4-15.3,11.6-21.5c5.2-6.2,11.6-11.2,19.3-14.9c7.7-3.7,16.6-5.6,26.8-5.6
		c10.2,0,19.1,1.9,26.8,5.6c7.7,3.7,14.1,8.7,19.3,14.9c5.2,6.2,9,13.4,11.6,21.5c2.6,8.1,3.9,16.5,3.9,25.3
		c0,8.8-1.3,17.2-3.9,25.3c-2.6,8.1-6.5,15.3-11.6,21.5c-5.2,6.2-11.6,11.2-19.3,14.8c-7.7,3.7-16.6,5.5-26.8,5.5
		c-10.2,0-19.1-1.8-26.8-5.5c-7.7-3.7-14.1-8.6-19.3-14.8c-5.2-6.2-9-13.4-11.6-21.5c-2.6-8.1-3.9-16.5-3.9-25.3
		C84,748.4,85.3,740,87.9,731.9z M103.7,776.3c1.7,6.3,4.3,12,7.9,17s8.2,9.1,13.9,12.2c5.6,3.1,12.4,4.6,20.2,4.6
		c7.8,0,14.5-1.5,20.2-4.6c5.6-3.1,10.3-7.1,13.9-12.2s6.2-10.7,7.9-17c1.7-6.3,2.5-12.7,2.5-19.2c0-6.5-0.8-12.9-2.5-19.2
		c-1.7-6.3-4.3-12-7.9-17s-8.2-9.1-13.9-12.1c-5.6-3.1-12.4-4.6-20.2-4.6c-7.8,0-14.5,1.5-20.2,4.6c-5.6,3.1-10.3,7.1-13.9,12.1
		s-6.2,10.7-7.9,17c-1.7,6.3-2.5,12.7-2.5,19.2C101.1,763.7,102,770,103.7,776.3z"/>
	<path class="st0" d="M235.1,728.4V748h0.4c3.7-7.6,8.3-13.1,13.7-16.7c5.4-3.6,12.2-5.3,20.5-5v16.2c-6.1,0-11.3,0.8-15.7,2.5
		c-4.3,1.7-7.8,4.1-10.4,7.4c-2.6,3.2-4.6,7.2-5.8,11.8c-1.2,4.6-1.8,9.9-1.8,15.9v41.4h-15.3v-93.1H235.1z"/>
	<path class="st0" d="M346.7,847.7c-7,7.6-17.9,11.3-32.8,11.3c-4.3,0-8.7-0.5-13.2-1.4c-4.5-1-8.6-2.5-12.2-4.7
		c-3.7-2.2-6.7-5-9.1-8.5c-2.4-3.5-3.7-7.7-4-12.8h15.3c0.1,2.8,1,5.1,2.6,7c1.6,1.9,3.6,3.5,5.9,4.7c2.3,1.2,4.9,2.1,7.6,2.6
		c2.8,0.5,5.4,0.8,7.9,0.8c5,0,9.3-0.9,12.8-2.6c3.5-1.7,6.4-4.1,8.6-7.2c2.3-3.1,3.9-6.8,5-11.1c1-4.3,1.5-9.1,1.5-14.2v-6.1h-0.4
		c-2.6,5.8-6.6,10-12,12.7c-5.3,2.7-11,4.1-17,4.1c-7,0-13-1.3-18.2-3.8c-5.2-2.5-9.5-5.9-13-10.2c-3.5-4.3-6.1-9.2-7.8-14.9
		c-1.7-5.7-2.6-11.7-2.6-18.1c0-5.5,0.7-11.2,2.2-17c1.4-5.8,3.8-11.1,7.2-15.8c3.4-4.7,7.8-8.6,13.3-11.7
		c5.5-3.1,12.3-4.6,20.3-4.6c5.9,0,11.3,1.3,16.2,3.9c4.9,2.6,8.8,6.5,11.5,11.6h0.2v-13.3h14.4v85.1
		C357.1,828.8,353.6,840.2,346.7,847.7z M327.1,805.9c3.5-2.1,6.4-4.9,8.5-8.3c2.2-3.4,3.7-7.3,4.8-11.6c1-4.3,1.5-8.6,1.5-13
		c0-4.1-0.5-8.1-1.4-12.1c-1-4-2.5-7.5-4.6-10.7c-2.1-3.2-4.8-5.7-8.2-7.6c-3.4-1.9-7.4-2.9-12.2-2.9c-4.9,0-9.1,0.9-12.6,2.8
		c-3.5,1.9-6.3,4.4-8.6,7.5c-2.2,3.1-3.8,6.7-4.9,10.8c-1,4.1-1.5,8.3-1.5,12.8c0,4.2,0.4,8.4,1.3,12.6c0.8,4.2,2.3,8,4.3,11.4
		c2,3.4,4.7,6.2,8.1,8.3c3.4,2.1,7.6,3.2,12.6,3.2S323.6,808,327.1,805.9z"/>
	<path class="st0" d="M458.3,821.1c-2.6,1.6-6.3,2.3-11,2.3c-4,0-7.1-1.1-9.5-3.3c-2.3-2.2-3.5-5.9-3.5-10.9
		c-4.2,5-9.1,8.7-14.7,10.9c-5.6,2.2-11.6,3.3-18.1,3.3c-4.2,0-8.2-0.5-12-1.4c-3.8-1-7.1-2.5-9.8-4.5c-2.8-2-5-4.7-6.6-8
		c-1.6-3.3-2.4-7.3-2.4-12c0-5.3,0.9-9.6,2.7-13c1.8-3.4,4.2-6.1,7.1-8.2c2.9-2.1,6.3-3.7,10.1-4.8c3.8-1.1,7.6-2,11.6-2.7
		c4.2-0.8,8.2-1.5,12-1.9c3.8-0.4,7.1-1,10-1.8c2.9-0.8,5.2-1.9,6.8-3.4c1.7-1.5,2.5-3.7,2.5-6.6c0-3.4-0.6-6.1-1.9-8.1
		c-1.3-2-2.9-3.6-4.9-4.7c-2-1.1-4.2-1.8-6.7-2.2c-2.5-0.4-4.9-0.5-7.3-0.5c-6.5,0-11.9,1.2-16.2,3.7c-4.3,2.5-6.7,7.1-7,14h-15.3
		c0.2-5.8,1.4-10.6,3.6-14.6c2.2-4,5-7.2,8.6-9.6c3.6-2.5,7.7-4.2,12.3-5.3c4.6-1.1,9.6-1.6,14.9-1.6c4.2,0,8.4,0.3,12.5,0.9
		c4.1,0.6,7.9,1.8,11.2,3.7c3.4,1.9,6.1,4.5,8.1,7.8c2,3.4,3.1,7.7,3.1,13.1v47.8c0,3.6,0.2,6.2,0.6,7.9c0.4,1.7,1.8,2.5,4.2,2.5
		c1.3,0,2.9-0.2,4.7-0.7V821.1z M433.4,773.4c-1.9,1.4-4.4,2.5-7.6,3.1c-3.1,0.7-6.4,1.2-9.8,1.6c-3.4,0.4-6.9,0.9-10.4,1.4
		c-3.5,0.5-6.6,1.4-9.4,2.6c-2.8,1.2-5,2.9-6.8,5.1c-1.7,2.2-2.6,5.2-2.6,9c0,2.5,0.5,4.6,1.5,6.4c1,1.7,2.3,3.1,4,4.2
		c1.6,1.1,3.5,1.9,5.7,2.3c2.2,0.5,4.4,0.7,6.8,0.7c5,0,9.4-0.7,13-2.1c3.6-1.4,6.5-3.1,8.8-5.2c2.3-2.1,4-4.4,5-6.8
		c1.1-2.4,1.6-4.7,1.6-6.9V773.4z"/>
	<path class="st0" d="M482.6,728.4v14.8h0.4c6.4-11.3,16.4-16.9,30.2-16.9c6.1,0,11.2,0.8,15.3,2.5c4.1,1.7,7.4,4,9.9,7
		c2.5,3,4.3,6.6,5.3,10.7c1,4.1,1.5,8.7,1.5,13.8v61.2h-15.3v-63c0-5.8-1.7-10.3-5-13.7c-3.4-3.4-8-5-13.9-5
		c-4.7,0-8.7,0.7-12.1,2.2c-3.4,1.4-6.3,3.5-8.5,6.1c-2.3,2.6-4,5.7-5.1,9.3c-1.1,3.5-1.7,7.4-1.7,11.6v52.6h-15.3v-93.1H482.6z"/>
	<path class="st0" d="M564.8,711.6v-18.7h15.3v18.7H564.8z M580.1,728.4v93.1h-15.3v-93.1H580.1z"/>
	<path class="st0" d="M611.3,800.6c1.4,2.3,3.3,4.2,5.7,5.6c2.3,1.4,5,2.4,7.9,3c2.9,0.6,6,0.9,9.1,0.9c2.4,0,4.9-0.2,7.6-0.5
		c2.6-0.4,5.1-1,7.3-2c2.2-1,4-2.4,5.5-4.2c1.4-1.9,2.2-4.2,2.2-7.1c0-4-1.5-7-4.5-9c-3-2-6.8-3.7-11.2-5c-4.5-1.3-9.4-2.4-14.7-3.4
		c-5.3-1-10.2-2.5-14.7-4.3c-4.5-1.9-8.3-4.5-11.2-7.8c-3-3.4-4.5-8-4.5-14c0-4.7,1-8.7,3.1-12.1c2.1-3.4,4.8-6.1,8.1-8.2
		c3.3-2.1,7-3.7,11.2-4.7c4.1-1,8.2-1.5,12.3-1.5c5.3,0,10.1,0.5,14.6,1.3c4.4,0.9,8.4,2.5,11.8,4.7c3.4,2.2,6.1,5.2,8.2,9
		c2,3.8,3.2,8.5,3.6,14.1h-15.3c-0.2-3-1-5.5-2.3-7.5c-1.3-2-3-3.6-5-4.8c-2-1.2-4.3-2.1-6.8-2.6c-2.5-0.5-4.9-0.8-7.5-0.8
		c-2.3,0-4.6,0.2-6.9,0.5c-2.3,0.4-4.5,1-6.4,1.9c-1.9,0.9-3.5,2.1-4.7,3.6c-1.2,1.5-1.8,3.5-1.8,5.9c0,2.6,0.9,4.8,2.8,6.6
		c1.9,1.7,4.2,3.2,7.1,4.3c2.9,1.1,6.1,2.1,9.7,2.9c3.6,0.8,7.2,1.6,10.8,2.4c3.8,0.8,7.6,1.9,11.2,3.1c3.7,1.2,6.9,2.8,9.7,4.8
		c2.8,2,5.1,4.5,6.8,7.5c1.7,3,2.6,6.7,2.6,11.2c0,5.6-1.2,10.3-3.5,14c-2.3,3.7-5.4,6.7-9.2,9c-3.8,2.3-8,3.9-12.8,4.8
		c-4.7,0.9-9.4,1.4-14.1,1.4c-5.2,0-10.1-0.5-14.8-1.6c-4.7-1.1-8.8-2.8-12.4-5.3c-3.6-2.5-6.5-5.7-8.6-9.7c-2.2-4-3.4-8.9-3.6-14.7
		h15.3C609,795.5,609.8,798.3,611.3,800.6z"/>
	<path class="st0" d="M767.7,821.1c-2.6,1.6-6.3,2.3-11,2.3c-4,0-7.1-1.1-9.5-3.3c-2.3-2.2-3.5-5.9-3.5-10.9
		c-4.2,5-9.1,8.7-14.7,10.9c-5.6,2.2-11.6,3.3-18.1,3.3c-4.2,0-8.2-0.5-12-1.4c-3.8-1-7.1-2.5-9.8-4.5c-2.8-2-5-4.7-6.6-8
		c-1.6-3.3-2.4-7.3-2.4-12c0-5.3,0.9-9.6,2.7-13c1.8-3.4,4.2-6.1,7.1-8.2c2.9-2.1,6.3-3.7,10.1-4.8c3.8-1.1,7.6-2,11.6-2.7
		c4.2-0.8,8.2-1.5,12-1.9c3.8-0.4,7.1-1,10-1.8c2.9-0.8,5.2-1.9,6.8-3.4c1.7-1.5,2.5-3.7,2.5-6.6c0-3.4-0.6-6.1-1.9-8.1
		c-1.3-2-2.9-3.6-4.9-4.7c-2-1.1-4.2-1.8-6.7-2.2c-2.5-0.4-4.9-0.5-7.3-0.5c-6.5,0-11.9,1.2-16.2,3.7c-4.3,2.5-6.7,7.1-7,14h-15.3
		c0.2-5.8,1.4-10.6,3.6-14.6c2.2-4,5-7.2,8.6-9.6c3.6-2.5,7.7-4.2,12.3-5.3c4.6-1.1,9.6-1.6,14.9-1.6c4.2,0,8.4,0.3,12.5,0.9
		c4.1,0.6,7.9,1.8,11.2,3.7c3.4,1.9,6.1,4.5,8.1,7.8c2,3.4,3.1,7.7,3.1,13.1v47.8c0,3.6,0.2,6.2,0.6,7.9c0.4,1.7,1.8,2.5,4.2,2.5
		c1.3,0,2.9-0.2,4.7-0.7V821.1z M742.8,773.4c-1.9,1.4-4.4,2.5-7.6,3.1c-3.1,0.7-6.4,1.2-9.8,1.6c-3.4,0.4-6.9,0.9-10.4,1.4
		c-3.5,0.5-6.6,1.4-9.4,2.6c-2.8,1.2-5,2.9-6.8,5.1c-1.7,2.2-2.6,5.2-2.6,9c0,2.5,0.5,4.6,1.5,6.4c1,1.7,2.3,3.1,4,4.2
		c1.6,1.1,3.5,1.9,5.7,2.3c2.2,0.5,4.4,0.7,6.8,0.7c5,0,9.4-0.7,13-2.1c3.6-1.4,6.5-3.1,8.8-5.2c2.3-2.1,4-4.4,5-6.8
		c1.1-2.4,1.6-4.7,1.6-6.9V773.4z"/>
	<path class="st0" d="M817.4,728.4v13.5h-18.5v57.8c0,1.8,0.1,3.2,0.5,4.3c0.3,1.1,0.9,1.9,1.7,2.5c0.8,0.6,2,1,3.5,1.2
		c1.5,0.2,3.4,0.3,5.8,0.3h7v13.5h-11.7c-4,0-7.4-0.3-10.2-0.8c-2.8-0.5-5.1-1.5-6.8-3c-1.7-1.4-3-3.5-3.9-6.1
		c-0.8-2.6-1.3-6.1-1.3-10.4v-59.2h-15.8v-13.5h15.8v-27.9h15.3v27.9H817.4z"/>
	<path class="st0" d="M830.9,711.6v-18.7h15.3v18.7H830.9z M846.2,728.4v93.1h-15.3v-93.1H846.2z"/>
	<path class="st0" d="M863.4,755.8c1.9-5.9,4.8-11.1,8.6-15.5c3.8-4.4,8.6-7.8,14.2-10.4c5.6-2.5,12.1-3.8,19.4-3.8
		c7.4,0,14,1.3,19.5,3.8c5.6,2.5,10.3,6,14.1,10.4c3.8,4.4,6.7,9.5,8.6,15.5c1.9,5.9,2.9,12.3,2.9,19.2c0,6.8-1,13.2-2.9,19.1
		c-1.9,5.9-4.8,11-8.6,15.4c-3.8,4.4-8.6,7.8-14.1,10.3c-5.6,2.5-12.1,3.7-19.5,3.7c-7.3,0-13.8-1.2-19.4-3.7
		c-5.6-2.5-10.4-5.9-14.2-10.3c-3.8-4.4-6.7-9.5-8.6-15.4c-1.9-5.9-2.9-12.2-2.9-19.1C860.6,768.2,861.5,761.8,863.4,755.8z
		 M879,790c1.5,4.4,3.6,8,6.2,11c2.6,2.9,5.7,5.2,9.3,6.8c3.5,1.6,7.3,2.3,11.2,2.3s7.7-0.8,11.2-2.3c3.5-1.6,6.6-3.8,9.3-6.8
		c2.6-2.9,4.7-6.6,6.2-11c1.5-4.4,2.2-9.4,2.2-15c0-5.6-0.8-10.6-2.2-15c-1.5-4.4-3.6-8.1-6.2-11.1c-2.6-3-5.7-5.3-9.3-6.8
		c-3.5-1.6-7.3-2.3-11.2-2.3s-7.7,0.8-11.2,2.3c-3.5,1.6-6.6,3.8-9.3,6.8c-2.6,3-4.7,6.7-6.2,11.1c-1.5,4.4-2.2,9.4-2.2,15
		C876.8,780.6,877.5,785.6,879,790z"/>
	<path class="st0" d="M979,728.4v14.8h0.4c6.4-11.3,16.4-16.9,30.2-16.9c6.1,0,11.2,0.8,15.3,2.5c4.1,1.7,7.4,4,9.9,7
		c2.5,3,4.3,6.6,5.3,10.7c1,4.1,1.5,8.7,1.5,13.8v61.2h-15.3v-63c0-5.8-1.7-10.3-5-13.7c-3.4-3.4-8-5-13.9-5
		c-4.7,0-8.7,0.7-12.2,2.2c-3.4,1.4-6.3,3.5-8.5,6.1c-2.3,2.6-4,5.7-5.1,9.3c-1.1,3.5-1.7,7.4-1.7,11.6v52.6h-15.3v-93.1H979z"/>
</g>
<line class="st1" x1="7.5" y1="0.4" x2="7.5" y2="821.3"/>
<g>
	<path class="st2" d="M206.3,40.5c-1.5,3-3,4.5-3,6c0,1.5,3,3,3,6c1.5-3,3-4.5,3-6C209.3,45,206.3,42,206.3,40.5"/>
	<path class="st2" d="M242.3,40.5c1.5,3,3,4.5,3,6c0,1.5-3,3-3,6c-1.5-3-3-4.5-3-6C239.3,45,242.3,42,242.3,40.5"/>
	<path class="st2" d="M185.3,39c1.5,0,3-1.5,3-3c0-1.5-1.5-3-3-3s-3,1.5-3,3S183.8,39,185.3,39"/>
	<path class="st2" d="M186.8,42c0-1.5-1.5-3-3-3c-1.5,0-3,1.5-3,3c1.5,1.5,3,3,4.5,3C185.3,45,186.8,43.5,186.8,42"/>
	<path class="st2" d="M188.3,48c0-1.5-1.5-3-3-3c-1.5,0-3,1.5-3,3s1.5,3,3,3C186.8,51,188.3,49.5,188.3,48"/>
	<path class="st2" d="M198.8,27c1.5,0,3-1.5,3-3c0-1.5-1.5-3-3-3c-1.5,1.5-1.5,3-1.5,4.5C197.3,25.5,197.3,27,198.8,27"/>
	<path class="st2" d="M192.8,28.5c1.5,0,3-1.5,3-3c0-1.5-1.5-3-3-3s-3,1.5-3,3C189.8,28.5,191.3,28.5,192.8,28.5"/>
	<path class="st2" d="M188.3,33c1.5,0,3-1.5,3-3s-1.5-3-3-3c-1.5,0-3,1.5-3,3C185.3,33,186.8,33,188.3,33"/>
	<path class="st2" d="M206.3,28.5c1.5,0,3-1.5,3-3c0-1.5-1.5-3-3-3c-1.5,0-3,1.5-3,3C203.3,27,204.8,28.5,206.3,28.5"/>
	<path class="st2" d="M212.3,30c1.5,0,3-1.5,3-3s-1.5-3-3-3c-1.5,0-3,1.5-3,3S210.8,30,212.3,30"/>
	<path class="st2" d="M216.8,33c1.5,0,3-1.5,3-3s-1.5-3-3-3c-1.5,0-3,1.5-3,3C215.3,31.5,216.8,33,216.8,33"/>
	<path class="st2" d="M261.8,36c0,1.5,1.5,3,3,3s3-1.5,3-3c0-1.5-1.5-3-3-3C263.3,34.5,261.8,36,261.8,36"/>
	<path class="st2" d="M264.8,40.5c-1.5,0-3,1.5-3,3s1.5,3,3,3s3-1.5,3-3C267.8,42,266.3,40.5,264.8,40.5"/>
	<path class="st2" d="M263.3,46.5c-1.5,0-3,1.5-3,3c0,1.5,1.5,3,3,3s3-1.5,3-3C266.3,46.5,264.8,46.5,263.3,46.5"/>
	<path class="st2" d="M249.8,27c1.5,0,3-1.5,3-3c0-1.5-1.5-3-3-3s-3,1.5-3,3C248.3,25.5,248.3,27,249.8,27"/>
	<path class="st2" d="M255.8,28.5c1.5,0,3-1.5,3-3c0-1.5-1.5-3-3-3c-1.5,0-3,1.5-3,3C254.3,28.5,255.8,28.5,255.8,28.5"/>
	<path class="st2" d="M261.8,33c1.5,0,3-1.5,3-3s-1.5-3-3-3c-1.5,0-3,1.5-3,3C258.8,33,260.3,33,261.8,33"/>
	<path class="st2" d="M243.8,28.5c1.5,0,3-1.5,3-3c0-1.5-1.5-3-3-3c-1.5,0-3,1.5-3,3C240.8,27,242.3,28.5,243.8,28.5"/>
	<path class="st2" d="M237.8,30c1.5,0,3-1.5,3-3s-1.5-3-3-3c-1.5,0-3,1.5-3,3S236.3,30,237.8,30"/>
	<path class="st2" d="M228.8,30c0,1.5,1.5,3,3,3s3-1.5,3-3s-1.5-3-3-3C230.3,27,228.8,28.5,228.8,30"/>
	<path class="st2" d="M219.8,43.5h3V33c-1.5,0-1.5,0-3-1.5V43.5z"/>
	<path class="st2" d="M228.8,31.5c-1.5,0-1.5,0-3,1.5v10.5h3V31.5z"/>
	<path class="st2" d="M222.8,19.5v-6c-3,0-6,3-6,6H222.8z"/>
	<path class="st2" d="M225.8,19.5h6c0-3-3-6-6-6V19.5z"/>
	<path class="st2" d="M216.8,22.5c1.5,4.5,4.5,7.5,7.5,7.5s7.5-3,7.5-6h-15V22.5z"/>
	<path class="st2" d="M228.8,13.5c-1.5-1.5-3-3-3-6c1.5,0,4.5,1.5,6,3V3c-1.5,1.5-3,3-6,3c0-1.5,1.5-4.5,3-6h-7.5c1.5,1.5,3,4.5,3,6
		c-1.5,0-4.5-1.5-6-3v9c1.5-1.5,3-3,6-3c0,1.5-1.5,4.5-3,6h7.5V13.5z"/>
	<path class="st2" d="M228.8,190.5c-1.5,0-3-1.5-3-3c0-1.5,1.5-3,3-3c1.5,0,3,1.5,3,3C231.8,189,230.3,190.5,228.8,190.5 M215.3,186
		c-1.5,0-3-1.5-3-3c0-1.5,1.5-3,3-3c1.5,0,3,1.5,3,3S216.8,186,215.3,186 M209.3,171L209.3,171c-3-1.5-3-1.5-4.5,0l-1.5,1.5
		l-1.5,1.5l0,0c1.5,1.5,1.5,3,1.5,3s0,0-1.5,0c-1.5,0-1.5,0-3-1.5l0,0l0,0l0,0l0,0c-1.5,4.5-1.5,4.5-1.5,6l0,0
		c0,1.5,1.5,1.5,1.5,1.5l0,0c0,0,1.5,1.5,3,1.5c-1.5,1.5-3,1.5-4.5,0c-1.5-1.5-3-3-3-4.5c0-1.5,1.5-4.5,3-6l0,0l0,0
		c0-1.5-1.5-1.5-1.5-1.5c1.5,0,1.5,0,3,0l0,0l0,0c1.5-1.5,4.5-4.5,7.5-4.5C207.8,168,209.3,168,209.3,171
		C210.8,169.5,210.8,171,209.3,171C210.8,171,210.8,171,209.3,171 M237.8,183c-7.5-1.5-16.5-6-25.5-9l0,0c0-1.5,0-3-1.5-4.5
		c-1.5-1.5-3-3-4.5-3s-1.5,0-3,0c-1.5-1.5-3-3-3-3c-3-4.5-6-9-7.5-13.5c-1.5-3-1.5-6-1.5-9c0,3-3,6-7.5,6v-1.5c-1.5,1.5-3,3-7.5,1.5
		c0,3,1.5,7.5,3,10.5c3,7.5,6,13.5,10.5,18c1.5,1.5,3,3,4.5,4.5c0,0,0,0,0,1.5c0,1.5,1.5,4.5,4.5,6c1.5,1.5,4.5,0,6,0
		c4.5,1.5,9,4.5,13.5,6c6,1.5,12,3,16.5,3s9-1.5,13.5-4.5c1.5-1.5,4.5-3,4.5-4.5l0,0C248.3,184.5,242.3,183,237.8,183"/>
	<path class="st2" d="M236.3,214.5c0-1.5-1.5-1.5-1.5-1.5c-3,0-1.5,9-6,9c-1.5,0-3-1.5-3-1.5c0-1.5,1.5-1.5,1.5-3
		c0-1.5-1.5-1.5-1.5-1.5c-1.5,0-1.5,0-1.5,1.5c0,1.5,1.5,1.5,1.5,3c0,1.5-1.5,1.5-3,1.5c-4.5,0-3-9-6-9c0,0-1.5,0-1.5,1.5
		c0-1.5-1.5-3-1.5-3c0-1.5,1.5-3,3-3c4.5,0,3,6,6,6c1.5,0,1.5,0,1.5-1.5s-3-3-3-6c0-3,1.5-4.5,4.5-6c3,1.5,4.5,4.5,4.5,6
		c0,3-3,4.5-3,6c0,1.5,0,1.5,1.5,1.5s1.5-6,6-6c3,0,3,1.5,3,3C236.3,211.5,236.3,213,236.3,214.5 M224.3,225c-1.5,0-1.5-1.5-1.5-1.5
		c0-1.5,1.5-1.5,1.5-1.5c1.5,0,1.5,1.5,1.5,1.5C227.3,225,225.8,225,224.3,225 M233.3,205.5h-1.5v-9c-4.5,0-9-1.5-13.5-1.5v12h-1.5
		c-3,0-6,3-6,6s1.5,4.5,3,6c0-1.5,1.5-3,1.5-3c1.5,0,1.5,7.5,6,9v1.5c0,1.5,1.5,3,3,3s3-1.5,3-3V225c4.5,0,4.5-9,6-9
		c1.5,0,1.5,1.5,1.5,3c1.5-1.5,3-3,3-6C237.8,208.5,236.3,205.5,233.3,205.5"/>
	<path class="st2" d="M342.8,216C342.8,216,341.3,216,342.8,216c-12,3-25.5-6-39-15c-10.5-7.5-21-13.5-30-13.5c-3,0-6,0-9,1.5
		c-3,1.5-6,4.5-7.5,7.5c-1.5,3-3,6-4.5,7.5c-1.5,3-3,4.5-3,6c0,1.5,1.5,3,3,4.5c1.5,1.5,3,3,6,4.5c0,0,1.5,0,1.5,1.5
		c1.5,1.5,3,1.5,3,3c-4.5,1.5-10.5,3-16.5,4.5c-7.5,1.5-15,1.5-22.5,1.5c-9,0-16.5,0-22.5-1.5c-6-1.5-12-3-16.5-4.5
		c0-1.5,1.5-3,4.5-3c0,0,1.5,0,1.5-1.5c1.5-1.5,4.5-3,6-3c1.5-1.5,3-3,3-4.5c0-1.5-1.5-4.5-3-6c-1.5-1.5-3-4.5-4.5-7.5
		s-4.5-6-7.5-7.5c-3-1.5-6-1.5-9-1.5c-9,0-19.5,7.5-30,13.5c-13.5,9-27,18-37.5,15h-1.5v1.5c3,1.5,6,3,9,6c4.5,3,7.5,6,12,6
		c4.5,0,7.5-1.5,13.5-4.5c4.5-3,9-6,13.5-9c9-6,18-12,25.5-12c-1.5,1.5-1.5,1.5-3,3c-3,1.5-4.5,4.5-4.5,7.5s1.5,4.5,3,9
		c0,1.5,1.5,1.5,1.5,3c1.5,1.5,1.5,3,1.5,6c0,1.5,0,1.5,1.5,3c0,1.5,1.5,6,7.5,9c7.5,3,19.5,6,36,6s30-1.5,36-6c6-3,7.5-7.5,7.5-9
		c0-1.5,0-3,1.5-3c0-3,1.5-4.5,1.5-6s1.5-3,1.5-4.5c1.5-3,3-4.5,3-7.5c0-4.5-3-6-4.5-9c-1.5,0-1.5-1.5-3-3c9,0,18,6,25.5,12
		c4.5,3,9,6,13.5,9c4.5,3,9,4.5,13.5,4.5c4.5,0,7.5-3,12-6C335.3,222,338.3,219,342.8,216C342.8,217.5,342.8,217.5,342.8,216"/>
	<path class="st2" d="M225.8,132V91.5c4.5,0,9,1.5,12,3c4.5,1.5,7.5,4.5,12,9c3,4.5,6,9,7.5,13.5s3,10.5,3,15
		C260.3,132,225.8,132,225.8,132z M224.3,73.5c-12,0-19.5,3-24,6c-3,0-3-1.5-3-4.5c0-6,18-7.5,28.5-7.5l0,0c9,0,28.5,0,28.5,7.5
		c0,1.5-1.5,3-4.5,4.5C243.8,78,236.3,73.5,224.3,73.5 M224.3,132h-34.5c0-6,1.5-10.5,3-15c1.5-4.5,4.5-9,7.5-13.5
		c3-4.5,7.5-7.5,12-9c4.5-1.5,9-3,13.5-3L224.3,132L224.3,132z M276.8,129c-1.5-1.5-3-3-4.5-4.5c-1.5-3-6-13.5-7.5-15
		c0-1.5-1.5-1.5-1.5-3s0-1.5,1.5-3c0,0,1.5-1.5,1.5-3c0,0,0-1.5,1.5-1.5c-1.5-3-4.5-6-6-9c-3-3-6-6-10.5-9c1.5-1.5,4.5-3,4.5-6
		c0-1.5-1.5-3-1.5-4.5c1.5-7.5,6-15,9-19.5l-7.5-3c1.5,4.5,1.5,7.5,1.5,9c-1.5-1.5-3-3-4.5-6c0,1.5-1.5,6-3,7.5c1.5-1.5,3-1.5,6,0
		c-1.5,1.5-4.5,4.5-9,3c-1.5,0-4.5-1.5-4.5-3s1.5-3,3-3c1.5,0,1.5,3,1.5,3c1.5-1.5,4.5-7.5,1.5-7.5c-3,0-4.5,3-6,6c0-3-1.5-6-4.5-6
		c-3,0-1.5,6-1.5,7.5c0-1.5,1.5-3,3-3c1.5,0,1.5,0,1.5,3c0,1.5-3,1.5-6,1.5s-7.5-1.5-9-6c1.5,0,4.5,1.5,6,3c0-3,0-6,0-9
		c-1.5,3-4.5,3-6,3c0-3,3-4.5,4.5-6h-12c3,1.5,4.5,4.5,4.5,6c-1.5,0-4.5-1.5-6-3c0,3,0,6,0,9c1.5-1.5,4.5-3,6-3c0,6-4.5,6-7.5,6
		c-3,0-6,0-6-3c0-1.5,1.5-3,1.5-3c1.5,1.5,1.5,1.5,1.5,4.5c1.5-1.5,1.5-7.5-1.5-7.5c-3,0-4.5,3-4.5,6c-1.5-3-3-6-6-6
		c-3,1.5-1.5,6,1.5,7.5c0-1.5,0-3,1.5-3s3,1.5,3,3c0,1.5-3,3-4.5,4.5c-4.5,0-7.5-3-9-4.5c1.5-1.5,3,0,6,0c-1.5-1.5-1.5-4.5-3-7.5
		c0,3-1.5,4.5-4.5,6c0-1.5,0-4.5,1.5-7.5l-7.5,3c3,3,7.5,12,9,19.5c-1.5,1.5-1.5,3-1.5,4.5c0,3,1.5,4.5,4.5,6c-4.5,3-7.5,6-10.5,9
		c-4.5,6-9,12-10.5,18c1.5,1.5,6,6,6,7.5c1.5,1.5,3,4.5,3,6c0,3,1.5,4.5,3,6c0,0,1.5,3,1.5,4.5h34.5V171c-1.5,0-3,0-4.5,1.5
		c4.5,1.5,7.5,3,12,4.5c0-3,1.5-4.5,1.5-6c0,0-4.5,0-7.5,0v-37.5h34.5c0,4.5-1.5,10.5-3,15s-4.5,9-7.5,13.5c-3,4.5-7.5,7.5-12,9
		c0,0,0,1.5-1.5,1.5c0,0-1.5,1.5-1.5,3s0,1.5-1.5,3c1.5,0,3,0,4.5,1.5c12,3,15,1.5,15,1.5l0,0c3-1.5,4.5-4.5,7.5-7.5
		c4.5-6,9-12,10.5-18c3-7.5,4.5-15,4.5-22.5C276.8,132,276.8,130.5,276.8,129"/>
	<path class="st2" d="M245.3,108L245.3,108C245.3,109.5,245.3,109.5,245.3,108c0,1.5,0,3-1.5,3h1.5v1.5c0,0,0,0,1.5,0
		c3,4.5,4.5,9,4.5,13.5c0,0,0,0-1.5,0v1.5h-9V126c0,0,0,0-1.5,0v-1.5v1.5h-1.5c0,0,0,0,0,1.5h-7.5V126h-1.5v-12h1.5v-1.5h1.5h-1.5
		V111c0,0,0,0-1.5,0V99c0,0,0,0,1.5,0v-1.5c3,0,4.5,1.5,6,3C240.8,103.5,243.8,105,245.3,108 M254.3,126
		C255.8,126,255.8,126,254.3,126c-1.5-4.5-3-10.5-7.5-16.5l0,0l1.5-1.5c-1.5,0-1.5,0-1.5,1.5c0,0,0,0-1.5-1.5c-1.5-3-3-6-6-7.5
		c-3-1.5-6-3-7.5-3c0,0,1.5-1.5,1.5,0c0-1.5-1.5-1.5-1.5-1.5s0,0,0,1.5c0,0-1.5,0-1.5-1.5v1.5c0,0,0,0-1.5,0c0,0,0,1.5,1.5,1.5v-1.5
		V111h-1.5c0,0,1.5,1.5,1.5,0v15c0,0-1.5-1.5,0-1.5c-1.5,0-1.5,1.5-1.5,1.5s0,0,1.5,0v1.5h1.5v1.5c0,0,1.5,0,1.5-1.5h-1.5h10.5v1.5
		c0,0,1.5-1.5,0-1.5h10.5c0,0-1.5,1.5-1.5,0c0,1.5,1.5,1.5,1.5,1.5s0,0,0-1.5h1.5L254.3,126C255.8,127.5,255.8,127.5,254.3,126
		C255.8,126,255.8,126,254.3,126"/>
	<path class="st2" d="M248.3,121.5C249.8,121.5,249.8,121.5,248.3,121.5C249.8,121.5,248.3,121.5,248.3,121.5c0-1.5,0-1.5,0-1.5
		s0,0-1.5,0c0,0-3,0-3-1.5c0,0,0,0,1.5,1.5l0,0l0,0c0,0,0,0,1.5,0l0,0l0,0c0,0,1.5,0,1.5-1.5s-1.5-1.5-1.5-3c0,0-1.5,0-1.5-1.5
		s0-1.5-1.5-3v-1.5c0,1.5-1.5,3,0,4.5c1.5,1.5,3,3,3,3l0,0l0,0l0,0l0,0c0,0,0,0-1.5,0c-1.5-1.5-1.5-3-3-3c-1.5-1.5,0-3,0-4.5
		c1.5-1.5,0-3-1.5-4.5c0,0,0,0,0-1.5l0,0l0,0l0,0l0,0l0,0c0,0,0,0-1.5,0l0,0l0,0l0,0l0,0l0,0h1.5l0,0c0,0,0,0-1.5,0l0,0
		c0,0,0,0,1.5,0h1.5c0,1.5-1.5,1.5-1.5,3c0,0,0,0-1.5-1.5c0,0,0-1.5-1.5-1.5c0,0,0,0-1.5-1.5c0,0,0,0,0-1.5V99l0,0l0,0l0,0l0,0l0,0
		l0,0l0,0l0,0c0,0,0,0,0-1.5l0,0l0,0l0,0l0,0l0,0l0,0l0,0l0,0l0,0h-1.5l0,0l0,0l0,0l0,0l0,0l0,0l0,0l0,0l0,0c0,0,0,0,0,1.5h-1.5
		c0,1.5,0,1.5,1.5,1.5v1.5l0,0l0,0l0,0l0,0l0,0c0,0,1.5,1.5,3,3l-1.5,1.5c0,0-1.5,1.5-1.5,0l0,0l0,0l0,0c0,0,0,0-1.5,0l0,0l0,0
		c0,0,0,0,1.5,0l0,0l0,0l0,0l0,0l0,0c0,0,0,0,0,1.5l0,0l0,0c0,0,0,0,1.5,0l0,0v1.5l0,0l0,0c0,0,0,0,1.5,0l0,0l0,0c0,0,0,0,0-1.5l0,0
		l0,0l0,0h1.5c0,0,0,0,1.5-1.5h1.5c0,0,0,0,0-1.5c0,1.5,3,1.5,3,3c-1.5,0-1.5,0-3,0l-1.5,1.5c0,0,0,1.5,1.5,3c-1.5,0-1.5,0-1.5,0
		l0,0c0,0,0-1.5-1.5-1.5l0,0l0,0l0,0l0,0l0,0l0,0l0,0l0,0h-1.5l0,0l0,0l0,0l0,0l0,0l0,0l0,0l0,0l0,0c0,0,0,0,1.5,0l0,0l0,0l0,0l0,0
		l0,0l0,0l0,0l0,0l0,0c0,0,0,0,1.5,0l0,0c0,0,0,0,1.5,0l0,0c0,0,0,0,0-1.5s1.5-1.5,1.5-1.5s1.5,3,3,3s1.5,0,1.5,0
		C246.8,121.5,246.8,121.5,248.3,121.5C246.8,121.5,246.8,121.5,248.3,121.5c-1.5,1.5-1.5,1.5-3,1.5l0,0l0,0l0,0l0,0c0,0,0,0,1.5,0
		l0,0l0,0l0,0l0,0l0,0l0,0l0,0l0,0l0,0l0,0c0,0,0,0,1.5,0l0,0l0,0C248.3,123,248.3,123,248.3,121.5C248.3,123,248.3,123,248.3,121.5
		C248.3,123,248.3,123,248.3,121.5C249.8,123,249.8,121.5,248.3,121.5C249.8,121.5,248.3,121.5,248.3,121.5L248.3,121.5z"/>
	<path class="st2" d="M216.8,141L216.8,141c-1.5,0-1.5,0-1.5,1.5c0,0,0,1.5,1.5,1.5l0,0l0,0c0,1.5,0,3,0,4.5l-4.5-7.5
		C215.3,139.5,216.8,139.5,216.8,141C216.8,138,216.8,139.5,216.8,141 M215.3,153l-7.5-12c1.5,0,1.5,0,3-1.5l6,9
		C215.3,151.5,215.3,153,215.3,153 M213.8,159l-12-16.5c0,0,0,0,1.5,0h1.5l9,13.5C215.3,156,215.3,157.5,213.8,159 M201.8,142.5
		l12,18C207.8,157.5,200.3,151.5,201.8,142.5 M219.8,141L219.8,141L219.8,141c0-3-1.5-4.5-4.5-4.5c-1.5,0-6,3-10.5,3
		c-3,0-4.5-1.5-6-1.5v1.5l0,0c0,0,0-1.5-1.5-1.5c0,0-1.5,0-1.5,1.5c0,0,0,1.5,1.5,1.5h1.5v1.5l0,0c-1.5,7.5,4.5,18,15,21
		c1.5,0,3,0,3,1.5c0,1.5,0,1.5-1.5,1.5c0,0-1.5,0-1.5-1.5c0,0,1.5,0,1.5-1.5c0,0,0-1.5-1.5-1.5c0,0-1.5,0-1.5,1.5c0,1.5,1.5,3,3,3
		c1.5,0,3,0,3-3h1.5V162l0,0v-18l0,0C221.3,142.5,221.3,142.5,219.8,141C221.3,141,221.3,141,219.8,141"/>
	<path class="st2" d="M210.8,102L210.8,102L210.8,102L210.8,102L210.8,102C210.8,100.5,210.8,102,210.8,102
		C210.8,100.5,210.8,100.5,210.8,102C210.8,100.5,210.8,100.5,210.8,102L210.8,102C212.3,102,212.3,102,210.8,102
		C212.3,102,212.3,102,210.8,102C212.3,102,212.3,102,210.8,102C212.3,102,212.3,102,210.8,102C212.3,102,212.3,102,210.8,102
		L210.8,102C212.3,102,212.3,102,210.8,102C210.8,102,210.8,103.5,210.8,102L210.8,102 M212.3,100.5
		C212.3,100.5,210.8,100.5,212.3,100.5C210.8,100.5,210.8,100.5,212.3,100.5C210.8,100.5,212.3,100.5,212.3,100.5 M212.3,100.5
		L212.3,100.5C212.3,100.5,212.3,102,212.3,100.5C212.3,102,212.3,100.5,212.3,100.5 M210.8,100.5L210.8,100.5L210.8,100.5
		 M218.3,103.5c3,0,3-1.5,3-1.5c0-3-7.5-1.5-7.5-3c0,0,0,0,0-1.5l0,0c3,0,3-3,6-3c-3,0-3,1.5-4.5,1.5l1.5-1.5c0,1.5-1.5,1.5-3,1.5
		l0,0c0,0,0,0,0,1.5c0,3,7.5,1.5,7.5,3C221.3,103.5,219.8,103.5,218.3,103.5c-1.5,0-3-1.5-4.5-1.5c0,0,1.5-1.5,0-1.5l0,0l0,0l0,0
		l0,0l0,0l0,0l0,0l0,0l0,0l0,0l0,0l0,0v1.5l0,0v1.5l0,0c0,0,0,0,0-1.5c0,0,0,0,0-1.5l0,0l0,0l0,0l0,0l0,0l0,0l0,0l0,0l0,0l0,0l0,0
		l0,0l0,0l0,0l0,0l0,0l0,0l0,0c0,0,0,0-1.5,0l0,0l0,0l0,0l0,0l0,0l0,0l0,0l0,0l0,0l0,0l0,0h-1.5c0,0,0,1.5,1.5,1.5l0,0l0,0l0,0l0,0
		l0,0l0,0c0,0,0,0,0,1.5h-1.5h-1.5h-1.5l0,0l0,0l0,0l0,0l0,0l0,0l0,0l0,0l0,0l0,0l0,0l0,0l0,0l0,0l0,0c0,0,0,0,1.5,0l0,0l0,0l0,0
		l0,0l0,0l0,0l0,0l0,0l0,0l0,0l0,0l0,0l0,0l0,0l0,0l0,0l0,0l0,0l0,0l0,0l0,0l0,0l0,0c0-1.5,0,0,1.5-1.5l0,0l0,0l0,0l0,0l0,0l0,0h1.5
		c1.5,0-1.5-1.5,1.5-1.5c0,0,0,0,1.5,0v1.5l0,0l0,0l0,0c0,0,0-1.5-1.5,0l0,0l0,0l0,0l0,0l0,0l0,0l0,0c0,0-1.5,0,0,0l0,0l0,0l0,0l0,0
		l0,0l0,0l0,0l0,0l0,0l0,0l0,0l0,0l0,0l0,0l0,0l0,0l0,0l0,0l0,0h1.5v-1.5C216.8,106.5,216.8,105,218.3,103.5
		C216.8,105,218.3,105,218.3,103.5C218.3,105,218.3,105,218.3,103.5c0,1.5,1.5,1.5,1.5,1.5l0,0c0,0,0,0,0,1.5c0,0,0,0-1.5,0l0,0l0,0
		l0,0l0,0l0,0l0,0l0,0l0,0l0,0l0,0l0,0l0,0l0,0l0,0l0,0l0,0l0,0l0,0l0,0l0,0l0,0l0,0l0,0l0,0l0,0l0,0l0,0l0,0l0,0
		C219.8,105,219.8,103.5,218.3,103.5L218.3,103.5"/>
	<path class="st2" d="M206.3,117L206.3,117L206.3,117 M204.8,112.5L204.8,112.5L204.8,112.5L204.8,112.5L204.8,112.5
		C204.8,111,204.8,112.5,204.8,112.5C204.8,111,204.8,111,204.8,112.5C204.8,111,204.8,111,204.8,112.5L204.8,112.5
		C206.3,112.5,206.3,112.5,204.8,112.5C206.3,112.5,206.3,112.5,204.8,112.5C206.3,112.5,206.3,112.5,204.8,112.5
		C206.3,112.5,206.3,112.5,204.8,112.5C206.3,112.5,206.3,112.5,204.8,112.5L204.8,112.5C206.3,112.5,206.3,112.5,204.8,112.5
		C204.8,114,204.8,114,204.8,112.5L204.8,112.5 M206.3,111C206.3,111,204.8,111,206.3,111C204.8,111,204.8,111,206.3,111
		C204.8,111,206.3,111,206.3,111 M206.3,111L206.3,111C206.3,111,206.3,112.5,206.3,111C206.3,112.5,206.3,111,206.3,111 M201.8,114
		L201.8,114L201.8,114 M221.3,112.5c0,0-1.5-1.5-3-1.5c-3,0-7.5,1.5-7.5,0c0,0,1.5,0,3,0l0,0c3,1.5,7.5,0,9,0c-1.5-1.5-4.5,0-6,0
		c1.5,0,1.5,0,1.5-1.5c-1.5,0-3,0-4.5,0l0,0c-1.5,0-3,0-3,1.5C210.8,114,216.8,112.5,221.3,112.5
		C219.8,112.5,221.3,112.5,221.3,112.5c-1.5,0-3,0-4.5,0c-1.5,0-7.5-1.5-10.5,0c0,0,1.5-1.5,0-1.5l0,0l0,0l0,0l0,0l0,0l0,0l0,0l0,0
		l0,0c0,0,0,0,0,1.5c0,0,0,1.5-1.5,0l0,0v1.5l0,0c0,0,0,0,0,1.5l0,0l0,0l0,0l0,0l0,0c0,0,0,0-1.5-1.5c0,0,0,0,0-1.5V111l0,0l0,0l0,0
		l0,0l0,0l0,0l0,0l0,0l0,0l0,0l0,0l0,0l0,0l0,0l0,0l0,0l0,0l0,0h-1.5l0,0l0,0l0,0l0,0l0,0l0,0l0,0l0,0l0,0c0,0,0,0,0,1.5l0,0h-1.5
		c0,1.5,0,1.5,1.5,1.5l0,0l0,0l0,0l0,0l0,0l0,0c0,0,0,0,1.5,1.5h1.5v1.5h-1.5h-1.5l0,0l0,0l0,0c0,0,0,0-1.5,0l0,0l0,0l0,0l0,0l0,0
		l0,0l0,0l0,0c0,0-1.5,0,0,0l0,0l0,0c0,0,0,0,1.5,0l0,0c0,0,0,0,0,1.5l0,0l0,0l0,0l0,0l0,0l0,0l0,0l0,0l0,0l0,0l0,0l0,0l0,0l0,0l0,0
		l0,0c0,0,0,0,1.5,0l0,0l0,0l0,0l0,0c0-1.5,0,0,1.5-1.5l0,0l0,0l1.5-1.5l0,0c1.5,0,0-1.5,4.5-1.5c0,0,0,0,1.5,0v1.5c0,0,0,0,1.5,0
		l0,0l0,0c0,0,0-1.5-1.5-1.5l0,0l0,0l0,0l0,0l0,0l0,0l0,0h-1.5l0,0l0,0l0,0l0,0l0,0l0,0l0,0l0,0l0,0c0,0,0,0,1.5,0l0,0l0,0l0,0l0,0
		l0,0l0,0l0,0l0,0l0,0h1.5v-1.5c0,0,0,0,0-1.5h1.5c1.5,0,1.5,0,1.5,0h1.5l0,0c0,0,0,0,0,1.5c0,0,0,0-1.5,0l0,0l0,0l0,0l0,0l0,0l0,0
		l0,0l0,0l0,0l0,0l0,0l0,0l0,0l0,0l0,0l0,0l0,0l0,0c0,0,0,0,0-1.5l0,0l0,0l0,0l0,0l0,0l0,0l0,0l0,0l0,0l0,0c0,0-1.5,0-3,0
		C219.8,114,221.3,114,221.3,112.5"/>
	<path class="st2" d="M201.8,123L201.8,123C201.8,123,203.3,123,201.8,123C203.3,123,201.8,123,201.8,123S203.3,123,201.8,123
		L201.8,123L201.8,123C201.8,121.5,201.8,121.5,201.8,123L201.8,123C203.3,123,203.3,123,201.8,123C203.3,123,203.3,123,201.8,123
		C203.3,123,203.3,123,201.8,123C203.3,123,203.3,123,201.8,123C203.3,123,203.3,123,201.8,123C203.3,123,203.3,123,201.8,123
		C203.3,123,203.3,123,201.8,123C203.3,124.5,201.8,124.5,201.8,123C201.8,124.5,201.8,123,201.8,123 M203.3,121.5L203.3,121.5
		C201.8,121.5,201.8,121.5,203.3,121.5C201.8,121.5,203.3,121.5,203.3,121.5 M203.3,121.5C203.3,121.5,204.8,123,203.3,121.5
		C203.3,123,204.8,123,203.3,121.5C203.3,123,203.3,121.5,203.3,121.5 M219.8,124.5c0,0-1.5-1.5-3-1.5c-3,0-9,1.5-9,0s3,0,4.5,0l0,0
		c3,1.5,6-1.5,7.5,0c-1.5-1.5-4.5,0-6,0c1.5,0,3,0,3,0c-1.5,0-4.5,0-4.5,0l0,0c-1.5,0-4.5,0-4.5,1.5c0,3,7.5,1.5,10.5,1.5
		C219.8,123,219.8,123,219.8,124.5c-1.5,0-3,0-4.5,0c-1.5,0-9-1.5-12,0c0,0,1.5-1.5,0-1.5l0,0l0,0l0,0l0,0l0,0l0,0l0,0l0,0l0,0
		c0,0,0,0,0,1.5c0,0,0,0-1.5,0l0,0v1.5l0,0l0,0l0,0l0,0l0,0c0,0,0,0-1.5-1.5c0,0,0,0,0-1.5v-1.5l0,0l0,0l0,0l0,0l0,0l0,0l0,0l0,0
		l0,0l0,0l0,0l0,0l0,0l0,0l0,0l0,0l0,0l0,0h-1.5l0,0l0,0l0,0l0,0l0,0l0,0l0,0l0,0l0,0c0,0,0,0,0,1.5l0,0h-1.5c0,0,0,1.5,1.5,1.5l0,0
		l0,0l0,0l0,0l0,0l0,0c0,0,0,1.5,1.5,1.5l0,0l0,0v1.5h-1.5h-1.5l0,0l0,0l0,0l0,0l0,0l0,0l0,0l0,0l0,0l0,0l0,0l0,0l0,0l0,0l0,0
		c0,0,0,0,1.5,0l0,0c0,0,0,0,0,1.5l0,0l0,0l0,0l0,0l0,0l0,0l0,0l0,0l0,0l0,0l0,0l0,0l0,0l0,0l0,0l0,0c0,0,0,0,1.5,0l0,0l0,0l0,0l0,0
		c0-1.5,1.5,0,1.5-1.5l0,0l0,0c0,0,0,0,1.5,0l0,0h1.5l0,0l0,0l0,0c0,0,0,0,1.5,0c4.5,0,1.5-1.5,6-1.5l0,0v1.5c0,0,0,0,1.5,0l0,0l0,0
		c0,0,0-1.5-1.5,0l0,0l0,0l0,0l0,0l0,0l0,0l0,0c0,0-1.5,0,0,0l0,0l0,0l0,0l0,0l0,0l0,0l0,0l0,0l0,0c0,0,0,0,1.5,0l0,0l0,0l0,0l0,0
		l0,0l0,0l0,0l0,0l0,0h1.5V126c0,0,0,0,0-1.5h1.5C218.3,124.5,218.3,124.5,219.8,124.5L219.8,124.5L219.8,124.5c0,0,0,0,0,1.5
		c0,0,0,0-1.5,0l0,0l0,0l0,0l0,0l0,0l0,0l0,0l0,0l0,0l0,0l0,0l0,0l0,0l0,0l0,0l0,0l0,0l0,0C218.3,126,218.3,126,219.8,124.5
		L219.8,124.5L219.8,124.5L219.8,124.5L219.8,124.5L219.8,124.5L219.8,124.5L219.8,124.5L219.8,124.5
		C219.8,126,219.8,124.5,219.8,124.5c-1.5,1.5-3,1.5-3,1.5C218.3,124.5,219.8,124.5,219.8,124.5"/>
	<path class="st2" d="M237.8,142.5L237.8,142.5L237.8,142.5 M234.8,136.5L234.8,136.5L234.8,136.5 M234.8,138L234.8,138L234.8,138z
		 M234.8,139.5C234.8,139.5,234.8,138,234.8,139.5C236.3,138,236.3,138,234.8,139.5C236.3,138,236.3,138,234.8,139.5
		C236.3,138,236.3,138,234.8,139.5C234.8,138,234.8,138,234.8,139.5C234.8,138,234.8,138,234.8,139.5
		C234.8,138,236.3,138,234.8,139.5L234.8,139.5C236.3,138,236.3,138,234.8,139.5C236.3,138,236.3,138,234.8,139.5
		C236.3,138,236.3,138,234.8,139.5C236.3,138,236.3,138,234.8,139.5C236.3,138,236.3,138,234.8,139.5
		C236.3,138,236.3,138,234.8,139.5C236.3,139.5,236.3,139.5,234.8,139.5C236.3,139.5,236.3,139.5,234.8,139.5L234.8,139.5
		 M236.3,136.5C236.3,138,236.3,138,236.3,136.5C234.8,136.5,234.8,136.5,236.3,136.5C234.8,136.5,236.3,136.5,236.3,136.5
		 M236.3,138C236.3,138,237.8,138,236.3,138C237.8,138,237.8,138,236.3,138L236.3,138 M252.8,141L252.8,141
		C252.8,141,254.3,141,252.8,141L252.8,141L252.8,141c-1.5-1.5-1.5-1.5-3-1.5l0,0c1.5,0,3,0,3-1.5c0,0-1.5-1.5-3-1.5c-3,0-9,1.5-9,0
		s3,0,4.5,0l0,0c3,1.5,6-1.5,7.5-1.5c-3-1.5-4.5,0-6,0c1.5,0,3,0,3,0c-1.5,0-4.5,0-4.5,0l0,0c-1.5,0-4.5,0-4.5,1.5
		c0,3,7.5,1.5,10.5,1.5c1.5,0,3,0,3,0s-1.5,0-3,0c-1.5,0-9-1.5-12,0c0,0,1.5-1.5,0-1.5l0,0l0,0l0,0l0,0l0,0l0,0l0,0l0,0l0,0
		c0,0,0,0,0,1.5c0,0,0,0-1.5,0l0,0v1.5l0,0l0,0l0,0l0,0l0,0c0,0,0,0-1.5-1.5c0,0,0,0,0-1.5c0,0,0,0,0-1.5l0,0l0,0l0,0l0,0l0,0l0,0
		l0,0l0,0l0,0l0,0l0,0l0,0l0,0l0,0l0,0l0,0l0,0l0,0l0,0l0,0l0,0l0,0l0,0l0,0l0,0l0,0l0,0l0,0c0,0,0,0,0,1.5l0,0h-1.5
		c0,1.5,0,1.5,1.5,1.5l0,0l0,0l0,0l0,0l0,0l0,0c0,0,0,1.5,1.5,1.5l0,0l0,0l0,0v1.5h-1.5h-1.5l0,0l0,0l0,0l0,0l0,0l0,0l0,0l0,0l0,0
		l0,0l0,0l0,0c0,0-1.5,0,0,0l0,0l0,0c0,0,0,0,1.5,0l0,0c0,0,0,0,0,1.5l0,0l0,0l0,0l0,0l0,0l0,0l0,0l0,0l0,0l0,0l0,0l0,0l0,0l0,0l0,0
		l0,0c0,0,0,0,1.5,0l0,0l0,0l0,0l0,0c0-1.5,0,0,1.5-1.5l0,0l0,0c0,0,1.5,0,1.5-1.5l0,0c0,0,0,0,1.5,0c4.5,0,1.5-1.5,6-1.5l0,0v1.5
		c0,0,0,0,1.5,0l0,0l0,0c0,0,0-1.5-1.5-1.5l0,0l0,0l0,0l0,0l0,0l0,0l0,0c0,0-1.5,0,0,0l0,0l0,0l0,0l0,0l0,0l0,0l0,0l0,0l0,0
		c0,0,0,0,1.5,0l0,0l0,0l0,0l0,0l0,0l0,0l0,0l0,0l0,0h1.5v-1.5c0,0,0,0,0-1.5h1.5c1.5,0,1.5,0,1.5,0C251.3,141,251.3,141,252.8,141
		C251.3,141,252.8,141,252.8,141C251.3,142.5,252.8,142.5,252.8,141c-1.5,1.5-1.5,1.5-1.5,1.5l0,0l0,0l0,0l0,0l0,0l0,0l0,0l0,0l0,0
		l0,0l0,0l0,0l0,0l0,0l0,0l0,0l0,0l0,0c0,0,0,0,0-1.5C252.8,142.5,252.8,144,252.8,141C252.8,142.5,252.8,142.5,252.8,141
		C252.8,142.5,252.8,142.5,252.8,141C252.8,142.5,252.8,142.5,252.8,141C252.8,142.5,252.8,142.5,252.8,141"/>
	<path class="st2" d="M236.3,148.5L236.3,148.5C236.3,147,236.3,148.5,236.3,148.5L236.3,148.5 M236.3,148.5L236.3,148.5
		L236.3,148.5L236.3,148.5C234.8,148.5,234.8,148.5,236.3,148.5L236.3,148.5C234.8,150,234.8,150,236.3,148.5
		C234.8,150,234.8,148.5,236.3,148.5C234.8,148.5,234.8,148.5,236.3,148.5C234.8,148.5,234.8,148.5,236.3,148.5
		C234.8,148.5,234.8,148.5,236.3,148.5C234.8,148.5,234.8,148.5,236.3,148.5C234.8,148.5,234.8,148.5,236.3,148.5
		C234.8,148.5,234.8,148.5,236.3,148.5C234.8,148.5,234.8,148.5,236.3,148.5L236.3,148.5L236.3,148.5L236.3,148.5 M236.3,147
		C236.3,147,234.8,147,236.3,147C234.8,147,234.8,147,236.3,147C234.8,147,236.3,147,236.3,147 M242.3,147
		C242.3,147,243.8,148.5,242.3,147c3,1.5,6-1.5,9,0c-1.5-1.5-3,0-6,0c1.5,0,3,0,3,0C246.8,147,243.8,145.5,242.3,147
		C243.8,147,242.3,147,242.3,147c-1.5,0-3,0-3,0c0,1.5,6,1.5,7.5,1.5c1.5,0,1.5,0,1.5,0s-1.5,0-3,0c-1.5,0-6-1.5-9,0
		c0,0,1.5-1.5,0-1.5l0,0l0,0l0,0l0,0l0,0l0,0l0,0l0,0l0,0c0,0,0,0,0,1.5c0,0,0,0-1.5,0l0,0v1.5l0,0c0,0,0,0,0,1.5l0,0l0,0
		c0,0,0,0-1.5,0c0,0,0,0,0-1.5c0,0,0,0,0-1.5l0,0l0,0l0,0l0,0l0,0l0,0l0,0l0,0l0,0l0,0l0,0l0,0l0,0l0,0l0,0l0,0l0,0l0,0l0,0l0,0l0,0
		l0,0l0,0l0,0l0,0l0,0l0,0l0,0l0,0l0,0h-1.5c0,0,0,1.5,1.5,1.5l0,0l0,0l0,0l0,0l0,0l0,0c0,0,0,0,1.5,0l0,0l0,0v1.5h-1.5h-1.5l0,0
		l0,0l0,0l0,0l0,0l0,0l0,0l0,0l0,0l0,0l0,0l0,0l0,0l0,0l0,0c0,0,0,0,1.5,0l0,0c0,0,0,0,0,1.5l0,0l0,0l0,0l0,0l0,0l0,0l0,0l0,0l0,0
		l0,0l0,0l0,0l0,0l0,0l0,0l0,0l0,0l0,0l0,0l0,0l0,0c0-1.5,1.5,0,1.5-1.5l0,0l0,0c0,0,1.5,0,1.5-1.5l0,0l0,0c0,0,0,0,1.5,0
		c1.5,0,0-1.5,3-1.5l0,0v1.5l0,0l0,0l0,0c0,0,0-1.5-1.5,0l0,0l0,0l0,0l0,0l0,0l0,0l0,0c0,0-1.5,0,0,0l0,0l0,0l0,0l0,0l0,0l0,0l0,0
		l0,0l0,0l0,0l0,0l0,0l0,0l0,0l0,0l0,0l0,0l0,0l0,0h1.5v-1.5l0,0h1.5c1.5,0,1.5,0,1.5,0h1.5l0,0c0,0,0,0,0,1.5c0,0,0,0-1.5,0l0,0
		l0,0l0,0l0,0l0,0l0,0l0,0l0,0l0,0l0,0l0,0l0,0l0,0l0,0l0,0l0,0l0,0l0,0c0,0,0,0,0-1.5l0,0l0,0l0,0l0,0l0,0l0,0l0,0l0,0l0,0l0,0
		c0,0-1.5,0-3,0l0,0c1.5,0,4.5,0,4.5-1.5c0,0,0-1.5-3-1.5c-1.5,0-7.5,1.5-7.5,0C240.8,147,242.3,147,242.3,147"/>
	<path class="st2" d="M233.3,159C234.8,159,234.8,159,233.3,159C234.8,159,234.8,159,233.3,159C234.8,159,234.8,159,233.3,159
		C234.8,159,234.8,159,233.3,159C234.8,159,234.8,159,233.3,159C234.8,159,234.8,159,233.3,159C234.8,157.5,234.8,157.5,233.3,159
		L233.3,159C234.8,159,234.8,159,233.3,159C234.8,159,234.8,159,233.3,159C234.8,159,234.8,159,233.3,159
		C234.8,159,234.8,159,233.3,159C234.8,159,234.8,159,233.3,159C234.8,159,234.8,159,233.3,159C234.8,159,234.8,159,233.3,159
		C234.8,160.5,234.8,160.5,233.3,159L233.3,159 M234.8,157.5L234.8,157.5L234.8,157.5L234.8,157.5 M234.8,157.5
		C234.8,157.5,236.3,157.5,234.8,157.5C236.3,159,236.3,159,234.8,157.5C234.8,159,234.8,157.5,234.8,157.5 M240.8,157.5
		L240.8,157.5c3,1.5,6-1.5,9,0c-1.5-1.5-3,0-6,0c1.5,0,3,0,3,0C245.3,157.5,242.3,156,240.8,157.5L240.8,157.5c-1.5,0-1.5,0-1.5,1.5
		s7.5,0,7.5,1.5c0,0-1.5,1.5-3,1.5c-1.5,0-4.5-1.5-7.5,0l0,0c0,0,1.5-1.5,0-1.5l0,0l0,0l0,0l0,0l0,0l0,0l0,0l0,0l0,0c0,0,0,0,0,1.5
		l0,0l0,0v1.5l0,0v1.5l-1.5-1.5c0,0,0,0,0-1.5c0,0,0,0,0-1.5l0,0l0,0l0,0l0,0l0,0l0,0l0,0l0,0l0,0l0,0l0,0l0,0l0,0l0,0l0,0l0,0l0,0
		l0,0l0,0l0,0l0,0l0,0l0,0l0,0l0,0l0,0l0,0l0,0l0,0l0,0h-1.5c0,0,0,1.5,1.5,1.5l0,0l0,0l0,0l0,0l0,0l0,0c0,0,0,1.5,1.5,1.5
		c0,0,0,1.5,1.5,0l0,0h-1.5c0,0,0,0-1.5,0l0,0l0,0l0,0l0,0l0,0l0,0l0,0l0,0l0,0l0,0l0,0l0,0l0,0l0,0l0,0l0,0l0,0l0,0c0,0,0,0,1.5,0
		l0,0l0,0l0,0l0,0l0,0l0,0l0,0l0,0l0,0l0,0l0,0l0,0l0,0l0,0l0,0l0,0l0,0l0,0l0,0l0,0l0,0l0,0l0,0c0-1.5,0,0,1.5-1.5l0,0l0,0h1.5
		c0,0,0,0,0-1.5l0,0c1.5,0,1.5,0,1.5,0v1.5v1.5l0,0l0,0c0,0,0-1.5-1.5,0l0,0l0,0l0,0l0,0l0,0l0,0l0,0c0,0-1.5,0,0,0l0,0l0,0l0,0l0,0
		l0,0l0,0l0,0l0,0l0,0l0,0l0,0l0,0l0,0l0,0l0,0l0,0l0,0l0,0l0,0l0,0V162v-1.5c0,0,1.5,0,3,0h1.5l0,0l0,0l0,0l0,0l0,0l0,0l0,0l0,0
		l0,0l0,0l0,0l0,0l0,0l0,0l0,0l0,0l0,0l0,0l0,0l0,0l0,0l0,0l0,0l0,0c0,0,0,0,1.5,0l0,0l0,0l0,0l0,0l0,0l0,0l0,0c0,0-1.5,0,0,0l0,0
		c0,0-1.5,0-1.5-1.5l0,0c3,0,4.5,0,4.5-1.5C246.8,157.5,239.3,159,240.8,157.5C239.3,157.5,239.3,157.5,240.8,157.5"/>
	<path class="st2" d="M122.3,30c0-1.5-1.5-1.5-1.5-1.5c-1.5,0-3,0-3,1.5c0,1.5,1.5,1.5,1.5,1.5C120.8,31.5,122.3,31.5,122.3,30"/>
	<path class="st2" d="M120.8,25.5c0-1.5-1.5-1.5-1.5-1.5c-1.5,0-1.5,1.5-1.5,1.5c0,1.5,1.5,1.5,1.5,1.5
		C120.8,27,120.8,27,120.8,25.5"/>
	<path class="st2" d="M122.3,24c1.5,0,1.5-1.5,1.5-1.5c0-1.5-1.5-1.5-1.5-1.5c-1.5,0-1.5,1.5-1.5,1.5S120.8,24,122.3,24"/>
	<path class="st2" d="M126.8,22.5c1.5,0,1.5-1.5,1.5-1.5c0-1.5-1.5-1.5-1.5-1.5c-1.5,0-1.5,1.5-1.5,1.5
		C125.3,22.5,126.8,22.5,126.8,22.5"/>
	<path class="st2" d="M147.8,19.5c0,0,1.5,0,3,0c0,0,0-1.5,0-3c0,0-1.5,0-3,0C146.3,18,146.3,19.5,147.8,19.5"/>
	<path class="st2" d="M146.3,16.5c0,0,0-1.5,0-3c0,0-1.5,0-3,0c0,0,0,1.5,0,3C144.8,16.5,146.3,16.5,146.3,16.5"/>
	<path class="st2" d="M141.8,15c0,0,0-1.5,0-3c0,0-1.5,0-3,0c0,0,0,1.5,0,3C140.3,16.5,141.8,16.5,141.8,15"/>
	<path class="st2" d="M138.8,18c0,0,0-1.5,0-3c0,0-1.5,0-3,0c0,0,0,1.5,0,3C135.8,19.5,137.3,19.5,138.8,18"/>
	<path class="st2" d="M126.8,15l1.5,3l1.5-1.5l0,0c0,1.5,0,3,0,4.5c0,1.5,1.5,3,1.5,3c1.5,0,3-1.5,3-3c0-1.5,0-1.5-1.5-1.5
		c-1.5,0-1.5-1.5-3-3l0,0h3v-3l-1.5,1.5l0,0v-3h-3l1.5,3l0,0H126.8z"/>
	<path class="st2" d="M147.8,21c0,1.5,1.5,1.5,1.5,3C147.8,24,147.8,22.5,147.8,21v4.5l1.5-1.5c0,3-1.5,4.5-1.5,4.5
		c-1.5,0-1.5,0-1.5-1.5s1.5-1.5,1.5-1.5c0-3-1.5-3-3-1.5c1.5-3,0-4.5-1.5-6c-3,4.5-3,6,0,7.5c-1.5-1.5-3,0-1.5,3
		c0-1.5,1.5-1.5,1.5,0c0,0-1.5,1.5-3,1.5c-3,1.5-3,0-4.5-1.5c0,0,1.5,0,3,0v-3c-1.5,1.5-1.5,1.5-3,1.5c0-1.5,1.5-3,1.5-3l-4.5,1.5
		c0,0,1.5,1.5,3,1.5c-1.5,0-1.5,0-3,0l1.5,4.5c0-1.5,1.5-3,1.5-3c0,1.5,1.5,3-1.5,4.5c-1.5,1.5-3,0-4.5,0c0-1.5,0-3,1.5-1.5
		c0-3-1.5-3-3,0c0-3,0-4.5-3-4.5c0,3,0,4.5,3,4.5c-1.5,0-3,1.5-1.5,3c0-1.5,1.5-1.5,1.5,0c0,0,0,1.5,0,3c-1.5,0-3,0-4.5-1.5h1.5
		l-1.5-4.5c0,1.5,0,1.5,0,3c0,0,0-1.5-1.5-3l-1.5,1.5c1.5,1.5,4.5,3,6,6c3-1.5,7.5-4.5,10.5-6c4.5,0,9-1.5,12-3c0-4.5,0-7.5,0-9
		H147.8z"/>
	<path class="st2" d="M152.3,45c-1.5,1.5-4.5,0-6-3c3-1.5,7.5-3,10.5-4.5C153.8,42,155.3,43.5,152.3,45 M152.3,70.5
		c-3,1.5-6-1.5-6-3c0-1.5-1.5-3,0-4.5c1.5-1.5,1.5-3,0-4.5c-1.5-1.5-3-1.5-6,0c1.5-1.5,1.5-3,0-3c-1.5,0-1.5,3-3,3c-1.5,0,0-1.5,0-3
		s1.5-1.5,1.5-1.5l9-3c1.5,0,1.5,0,3,0l1.5,1.5c0,1.5-3-1.5-3,0c-1.5,1.5,0,1.5,1.5,3c-1.5,0-3,0-3,3c1.5,1.5,3,1.5,4.5,1.5
		s1.5,1.5,3,3C155.3,66,155.3,69,152.3,70.5 M134.3,52.5c-3,0-3-1.5-7.5-3c3,0,7.5-1.5,10.5-3C138.8,48,137.3,51,134.3,52.5
		 M186.8,133.5c0-1.5-3-4.5-3-7.5s0-6-3-9s-13.5-15-16.5-18c1.5,0,3,0,4.5,1.5c1.5,1.5,3,3,6,6c3-7.5,6-12,12-18l1.5-1.5
		c-1.5,0-4.5,1.5-6,1.5c0-3,0-6-1.5-7.5c1.5-4.5,0-9-9-16.5c4.5,1.5,7.5,6,12,1.5c-3,0-3-7.5-16.5-13.5c4.5,0,9,7.5,13.5,3
		c-4.5,0-7.5-10.5-16.5-12c3,0,6,1.5,9-1.5c-3,1.5-4.5-1.5-9-3c1.5-4.5,1.5-6,0-9c-3,0-4.5,1.5-6,3c-3-3-4.5-3-7.5-3c0,1.5,0,3,0,3
		c-1.5,0-7.5,1.5-12,3c-4.5,1.5-9,4.5-10.5,6c-1.5,0-1.5-1.5-1.5-1.5c-1.5,1.5-3,3-3,4.5c-1.5,0-4.5,0-6,3c0,3,3,6,6,7.5
		c-6,4.5-1.5,10.5-6,15c7.5,0,6-9,9-10.5c0,6-4.5,7.5-4.5,15c0,4.5,3,9,0,10.5c6-1.5,4.5-15,7.5-19.5c0,1.5,0,4.5,0,6
		c-1.5,6,0,15-3,18c6,0,7.5-10.5,12-13.5c-4.5,9-9,28.5-15,37.5c-10.5,13.5-16.5,31.5-25.5,31.5c-4.5,0-7.5-3-7.5-7.5
		c0-16.5,27-27,27-43.5c0-7.5-6-10.5-10.5-10.5c-3,0-6,1.5-9,3c-1.5,0-3,0-3,0c-9,0-7.5,18-15,16.5c4.5,1.5,10.5-1.5,13.5-7.5
		c-1.5,12-18,9-16.5,22.5c3-10.5,28.5-9,28.5-25.5c0-1.5-1.5-3-1.5-4.5c0-1.5,3-1.5,4.5-1.5c3,0,6,3,6,7.5c0,13.5-27,25.5-27,43.5
		c0,3,1.5,6,1.5,7.5c-1.5,1.5-4.5,0-6-1.5c0,4.5,6,7.5,10.5,4.5c1.5,0,1.5,0,3,0c-1.5,3-6,4.5-7.5,4.5c7.5,6,18-1.5,18-7.5
		c6-4.5,9-12,12-16.5c0,1.5,0,1.5,0,3c-4.5,7.5-7.5,13.5-9,22.5c-1.5,7.5-4.5,15-10.5,15c-1.5,0-3-1.5-4.5-1.5c-1.5,1.5,0,3,0,4.5
		c0,1.5-4.5,4.5-4.5,12c0,3,1.5,7.5,1.5,9c1.5-1.5,4.5-4.5,4.5-7.5c1.5,9-4.5,9,0,16.5c0-3,3-3,4.5-3c1.5,1.5,1.5,1.5,0,3
		c0,1.5-1.5,7.5,4.5,7.5c-1.5,0-1.5-3,1.5-3c4.5-1.5,4.5,1.5,9,1.5c3,0,3-3,4.5-3c1.5,0,1.5,1.5,1.5,3c3-1.5,3-3,3-4.5
		c0-1.5-1.5-3,0-3s4.5,0,3,3c1.5,0,3-1.5,3-4.5s-3-3-4.5-3c0-1.5-3-1.5-4.5-1.5c-4.5,0-3,3-7.5,3c-4.5,0-9-6-9-16.5
		c0-6,6-7.5,10.5-9c4.5-1.5,12-6,16.5-15c4.5-7.5,4.5-13.5,3-21c6,3,7.5,9,7.5,12c0,4.5-3,6-4.5,7.5c-1.5,0-1.5,0-1.5,1.5
		c0,1.5,0,1.5,1.5,3c1.5,1.5,1.5,3,3,6c0,3,3,6,6,9c0-1.5,0-3,0-6c4.5,3,1.5,12,10.5,12c-1.5-1.5-1.5-3,0-4.5c1.5,0,1.5,0,4.5,3
		c1.5,3,1.5,3,6,3s3-1.5,4.5-1.5c3,0,1.5,3,1.5,4.5c4.5-1.5,4.5-4.5,3-7.5c3-1.5,4.5,1.5,6,3c3-3,0-7.5-3-7.5c0-1.5-1.5-3-3-3
		s-3,0-4.5,0c-1.5,0-3,3-4.5,3c-6,0-16.5-10.5-16.5-15s10.5-7.5,10.5-13.5c0-9-9-12-16.5-18c3-3,10.5-3,15-1.5c0-3,1.5-1.5,3-6
		c1.5,4.5,0,7.5,1.5,9c1.5-1.5,4.5-1.5,4.5-6c1.5,3-1.5,7.5,1.5,9c0-3,1.5-3,3-3c1.5,0,1.5,0,1.5,1.5c0,3-4.5,1.5-4.5,6
		c0,1.5,1.5,3,1.5,3c0,1.5-1.5,3-4.5,1.5c0,1.5,1.5,3,4.5,3c1.5,0,4.5-1.5,4.5-3c1.5,3,0,6-1.5,6c1.5,1.5,6,0,6-6c3,0,4.5,1.5,3,6
		c1.5,0,4.5-1.5,4.5-4.5C186.8,136.5,185.3,136.5,186.8,133.5"/>
	<path class="st2" d="M362.3,178.5c0-3,3-6,6-6c3,0,6,3,6,6c0,3-3,6-6,6C363.8,183,362.3,181.5,362.3,178.5 M359.3,178.5
		c0,4.5,3,7.5,7.5,7.5c4.5,0,7.5-3,7.5-7.5c0-4.5-3-7.5-7.5-7.5C363.8,169.5,359.3,174,359.3,178.5"/>
	<path class="st2" d="M335.3,192c-1.5,0-3-1.5-3-3s0-1.5,1.5-1.5c1.5,0,1.5-1.5,3,0c1.5,0,3,1.5,3,3l0,0
		C338.3,190.5,336.8,192,335.3,192 M330.8,184.5c-1.5,0-1.5,1.5-1.5,3c0,1.5,0,3,1.5,4.5c1.5,1.5,3,1.5,4.5,1.5c1.5,0,3,0,4.5,0
		s1.5-1.5,3-3c0-3-1.5-6-4.5-6C333.8,183,332.3,184.5,330.8,184.5"/>
	<path class="st2" d="M288.8,82.5c0-1.5,0-1.5,1.5-3c1.5,0,1.5-1.5,3-1.5c0,0,1.5,0,1.5,1.5V81c0,1.5,0,1.5-1.5,3
		C291.8,84,290.3,84,288.8,82.5L288.8,82.5 M288.8,78c-1.5,1.5-3,4.5-1.5,6c1.5,1.5,4.5,1.5,7.5,0c1.5-1.5,1.5-3,3-4.5
		c0-1.5,0-1.5-1.5-3c0-1.5-1.5-1.5-3-1.5C291.8,76.5,290.3,76.5,288.8,78"/>
	<path class="st2" d="M324.8,181.5L324.8,181.5c-1.5,0-1.5,0-1.5-1.5c-1.5-1.5-1.5-1.5-1.5-3c0-1.5,0-3,1.5-3l1.5-1.5
		c1.5,0,3,1.5,3,4.5c0,1.5,0,3-1.5,3C326.3,180,326.3,181.5,324.8,181.5 M321.8,172.5c-1.5,1.5-1.5,3-1.5,4.5l0,0c0,1.5,0,3,1.5,4.5
		c1.5,1.5,1.5,1.5,3,1.5c1.5,0,3,0,3-1.5c1.5-1.5,1.5-3,1.5-4.5s0-3-1.5-4.5c-1.5-1.5-1.5-1.5-3-1.5
		C324.8,171,323.3,171,321.8,172.5"/>
	<path class="st2" d="M285.8,118.5c-1.5-1.5-3-3-3-4.5l1.5-1.5c1.5,0,3,0,3,0c1.5,0,1.5,1.5,3,3v1.5l-1.5,1.5
		C288.8,118.5,287.3,118.5,285.8,118.5 M284.3,111c-1.5,0-1.5,1.5-3,1.5c-1.5,3,0,6,3,7.5c3,0,4.5,0,6,0c1.5,0,1.5-1.5,3-1.5
		c0-1.5,0-1.5,0-3s-1.5-3-3-3C288.8,109.5,285.8,109.5,284.3,111"/>
	<path class="st2" d="M339.8,145.5c-1.5,1.5-3,3-4.5,1.5c-1.5-1.5-1.5-3,0-4.5c1.5-1.5,3-3,4.5-1.5C341.3,141,341.3,144,339.8,145.5
		 M330.8,159c-1.5,1.5-3,3-4.5,1.5c-1.5-1.5-1.5-3,0-4.5c1.5-1.5,3-3,4.5-1.5C332.3,156,332.3,157.5,330.8,159 M300.8,81
		c1.5-3,3-10.5,3-10.5l3,1.5c-1.5,0-3,1.5-3,3c1.5,0,1.5,0,3,0l-1.5,3c0,0-1.5-1.5-3-1.5c0,3,1.5,4.5,3,4.5c1.5,1.5,3,1.5,4.5,0
		c0-1.5,0-3-3-1.5c0-1.5,1.5-3,1.5-3c1.5,0,1.5,1.5,1.5,1.5c0-3,1.5-6,4.5-6c1.5,3,0,4.5-1.5,7.5c1.5,0,3,0,3,0c0,1.5,0,3-1.5,3
		c0-1.5-3-1.5-3-1.5c0,1.5,0,3,3,3c1.5,1.5,4.5,0,6-1.5c-1.5,0-1.5,0-3,0l3-4.5c0,0,0,1.5,1.5,3c0-1.5,1.5-3,0-4.5l4.5,3
		c-1.5,0-3,1.5-3,1.5c1.5,0,3,0,3,0l-3,4.5c0-1.5,0-3-1.5-3c-1.5,1.5-1.5,4.5,1.5,6c1.5,1.5,3,1.5,4.5,0c0-1.5,0-3-3-3
		c0-1.5,1.5-3,1.5-3c1.5,0,1.5,1.5,1.5,3c0-3,1.5-4.5,4.5-4.5c0,3,0,4.5-3,6c1.5,0,3,0,3,0c0,1.5,0,3-1.5,3c0-1.5-3-3-3-1.5
		s0,1.5,3,3c1.5,1.5,3,1.5,4.5,0c0-1.5-3-1.5-3-1.5l3-3c0,1.5,0,3,1.5,3c0-1.5,0-3,0-4.5l3,3c0,0-4.5,4.5-7.5,7.5L300.8,81z
		 M338.3,124.5V123h1.5c1.5,0,1.5,0,3,1.5s1.5,1.5,1.5,3v1.5l0,0h-1.5c-1.5,0-1.5,0-3-1.5C338.3,126,338.3,124.5,338.3,124.5
		 M351.8,187.5c0-1.5,1.5-1.5,1.5-3c1.5,0,3-1.5,3-1.5s1.5,0,1.5,1.5l0,0v1.5c0,1.5-1.5,1.5-1.5,3c-1.5,1.5-4.5,1.5-4.5,0
		C351.8,189,351.8,187.5,351.8,187.5 M285.8,91.5c0,1.5,0,1.5-1.5,3h-1.5c-1.5,0-3-1.5-3-3l0,0c0-1.5,0-1.5,1.5-3h1.5h1.5
		C285.8,90,285.8,91.5,285.8,91.5 M306.8,51c1.5-1.5,0-4.5,3-4.5c1.5,0,3,1.5,6,3C312.8,48,309.8,49.5,306.8,51 M365.3,102
		c3,7.5,7.5,9,10.5,7.5c-9-1.5-1.5-15-12-15h-1.5c-1.5-1.5-4.5-3-7.5-3c-4.5,0-12,4.5-12,13.5c0,19.5,22.5,21,22.5,39
		c0,4.5-4.5,9-7.5,9c-4.5,0-7.5-4.5-10.5-10.5c-1.5-3-4.5-7.5-9-12c1.5,0,1.5,1.5,3,1.5c1.5,0,3,0,3-1.5c1.5-1.5,3-3,3-4.5l0,0
		c0-1.5,0-3-1.5-4.5c-1.5-1.5-3-1.5-6-1.5c-1.5,0-3,0-3,1.5c-1.5,1.5-1.5,1.5-1.5,3l0,0v1.5c-4.5-6-9-13.5-9-16.5c0-3,1.5-6,4.5-9
		h1.5V99c1.5-1.5,3-3,7.5-7.5l0,0l0,0l1.5-1.5h-3c0-1.5,1.5-3,1.5-4.5c1.5,3,3,4.5,4.5,4.5c-1.5-3,1.5-7.5,0-15c1.5,3,4.5,4.5,6,4.5
		c-4.5-4.5,1.5-10.5-4.5-21c1.5,0,3,0,4.5-1.5c-6-1.5-3-9-13.5-12c3,0,4.5-1.5,4.5-3c-3,1.5-6-3-15-3c0-3-3-7.5-7.5-9
		c0,3,0,4.5,0,7.5l-30-30c-1.5-1.5-1.5-1.5-1.5,0V9l25.5,31.5c-1.5,0-4.5,1.5-6,1.5s-1.5,1.5-1.5,3c-4.5,3-9,6-10.5,7.5
		c-1.5,1.5-3,1.5-1.5,4.5c0,1.5-1.5,4.5,3,1.5c3-1.5,7.5-4.5,9-3c0,1.5-3,3-4.5,3c-1.5,0-4.5,1.5-3,3h1.5c0,1.5,0,1.5,1.5,1.5
		s1.5-1.5,3-1.5c0,0,0,4.5-1.5,4.5c3,0,4.5-3,4.5-6c0-1.5,0-3,1.5-3c0,0,1.5,3,0,4.5c1.5,0,3-3,3-6c1.5,0,1.5-1.5,1.5-1.5
		c1.5,0,3,3,6,3c4.5,0,7.5-4.5,7.5-6s0-3,0-4.5c1.5,1.5,3,4.5,3,6c0,7.5-12,10.5-18,15l0,0l-9,3V72c0,0,0,0,0,1.5s-1.5,6-3,9V84l0,0
		c-3,4.5-6,10.5-7.5,15c-1.5-1.5-3-3-4.5-4.5V93c0-1.5,0-3-1.5-4.5c-1.5-1.5-1.5-1.5-3-1.5c-1.5,0-1.5,0-3,1.5l0,0l0,0
		c-1.5-1.5-4.5-3-6-4.5c0,0-1.5-1.5-3-1.5c0,0-1.5,0-3,0c-1.5,0-1.5,0-3,1.5c0,0-1.5,1.5-3,3c0,1.5,1.5,1.5,1.5,3l1.5,1.5
		c0,0,1.5,0,1.5-1.5h1.5c1.5,0,1.5,0,3,1.5c0,1.5,6,7.5,9,12h-1.5c-1.5,0-6,0-7.5,0s-1.5,0-3,1.5l-1.5,1.5c0,0-1.5,1.5,0,3
		c1.5,3,6,10.5,7.5,15c1.5,3,3,4.5,6,6c3,1.5,7.5,4.5,7.5,4.5v-3c-1.5-1.5-3-1.5-4.5-1.5c-1.5,0-1.5-1.5,0-1.5
		c1.5,0,4.5,1.5,7.5,1.5c0-3-3-6-4.5-7.5c-1.5,0-4.5,0-4.5,0s0,1.5-1.5,1.5s-1.5,0-1.5-1.5s1.5-1.5,1.5-3c0-1.5-1.5-1.5-3-1.5
		c-1.5-3-3-6-4.5-7.5c-1.5-1.5,0-3,0-3c1.5-1.5,4.5,0,10.5,1.5c1.5,0,4.5,0,7.5,0c1.5,7.5,3,13.5,13.5,16.5c7.5,0,12,4.5,13.5,9
		c-19.5,0-22.5,7.5-22.5,15c0,7.5,7.5,7.5,7.5,13.5c0,6-16.5,7.5-21,9c-4.5,0-6,1.5-9,3c-1.5,1.5-4.5,4.5-7.5,7.5c0,0,1.5,0,3,0l3-3
		c1.5-1.5,1.5-1.5,1.5-1.5s0,1.5,0,3l-3,4.5c9,0,10.5-3,10.5-4.5c0-1.5-3-3-1.5-3c1.5-1.5,3,0,3,1.5c1.5,1.5,1.5,3,4.5,1.5
		c0,0,21-9,24-10.5c3-1.5,1.5-1.5,0-3s-1.5-3-1.5-6c0-6,4.5-9,10.5-7.5c0,1.5,0,1.5,0,3c0,10.5,15,19.5,19.5,19.5
		c1.5,0,4.5-1.5,4.5,4.5c0,4.5,1.5,7.5,0,12c-1.5,4.5-3,6-6,7.5c-3,1.5-6,9-7.5,10.5c1.5,1.5,3,1.5,4.5-3c1.5-3,1.5-4.5,3-6
		c-1.5,3-1.5,7.5-3,9c4.5,0,10.5-3,10.5-6s-1.5-3-1.5-4.5c0-1.5,1.5-1.5,1.5-1.5c1.5,0,3,1.5,3,1.5c1.5-1.5,3-3,3-6c0-1.5,0-3,0-4.5
		l0,0c1.5,1.5,1.5,1.5,3,1.5s3,0,4.5-1.5c1.5-1.5,3-3,3-4.5c0,0,0,0,0-1.5s0-1.5,0-3s-1.5-1.5-3-1.5s-3,0-4.5,1.5c-1.5,1.5-3,3-3,3
		c0-6,0-10.5,0-12c0-3,0-4.5,0-4.5c-1.5,0-1.5,1.5-3,1.5c-1.5,0-6-4.5-6-9c0-4.5,4.5-10.5,4.5-16.5c0-1.5,1.5-3,1.5-1.5
		c1.5,1.5,1.5,4.5,4.5,7.5c-1.5,7.5,7.5,15,13.5,9c-3,0-6-3-7.5-6h1.5c0,0,0,0,1.5,0c3,3,10.5,3,12-4.5c-1.5,1.5-4.5,3-6,3
		c3-1.5,4.5-6,4.5-9c0-19.5-22.5-21-22.5-37.5c0-6,6-10.5,9-10.5c1.5,0,3,0,3,1.5c-1.5,1.5-3,4.5-1.5,6c0,13.5,22.5,13.5,22.5,19.5
		C381.8,112.5,365.3,115.5,365.3,102"/>
</g>
</svg>
