<?xml version="1.0" encoding="utf-8"?>
<!-- Generator: Adobe Illustrator 21.1.0, SVG Export Plug-In . SVG Version: 6.00 Build 0)  -->
<svg version="1.1" xmlns="http://www.w3.org/2000/svg" xmlns:xlink="http://www.w3.org/1999/xlink" x="0px" y="0px"
	 viewBox="0 0 1292 663.8" style="enable-background:new 0 0 1292 663.8;" xml:space="preserve">
<style type="text/css">
	.st0{fill:#010202;}
	.st1{fill:none;stroke:#010202;stroke-width:15;}
	.st2{fill:#020203;}
</style>
<g id="Layer_1">
	<g>
		<path class="st0" d="M87.9,355.4c2.6-8.1,6.4-15.3,11.6-21.5c5.2-6.2,11.6-11.2,19.3-14.9c7.7-3.7,16.6-5.6,26.8-5.6
			c10.2,0,19.1,1.9,26.8,5.6c7.7,3.7,14.1,8.7,19.3,14.9c5.2,6.2,9,13.4,11.6,21.5c2.6,8.1,3.9,16.5,3.9,25.3
			c0,8.8-1.3,17.2-3.9,25.3c-2.6,8.1-6.5,15.3-11.6,21.5c-5.2,6.2-11.6,11.2-19.3,14.8c-7.7,3.7-16.6,5.5-26.8,5.5
			c-10.2,0-19.1-1.8-26.8-5.5c-7.7-3.7-14.1-8.6-19.3-14.8c-5.2-6.2-9-13.4-11.6-21.5c-2.6-8.1-3.9-16.5-3.9-25.3
			C84,371.9,85.3,363.5,87.9,355.4z M103.7,399.8c1.7,6.3,4.3,12,7.9,17s8.2,9.1,13.9,12.2c5.6,3.1,12.4,4.6,20.2,4.6
			c7.8,0,14.5-1.5,20.2-4.6c5.6-3.1,10.3-7.1,13.9-12.2s6.2-10.7,7.9-17c1.7-6.3,2.5-12.7,2.5-19.2c0-6.5-0.8-12.9-2.5-19.2
			c-1.7-6.3-4.3-12-7.9-17s-8.2-9.1-13.9-12.1c-5.6-3.1-12.4-4.6-20.2-4.6c-7.8,0-14.5,1.5-20.2,4.6c-5.6,3.1-10.3,7.1-13.9,12.1
			s-6.2,10.7-7.9,17c-1.7,6.3-2.5,12.7-2.5,19.2C101.1,387.2,102,393.5,103.7,399.8z"/>
		<path class="st0" d="M211.8,365.4v-13.5h15.7V338c0-7.6,2.2-13.3,6.6-17.2c4.4-3.9,10.8-5.9,19.2-5.9c1.4,0,3.1,0.1,4.9,0.4
			c1.9,0.2,3.5,0.6,5,1.1v13.3c-1.3-0.5-2.8-0.8-4.3-1c-1.6-0.2-3-0.3-4.3-0.3c-3.7,0-6.6,0.7-8.6,2.2c-2,1.4-3.1,4.2-3.1,8.3v13h18
			v13.5h-18v79.6h-15.3v-79.6H211.8z"/>
		<path class="st0" d="M260.8,365.4v-13.5h15.7V338c0-7.6,2.2-13.3,6.6-17.2c4.4-3.9,10.8-5.9,19.2-5.9c1.4,0,3.1,0.1,4.9,0.4
			c1.9,0.2,3.5,0.6,5,1.1v13.3c-1.3-0.5-2.8-0.8-4.3-1c-1.6-0.2-3-0.3-4.3-0.3c-3.7,0-6.6,0.7-8.6,2.2c-2,1.4-3.1,4.2-3.1,8.3v13h18
			v13.5h-18v79.6h-15.3v-79.6H260.8z"/>
		<path class="st0" d="M320,335.1v-18.7h15.3v18.7H320z M335.3,351.9v93.1H320v-93.1H335.3z"/>
		<path class="st0" d="M410.4,368.1c-3.8-3.2-9-4.9-15.5-4.9c-5.5,0-10.1,1-13.9,3.1c-3.7,2-6.7,4.7-8.9,8.1
			c-2.2,3.4-3.8,7.2-4.8,11.6c-1,4.4-1.4,8.9-1.4,13.6c0,4.3,0.5,8.5,1.5,12.6c1,4.1,2.6,7.7,4.8,10.9c2.2,3.2,5,5.7,8.5,7.7
			c3.5,1.9,7.6,2.9,12.4,2.9c7.6,0,13.5-2,17.7-5.9c4.3-4,6.9-9.5,7.8-16.7h15.7c-1.7,11.5-6,20.4-12.9,26.6
			c-6.9,6.2-16.3,9.4-28.2,9.4c-7.1,0-13.4-1.1-18.8-3.4c-5.5-2.3-10-5.5-13.7-9.7c-3.7-4.2-6.4-9.2-8.3-15
			c-1.9-5.8-2.8-12.2-2.8-19.2c0-7,0.9-13.5,2.7-19.5c1.8-6.1,4.5-11.3,8.2-15.8c3.7-4.5,8.2-8,13.8-10.6c5.5-2.6,11.9-3.9,19.3-3.9
			c5.3,0,10.2,0.6,14.9,1.9c4.6,1.3,8.7,3.2,12.2,5.9c3.5,2.6,6.4,6,8.7,10c2.3,4,3.7,8.8,4.3,14.3h-15.8
			C416.7,375.9,414.2,371.3,410.4,368.1z"/>
		<path class="st0" d="M513,439c-7,5.3-15.7,7.9-26.3,7.9c-7.4,0-13.9-1.2-19.4-3.6c-5.5-2.4-10.1-5.8-13.8-10.1
			c-3.7-4.3-6.5-9.5-8.4-15.5c-1.9-6-2.9-12.5-3.1-19.6c0-7.1,1.1-13.6,3.2-19.4c2.2-5.9,5.2-11,9.1-15.3c3.9-4.3,8.5-7.7,13.9-10.1
			c5.3-2.4,11.2-3.6,17.6-3.6c8.3,0,15.1,1.7,20.6,5.1c5.5,3.4,9.8,7.8,13.1,13c3.3,5.3,5.6,11,6.8,17.3c1.3,6.2,1.8,12.2,1.5,17.8
			h-69.7c-0.1,4.1,0.4,8,1.4,11.6c1.1,3.7,2.8,6.9,5.2,9.7c2.4,2.8,5.5,5.1,9.2,6.8c3.7,1.7,8.1,2.5,13.1,2.5
			c6.5,0,11.8-1.5,15.9-4.5c4.1-3,6.9-7.6,8.2-13.7h15.1C524.4,425.9,519.9,433.7,513,439z M509.3,379.2c-1.4-3.2-3.2-6-5.6-8.4
			c-2.3-2.3-5.1-4.2-8.3-5.6c-3.2-1.4-6.7-2.1-10.5-2.1c-4,0-7.5,0.7-10.7,2.1c-3.2,1.4-5.9,3.3-8.2,5.7c-2.3,2.4-4.1,5.2-5.4,8.4
			c-1.3,3.2-2.1,6.6-2.3,10.2h53.5C511.5,385.9,510.7,382.5,509.3,379.2z"/>
		<path class="st0" d="M583,379.3c1.9-5.9,4.8-11.1,8.6-15.5c3.8-4.4,8.6-7.8,14.2-10.4c5.6-2.5,12.1-3.8,19.4-3.8
			c7.4,0,13.9,1.3,19.5,3.8s10.3,6,14.1,10.4c3.8,4.4,6.7,9.5,8.6,15.5c1.9,5.9,2.9,12.3,2.9,19.2s-1,13.2-2.9,19.1
			c-1.9,5.9-4.8,11-8.6,15.4c-3.8,4.4-8.5,7.8-14.1,10.3s-12.1,3.7-19.5,3.7c-7.3,0-13.8-1.2-19.4-3.7c-5.6-2.5-10.4-5.9-14.2-10.3
			c-3.8-4.4-6.7-9.5-8.6-15.4c-1.9-5.9-2.9-12.2-2.9-19.1S581.1,385.3,583,379.3z M598.6,413.5c1.5,4.4,3.6,8,6.2,11
			c2.6,2.9,5.7,5.2,9.3,6.8c3.5,1.6,7.3,2.3,11.2,2.3s7.7-0.8,11.2-2.3c3.5-1.6,6.6-3.8,9.3-6.8c2.6-2.9,4.7-6.6,6.2-11
			c1.5-4.4,2.2-9.4,2.2-15c0-5.6-0.8-10.6-2.2-15c-1.5-4.4-3.6-8.1-6.2-11.1c-2.6-3-5.7-5.3-9.3-6.8c-3.5-1.6-7.3-2.3-11.2-2.3
			s-7.7,0.8-11.2,2.3c-3.5,1.6-6.6,3.8-9.3,6.8c-2.6,3-4.7,6.7-6.2,11.1c-1.5,4.4-2.2,9.4-2.2,15
			C596.3,404.1,597.1,409.1,598.6,413.5z"/>
		<path class="st0" d="M674.8,365.4v-13.5h15.7V338c0-7.6,2.2-13.3,6.6-17.2c4.4-3.9,10.8-5.9,19.2-5.9c1.4,0,3.1,0.1,4.9,0.4
			c1.9,0.2,3.5,0.6,5,1.1v13.3c-1.3-0.5-2.8-0.8-4.3-1c-1.6-0.2-3-0.3-4.3-0.3c-3.7,0-6.6,0.7-8.6,2.2c-2,1.4-3.1,4.2-3.1,8.3v13h18
			v13.5h-18v79.6h-15.3v-79.6H674.8z"/>
		<path class="st0" d="M818.6,351.9v13.5h-18.5v57.8c0,1.8,0.1,3.2,0.5,4.3c0.3,1.1,0.9,1.9,1.7,2.5c0.8,0.6,2,1,3.5,1.2
			c1.5,0.2,3.4,0.3,5.8,0.3h7v13.5h-11.7c-4,0-7.4-0.3-10.2-0.8c-2.8-0.5-5.1-1.5-6.8-3c-1.7-1.4-3-3.5-3.9-6.1
			c-0.8-2.6-1.3-6.1-1.3-10.4v-59.2h-15.8v-13.5h15.8V324h15.3v27.9H818.6z"/>
		<path class="st0" d="M846.5,316.4v49.1h0.4c1.2-2.9,2.9-5.3,5-7.3s4.6-3.6,7.3-4.9c2.7-1.3,5.5-2.2,8.5-2.8
			c2.9-0.6,5.8-0.9,8.5-0.9c6.1,0,11.2,0.8,15.3,2.5c4.1,1.7,7.4,4,9.9,7c2.5,3,4.3,6.6,5.3,10.7c1,4.1,1.5,8.7,1.5,13.8v61.2H893
			v-63c0-5.8-1.7-10.3-5-13.7c-3.4-3.4-8-5-13.9-5c-4.7,0-8.7,0.7-12.2,2.2s-6.3,3.5-8.5,6.1c-2.3,2.6-4,5.7-5.1,9.3
			c-1.1,3.5-1.7,7.4-1.7,11.6v52.6h-15.3V316.4H846.5z"/>
		<path class="st0" d="M992.9,439c-7,5.3-15.7,7.9-26.3,7.9c-7.4,0-13.9-1.2-19.4-3.6c-5.5-2.4-10.1-5.8-13.8-10.1
			c-3.7-4.3-6.5-9.5-8.4-15.5c-1.9-6-2.9-12.5-3.1-19.6c0-7.1,1.1-13.6,3.2-19.4c2.2-5.9,5.2-11,9.1-15.3c3.9-4.3,8.5-7.7,13.9-10.1
			c5.3-2.4,11.2-3.6,17.5-3.6c8.3,0,15.1,1.7,20.6,5.1c5.5,3.4,9.8,7.8,13.1,13c3.3,5.3,5.6,11,6.8,17.3c1.3,6.2,1.8,12.2,1.5,17.8
			h-69.7c-0.1,4.1,0.4,8,1.4,11.6c1.1,3.7,2.8,6.9,5.2,9.7c2.4,2.8,5.5,5.1,9.2,6.8c3.7,1.7,8.1,2.5,13.1,2.5
			c6.5,0,11.8-1.5,15.9-4.5c4.1-3,6.9-7.6,8.2-13.7h15.1C1004.3,425.9,999.8,433.7,992.9,439z M989.2,379.2c-1.4-3.2-3.2-6-5.6-8.4
			c-2.3-2.3-5.1-4.2-8.3-5.6c-3.2-1.4-6.7-2.1-10.5-2.1c-4,0-7.5,0.7-10.7,2.1c-3.2,1.4-5.9,3.3-8.2,5.7c-2.3,2.4-4.1,5.2-5.4,8.4
			c-1.3,3.2-2.1,6.6-2.3,10.2h53.5C991.4,385.9,990.5,382.5,989.2,379.2z"/>
		<path class="st0" d="M147.6,532.4c13,0,22.8,3.3,29.4,10s10,16,10,28c0,12-3.3,21.4-10,28.1c-6.7,6.7-16.5,10-29.4,9.9h-39.2v52.6
			H91.3V532.4H147.6z M141.8,594c9.7,0.1,16.8-1.9,21.3-5.9c4.5-4.1,6.8-10,6.8-17.6c0-7.7-2.2-13.5-6.8-17.5c-4.5-4-11.6-6-21.3-6
			h-33.5V594H141.8z"/>
		<path class="st0" d="M263.7,660.9v-14.8h-0.4c-3.2,5.8-7.4,10-12.4,12.7c-5,2.7-11,4.1-17.8,4.1c-6.1,0-11.2-0.8-15.3-2.4
			c-4.1-1.6-7.4-3.9-9.9-6.9c-2.5-3-4.3-6.6-5.3-10.7c-1-4.1-1.5-8.7-1.5-13.8v-61.2h15.3v63c0,5.8,1.7,10.3,5,13.7
			c3.4,3.4,8,5,13.9,5c4.7,0,8.7-0.7,12.1-2.2s6.3-3.5,8.5-6.1c2.3-2.6,4-5.7,5.1-9.3c1.1-3.5,1.7-7.4,1.7-11.6v-52.6h15.3v93.1
			H263.7z"/>
		<path class="st0" d="M312.6,532.4v48.1h0.4c2.5-5.2,6.5-8.9,11.9-11.2s11.3-3.5,17.8-3.5c7.2,0,13.5,1.3,18.8,4
			c5.3,2.6,9.8,6.2,13.3,10.7c3.5,4.5,6.2,9.7,8,15.6c1.8,5.9,2.7,12.1,2.7,18.7c0,6.6-0.9,12.8-2.6,18.7c-1.7,5.9-4.4,11-7.9,15.4
			c-3.5,4.4-8,7.8-13.3,10.4c-5.3,2.5-11.6,3.8-18.6,3.8c-2.3,0-4.8-0.2-7.6-0.7c-2.8-0.5-5.6-1.3-8.4-2.3c-2.8-1.1-5.4-2.5-7.8-4.4
			c-2.5-1.9-4.5-4.2-6.2-6.9h-0.4v12.4h-15.3V532.4H312.6z M367.6,600.9c-1.1-4.1-2.9-7.8-5.2-11.1c-2.3-3.2-5.3-5.8-9-7.7
			c-3.7-1.9-8-2.9-12.9-2.9c-5.2,0-9.5,1-13.1,3.1c-3.6,2-6.5,4.7-8.8,8c-2.3,3.3-3.9,7.1-4.9,11.2c-1,4.2-1.5,8.5-1.5,12.8
			c0,4.6,0.5,9,1.6,13.2c1.1,4.3,2.8,8,5.1,11.2c2.3,3.2,5.4,5.8,9.1,7.8c3.7,2,8.2,3,13.5,3c5.3,0,9.7-1,13.2-3.1
			c3.5-2,6.4-4.7,8.5-8.1c2.2-3.4,3.7-7.2,4.7-11.5c1-4.3,1.4-8.8,1.4-13.3C369.3,609.3,368.8,605,367.6,600.9z"/>
		<path class="st0" d="M415.4,532.4v128.5h-15.3V532.4H415.4z"/>
		<path class="st0" d="M435.8,551.1v-18.7h15.3v18.7H435.8z M451.1,567.9v93.1h-15.3v-93.1H451.1z"/>
		<path class="st0" d="M526.1,584.1c-3.8-3.2-9-4.9-15.5-4.9c-5.5,0-10.1,1-13.9,3.1c-3.7,2-6.7,4.7-8.9,8.1
			c-2.2,3.4-3.8,7.2-4.8,11.6c-1,4.4-1.4,8.9-1.4,13.6c0,4.3,0.5,8.5,1.5,12.6c1,4.1,2.6,7.7,4.8,10.9c2.2,3.2,5,5.7,8.5,7.7
			c3.5,1.9,7.6,2.9,12.4,2.9c7.6,0,13.5-2,17.7-5.9c4.3-4,6.9-9.5,7.8-16.7h15.7c-1.7,11.5-6,20.4-12.9,26.6
			c-6.9,6.2-16.3,9.4-28.2,9.4c-7.1,0-13.4-1.1-18.8-3.4c-5.5-2.3-10-5.5-13.7-9.7c-3.7-4.2-6.4-9.2-8.3-15
			c-1.9-5.8-2.8-12.2-2.8-19.2c0-7,0.9-13.5,2.7-19.5c1.8-6.1,4.5-11.3,8.2-15.8c3.7-4.5,8.2-8,13.8-10.6c5.5-2.6,11.9-3.9,19.3-3.9
			c5.3,0,10.2,0.6,14.9,1.9c4.6,1.3,8.7,3.2,12.2,5.8c3.5,2.6,6.4,6,8.7,10c2.3,4,3.7,8.8,4.3,14.3h-15.8
			C532.5,591.9,530,587.3,526.1,584.1z"/>
		<path class="st0" d="M688.5,659.4c-7.4,2.9-14.9,4.4-22.5,4.4c-9.6,0-18.2-1.8-25.7-5.3c-7.6-3.5-14-8.3-19.3-14.3
			c-5.3-6-9.3-12.9-12.1-20.7c-2.8-7.8-4.1-15.9-4.1-24.3c0-9.4,1.3-18.3,3.9-26.7c2.6-8.5,6.4-15.9,11.5-22.2
			c5.1-6.4,11.5-11.4,19.1-15.2c7.6-3.8,16.5-5.7,26.7-5.7c7,0,13.5,0.8,19.7,2.4c6.2,1.6,11.7,4.2,16.6,7.7
			c4.9,3.5,8.9,7.9,12.2,13.2c3.3,5.3,5.5,11.8,6.8,19.3h-17.1c-0.8-4.9-2.4-9.1-4.7-12.7c-2.3-3.5-5.1-6.4-8.5-8.7
			c-3.4-2.3-7.2-4-11.4-5.1c-4.3-1.1-8.8-1.7-13.6-1.7c-7.8,0-14.5,1.6-20.1,4.7c-5.6,3.1-10.1,7.2-13.7,12.3
			c-3.5,5.1-6.2,10.9-7.8,17.5c-1.7,6.5-2.5,13.2-2.5,20.1c0,6.7,1,13.2,2.9,19.3c1.9,6.2,4.7,11.6,8.5,16.4
			c3.7,4.7,8.3,8.5,13.8,11.3c5.5,2.8,11.8,4.2,19,4.2c6.7,0,12.7-1.1,17.8-3.2c5.2-2.2,9.5-5.1,13.1-8.9c3.5-3.8,6.2-8.2,8-13.3
			c1.8-5.1,2.6-10.6,2.3-16.5h-41v-14.4h56.3v67.7h-10.8l-4.5-16C702.2,651.6,695.9,656.5,688.5,659.4z"/>
		<path class="st0" d="M803.5,660.9v-14.8h-0.4c-3.2,5.8-7.4,10-12.4,12.7c-5,2.7-11,4.1-17.8,4.1c-6.1,0-11.2-0.8-15.3-2.4
			c-4.1-1.6-7.4-3.9-9.9-6.9c-2.5-3-4.3-6.6-5.3-10.7c-1-4.1-1.5-8.7-1.5-13.8v-61.2h15.3v63c0,5.8,1.7,10.3,5,13.7
			c3.4,3.4,8,5,13.9,5c4.7,0,8.7-0.7,12.1-2.2s6.3-3.5,8.5-6.1c2.3-2.6,4-5.7,5.1-9.3c1.1-3.5,1.7-7.4,1.7-11.6v-52.6h15.3v93.1
			H803.5z"/>
		<path class="st0" d="M919.1,660.6c-2.6,1.6-6.3,2.3-11,2.3c-4,0-7.1-1.1-9.4-3.3c-2.3-2.2-3.5-5.9-3.5-10.9
			c-4.2,5-9.1,8.7-14.7,10.9c-5.6,2.2-11.6,3.3-18.1,3.3c-4.2,0-8.2-0.5-12-1.4c-3.8-1-7.1-2.5-9.8-4.5c-2.8-2-4.9-4.7-6.6-8
			c-1.6-3.3-2.4-7.3-2.4-12c0-5.3,0.9-9.6,2.7-13c1.8-3.4,4.2-6.1,7.1-8.2c2.9-2.1,6.3-3.7,10.1-4.8c3.8-1.1,7.6-2,11.6-2.7
			c4.2-0.8,8.2-1.5,12-1.9c3.8-0.4,7.1-1,10-1.8c2.9-0.8,5.2-1.9,6.8-3.4c1.7-1.5,2.5-3.7,2.5-6.6c0-3.4-0.6-6.1-1.9-8.1
			c-1.3-2-2.9-3.6-4.9-4.7c-2-1.1-4.2-1.8-6.7-2.2c-2.5-0.4-4.9-0.5-7.3-0.5c-6.5,0-11.9,1.2-16.2,3.7c-4.3,2.5-6.7,7.1-7,14h-15.3
			c0.2-5.8,1.4-10.6,3.6-14.6s5-7.2,8.6-9.6c3.6-2.5,7.7-4.2,12.3-5.3c4.6-1.1,9.6-1.6,14.8-1.6c4.2,0,8.4,0.3,12.5,0.9
			c4.1,0.6,7.9,1.8,11.2,3.7s6.1,4.5,8.1,7.8c2,3.4,3.1,7.7,3.1,13.1V639c0,3.6,0.2,6.2,0.6,7.9c0.4,1.7,1.8,2.5,4.2,2.5
			c1.3,0,2.9-0.2,4.7-0.7V660.6z M894.2,612.9c-1.9,1.4-4.4,2.5-7.6,3.1c-3.1,0.7-6.4,1.2-9.8,1.6c-3.4,0.4-6.9,0.9-10.3,1.4
			c-3.5,0.5-6.6,1.4-9.4,2.6c-2.8,1.2-5,2.9-6.8,5.1c-1.7,2.2-2.6,5.2-2.6,9c0,2.5,0.5,4.6,1.5,6.4c1,1.7,2.3,3.1,4,4.2
			c1.6,1.1,3.5,1.9,5.7,2.3s4.4,0.7,6.8,0.7c5,0,9.4-0.7,13-2.1c3.6-1.4,6.5-3.1,8.8-5.2c2.3-2.1,4-4.4,5-6.8
			c1.1-2.4,1.6-4.7,1.6-6.9V612.9z"/>
		<path class="st0" d="M942.8,567.9v19.6h0.4c3.7-7.6,8.3-13.1,13.7-16.7c5.4-3.6,12.2-5.3,20.5-5v16.2c-6.1,0-11.3,0.8-15.7,2.5
			c-4.3,1.7-7.8,4.1-10.4,7.4c-2.6,3.2-4.6,7.2-5.8,11.8c-1.2,4.6-1.8,9.9-1.8,15.9v41.4h-15.3v-93.1H942.8z"/>
		<path class="st0" d="M1052.4,660.9v-12.6h-0.4c-2.5,5.2-6.5,8.9-11.9,11.2c-5.4,2.3-11.3,3.4-17.8,3.4c-7.2,0-13.5-1.3-18.8-4
			c-5.3-2.6-9.8-6.2-13.3-10.6c-3.5-4.4-6.2-9.6-8-15.5c-1.8-5.9-2.7-12.1-2.7-18.7c0-6.6,0.9-12.8,2.6-18.7
			c1.7-5.9,4.4-11,7.9-15.4c3.5-4.4,8-7.9,13.3-10.4c5.3-2.6,11.5-3.9,18.6-3.9c2.4,0,5,0.2,7.7,0.7c2.8,0.5,5.5,1.3,8.3,2.4
			c2.8,1.1,5.4,2.6,7.8,4.5c2.5,1.9,4.5,4.2,6.2,6.9h0.4v-47.9h15.3v128.5H1052.4z M997.4,627.9c1.1,4.1,2.9,7.8,5.2,11.1
			c2.3,3.2,5.3,5.8,9,7.7c3.7,1.9,7.9,2.9,12.9,2.9c5.2,0,9.5-1,13.1-3.1c3.6-2,6.5-4.7,8.8-8c2.3-3.3,3.9-7,4.9-11.2
			c1-4.2,1.5-8.5,1.5-12.8c0-4.6-0.5-9-1.6-13.2c-1.1-4.3-2.8-8-5.1-11.2s-5.4-5.8-9.1-7.8c-3.7-2-8.2-3-13.5-3
			c-5.2,0-9.5,1-13.1,3.1c-3.6,2-6.5,4.7-8.6,8.1c-2.2,3.4-3.7,7.2-4.7,11.5c-1,4.3-1.4,8.8-1.4,13.3
			C995.7,619.5,996.3,623.8,997.4,627.9z"/>
		<path class="st0" d="M1087.9,551.1v-18.7h15.3v18.7H1087.9z M1103.2,567.9v93.1h-15.3v-93.1H1103.2z"/>
		<path class="st0" d="M1205.1,660.6c-2.6,1.6-6.3,2.3-11,2.3c-4,0-7.1-1.1-9.5-3.3c-2.3-2.2-3.5-5.9-3.5-10.9
			c-4.2,5-9.1,8.7-14.7,10.9c-5.6,2.2-11.6,3.3-18.1,3.3c-4.2,0-8.2-0.5-12-1.4s-7.1-2.5-9.8-4.5c-2.8-2-5-4.7-6.6-8
			c-1.6-3.3-2.4-7.3-2.4-12c0-5.3,0.9-9.6,2.7-13c1.8-3.4,4.2-6.1,7.1-8.2c2.9-2.1,6.3-3.7,10.1-4.8s7.6-2,11.6-2.7
			c4.2-0.8,8.2-1.5,12-1.9c3.8-0.4,7.1-1,10-1.8c2.9-0.8,5.2-1.9,6.8-3.4c1.7-1.5,2.5-3.7,2.5-6.6c0-3.4-0.6-6.1-1.9-8.1
			c-1.3-2-2.9-3.6-4.9-4.7c-2-1.1-4.2-1.8-6.7-2.2c-2.5-0.4-4.9-0.5-7.3-0.5c-6.5,0-11.9,1.2-16.2,3.7c-4.3,2.5-6.7,7.1-7,14h-15.3
			c0.2-5.8,1.4-10.6,3.6-14.6s5-7.2,8.6-9.6c3.6-2.5,7.7-4.2,12.3-5.3c4.6-1.1,9.6-1.6,14.8-1.6c4.2,0,8.4,0.3,12.5,0.9
			c4.1,0.6,7.9,1.8,11.2,3.7c3.4,1.9,6.1,4.5,8.1,7.8c2,3.4,3.1,7.7,3.1,13.1V639c0,3.6,0.2,6.2,0.6,7.9c0.4,1.7,1.8,2.5,4.2,2.5
			c1.3,0,2.9-0.2,4.7-0.7V660.6z M1180.2,612.9c-1.9,1.4-4.4,2.5-7.6,3.1c-3.1,0.7-6.4,1.2-9.8,1.6c-3.4,0.4-6.9,0.9-10.3,1.4
			c-3.5,0.5-6.6,1.4-9.4,2.6c-2.8,1.2-5,2.9-6.8,5.1c-1.7,2.2-2.6,5.2-2.6,9c0,2.5,0.5,4.6,1.5,6.4c1,1.7,2.3,3.1,4,4.2
			c1.6,1.1,3.5,1.9,5.7,2.3s4.4,0.7,6.8,0.7c5,0,9.4-0.7,13-2.1c3.6-1.4,6.5-3.1,8.8-5.2c2.3-2.1,4-4.4,5-6.8
			c1.1-2.4,1.6-4.7,1.6-6.9V612.9z"/>
		<path class="st0" d="M1229.4,567.9v14.8h0.4c6.4-11.3,16.4-16.9,30.2-16.9c6.1,0,11.2,0.8,15.3,2.5c4.1,1.7,7.4,4,9.9,7
			c2.5,3,4.3,6.6,5.3,10.7c1,4.1,1.5,8.7,1.5,13.8v61.2h-15.3v-63c0-5.8-1.7-10.3-5-13.7c-3.4-3.4-8-5-13.9-5
			c-4.7,0-8.7,0.7-12.2,2.2c-3.4,1.4-6.3,3.5-8.5,6.1c-2.3,2.6-4,5.7-5.1,9.3c-1.1,3.5-1.7,7.4-1.7,11.6v52.6H1215v-93.1H1229.4z"/>
	</g>
	<line class="st1" x1="7.5" y1="0.9" x2="7.5" y2="661"/>
	<g>
		<path class="st2" d="M204.7,40.5c-1.5,3-3,4.5-3,6c0,1.5,3,3,3,6c1.5-3,3-4.5,3-6C207.7,45,204.7,42,204.7,40.5"/>
		<path class="st2" d="M240.7,40.5c1.5,3,3,4.5,3,6c0,1.5-3,3-3,6c-1.5-3-3-4.5-3-6C237.7,45,240.7,42,240.7,40.5"/>
		<path class="st2" d="M183.7,39c1.5,0,3-1.5,3-3c0-1.5-1.5-3-3-3s-3,1.5-3,3S182.2,39,183.7,39"/>
		<path class="st2" d="M185.2,42c0-1.5-1.5-3-3-3c-1.5,0-3,1.5-3,3c1.5,1.5,3,3,4.5,3C183.7,45,185.2,43.5,185.2,42"/>
		<path class="st2" d="M186.7,48c0-1.5-1.5-3-3-3c-1.5,0-3,1.5-3,3s1.5,3,3,3C185.2,51,186.7,49.5,186.7,48"/>
		<path class="st2" d="M197.2,27c1.5,0,3-1.5,3-3c0-1.5-1.5-3-3-3c-1.5,1.5-1.5,3-1.5,4.5C195.7,25.5,195.7,27,197.2,27"/>
		<path class="st2" d="M191.2,28.5c1.5,0,3-1.5,3-3c0-1.5-1.5-3-3-3s-3,1.5-3,3C188.2,28.5,189.7,28.5,191.2,28.5"/>
		<path class="st2" d="M186.7,33c1.5,0,3-1.5,3-3s-1.5-3-3-3c-1.5,0-3,1.5-3,3C183.7,33,185.2,33,186.7,33"/>
		<path class="st2" d="M204.7,28.5c1.5,0,3-1.5,3-3c0-1.5-1.5-3-3-3c-1.5,0-3,1.5-3,3C201.7,27,203.2,28.5,204.7,28.5"/>
		<path class="st2" d="M210.7,30c1.5,0,3-1.5,3-3s-1.5-3-3-3c-1.5,0-3,1.5-3,3S209.2,30,210.7,30"/>
		<path class="st2" d="M215.2,33c1.5,0,3-1.5,3-3s-1.5-3-3-3c-1.5,0-3,1.5-3,3C213.7,31.5,215.2,33,215.2,33"/>
		<path class="st2" d="M260.2,36c0,1.5,1.5,3,3,3s3-1.5,3-3c0-1.5-1.5-3-3-3C261.7,34.5,260.2,36,260.2,36"/>
		<path class="st2" d="M263.2,40.5c-1.5,0-3,1.5-3,3s1.5,3,3,3s3-1.5,3-3C266.2,42,264.7,40.5,263.2,40.5"/>
		<path class="st2" d="M261.7,46.5c-1.5,0-3,1.5-3,3c0,1.5,1.5,3,3,3s3-1.5,3-3C264.7,46.5,263.2,46.5,261.7,46.5"/>
		<path class="st2" d="M248.2,27c1.5,0,3-1.5,3-3c0-1.5-1.5-3-3-3s-3,1.5-3,3C246.7,25.5,246.7,27,248.2,27"/>
		<path class="st2" d="M254.2,28.5c1.5,0,3-1.5,3-3c0-1.5-1.5-3-3-3c-1.5,0-3,1.5-3,3C252.7,28.5,254.2,28.5,254.2,28.5"/>
		<path class="st2" d="M260.2,33c1.5,0,3-1.5,3-3s-1.5-3-3-3c-1.5,0-3,1.5-3,3C257.2,33,258.7,33,260.2,33"/>
		<path class="st2" d="M242.2,28.5c1.5,0,3-1.5,3-3c0-1.5-1.5-3-3-3c-1.5,0-3,1.5-3,3C239.2,27,240.7,28.5,242.2,28.5"/>
		<path class="st2" d="M236.2,30c1.5,0,3-1.5,3-3s-1.5-3-3-3c-1.5,0-3,1.5-3,3S234.7,30,236.2,30"/>
		<path class="st2" d="M227.2,30c0,1.5,1.5,3,3,3s3-1.5,3-3s-1.5-3-3-3C228.7,27,227.2,28.5,227.2,30"/>
		<path class="st2" d="M218.2,43.5h3V33c-1.5,0-1.5,0-3-1.5V43.5z"/>
		<path class="st2" d="M227.2,31.5c-1.5,0-1.5,0-3,1.5v10.5h3V31.5z"/>
		<path class="st2" d="M221.2,19.5v-6c-3,0-6,3-6,6H221.2z"/>
		<path class="st2" d="M224.2,19.5h6c0-3-3-6-6-6V19.5z"/>
		<path class="st2" d="M215.2,22.5c1.5,4.5,4.5,7.5,7.5,7.5s7.5-3,7.5-6h-15V22.5z"/>
		<path class="st2" d="M227.2,13.5c-1.5-1.5-3-3-3-6c1.5,0,4.5,1.5,6,3V3c-1.5,1.5-3,3-6,3c0-1.5,1.5-4.5,3-6h-7.5
			c1.5,1.5,3,4.5,3,6c-1.5,0-4.5-1.5-6-3v9c1.5-1.5,3-3,6-3c0,1.5-1.5,4.5-3,6h7.5V13.5z"/>
		<path class="st2" d="M227.2,190.5c-1.5,0-3-1.5-3-3c0-1.5,1.5-3,3-3c1.5,0,3,1.5,3,3C230.2,189,228.7,190.5,227.2,190.5
			 M213.7,186c-1.5,0-3-1.5-3-3c0-1.5,1.5-3,3-3c1.5,0,3,1.5,3,3S215.2,186,213.7,186 M207.7,171L207.7,171c-3-1.5-3-1.5-4.5,0
			l-1.5,1.5l-1.5,1.5l0,0c1.5,1.5,1.5,3,1.5,3s0,0-1.5,0c-1.5,0-1.5,0-3-1.5l0,0l0,0l0,0l0,0c-1.5,4.5-1.5,4.5-1.5,6l0,0
			c0,1.5,1.5,1.5,1.5,1.5l0,0c0,0,1.5,1.5,3,1.5c-1.5,1.5-3,1.5-4.5,0c-1.5-1.5-3-3-3-4.5c0-1.5,1.5-4.5,3-6l0,0l0,0
			c0-1.5-1.5-1.5-1.5-1.5c1.5,0,1.5,0,3,0l0,0l0,0c1.5-1.5,4.5-4.5,7.5-4.5C206.2,168,207.7,168,207.7,171
			C209.2,169.5,209.2,171,207.7,171C209.2,171,209.2,171,207.7,171 M236.2,183c-7.5-1.5-16.5-6-25.5-9l0,0c0-1.5,0-3-1.5-4.5
			c-1.5-1.5-3-3-4.5-3s-1.5,0-3,0c-1.5-1.5-3-3-3-3c-3-4.5-6-9-7.5-13.5c-1.5-3-1.5-6-1.5-9c0,3-3,6-7.5,6v-1.5
			c-1.5,1.5-3,3-7.5,1.5c0,3,1.5,7.5,3,10.5c3,7.5,6,13.5,10.5,18c1.5,1.5,3,3,4.5,4.5c0,0,0,0,0,1.5c0,1.5,1.5,4.5,4.5,6
			c1.5,1.5,4.5,0,6,0c4.5,1.5,9,4.5,13.5,6c6,1.5,12,3,16.5,3s9-1.5,13.5-4.5c1.5-1.5,4.5-3,4.5-4.5l0,0
			C246.7,184.5,240.7,183,236.2,183"/>
		<path class="st2" d="M234.7,214.5c0-1.5-1.5-1.5-1.5-1.5c-3,0-1.5,9-6,9c-1.5,0-3-1.5-3-1.5c0-1.5,1.5-1.5,1.5-3
			c0-1.5-1.5-1.5-1.5-1.5c-1.5,0-1.5,0-1.5,1.5c0,1.5,1.5,1.5,1.5,3c0,1.5-1.5,1.5-3,1.5c-4.5,0-3-9-6-9c0,0-1.5,0-1.5,1.5
			c0-1.5-1.5-3-1.5-3c0-1.5,1.5-3,3-3c4.5,0,3,6,6,6c1.5,0,1.5,0,1.5-1.5s-3-3-3-6c0-3,1.5-4.5,4.5-6c3,1.5,4.5,4.5,4.5,6
			c0,3-3,4.5-3,6c0,1.5,0,1.5,1.5,1.5s1.5-6,6-6c3,0,3,1.5,3,3C234.7,211.5,234.7,213,234.7,214.5 M222.7,225
			c-1.5,0-1.5-1.5-1.5-1.5c0-1.5,1.5-1.5,1.5-1.5c1.5,0,1.5,1.5,1.5,1.5C225.7,225,224.2,225,222.7,225 M231.7,205.5h-1.5v-9
			c-4.5,0-9-1.5-13.5-1.5v12h-1.5c-3,0-6,3-6,6s1.5,4.5,3,6c0-1.5,1.5-3,1.5-3c1.5,0,1.5,7.5,6,9v1.5c0,1.5,1.5,3,3,3s3-1.5,3-3V225
			c4.5,0,4.5-9,6-9c1.5,0,1.5,1.5,1.5,3c1.5-1.5,3-3,3-6C236.2,208.5,234.7,205.5,231.7,205.5"/>
		<path class="st2" d="M341.2,216C341.2,216,339.7,216,341.2,216c-12,3-25.5-6-39-15c-10.5-7.5-21-13.5-30-13.5c-3,0-6,0-9,1.5
			c-3,1.5-6,4.5-7.5,7.5c-1.5,3-3,6-4.5,7.5c-1.5,3-3,4.5-3,6c0,1.5,1.5,3,3,4.5c1.5,1.5,3,3,6,4.5c0,0,1.5,0,1.5,1.5
			c1.5,1.5,3,1.5,3,3c-4.5,1.5-10.5,3-16.5,4.5c-7.5,1.5-15,1.5-22.5,1.5c-9,0-16.5,0-22.5-1.5c-6-1.5-12-3-16.5-4.5
			c0-1.5,1.5-3,4.5-3c0,0,1.5,0,1.5-1.5c1.5-1.5,4.5-3,6-3c1.5-1.5,3-3,3-4.5c0-1.5-1.5-4.5-3-6c-1.5-1.5-3-4.5-4.5-7.5
			s-4.5-6-7.5-7.5c-3-1.5-6-1.5-9-1.5c-9,0-19.5,7.5-30,13.5c-13.5,9-27,18-37.5,15h-1.5v1.5c3,1.5,6,3,9,6c4.5,3,7.5,6,12,6
			s7.5-1.5,13.5-4.5c4.5-3,9-6,13.5-9c9-6,18-12,25.5-12c-1.5,1.5-1.5,1.5-3,3c-3,1.5-4.5,4.5-4.5,7.5s1.5,4.5,3,9
			c0,1.5,1.5,1.5,1.5,3c1.5,1.5,1.5,3,1.5,6c0,1.5,0,1.5,1.5,3c0,1.5,1.5,6,7.5,9c7.5,3,19.5,6,36,6s30-1.5,36-6c6-3,7.5-7.5,7.5-9
			c0-1.5,0-3,1.5-3c0-3,1.5-4.5,1.5-6s1.5-3,1.5-4.5c1.5-3,3-4.5,3-7.5c0-4.5-3-6-4.5-9c-1.5,0-1.5-1.5-3-3c9,0,18,6,25.5,12
			c4.5,3,9,6,13.5,9c4.5,3,9,4.5,13.5,4.5c4.5,0,7.5-3,12-6C333.7,222,336.7,219,341.2,216C341.2,217.5,341.2,217.5,341.2,216"/>
		<path class="st2" d="M224.2,132V91.5c4.5,0,9,1.5,12,3c4.5,1.5,7.5,4.5,12,9c3,4.5,6,9,7.5,13.5s3,10.5,3,15
			C258.7,132,224.2,132,224.2,132z M222.7,73.5c-12,0-19.5,3-24,6c-3,0-3-1.5-3-4.5c0-6,18-7.5,28.5-7.5l0,0c9,0,28.5,0,28.5,7.5
			c0,1.5-1.5,3-4.5,4.5C242.2,78,234.7,73.5,222.7,73.5 M222.7,132h-34.5c0-6,1.5-10.5,3-15c1.5-4.5,4.5-9,7.5-13.5
			c3-4.5,7.5-7.5,12-9c4.5-1.5,9-3,13.5-3L222.7,132L222.7,132z M275.2,129c-1.5-1.5-3-3-4.5-4.5c-1.5-3-6-13.5-7.5-15
			c0-1.5-1.5-1.5-1.5-3s0-1.5,1.5-3c0,0,1.5-1.5,1.5-3c0,0,0-1.5,1.5-1.5c-1.5-3-4.5-6-6-9c-3-3-6-6-10.5-9c1.5-1.5,4.5-3,4.5-6
			c0-1.5-1.5-3-1.5-4.5c1.5-7.5,6-15,9-19.5l-7.5-3c1.5,4.5,1.5,7.5,1.5,9c-1.5-1.5-3-3-4.5-6c0,1.5-1.5,6-3,7.5c1.5-1.5,3-1.5,6,0
			c-1.5,1.5-4.5,4.5-9,3c-1.5,0-4.5-1.5-4.5-3s1.5-3,3-3c1.5,0,1.5,3,1.5,3c1.5-1.5,4.5-7.5,1.5-7.5c-3,0-4.5,3-6,6c0-3-1.5-6-4.5-6
			c-3,0-1.5,6-1.5,7.5c0-1.5,1.5-3,3-3c1.5,0,1.5,0,1.5,3c0,1.5-3,1.5-6,1.5s-7.5-1.5-9-6c1.5,0,4.5,1.5,6,3c0-3,0-6,0-9
			c-1.5,3-4.5,3-6,3c0-3,3-4.5,4.5-6h-12c3,1.5,4.5,4.5,4.5,6c-1.5,0-4.5-1.5-6-3c0,3,0,6,0,9c1.5-1.5,4.5-3,6-3c0,6-4.5,6-7.5,6
			c-3,0-6,0-6-3c0-1.5,1.5-3,1.5-3c1.5,1.5,1.5,1.5,1.5,4.5c1.5-1.5,1.5-7.5-1.5-7.5c-3,0-4.5,3-4.5,6c-1.5-3-3-6-6-6
			c-3,1.5-1.5,6,1.5,7.5c0-1.5,0-3,1.5-3s3,1.5,3,3c0,1.5-3,3-4.5,4.5c-4.5,0-7.5-3-9-4.5c1.5-1.5,3,0,6,0c-1.5-1.5-1.5-4.5-3-7.5
			c0,3-1.5,4.5-4.5,6c0-1.5,0-4.5,1.5-7.5l-7.5,3c3,3,7.5,12,9,19.5c-1.5,1.5-1.5,3-1.5,4.5c0,3,1.5,4.5,4.5,6c-4.5,3-7.5,6-10.5,9
			c-4.5,6-9,12-10.5,18c1.5,1.5,6,6,6,7.5c1.5,1.5,3,4.5,3,6c0,3,1.5,4.5,3,6c0,0,1.5,3,1.5,4.5h34.5V171c-1.5,0-3,0-4.5,1.5
			c4.5,1.5,7.5,3,12,4.5c0-3,1.5-4.5,1.5-6c0,0-4.5,0-7.5,0v-37.5h34.5c0,4.5-1.5,10.5-3,15s-4.5,9-7.5,13.5c-3,4.5-7.5,7.5-12,9
			c0,0,0,1.5-1.5,1.5c0,0-1.5,1.5-1.5,3s0,1.5-1.5,3c1.5,0,3,0,4.5,1.5c12,3,15,1.5,15,1.5l0,0c3-1.5,4.5-4.5,7.5-7.5
			c4.5-6,9-12,10.5-18c3-7.5,4.5-15,4.5-22.5C275.2,132,275.2,130.5,275.2,129"/>
		<path class="st2" d="M243.7,108L243.7,108C243.7,109.5,243.7,109.5,243.7,108c0,1.5,0,3-1.5,3h1.5v1.5c0,0,0,0,1.5,0
			c3,4.5,4.5,9,4.5,13.5c0,0,0,0-1.5,0v1.5h-9V126c0,0,0,0-1.5,0v-1.5v1.5h-1.5c0,0,0,0,0,1.5h-7.5V126h-1.5v-12h1.5v-1.5h1.5h-1.5
			V111c0,0,0,0-1.5,0V99c0,0,0,0,1.5,0v-1.5c3,0,4.5,1.5,6,3C239.2,103.5,242.2,105,243.7,108 M252.7,126
			C254.2,126,254.2,126,252.7,126c-1.5-4.5-3-10.5-7.5-16.5l0,0l1.5-1.5c-1.5,0-1.5,0-1.5,1.5c0,0,0,0-1.5-1.5c-1.5-3-3-6-6-7.5
			c-3-1.5-6-3-7.5-3c0,0,1.5-1.5,1.5,0c0-1.5-1.5-1.5-1.5-1.5s0,0,0,1.5c0,0-1.5,0-1.5-1.5v1.5c0,0,0,0-1.5,0c0,0,0,1.5,1.5,1.5
			v-1.5V111h-1.5c0,0,1.5,1.5,1.5,0v15c0,0-1.5-1.5,0-1.5c-1.5,0-1.5,1.5-1.5,1.5s0,0,1.5,0v1.5h1.5v1.5c0,0,1.5,0,1.5-1.5h-1.5
			h10.5v1.5c0,0,1.5-1.5,0-1.5h10.5c0,0-1.5,1.5-1.5,0c0,1.5,1.5,1.5,1.5,1.5s0,0,0-1.5h1.5L252.7,126
			C254.2,127.5,254.2,127.5,252.7,126C254.2,126,254.2,126,252.7,126"/>
		<path class="st2" d="M246.7,121.5C248.2,121.5,248.2,121.5,246.7,121.5C248.2,121.5,246.7,121.5,246.7,121.5c0-1.5,0-1.5,0-1.5
			s0,0-1.5,0c0,0-3,0-3-1.5c0,0,0,0,1.5,1.5l0,0l0,0c0,0,0,0,1.5,0l0,0l0,0c0,0,1.5,0,1.5-1.5s-1.5-1.5-1.5-3c0,0-1.5,0-1.5-1.5
			s0-1.5-1.5-3v-1.5c0,1.5-1.5,3,0,4.5c1.5,1.5,3,3,3,3l0,0l0,0l0,0l0,0c0,0,0,0-1.5,0c-1.5-1.5-1.5-3-3-3c-1.5-1.5,0-3,0-4.5
			c1.5-1.5,0-3-1.5-4.5c0,0,0,0,0-1.5l0,0l0,0l0,0l0,0l0,0c0,0,0,0-1.5,0l0,0l0,0l0,0l0,0l0,0h1.5l0,0c0,0,0,0-1.5,0l0,0
			c0,0,0,0,1.5,0h1.5c0,1.5-1.5,1.5-1.5,3c0,0,0,0-1.5-1.5c0,0,0-1.5-1.5-1.5c0,0,0,0-1.5-1.5c0,0,0,0,0-1.5V99l0,0l0,0l0,0l0,0l0,0
			l0,0l0,0l0,0c0,0,0,0,0-1.5l0,0l0,0l0,0l0,0l0,0l0,0l0,0l0,0l0,0h-1.5l0,0l0,0l0,0l0,0l0,0l0,0l0,0l0,0l0,0c0,0,0,0,0,1.5h-1.5
			c0,1.5,0,1.5,1.5,1.5v1.5l0,0l0,0l0,0l0,0l0,0c0,0,1.5,1.5,3,3l-1.5,1.5c0,0-1.5,1.5-1.5,0l0,0l0,0l0,0c0,0,0,0-1.5,0l0,0l0,0
			c0,0,0,0,1.5,0l0,0l0,0l0,0l0,0l0,0c0,0,0,0,0,1.5l0,0l0,0c0,0,0,0,1.5,0l0,0v1.5l0,0l0,0c0,0,0,0,1.5,0l0,0l0,0c0,0,0,0,0-1.5
			l0,0l0,0l0,0h1.5c0,0,0,0,1.5-1.5h1.5c0,0,0,0,0-1.5c0,1.5,3,1.5,3,3c-1.5,0-1.5,0-3,0l-1.5,1.5c0,0,0,1.5,1.5,3
			c-1.5,0-1.5,0-1.5,0l0,0c0,0,0-1.5-1.5-1.5l0,0l0,0l0,0l0,0l0,0l0,0l0,0l0,0h-1.5l0,0l0,0l0,0l0,0l0,0l0,0l0,0l0,0l0,0
			c0,0,0,0,1.5,0l0,0l0,0l0,0l0,0l0,0l0,0l0,0l0,0l0,0c0,0,0,0,1.5,0l0,0c0,0,0,0,1.5,0l0,0c0,0,0,0,0-1.5s1.5-1.5,1.5-1.5
			s1.5,3,3,3s1.5,0,1.5,0C245.2,121.5,245.2,121.5,246.7,121.5C245.2,121.5,245.2,121.5,246.7,121.5c-1.5,1.5-1.5,1.5-3,1.5l0,0l0,0
			l0,0l0,0c0,0,0,0,1.5,0l0,0l0,0l0,0l0,0l0,0l0,0l0,0l0,0l0,0l0,0c0,0,0,0,1.5,0l0,0l0,0C246.7,123,246.7,123,246.7,121.5
			C246.7,123,246.7,123,246.7,121.5C246.7,123,246.7,123,246.7,121.5C248.2,123,248.2,121.5,246.7,121.5
			C248.2,121.5,246.7,121.5,246.7,121.5L246.7,121.5z"/>
		<path class="st2" d="M215.2,141L215.2,141c-1.5,0-1.5,0-1.5,1.5c0,0,0,1.5,1.5,1.5l0,0l0,0c0,1.5,0,3,0,4.5l-4.5-7.5
			C213.7,139.5,215.2,139.5,215.2,141C215.2,138,215.2,139.5,215.2,141 M213.7,153l-7.5-12c1.5,0,1.5,0,3-1.5l6,9
			C213.7,151.5,213.7,153,213.7,153 M212.2,159l-12-16.5c0,0,0,0,1.5,0h1.5l9,13.5C213.7,156,213.7,157.5,212.2,159 M200.2,142.5
			l12,18C206.2,157.5,198.7,151.5,200.2,142.5 M218.2,141L218.2,141L218.2,141c0-3-1.5-4.5-4.5-4.5c-1.5,0-6,3-10.5,3
			c-3,0-4.5-1.5-6-1.5v1.5l0,0c0,0,0-1.5-1.5-1.5c0,0-1.5,0-1.5,1.5c0,0,0,1.5,1.5,1.5h1.5v1.5l0,0c-1.5,7.5,4.5,18,15,21
			c1.5,0,3,0,3,1.5c0,1.5,0,1.5-1.5,1.5c0,0-1.5,0-1.5-1.5c0,0,1.5,0,1.5-1.5c0,0,0-1.5-1.5-1.5c0,0-1.5,0-1.5,1.5c0,1.5,1.5,3,3,3
			c1.5,0,3,0,3-3h1.5V162l0,0v-18l0,0C219.7,142.5,219.7,142.5,218.2,141C219.7,141,219.7,141,218.2,141"/>
		<path class="st2" d="M209.2,102L209.2,102L209.2,102L209.2,102L209.2,102C209.2,100.5,209.2,102,209.2,102
			C209.2,100.5,209.2,100.5,209.2,102C209.2,100.5,209.2,100.5,209.2,102L209.2,102C210.7,102,210.7,102,209.2,102
			C210.7,102,210.7,102,209.2,102C210.7,102,210.7,102,209.2,102C210.7,102,210.7,102,209.2,102C210.7,102,210.7,102,209.2,102
			L209.2,102C210.7,102,210.7,102,209.2,102C209.2,102,209.2,103.5,209.2,102L209.2,102 M210.7,100.5
			C210.7,100.5,209.2,100.5,210.7,100.5C209.2,100.5,209.2,100.5,210.7,100.5C209.2,100.5,210.7,100.5,210.7,100.5 M210.7,100.5
			L210.7,100.5C210.7,100.5,210.7,102,210.7,100.5C210.7,102,210.7,100.5,210.7,100.5 M209.2,100.5L209.2,100.5L209.2,100.5
			 M216.7,103.5c3,0,3-1.5,3-1.5c0-3-7.5-1.5-7.5-3c0,0,0,0,0-1.5l0,0c3,0,3-3,6-3c-3,0-3,1.5-4.5,1.5l1.5-1.5c0,1.5-1.5,1.5-3,1.5
			l0,0c0,0,0,0,0,1.5c0,3,7.5,1.5,7.5,3C219.7,103.5,218.2,103.5,216.7,103.5c-1.5,0-3-1.5-4.5-1.5c0,0,1.5-1.5,0-1.5l0,0l0,0l0,0
			l0,0l0,0l0,0l0,0l0,0l0,0l0,0l0,0l0,0v1.5l0,0v1.5l0,0c0,0,0,0,0-1.5c0,0,0,0,0-1.5l0,0l0,0l0,0l0,0l0,0l0,0l0,0l0,0l0,0l0,0l0,0
			l0,0l0,0l0,0l0,0l0,0l0,0l0,0c0,0,0,0-1.5,0l0,0l0,0l0,0l0,0l0,0l0,0l0,0l0,0l0,0l0,0l0,0h-1.5c0,0,0,1.5,1.5,1.5l0,0l0,0l0,0l0,0
			l0,0l0,0c0,0,0,0,0,1.5h-1.5h-1.5h-1.5l0,0l0,0l0,0l0,0l0,0l0,0l0,0l0,0l0,0l0,0l0,0l0,0l0,0l0,0l0,0c0,0,0,0,1.5,0l0,0l0,0l0,0
			l0,0l0,0l0,0l0,0l0,0l0,0l0,0l0,0l0,0l0,0l0,0l0,0l0,0l0,0l0,0l0,0l0,0l0,0l0,0l0,0c0-1.5,0,0,1.5-1.5l0,0l0,0l0,0l0,0l0,0l0,0
			h1.5c1.5,0-1.5-1.5,1.5-1.5c0,0,0,0,1.5,0v1.5l0,0l0,0l0,0c0,0,0-1.5-1.5,0l0,0l0,0l0,0l0,0l0,0l0,0l0,0c0,0-1.5,0,0,0l0,0l0,0
			l0,0l0,0l0,0l0,0l0,0l0,0l0,0l0,0l0,0l0,0l0,0l0,0l0,0l0,0l0,0l0,0l0,0h1.5v-1.5C215.2,106.5,215.2,105,216.7,103.5
			C215.2,105,216.7,105,216.7,103.5C216.7,105,216.7,105,216.7,103.5c0,1.5,1.5,1.5,1.5,1.5l0,0c0,0,0,0,0,1.5c0,0,0,0-1.5,0l0,0
			l0,0l0,0l0,0l0,0l0,0l0,0l0,0l0,0l0,0l0,0l0,0l0,0l0,0l0,0l0,0l0,0l0,0l0,0l0,0l0,0l0,0l0,0l0,0l0,0l0,0l0,0l0,0l0,0
			C218.2,105,218.2,103.5,216.7,103.5L216.7,103.5"/>
		<path class="st2" d="M204.7,117L204.7,117L204.7,117 M203.2,112.5L203.2,112.5L203.2,112.5L203.2,112.5L203.2,112.5
			C203.2,111,203.2,112.5,203.2,112.5C203.2,111,203.2,111,203.2,112.5C203.2,111,203.2,111,203.2,112.5L203.2,112.5
			C204.7,112.5,204.7,112.5,203.2,112.5C204.7,112.5,204.7,112.5,203.2,112.5C204.7,112.5,204.7,112.5,203.2,112.5
			C204.7,112.5,204.7,112.5,203.2,112.5C204.7,112.5,204.7,112.5,203.2,112.5L203.2,112.5C204.7,112.5,204.7,112.5,203.2,112.5
			C203.2,114,203.2,114,203.2,112.5L203.2,112.5 M204.7,111C204.7,111,203.2,111,204.7,111C203.2,111,203.2,111,204.7,111
			C203.2,111,204.7,111,204.7,111 M204.7,111L204.7,111C204.7,111,204.7,112.5,204.7,111C204.7,112.5,204.7,111,204.7,111
			 M200.2,114L200.2,114L200.2,114 M219.7,112.5c0,0-1.5-1.5-3-1.5c-3,0-7.5,1.5-7.5,0c0,0,1.5,0,3,0l0,0c3,1.5,7.5,0,9,0
			c-1.5-1.5-4.5,0-6,0c1.5,0,1.5,0,1.5-1.5c-1.5,0-3,0-4.5,0l0,0c-1.5,0-3,0-3,1.5C209.2,114,215.2,112.5,219.7,112.5
			C218.2,112.5,219.7,112.5,219.7,112.5c-1.5,0-3,0-4.5,0c-1.5,0-7.5-1.5-10.5,0c0,0,1.5-1.5,0-1.5l0,0l0,0l0,0l0,0l0,0l0,0l0,0l0,0
			l0,0c0,0,0,0,0,1.5c0,0,0,1.5-1.5,0l0,0v1.5l0,0c0,0,0,0,0,1.5l0,0l0,0l0,0l0,0l0,0c0,0,0,0-1.5-1.5c0,0,0,0,0-1.5V111l0,0l0,0
			l0,0l0,0l0,0l0,0l0,0l0,0l0,0l0,0l0,0l0,0l0,0l0,0l0,0l0,0l0,0l0,0h-1.5l0,0l0,0l0,0l0,0l0,0l0,0l0,0l0,0l0,0c0,0,0,0,0,1.5l0,0
			h-1.5c0,1.5,0,1.5,1.5,1.5l0,0l0,0l0,0l0,0l0,0l0,0c0,0,0,0,1.5,1.5h1.5v1.5h-1.5h-1.5l0,0l0,0l0,0c0,0,0,0-1.5,0l0,0l0,0l0,0l0,0
			l0,0l0,0l0,0l0,0c0,0-1.5,0,0,0l0,0l0,0c0,0,0,0,1.5,0l0,0c0,0,0,0,0,1.5l0,0l0,0l0,0l0,0l0,0l0,0l0,0l0,0l0,0l0,0l0,0l0,0l0,0
			l0,0l0,0l0,0c0,0,0,0,1.5,0l0,0l0,0l0,0l0,0c0-1.5,0,0,1.5-1.5l0,0l0,0l1.5-1.5l0,0c1.5,0,0-1.5,4.5-1.5c0,0,0,0,1.5,0v1.5
			c0,0,0,0,1.5,0l0,0l0,0c0,0,0-1.5-1.5-1.5l0,0l0,0l0,0l0,0l0,0l0,0l0,0h-1.5l0,0l0,0l0,0l0,0l0,0l0,0l0,0l0,0l0,0c0,0,0,0,1.5,0
			l0,0l0,0l0,0l0,0l0,0l0,0l0,0l0,0l0,0h1.5v-1.5c0,0,0,0,0-1.5h1.5c1.5,0,1.5,0,1.5,0h1.5l0,0c0,0,0,0,0,1.5c0,0,0,0-1.5,0l0,0l0,0
			l0,0l0,0l0,0l0,0l0,0l0,0l0,0l0,0l0,0l0,0l0,0l0,0l0,0l0,0l0,0l0,0c0,0,0,0,0-1.5l0,0l0,0l0,0l0,0l0,0l0,0l0,0l0,0l0,0l0,0
			c0,0-1.5,0-3,0C218.2,114,219.7,114,219.7,112.5"/>
		<path class="st2" d="M200.2,123L200.2,123C200.2,123,201.7,123,200.2,123C201.7,123,200.2,123,200.2,123S201.7,123,200.2,123
			L200.2,123L200.2,123C200.2,121.5,200.2,121.5,200.2,123L200.2,123C201.7,123,201.7,123,200.2,123C201.7,123,201.7,123,200.2,123
			C201.7,123,201.7,123,200.2,123C201.7,123,201.7,123,200.2,123C201.7,123,201.7,123,200.2,123C201.7,123,201.7,123,200.2,123
			C201.7,123,201.7,123,200.2,123C201.7,124.5,200.2,124.5,200.2,123C200.2,124.5,200.2,123,200.2,123 M201.7,121.5L201.7,121.5
			C200.2,121.5,200.2,121.5,201.7,121.5C200.2,121.5,201.7,121.5,201.7,121.5 M201.7,121.5C201.7,121.5,203.2,123,201.7,121.5
			C201.7,123,203.2,123,201.7,121.5C201.7,123,201.7,121.5,201.7,121.5 M218.2,124.5c0,0-1.5-1.5-3-1.5c-3,0-9,1.5-9,0s3,0,4.5,0
			l0,0c3,1.5,6-1.5,7.5,0c-1.5-1.5-4.5,0-6,0c1.5,0,3,0,3,0c-1.5,0-4.5,0-4.5,0l0,0c-1.5,0-4.5,0-4.5,1.5c0,3,7.5,1.5,10.5,1.5
			C218.2,123,218.2,123,218.2,124.5c-1.5,0-3,0-4.5,0c-1.5,0-9-1.5-12,0c0,0,1.5-1.5,0-1.5l0,0l0,0l0,0l0,0l0,0l0,0l0,0l0,0l0,0
			c0,0,0,0,0,1.5c0,0,0,0-1.5,0l0,0v1.5l0,0l0,0l0,0l0,0l0,0c0,0,0,0-1.5-1.5c0,0,0,0,0-1.5v-1.5l0,0l0,0l0,0l0,0l0,0l0,0l0,0l0,0
			l0,0l0,0l0,0l0,0l0,0l0,0l0,0l0,0l0,0l0,0h-1.5l0,0l0,0l0,0l0,0l0,0l0,0l0,0l0,0l0,0c0,0,0,0,0,1.5l0,0h-1.5c0,0,0,1.5,1.5,1.5
			l0,0l0,0l0,0l0,0l0,0l0,0c0,0,0,1.5,1.5,1.5l0,0l0,0v1.5h-1.5h-1.5l0,0l0,0l0,0l0,0l0,0l0,0l0,0l0,0l0,0l0,0l0,0l0,0l0,0l0,0l0,0
			c0,0,0,0,1.5,0l0,0c0,0,0,0,0,1.5l0,0l0,0l0,0l0,0l0,0l0,0l0,0l0,0l0,0l0,0l0,0l0,0l0,0l0,0l0,0l0,0c0,0,0,0,1.5,0l0,0l0,0l0,0
			l0,0c0-1.5,1.5,0,1.5-1.5l0,0l0,0c0,0,0,0,1.5,0l0,0h1.5l0,0l0,0l0,0c0,0,0,0,1.5,0c4.5,0,1.5-1.5,6-1.5l0,0v1.5c0,0,0,0,1.5,0
			l0,0l0,0c0,0,0-1.5-1.5,0l0,0l0,0l0,0l0,0l0,0l0,0l0,0c0,0-1.5,0,0,0l0,0l0,0l0,0l0,0l0,0l0,0l0,0l0,0l0,0c0,0,0,0,1.5,0l0,0l0,0
			l0,0l0,0l0,0l0,0l0,0l0,0l0,0h1.5V126c0,0,0,0,0-1.5h1.5C216.7,124.5,216.7,124.5,218.2,124.5L218.2,124.5L218.2,124.5
			c0,0,0,0,0,1.5c0,0,0,0-1.5,0l0,0l0,0l0,0l0,0l0,0l0,0l0,0l0,0l0,0l0,0l0,0l0,0l0,0l0,0l0,0l0,0l0,0l0,0
			C216.7,126,216.7,126,218.2,124.5L218.2,124.5L218.2,124.5L218.2,124.5L218.2,124.5L218.2,124.5L218.2,124.5L218.2,124.5
			L218.2,124.5C218.2,126,218.2,124.5,218.2,124.5c-1.5,1.5-3,1.5-3,1.5C216.7,124.5,218.2,124.5,218.2,124.5"/>
		<path class="st2" d="M236.2,142.5L236.2,142.5L236.2,142.5 M233.2,136.5L233.2,136.5L233.2,136.5 M233.2,138L233.2,138L233.2,138z
			 M233.2,139.5C233.2,139.5,233.2,138,233.2,139.5C234.7,138,234.7,138,233.2,139.5C234.7,138,234.7,138,233.2,139.5
			C234.7,138,234.7,138,233.2,139.5C233.2,138,233.2,138,233.2,139.5C233.2,138,233.2,138,233.2,139.5
			C233.2,138,234.7,138,233.2,139.5L233.2,139.5C234.7,138,234.7,138,233.2,139.5C234.7,138,234.7,138,233.2,139.5
			C234.7,138,234.7,138,233.2,139.5C234.7,138,234.7,138,233.2,139.5C234.7,138,234.7,138,233.2,139.5
			C234.7,138,234.7,138,233.2,139.5C234.7,139.5,234.7,139.5,233.2,139.5C234.7,139.5,234.7,139.5,233.2,139.5L233.2,139.5
			 M234.7,136.5C234.7,138,234.7,138,234.7,136.5C233.2,136.5,233.2,136.5,234.7,136.5C233.2,136.5,234.7,136.5,234.7,136.5
			 M234.7,138C234.7,138,236.2,138,234.7,138C236.2,138,236.2,138,234.7,138L234.7,138 M251.2,141L251.2,141
			C251.2,141,252.7,141,251.2,141L251.2,141L251.2,141c-1.5-1.5-1.5-1.5-3-1.5l0,0c1.5,0,3,0,3-1.5c0,0-1.5-1.5-3-1.5
			c-3,0-9,1.5-9,0s3,0,4.5,0l0,0c3,1.5,6-1.5,7.5-1.5c-3-1.5-4.5,0-6,0c1.5,0,3,0,3,0c-1.5,0-4.5,0-4.5,0l0,0c-1.5,0-4.5,0-4.5,1.5
			c0,3,7.5,1.5,10.5,1.5c1.5,0,3,0,3,0s-1.5,0-3,0c-1.5,0-9-1.5-12,0c0,0,1.5-1.5,0-1.5l0,0l0,0l0,0l0,0l0,0l0,0l0,0l0,0l0,0
			c0,0,0,0,0,1.5c0,0,0,0-1.5,0l0,0v1.5l0,0l0,0l0,0l0,0l0,0c0,0,0,0-1.5-1.5c0,0,0,0,0-1.5c0,0,0,0,0-1.5l0,0l0,0l0,0l0,0l0,0l0,0
			l0,0l0,0l0,0l0,0l0,0l0,0l0,0l0,0l0,0l0,0l0,0l0,0l0,0l0,0l0,0l0,0l0,0l0,0l0,0l0,0l0,0l0,0c0,0,0,0,0,1.5l0,0h-1.5
			c0,1.5,0,1.5,1.5,1.5l0,0l0,0l0,0l0,0l0,0l0,0c0,0,0,1.5,1.5,1.5l0,0l0,0l0,0v1.5h-1.5h-1.5l0,0l0,0l0,0l0,0l0,0l0,0l0,0l0,0l0,0
			l0,0l0,0l0,0c0,0-1.5,0,0,0l0,0l0,0c0,0,0,0,1.5,0l0,0c0,0,0,0,0,1.5l0,0l0,0l0,0l0,0l0,0l0,0l0,0l0,0l0,0l0,0l0,0l0,0l0,0l0,0
			l0,0l0,0c0,0,0,0,1.5,0l0,0l0,0l0,0l0,0c0-1.5,0,0,1.5-1.5l0,0l0,0c0,0,1.5,0,1.5-1.5l0,0c0,0,0,0,1.5,0c4.5,0,1.5-1.5,6-1.5l0,0
			v1.5c0,0,0,0,1.5,0l0,0l0,0c0,0,0-1.5-1.5-1.5l0,0l0,0l0,0l0,0l0,0l0,0l0,0c0,0-1.5,0,0,0l0,0l0,0l0,0l0,0l0,0l0,0l0,0l0,0l0,0
			c0,0,0,0,1.5,0l0,0l0,0l0,0l0,0l0,0l0,0l0,0l0,0l0,0h1.5v-1.5c0,0,0,0,0-1.5h1.5c1.5,0,1.5,0,1.5,0C249.7,141,249.7,141,251.2,141
			C249.7,141,251.2,141,251.2,141C249.7,142.5,251.2,142.5,251.2,141c-1.5,1.5-1.5,1.5-1.5,1.5l0,0l0,0l0,0l0,0l0,0l0,0l0,0l0,0l0,0
			l0,0l0,0l0,0l0,0l0,0l0,0l0,0l0,0l0,0c0,0,0,0,0-1.5C251.2,142.5,251.2,144,251.2,141C251.2,142.5,251.2,142.5,251.2,141
			C251.2,142.5,251.2,142.5,251.2,141C251.2,142.5,251.2,142.5,251.2,141C251.2,142.5,251.2,142.5,251.2,141"/>
		<path class="st2" d="M234.7,148.5L234.7,148.5C234.7,147,234.7,148.5,234.7,148.5L234.7,148.5 M234.7,148.5L234.7,148.5
			L234.7,148.5L234.7,148.5C233.2,148.5,233.2,148.5,234.7,148.5L234.7,148.5C233.2,150,233.2,150,234.7,148.5
			C233.2,150,233.2,148.5,234.7,148.5C233.2,148.5,233.2,148.5,234.7,148.5C233.2,148.5,233.2,148.5,234.7,148.5
			C233.2,148.5,233.2,148.5,234.7,148.5C233.2,148.5,233.2,148.5,234.7,148.5C233.2,148.5,233.2,148.5,234.7,148.5
			C233.2,148.5,233.2,148.5,234.7,148.5C233.2,148.5,233.2,148.5,234.7,148.5L234.7,148.5L234.7,148.5L234.7,148.5 M234.7,147
			C234.7,147,233.2,147,234.7,147C233.2,147,233.2,147,234.7,147C233.2,147,234.7,147,234.7,147 M240.7,147
			C240.7,147,242.2,148.5,240.7,147c3,1.5,6-1.5,9,0c-1.5-1.5-3,0-6,0c1.5,0,3,0,3,0C245.2,147,242.2,145.5,240.7,147
			C242.2,147,240.7,147,240.7,147c-1.5,0-3,0-3,0c0,1.5,6,1.5,7.5,1.5c1.5,0,1.5,0,1.5,0s-1.5,0-3,0c-1.5,0-6-1.5-9,0
			c0,0,1.5-1.5,0-1.5l0,0l0,0l0,0l0,0l0,0l0,0l0,0l0,0l0,0c0,0,0,0,0,1.5c0,0,0,0-1.5,0l0,0v1.5l0,0c0,0,0,0,0,1.5l0,0l0,0
			c0,0,0,0-1.5,0c0,0,0,0,0-1.5c0,0,0,0,0-1.5l0,0l0,0l0,0l0,0l0,0l0,0l0,0l0,0l0,0l0,0l0,0l0,0l0,0l0,0l0,0l0,0l0,0l0,0l0,0l0,0
			l0,0l0,0l0,0l0,0l0,0l0,0l0,0l0,0l0,0l0,0h-1.5c0,0,0,1.5,1.5,1.5l0,0l0,0l0,0l0,0l0,0l0,0c0,0,0,0,1.5,0l0,0l0,0v1.5h-1.5h-1.5
			l0,0l0,0l0,0l0,0l0,0l0,0l0,0l0,0l0,0l0,0l0,0l0,0l0,0l0,0l0,0c0,0,0,0,1.5,0l0,0c0,0,0,0,0,1.5l0,0l0,0l0,0l0,0l0,0l0,0l0,0l0,0
			l0,0l0,0l0,0l0,0l0,0l0,0l0,0l0,0l0,0l0,0l0,0l0,0l0,0c0-1.5,1.5,0,1.5-1.5l0,0l0,0c0,0,1.5,0,1.5-1.5l0,0l0,0c0,0,0,0,1.5,0
			c1.5,0,0-1.5,3-1.5l0,0v1.5l0,0l0,0l0,0c0,0,0-1.5-1.5,0l0,0l0,0l0,0l0,0l0,0l0,0l0,0c0,0-1.5,0,0,0l0,0l0,0l0,0l0,0l0,0l0,0l0,0
			l0,0l0,0l0,0l0,0l0,0l0,0l0,0l0,0l0,0l0,0l0,0l0,0h1.5v-1.5l0,0h1.5c1.5,0,1.5,0,1.5,0h1.5l0,0c0,0,0,0,0,1.5c0,0,0,0-1.5,0l0,0
			l0,0l0,0l0,0l0,0l0,0l0,0l0,0l0,0l0,0l0,0l0,0l0,0l0,0l0,0l0,0l0,0l0,0c0,0,0,0,0-1.5l0,0l0,0l0,0l0,0l0,0l0,0l0,0l0,0l0,0l0,0
			c0,0-1.5,0-3,0l0,0c1.5,0,4.5,0,4.5-1.5c0,0,0-1.5-3-1.5c-1.5,0-7.5,1.5-7.5,0C239.2,147,240.7,147,240.7,147"/>
		<path class="st2" d="M231.7,159C233.2,159,233.2,159,231.7,159C233.2,159,233.2,159,231.7,159C233.2,159,233.2,159,231.7,159
			C233.2,159,233.2,159,231.7,159C233.2,159,233.2,159,231.7,159C233.2,159,233.2,159,231.7,159C233.2,157.5,233.2,157.5,231.7,159
			L231.7,159C233.2,159,233.2,159,231.7,159C233.2,159,233.2,159,231.7,159C233.2,159,233.2,159,231.7,159
			C233.2,159,233.2,159,231.7,159C233.2,159,233.2,159,231.7,159C233.2,159,233.2,159,231.7,159C233.2,159,233.2,159,231.7,159
			C233.2,160.5,233.2,160.5,231.7,159L231.7,159 M233.2,157.5L233.2,157.5L233.2,157.5L233.2,157.5 M233.2,157.5
			C233.2,157.5,234.7,157.5,233.2,157.5C234.7,159,234.7,159,233.2,157.5C233.2,159,233.2,157.5,233.2,157.5 M239.2,157.5
			L239.2,157.5c3,1.5,6-1.5,9,0c-1.5-1.5-3,0-6,0c1.5,0,3,0,3,0C243.7,157.5,240.7,156,239.2,157.5L239.2,157.5
			c-1.5,0-1.5,0-1.5,1.5s7.5,0,7.5,1.5c0,0-1.5,1.5-3,1.5c-1.5,0-4.5-1.5-7.5,0l0,0c0,0,1.5-1.5,0-1.5l0,0l0,0l0,0l0,0l0,0l0,0l0,0
			l0,0l0,0c0,0,0,0,0,1.5l0,0l0,0v1.5l0,0v1.5l-1.5-1.5c0,0,0,0,0-1.5c0,0,0,0,0-1.5l0,0l0,0l0,0l0,0l0,0l0,0l0,0l0,0l0,0l0,0l0,0
			l0,0l0,0l0,0l0,0l0,0l0,0l0,0l0,0l0,0l0,0l0,0l0,0l0,0l0,0l0,0l0,0l0,0l0,0l0,0h-1.5c0,0,0,1.5,1.5,1.5l0,0l0,0l0,0l0,0l0,0l0,0
			c0,0,0,1.5,1.5,1.5c0,0,0,1.5,1.5,0l0,0h-1.5c0,0,0,0-1.5,0l0,0l0,0l0,0l0,0l0,0l0,0l0,0l0,0l0,0l0,0l0,0l0,0l0,0l0,0l0,0l0,0l0,0
			l0,0c0,0,0,0,1.5,0l0,0l0,0l0,0l0,0l0,0l0,0l0,0l0,0l0,0l0,0l0,0l0,0l0,0l0,0l0,0l0,0l0,0l0,0l0,0l0,0l0,0l0,0l0,0
			c0-1.5,0,0,1.5-1.5l0,0l0,0h1.5c0,0,0,0,0-1.5l0,0c1.5,0,1.5,0,1.5,0v1.5v1.5l0,0l0,0c0,0,0-1.5-1.5,0l0,0l0,0l0,0l0,0l0,0l0,0
			l0,0c0,0-1.5,0,0,0l0,0l0,0l0,0l0,0l0,0l0,0l0,0l0,0l0,0l0,0l0,0l0,0l0,0l0,0l0,0l0,0l0,0l0,0l0,0l0,0V162v-1.5c0,0,1.5,0,3,0h1.5
			l0,0l0,0l0,0l0,0l0,0l0,0l0,0l0,0l0,0l0,0l0,0l0,0l0,0l0,0l0,0l0,0l0,0l0,0l0,0l0,0l0,0l0,0l0,0l0,0c0,0,0,0,1.5,0l0,0l0,0l0,0
			l0,0l0,0l0,0l0,0c0,0-1.5,0,0,0l0,0c0,0-1.5,0-1.5-1.5l0,0c3,0,4.5,0,4.5-1.5C245.2,157.5,237.7,159,239.2,157.5
			C237.7,157.5,237.7,157.5,239.2,157.5"/>
		<path class="st2" d="M120.7,30c0-1.5-1.5-1.5-1.5-1.5c-1.5,0-3,0-3,1.5c0,1.5,1.5,1.5,1.5,1.5C119.2,31.5,120.7,31.5,120.7,30"/>
		<path class="st2" d="M119.2,25.5c0-1.5-1.5-1.5-1.5-1.5c-1.5,0-1.5,1.5-1.5,1.5c0,1.5,1.5,1.5,1.5,1.5
			C119.2,27,119.2,27,119.2,25.5"/>
		<path class="st2" d="M120.7,24c1.5,0,1.5-1.5,1.5-1.5c0-1.5-1.5-1.5-1.5-1.5c-1.5,0-1.5,1.5-1.5,1.5S119.2,24,120.7,24"/>
		<path class="st2" d="M125.2,22.5c1.5,0,1.5-1.5,1.5-1.5c0-1.5-1.5-1.5-1.5-1.5c-1.5,0-1.5,1.5-1.5,1.5
			C123.7,22.5,125.2,22.5,125.2,22.5"/>
		<path class="st2" d="M146.2,19.5c0,0,1.5,0,3,0c0,0,0-1.5,0-3c0,0-1.5,0-3,0C144.7,18,144.7,19.5,146.2,19.5"/>
		<path class="st2" d="M144.7,16.5c0,0,0-1.5,0-3c0,0-1.5,0-3,0c0,0,0,1.5,0,3C143.2,16.5,144.7,16.5,144.7,16.5"/>
		<path class="st2" d="M140.2,15c0,0,0-1.5,0-3c0,0-1.5,0-3,0c0,0,0,1.5,0,3C138.7,16.5,140.2,16.5,140.2,15"/>
		<path class="st2" d="M137.2,18c0,0,0-1.5,0-3c0,0-1.5,0-3,0c0,0,0,1.5,0,3C134.2,19.5,135.7,19.5,137.2,18"/>
		<path class="st2" d="M125.2,15l1.5,3l1.5-1.5l0,0c0,1.5,0,3,0,4.5c0,1.5,1.5,3,1.5,3c1.5,0,3-1.5,3-3c0-1.5,0-1.5-1.5-1.5
			c-1.5,0-1.5-1.5-3-3l0,0h3v-3l-1.5,1.5l0,0v-3h-3l1.5,3l0,0H125.2z"/>
		<path class="st2" d="M146.2,21c0,1.5,1.5,1.5,1.5,3C146.2,24,146.2,22.5,146.2,21v4.5l1.5-1.5c0,3-1.5,4.5-1.5,4.5
			c-1.5,0-1.5,0-1.5-1.5s1.5-1.5,1.5-1.5c0-3-1.5-3-3-1.5c1.5-3,0-4.5-1.5-6c-3,4.5-3,6,0,7.5c-1.5-1.5-3,0-1.5,3
			c0-1.5,1.5-1.5,1.5,0c0,0-1.5,1.5-3,1.5c-3,1.5-3,0-4.5-1.5c0,0,1.5,0,3,0v-3c-1.5,1.5-1.5,1.5-3,1.5c0-1.5,1.5-3,1.5-3l-4.5,1.5
			c0,0,1.5,1.5,3,1.5c-1.5,0-1.5,0-3,0l1.5,4.5c0-1.5,1.5-3,1.5-3c0,1.5,1.5,3-1.5,4.5c-1.5,1.5-3,0-4.5,0c0-1.5,0-3,1.5-1.5
			c0-3-1.5-3-3,0c0-3,0-4.5-3-4.5c0,3,0,4.5,3,4.5c-1.5,0-3,1.5-1.5,3c0-1.5,1.5-1.5,1.5,0c0,0,0,1.5,0,3c-1.5,0-3,0-4.5-1.5h1.5
			l-1.5-4.5c0,1.5,0,1.5,0,3c0,0,0-1.5-1.5-3l-1.5,1.5c1.5,1.5,4.5,3,6,6c3-1.5,7.5-4.5,10.5-6c4.5,0,9-1.5,12-3c0-4.5,0-7.5,0-9
			H146.2z"/>
		<path class="st2" d="M150.7,45c-1.5,1.5-4.5,0-6-3c3-1.5,7.5-3,10.5-4.5C152.2,42,153.7,43.5,150.7,45 M150.7,70.5
			c-3,1.5-6-1.5-6-3c0-1.5-1.5-3,0-4.5c1.5-1.5,1.5-3,0-4.5c-1.5-1.5-3-1.5-6,0c1.5-1.5,1.5-3,0-3c-1.5,0-1.5,3-3,3
			c-1.5,0,0-1.5,0-3s1.5-1.5,1.5-1.5l9-3c1.5,0,1.5,0,3,0l1.5,1.5c0,1.5-3-1.5-3,0c-1.5,1.5,0,1.5,1.5,3c-1.5,0-3,0-3,3
			c1.5,1.5,3,1.5,4.5,1.5s1.5,1.5,3,3C153.7,66,153.7,69,150.7,70.5 M132.7,52.5c-3,0-3-1.5-7.5-3c3,0,7.5-1.5,10.5-3
			C137.2,48,135.7,51,132.7,52.5 M185.2,133.5c0-1.5-3-4.5-3-7.5s0-6-3-9s-13.5-15-16.5-18c1.5,0,3,0,4.5,1.5c1.5,1.5,3,3,6,6
			c3-7.5,6-12,12-18l1.5-1.5c-1.5,0-4.5,1.5-6,1.5c0-3,0-6-1.5-7.5c1.5-4.5,0-9-9-16.5c4.5,1.5,7.5,6,12,1.5c-3,0-3-7.5-16.5-13.5
			c4.5,0,9,7.5,13.5,3c-4.5,0-7.5-10.5-16.5-12c3,0,6,1.5,9-1.5c-3,1.5-4.5-1.5-9-3c1.5-4.5,1.5-6,0-9c-3,0-4.5,1.5-6,3
			c-3-3-4.5-3-7.5-3c0,1.5,0,3,0,3c-1.5,0-7.5,1.5-12,3c-4.5,1.5-9,4.5-10.5,6c-1.5,0-1.5-1.5-1.5-1.5c-1.5,1.5-3,3-3,4.5
			c-1.5,0-4.5,0-6,3c0,3,3,6,6,7.5c-6,4.5-1.5,10.5-6,15c7.5,0,6-9,9-10.5c0,6-4.5,7.5-4.5,15c0,4.5,3,9,0,10.5
			c6-1.5,4.5-15,7.5-19.5c0,1.5,0,4.5,0,6c-1.5,6,0,15-3,18c6,0,7.5-10.5,12-13.5c-4.5,9-9,28.5-15,37.5
			c-10.5,13.5-16.5,31.5-25.5,31.5c-4.5,0-7.5-3-7.5-7.5c0-16.5,27-27,27-43.5c0-7.5-6-10.5-10.5-10.5c-3,0-6,1.5-9,3
			c-1.5,0-3,0-3,0c-9,0-7.5,18-15,16.5c4.5,1.5,10.5-1.5,13.5-7.5c-1.5,12-18,9-16.5,22.5c3-10.5,28.5-9,28.5-25.5
			c0-1.5-1.5-3-1.5-4.5c0-1.5,3-1.5,4.5-1.5c3,0,6,3,6,7.5c0,13.5-27,25.5-27,43.5c0,3,1.5,6,1.5,7.5c-1.5,1.5-4.5,0-6-1.5
			c0,4.5,6,7.5,10.5,4.5c1.5,0,1.5,0,3,0c-1.5,3-6,4.5-7.5,4.5c7.5,6,18-1.5,18-7.5c6-4.5,9-12,12-16.5c0,1.5,0,1.5,0,3
			c-4.5,7.5-7.5,13.5-9,22.5c-1.5,7.5-4.5,15-10.5,15c-1.5,0-3-1.5-4.5-1.5c-1.5,1.5,0,3,0,4.5c0,1.5-4.5,4.5-4.5,12
			c0,3,1.5,7.5,1.5,9c1.5-1.5,4.5-4.5,4.5-7.5c1.5,9-4.5,9,0,16.5c0-3,3-3,4.5-3c1.5,1.5,1.5,1.5,0,3c0,1.5-1.5,7.5,4.5,7.5
			c-1.5,0-1.5-3,1.5-3c4.5-1.5,4.5,1.5,9,1.5c3,0,3-3,4.5-3c1.5,0,1.5,1.5,1.5,3c3-1.5,3-3,3-4.5c0-1.5-1.5-3,0-3s4.5,0,3,3
			c1.5,0,3-1.5,3-4.5s-3-3-4.5-3c0-1.5-3-1.5-4.5-1.5c-4.5,0-3,3-7.5,3c-4.5,0-9-6-9-16.5c0-6,6-7.5,10.5-9c4.5-1.5,12-6,16.5-15
			c4.5-7.5,4.5-13.5,3-21c6,3,7.5,9,7.5,12c0,4.5-3,6-4.5,7.5c-1.5,0-1.5,0-1.5,1.5c0,1.5,0,1.5,1.5,3c1.5,1.5,1.5,3,3,6
			c0,3,3,6,6,9c0-1.5,0-3,0-6c4.5,3,1.5,12,10.5,12c-1.5-1.5-1.5-3,0-4.5c1.5,0,1.5,0,4.5,3c1.5,3,1.5,3,6,3s3-1.5,4.5-1.5
			c3,0,1.5,3,1.5,4.5c4.5-1.5,4.5-4.5,3-7.5c3-1.5,4.5,1.5,6,3c3-3,0-7.5-3-7.5c0-1.5-1.5-3-3-3s-3,0-4.5,0c-1.5,0-3,3-4.5,3
			c-6,0-16.5-10.5-16.5-15s10.5-7.5,10.5-13.5c0-9-9-12-16.5-18c3-3,10.5-3,15-1.5c0-3,1.5-1.5,3-6c1.5,4.5,0,7.5,1.5,9
			c1.5-1.5,4.5-1.5,4.5-6c1.5,3-1.5,7.5,1.5,9c0-3,1.5-3,3-3c1.5,0,1.5,0,1.5,1.5c0,3-4.5,1.5-4.5,6c0,1.5,1.5,3,1.5,3
			c0,1.5-1.5,3-4.5,1.5c0,1.5,1.5,3,4.5,3c1.5,0,4.5-1.5,4.5-3c1.5,3,0,6-1.5,6c1.5,1.5,6,0,6-6c3,0,4.5,1.5,3,6
			c1.5,0,4.5-1.5,4.5-4.5C185.2,136.5,183.7,136.5,185.2,133.5"/>
		<path class="st2" d="M360.7,178.5c0-3,3-6,6-6c3,0,6,3,6,6c0,3-3,6-6,6C362.2,183,360.7,181.5,360.7,178.5 M357.7,178.5
			c0,4.5,3,7.5,7.5,7.5c4.5,0,7.5-3,7.5-7.5c0-4.5-3-7.5-7.5-7.5C362.2,169.5,357.7,174,357.7,178.5"/>
		<path class="st2" d="M333.7,192c-1.5,0-3-1.5-3-3s0-1.5,1.5-1.5c1.5,0,1.5-1.5,3,0c1.5,0,3,1.5,3,3l0,0
			C336.7,190.5,335.2,192,333.7,192 M329.2,184.5c-1.5,0-1.5,1.5-1.5,3c0,1.5,0,3,1.5,4.5c1.5,1.5,3,1.5,4.5,1.5c1.5,0,3,0,4.5,0
			s1.5-1.5,3-3c0-3-1.5-6-4.5-6C332.2,183,330.7,184.5,329.2,184.5"/>
		<path class="st2" d="M287.2,82.5c0-1.5,0-1.5,1.5-3c1.5,0,1.5-1.5,3-1.5c0,0,1.5,0,1.5,1.5V81c0,1.5,0,1.5-1.5,3
			C290.2,84,288.7,84,287.2,82.5L287.2,82.5 M287.2,78c-1.5,1.5-3,4.5-1.5,6c1.5,1.5,4.5,1.5,7.5,0c1.5-1.5,1.5-3,3-4.5
			c0-1.5,0-1.5-1.5-3c0-1.5-1.5-1.5-3-1.5C290.2,76.5,288.7,76.5,287.2,78"/>
		<path class="st2" d="M323.2,181.5L323.2,181.5c-1.5,0-1.5,0-1.5-1.5c-1.5-1.5-1.5-1.5-1.5-3c0-1.5,0-3,1.5-3l1.5-1.5
			c1.5,0,3,1.5,3,4.5c0,1.5,0,3-1.5,3C324.7,180,324.7,181.5,323.2,181.5 M320.2,172.5c-1.5,1.5-1.5,3-1.5,4.5l0,0
			c0,1.5,0,3,1.5,4.5c1.5,1.5,1.5,1.5,3,1.5c1.5,0,3,0,3-1.5c1.5-1.5,1.5-3,1.5-4.5s0-3-1.5-4.5c-1.5-1.5-1.5-1.5-3-1.5
			C323.2,171,321.7,171,320.2,172.5"/>
		<path class="st2" d="M284.2,118.5c-1.5-1.5-3-3-3-4.5l1.5-1.5c1.5,0,3,0,3,0c1.5,0,1.5,1.5,3,3v1.5l-1.5,1.5
			C287.2,118.5,285.7,118.5,284.2,118.5 M282.7,111c-1.5,0-1.5,1.5-3,1.5c-1.5,3,0,6,3,7.5c3,0,4.5,0,6,0c1.5,0,1.5-1.5,3-1.5
			c0-1.5,0-1.5,0-3s-1.5-3-3-3C287.2,109.5,284.2,109.5,282.7,111"/>
		<path class="st2" d="M338.2,145.5c-1.5,1.5-3,3-4.5,1.5c-1.5-1.5-1.5-3,0-4.5c1.5-1.5,3-3,4.5-1.5
			C339.7,141,339.7,144,338.2,145.5 M329.2,159c-1.5,1.5-3,3-4.5,1.5c-1.5-1.5-1.5-3,0-4.5c1.5-1.5,3-3,4.5-1.5
			C330.7,156,330.7,157.5,329.2,159 M299.2,81c1.5-3,3-10.5,3-10.5l3,1.5c-1.5,0-3,1.5-3,3c1.5,0,1.5,0,3,0l-1.5,3
			c0,0-1.5-1.5-3-1.5c0,3,1.5,4.5,3,4.5c1.5,1.5,3,1.5,4.5,0c0-1.5,0-3-3-1.5c0-1.5,1.5-3,1.5-3c1.5,0,1.5,1.5,1.5,1.5
			c0-3,1.5-6,4.5-6c1.5,3,0,4.5-1.5,7.5c1.5,0,3,0,3,0c0,1.5,0,3-1.5,3c0-1.5-3-1.5-3-1.5c0,1.5,0,3,3,3c1.5,1.5,4.5,0,6-1.5
			c-1.5,0-1.5,0-3,0l3-4.5c0,0,0,1.5,1.5,3c0-1.5,1.5-3,0-4.5l4.5,3c-1.5,0-3,1.5-3,1.5c1.5,0,3,0,3,0l-3,4.5c0-1.5,0-3-1.5-3
			c-1.5,1.5-1.5,4.5,1.5,6c1.5,1.5,3,1.5,4.5,0c0-1.5,0-3-3-3c0-1.5,1.5-3,1.5-3c1.5,0,1.5,1.5,1.5,3c0-3,1.5-4.5,4.5-4.5
			c0,3,0,4.5-3,6c1.5,0,3,0,3,0c0,1.5,0,3-1.5,3c0-1.5-3-3-3-1.5s0,1.5,3,3c1.5,1.5,3,1.5,4.5,0c0-1.5-3-1.5-3-1.5l3-3
			c0,1.5,0,3,1.5,3c0-1.5,0-3,0-4.5l3,3c0,0-4.5,4.5-7.5,7.5L299.2,81z M336.7,124.5V123h1.5c1.5,0,1.5,0,3,1.5s1.5,1.5,1.5,3v1.5
			l0,0h-1.5c-1.5,0-1.5,0-3-1.5C336.7,126,336.7,124.5,336.7,124.5 M350.2,187.5c0-1.5,1.5-1.5,1.5-3c1.5,0,3-1.5,3-1.5
			s1.5,0,1.5,1.5l0,0v1.5c0,1.5-1.5,1.5-1.5,3c-1.5,1.5-4.5,1.5-4.5,0C350.2,189,350.2,187.5,350.2,187.5 M284.2,91.5
			c0,1.5,0,1.5-1.5,3h-1.5c-1.5,0-3-1.5-3-3l0,0c0-1.5,0-1.5,1.5-3h1.5h1.5C284.2,90,284.2,91.5,284.2,91.5 M305.2,51
			c1.5-1.5,0-4.5,3-4.5c1.5,0,3,1.5,6,3C311.2,48,308.2,49.5,305.2,51 M363.7,102c3,7.5,7.5,9,10.5,7.5c-9-1.5-1.5-15-12-15h-1.5
			c-1.5-1.5-4.5-3-7.5-3c-4.5,0-12,4.5-12,13.5c0,19.5,22.5,21,22.5,39c0,4.5-4.5,9-7.5,9c-4.5,0-7.5-4.5-10.5-10.5
			c-1.5-3-4.5-7.5-9-12c1.5,0,1.5,1.5,3,1.5c1.5,0,3,0,3-1.5c1.5-1.5,3-3,3-4.5l0,0c0-1.5,0-3-1.5-4.5c-1.5-1.5-3-1.5-6-1.5
			c-1.5,0-3,0-3,1.5c-1.5,1.5-1.5,1.5-1.5,3l0,0v1.5c-4.5-6-9-13.5-9-16.5c0-3,1.5-6,4.5-9h1.5V99c1.5-1.5,3-3,7.5-7.5l0,0l0,0
			l1.5-1.5h-3c0-1.5,1.5-3,1.5-4.5c1.5,3,3,4.5,4.5,4.5c-1.5-3,1.5-7.5,0-15c1.5,3,4.5,4.5,6,4.5c-4.5-4.5,1.5-10.5-4.5-21
			c1.5,0,3,0,4.5-1.5c-6-1.5-3-9-13.5-12c3,0,4.5-1.5,4.5-3c-3,1.5-6-3-15-3c0-3-3-7.5-7.5-9c0,3,0,4.5,0,7.5l-30-30
			c-1.5-1.5-1.5-1.5-1.5,0V9l25.5,31.5c-1.5,0-4.5,1.5-6,1.5s-1.5,1.5-1.5,3c-4.5,3-9,6-10.5,7.5c-1.5,1.5-3,1.5-1.5,4.5
			c0,1.5-1.5,4.5,3,1.5c3-1.5,7.5-4.5,9-3c0,1.5-3,3-4.5,3c-1.5,0-4.5,1.5-3,3h1.5c0,1.5,0,1.5,1.5,1.5s1.5-1.5,3-1.5
			c0,0,0,4.5-1.5,4.5c3,0,4.5-3,4.5-6c0-1.5,0-3,1.5-3c0,0,1.5,3,0,4.5c1.5,0,3-3,3-6c1.5,0,1.5-1.5,1.5-1.5c1.5,0,3,3,6,3
			c4.5,0,7.5-4.5,7.5-6s0-3,0-4.5c1.5,1.5,3,4.5,3,6c0,7.5-12,10.5-18,15l0,0l-9,3V72c0,0,0,0,0,1.5s-1.5,6-3,9V84l0,0
			c-3,4.5-6,10.5-7.5,15c-1.5-1.5-3-3-4.5-4.5V93c0-1.5,0-3-1.5-4.5c-1.5-1.5-1.5-1.5-3-1.5c-1.5,0-1.5,0-3,1.5l0,0l0,0
			c-1.5-1.5-4.5-3-6-4.5c0,0-1.5-1.5-3-1.5c0,0-1.5,0-3,0c-1.5,0-1.5,0-3,1.5c0,0-1.5,1.5-3,3c0,1.5,1.5,1.5,1.5,3l1.5,1.5
			c0,0,1.5,0,1.5-1.5h1.5c1.5,0,1.5,0,3,1.5c0,1.5,6,7.5,9,12h-1.5c-1.5,0-6,0-7.5,0s-1.5,0-3,1.5l-1.5,1.5c0,0-1.5,1.5,0,3
			c1.5,3,6,10.5,7.5,15c1.5,3,3,4.5,6,6c3,1.5,7.5,4.5,7.5,4.5v-3c-1.5-1.5-3-1.5-4.5-1.5c-1.5,0-1.5-1.5,0-1.5
			c1.5,0,4.5,1.5,7.5,1.5c0-3-3-6-4.5-7.5c-1.5,0-4.5,0-4.5,0s0,1.5-1.5,1.5s-1.5,0-1.5-1.5s1.5-1.5,1.5-3c0-1.5-1.5-1.5-3-1.5
			c-1.5-3-3-6-4.5-7.5c-1.5-1.5,0-3,0-3c1.5-1.5,4.5,0,10.5,1.5c1.5,0,4.5,0,7.5,0c1.5,7.5,3,13.5,13.5,16.5c7.5,0,12,4.5,13.5,9
			c-19.5,0-22.5,7.5-22.5,15c0,7.5,7.5,7.5,7.5,13.5c0,6-16.5,7.5-21,9c-4.5,0-6,1.5-9,3c-1.5,1.5-4.5,4.5-7.5,7.5c0,0,1.5,0,3,0
			l3-3c1.5-1.5,1.5-1.5,1.5-1.5s0,1.5,0,3l-3,4.5c9,0,10.5-3,10.5-4.5c0-1.5-3-3-1.5-3c1.5-1.5,3,0,3,1.5c1.5,1.5,1.5,3,4.5,1.5
			c0,0,21-9,24-10.5c3-1.5,1.5-1.5,0-3s-1.5-3-1.5-6c0-6,4.5-9,10.5-7.5c0,1.5,0,1.5,0,3c0,10.5,15,19.5,19.5,19.5
			c1.5,0,4.5-1.5,4.5,4.5c0,4.5,1.5,7.5,0,12c-1.5,4.5-3,6-6,7.5c-3,1.5-6,9-7.5,10.5c1.5,1.5,3,1.5,4.5-3c1.5-3,1.5-4.5,3-6
			c-1.5,3-1.5,7.5-3,9c4.5,0,10.5-3,10.5-6s-1.5-3-1.5-4.5c0-1.5,1.5-1.5,1.5-1.5c1.5,0,3,1.5,3,1.5c1.5-1.5,3-3,3-6
			c0-1.5,0-3,0-4.5l0,0c1.5,1.5,1.5,1.5,3,1.5s3,0,4.5-1.5c1.5-1.5,3-3,3-4.5c0,0,0,0,0-1.5s0-1.5,0-3s-1.5-1.5-3-1.5s-3,0-4.5,1.5
			c-1.5,1.5-3,3-3,3c0-6,0-10.5,0-12c0-3,0-4.5,0-4.5c-1.5,0-1.5,1.5-3,1.5c-1.5,0-6-4.5-6-9c0-4.5,4.5-10.5,4.5-16.5
			c0-1.5,1.5-3,1.5-1.5c1.5,1.5,1.5,4.5,4.5,7.5c-1.5,7.5,7.5,15,13.5,9c-3,0-6-3-7.5-6h1.5c0,0,0,0,1.5,0c3,3,10.5,3,12-4.5
			c-1.5,1.5-4.5,3-6,3c3-1.5,4.5-6,4.5-9c0-19.5-22.5-21-22.5-37.5c0-6,6-10.5,9-10.5c1.5,0,3,0,3,1.5c-1.5,1.5-3,4.5-1.5,6
			c0,13.5,22.5,13.5,22.5,19.5C380.2,112.5,363.7,115.5,363.7,102"/>
	</g>
</g>
<g id="Layer_2">
</g>
</svg>
