<?xml version="1.0" encoding="utf-8"?>
<!-- Generator: Adobe Illustrator 21.1.0, SVG Export Plug-In . SVG Version: 6.00 Build 0)  -->
<svg version="1.1" id="Layer_1" xmlns="http://www.w3.org/2000/svg" xmlns:xlink="http://www.w3.org/1999/xlink" x="0px" y="0px"
	 viewBox="0 0 359.2 96" style="enable-background:new 0 0 359.2 96;" xml:space="preserve">
<style type="text/css">
	.st0{fill-rule:evenodd;clip-rule:evenodd;fill:#631D0A;}
	.st1{fill-rule:evenodd;clip-rule:evenodd;fill:#FFEEA4;}
	.st2{fill:#EA7200;}
	.st3{fill:#F9BE00;}
	.st4{fill:#2E2A25;}
	.st5{fill-rule:evenodd;clip-rule:evenodd;fill:#E0E0E0;}
	.st6{fill:#9D9D9C;}
	.st7{fill:#CF0A2C;}
	.st8{fill-rule:evenodd;clip-rule:evenodd;fill:#CF0A2C;}
	.st9{fill-rule:evenodd;clip-rule:evenodd;fill:#007298;}
	.st10{fill:#FFFFFF;}
	.st11{fill-rule:evenodd;clip-rule:evenodd;fill:#2E2A25;}
	.st12{fill-rule:evenodd;clip-rule:evenodd;fill:#B9B8B8;}
	.st13{fill:#5F6169;}
	.st14{fill-rule:evenodd;clip-rule:evenodd;fill:#FFFFFF;}
</style>
<path class="st0" d="M358.9,38.5c-0.9-1.2-3.3-0.6-34,6.4l-2.3-1.1L323,45l0,0.3c-3.3,0.8-6.9,1.6-10.9,2.5c0,0,0,0,0,0
	c40.5-16.9,44-17.4,43.7-19.3c-0.7-0.8-1.7-0.5-8,2.4c4.9-2.4,5.2-2.9,5.1-3.6c-0.6-0.5-1.2-0.6-6.1,1.9c4-2.2,3.9-2.5,3.8-3.2
	c-0.6-0.4-0.9-0.6-3.9,1.1c2.4-1.6,2.2-1.8,2.1-2.4c-0.7-0.4-0.9-0.6-5.2,2.1c3.9-2.7,3.7-2.9,3.5-3.6c-0.6-0.4-0.8-0.5-3.4,1.3
	c2.4-1.9,2.3-2.2,2.1-2.8c-0.6-0.3-0.8-0.5-2.5,0.8c1.7-1.6,1.5-1.8,1.3-2.3c-0.6-0.2-0.8-0.4-2.4,0.8c1.7-1.6,1.5-1.9,1.3-2.4
	c-0.6-0.3-0.8-0.5-3,1.4c2.4-2.5,2.3-2.8,2-3.3c-0.8-0.2-0.9-0.5-3.9,2.5c3.4-3.8,3.3-4.2,3-4.8c-0.6-0.2-0.8-0.4-2.4,1.3
	c2-2.6,2.1-3,1.7-3.6c-0.8-0.2-1.3,0-4.7,4.2c4.1-5.4,4.5-6.4,4.1-7c-0.9-0.2-1.7,0.5-6,6.5c3.4-5,3.4-5.5,2.9-6.1
	c-0.7-0.1-1.2,0-3.3,3.2c1.5-2.6,1.2-2.7,0.9-3.1c-0.7-0.1-1-0.1-2.5,2.2c0.9-1.8,0.7-1.9,0.3-2.3c-0.8-0.1-1.1-0.1-3.8,4.9
	c2.3-4.8,2.1-4.8,1.6-5.4c-0.7,0-1,0-2.6,3.1c1.3-3,1-3.2,0.5-3.6c-0.7,0-0.9,0-2,2.3c0.9-2.5,0.6-2.6,0.1-3c-0.8,0.1-1,0-2.3,3.4
	c1.2-3.9,0.9-4,0.4-4.4c-0.6,0.1-0.9,0-1.6,2c0.6-2.7,0.4-2.9-0.1-3.2c-0.6,0.1-0.9,0.1-1.6,2.5c0.6-3.3,0.4-3.4-0.2-3.7
	c-0.7,0.2-1,0.2-1.8,3.7c0.8-4.7,0.6-5.1,0-5.4c-0.7,0.2-1.1,0.5-1.7,4.2c0.7-5.4,0.5-6.3-0.1-6.6c-1.4,0.5-1.6,3-4.5,34.6l-1.1,1.3
	l1,0.1c-0.3,3.3-0.6,6.9-1,10.8c-4-43.2-4-46.3-5.6-46.8c-0.6,0.3-0.8,1.2-0.1,6.6c-0.6-3.7-1-4-1.7-4.2c-0.6,0.3-0.8,0.8,0,5.5
	c-0.8-3.5-1.1-3.5-1.8-3.7c-0.5,0.3-0.8,0.5-0.2,3.7c-0.7-2.4-1-2.4-1.6-2.5c-0.5,0.3-0.8,0.5-0.1,3.2c-0.7-2-1-1.9-1.6-2
	c-0.5,0.4-0.8,0.5,0.4,4.4c-1.3-3.5-1.6-3.4-2.3-3.4c-0.5,0.4-0.7,0.5,0.1,3c-1.1-2.3-1.3-2.2-2-2.3c-0.5,0.4-0.7,0.5,0.5,3.6
	c-1.5-3.1-1.8-3.1-2.6-3.1c-0.5,0.5-0.8,0.6,1.6,5.4c-2.6-5-2.9-4.9-3.8-4.9c-0.4,0.4-0.6,0.5,0.3,2.3c-1.5-2.3-1.8-2.3-2.5-2.2
	c-0.4,0.5-0.6,0.5,0.9,3.1c-2.1-3.2-2.6-3.3-3.3-3.2c-0.4,0.6-0.4,1.1,2.9,6.1c-4.3-5.9-5.1-6.6-6-6.4c-0.4,0.6,0,1.6,4.1,7
	c-3.4-4.2-3.9-4.4-4.7-4.2c-0.3,0.5-0.3,1,1.7,3.6c-1.6-1.6-1.8-1.4-2.4-1.3c-0.3,0.6-0.4,1,3,4.8c-3-3-3.1-2.8-3.9-2.5
	c-0.3,0.6-0.4,0.8,2,3.3c-2.1-1.9-2.3-1.7-3-1.4c-0.2,0.5-0.4,0.8,1.3,2.4c-1.6-1.2-1.8-1.1-2.4-0.8c-0.2,0.5-0.3,0.8,1.3,2.4
	c-1.8-1.3-2-1.1-2.5-0.8c-0.2,0.6-0.3,0.9,2.1,2.8c-2.6-1.8-2.8-1.7-3.4-1.3c-0.2,0.7-0.4,0.9,3.5,3.6c-4.3-2.8-4.5-2.6-5.2-2.1
	c-0.1,0.6-0.3,0.8,2.1,2.4c-3.1-1.7-3.3-1.5-3.9-1.1c-0.1,0.7-0.2,1,3.8,3.2c-4.9-2.5-5.4-2.4-6.1-1.9c-0.1,0.7,0.2,1.1,5.2,3.6
	c-6.3-3-7.3-3.2-8-2.4c-0.3,1.9,3.2,2.5,43.7,19.3c0,0,0,0,0,0c-42.9-9.7-45.8-10.7-46.8-9.3c0.1,0.7,0.9,1.1,6.2,2.2
	c-3.7-0.5-4.1-0.3-4.5,0.3c0.1,0.7,0.5,1,5.2,1.7c-3.6-0.3-3.7-0.1-4.1,0.5c0.1,0.6,0.2,0.9,3.5,1.3c-2.5-0.1-2.5,0.2-2.8,0.8
	c0.2,0.6,0.3,0.9,3,1.1c-2.1,0.1-2.2,0.3-2.4,0.9c0.2,0.6,0.3,0.9,4.3,1c-3.7,0.2-3.7,0.4-4,1.1c0.2,0.6,0.3,0.8,2.9,0.8
	c-2.5,0.3-2.6,0.6-2.8,1.2c0.3,0.6,0.3,0.8,3.6,0.6c-3.5,0.5-3.5,0.8-3.7,1.5c0.3,0.7,0.3,0.9,5.6,0.2c-5.6,1-5.6,1.3-5.8,2.1
	c0.3,0.5,0.3,0.7,2.3,0.4c-2.7,0.7-2.7,1-2.8,1.7c0.3,0.5,0.3,0.8,3.2,0.2c-3.7,1.1-4,1.4-4.1,2.2c0.4,0.6,1,0.7,6.7-0.9
	c-7,2.2-7.9,2.8-8,3.7c0.5,0.6,1.5,0.5,7.9-1.7c-5.1,1.9-5.4,2.4-5.5,3.2c0.4,0.5,0.9,0.6,3.9-0.6c-2.1,1-1.9,1.3-1.9,1.9
	c0.5,0.5,0.8,0.7,5.5-1.4c-3.8,1.9-3.6,2.1-3.6,2.9c0.5,0.4,0.7,0.6,3.8-0.9c-2.4,1.4-2.3,1.7-2.3,2.4c0.4,0.4,0.6,0.6,2.7-0.5
	c-1.6,1.1-1.6,1.4-1.5,2c0.4,0.4,0.7,0.6,2.6-0.5c-1.7,1.3-1.6,1.6-1.5,2.2c0.5,0.4,0.7,0.6,3.3-1.1c-2.5,1.9-2.5,2.2-2.3,2.9
	c0.6,0.4,0.7,0.6,4.5-2.2c-4,3.2-3.9,3.5-3.6,4.3c0.5,0.3,0.7,0.6,2.9-1.2c-2.5,2.4-2.5,2.7-2.2,3.4c0.6,0.3,0.9,0.5,4.2-2.6
	c-3.9,3.9-4,4.4-3.7,5.1c0.6,0.3,1.1,0.2,5-3.8c-4.7,5.1-5.3,5.9-4.8,6.9c1.6,0.8,3-1.7,24.7-27.2l0.5-0.1l-0.2-0.2
	c2.1-2.5,4.4-5.2,7-8.2c0,0,0,0,0,0c-22.4,37.8-24.3,40.3-23.3,41.6c0.7,0.1,1.3-0.5,4-5.3c-1.7,3.4-1.6,3.9-1.1,4.4
	c0.7,0.1,1.1-0.2,3.2-4.4c-1.4,3.3-1.2,3.5-0.7,4c0.6,0.1,0.9,0.1,2.3-2.9c-0.9,2.4-0.6,2.5-0.1,2.9c0.6,0,0.9,0,2-2.6
	c-0.6,2-0.3,2.2,0.1,2.6c0.7,0,1,0,2.3-3.8c-1,3.6-0.7,3.7-0.2,4.1c0.6,0,0.9,0,1.7-2.5c-0.5,2.5-0.2,2.6,0.3,3
	c0.6-0.1,0.9,0,1.7-3.2c-0.6,3.4-0.3,3.6,0.3,4c0.7-0.1,1,0,1.9-5.3c-0.8,5.6-0.5,5.7,0.2,6.2c0.5-0.1,0.8,0,1.1-2.1
	c-0.2,2.8,0.1,2.9,0.7,3.2c0.6-0.2,0.8-0.1,1.1-3c-0.1,3.8,0.1,4.2,0.8,4.5c0.7-0.2,1-0.7,1.2-6.6c0,7.3,0.3,8.3,1.1,8.7
	c1.2-0.4,1-2.9,0.2-29.5l0.2,0c0.4,26,0.4,27,1.6,27.4c0.6-0.3,0.9-0.7,0.8-4.5c0.3,3,0.6,2.9,1.1,3c0.6-0.3,0.9-0.5,0.7-3.2
	c0.3,2,0.6,2,1.1,2.1c0.7-0.5,1-0.6,0.2-6.1c0.9,5.2,1.1,5.1,1.9,5.2c0.6-0.4,0.9-0.6,0.3-4c0.8,3.2,1,3.2,1.7,3.2
	c0.5-0.4,0.8-0.5,0.3-3c0.8,2.5,1.1,2.5,1.7,2.5c0.6-0.5,0.9-0.6-0.2-4.1c1.3,3.8,1.6,3.8,2.3,3.8c0.5-0.4,0.7-0.6,0.1-2.6
	c1.1,2.6,1.4,2.6,2,2.6c0.5-0.5,0.7-0.6-0.1-2.9c1.4,3,1.7,3,2.3,2.9c0.5-0.5,0.7-0.8-0.7-4c2.1,4.2,2.5,4.5,3.2,4.4
	c0.5-0.6,0.6-1-1.1-4.4c2.6,4.8,3.3,5.4,4,5.3c0.9-1.2-0.5-3.4-17.6-32.1l0.1-1.1l-0.6,0.4c-1.1-1.9-2.3-3.9-3.6-6.1
	c26.3,30.7,27.9,33.7,29.6,32.9c0.5-0.9,0-1.8-4.8-6.9c3.8,3.9,4.3,4.1,5,3.8c0.3-0.8,0.2-1.3-3.7-5.2c3.4,3.1,3.6,3,4.2,2.6
	c0.2-0.7,0.3-1-2.3-3.4c2.2,1.8,2.4,1.5,2.9,1.2c0.2-0.8,0.3-1-3.6-4.3c3.8,2.9,3.9,2.6,4.5,2.2c0.2-0.7,0.2-0.9-2.3-2.8
	c2.6,1.7,2.8,1.5,3.3,1.1c0.1-0.6,0.2-0.9-1.5-2.2c2,1.1,2.2,0.9,2.6,0.5c0.1-0.6,0.1-0.9-1.5-2c2.1,1.1,2.3,0.9,2.7,0.5
	c0.1-0.7,0.2-0.9-2.3-2.4c3.1,1.5,3.3,1.3,3.8,0.9c0-0.8,0.2-1-3.6-2.9c4.6,2.1,4.9,1.9,5.4,1.4c0-0.6,0.1-0.9-1.9-1.9
	c3.1,1.1,3.6,1,3.9,0.6c-0.1-0.8-0.4-1.3-5.5-3.2c6.4,2.2,7.4,2.3,7.9,1.7c-0.1-0.9-1-1.5-8-3.7c5.7,1.6,6.2,1.5,6.7,0.9
	c-0.1-0.7-0.4-1.1-4.1-2.2c2.9,0.6,2.9,0.4,3.2-0.2c-0.1-0.6-0.2-1-2.9-1.7c2,0.3,2.1,0.1,2.3-0.4c-0.2-0.8-0.3-1.1-5.8-2.1
	c5.3,0.8,5.2,0.5,5.6-0.2c-0.2-0.7-0.3-1-3.7-1.5c3.3,0.3,3.3,0,3.6-0.6c-0.2-0.6-0.3-0.9-2.8-1.2c2.7,0,2.7-0.2,2.9-0.8
	c-0.3-0.7-0.3-1-4-1.1c4-0.1,4.1-0.4,4.3-1c-0.3-0.6-0.3-0.8-2.4-0.9c2.8-0.2,2.9-0.5,3-1.1c-0.3-0.6-0.3-0.9-2.8-0.8
	c3.3-0.4,3.4-0.7,3.5-1.3c-0.4-0.6-0.5-0.9-4.1-0.5c4.7-0.7,5-1,5.2-1.7c-0.4-0.6-0.8-0.9-4.5-0.3C358,39.6,358.9,39.2,358.9,38.5z
	 M312.1,47.8L312.1,47.8C312.1,47.8,312.1,47.8,312.1,47.8L312.1,47.8z M312.1,47.8C312.1,47.8,312.1,47.8,312.1,47.8L312.1,47.8
	C312.1,47.8,312.1,47.8,312.1,47.8L312.1,47.8z M312.1,47.8C312.1,47.8,312.1,47.8,312.1,47.8C312.1,47.8,312.1,47.8,312.1,47.8
	L312.1,47.8z M312,47.8C312.1,47.8,312.1,47.8,312,47.8C312.1,47.8,312.1,47.8,312,47.8C312.1,47.8,312.1,47.8,312,47.8
	C312,47.8,312,47.8,312,47.8z M312,47.8C312,47.8,312,47.8,312,47.8C312,47.8,312,47.8,312,47.8C312.1,47.8,312.1,47.8,312,47.8
	C312.1,47.8,312.1,47.8,312,47.8z M312.1,47.9L312.1,47.9C312.1,47.9,312.1,47.9,312.1,47.9L312.1,47.9
	C312.1,47.9,312.1,47.9,312.1,47.9z M312.1,47.9C312.1,47.9,312.1,47.9,312.1,47.9C312.1,47.9,312.1,47.9,312.1,47.9
	C312.1,47.9,312.1,47.9,312.1,47.9C312.1,47.9,312.1,47.9,312.1,47.9z M312,47.9C312,47.9,312,47.9,312,47.9L312,47.9L312,47.9
	C312,47.9,312,47.9,312,47.9z M312,47.9L312,47.9C312,47.9,312,47.9,312,47.9C312,47.9,312,47.9,312,47.9L312,47.9z M312,47.9
	L312,47.9L312,47.9C312,47.9,312,47.9,312,47.9C312,47.9,312,47.9,312,47.9z M312,47.8C312,47.8,312,47.8,312,47.8L312,47.8
	L312,47.8C312,47.8,312,47.8,312,47.8z M312,47.9L312,47.9C312,47.9,312,47.9,312,47.9C312,47.9,312,47.9,312,47.9L312,47.9z
	 M312,47.9C312,47.9,312,47.9,312,47.9C312,47.9,312,47.9,312,47.9C312,47.9,312,47.9,312,47.9C312,47.9,312,47.9,312,47.9z
	 M312,47.9L312,47.9C312,47.9,312,47.9,312,47.9L312,47.9C312,47.9,312,47.9,312,47.9z M312,47.9c-2.1,1.7-4.1,3.2-5.9,4.7
	C307.9,51.2,309.9,49.6,312,47.9C312,47.9,312,47.9,312,47.9z M312,47.8L312,47.8L312,47.8C312,47.8,312,47.8,312,47.8L312,47.8z
	 M312,47.7L312,47.7L312,47.7L312,47.7L312,47.7z M312,47.8C312,47.8,312,47.8,312,47.8L312,47.8C312,47.8,312,47.8,312,47.8z
	 M312,47.8L312,47.8L312,47.8C312,47.8,312,47.8,312,47.8z M312,47.8C312,47.8,312,47.8,312,47.8C312,47.8,312,47.8,312,47.8
	C312,47.8,312,47.8,312,47.8C312,47.8,312,47.8,312,47.8z M312,47.8L312,47.8C312,47.8,312,47.8,312,47.8L312,47.8L312,47.8z
	 M312,47.8C312,47.8,312,47.8,312,47.8C312,47.8,312,47.8,312,47.8C312,47.8,312,47.8,312,47.8C312,47.8,312,47.8,312,47.8z
	 M312,47.8L312,47.8C312,47.8,312,47.8,312,47.8L312,47.8C312,47.8,312,47.8,312,47.8z M312,47.8C312,47.8,312,47.8,312,47.8
	L312,47.8C312,47.8,312,47.8,312,47.8L312,47.8z M312,47.8C312,47.8,312,47.8,312,47.8L312,47.8L312,47.8z M312,47.8L312,47.8
	C312,47.8,312,47.8,312,47.8C312,47.8,312,47.8,312,47.8z M312,47.8C312,47.8,312,47.8,312,47.8C312,47.8,312,47.8,312,47.8
	L312,47.8z M312,47.6C312,47.6,312,47.6,312,47.6c-0.4-0.8-0.7-1.6-1-2.3C311.3,46,311.6,46.8,312,47.6z M312,47.7
	C312,47.7,312,47.7,312,47.7c-2-1.5-3.9-2.8-5.7-4.1C308.1,44.9,310,46.3,312,47.7z M312,47.7C312,47.7,312,47.7,312,47.7
	c-2.2-1.5-4.3-2.9-6.3-4.2C307.6,44.9,309.7,46.3,312,47.7z M287.8,36.3c3.7,1.7,8.1,3.8,13.5,6.4l0,0.1
	C296,40.2,291.5,38.1,287.8,36.3z M301.7,43L301.7,43c3.1,1.4,6.5,3,10.3,4.8c0,0,0,0,0,0C308.2,46,304.8,44.4,301.7,43z M312,47.9
	L312,47.9L312,47.9L312,47.9z M312,47.9L312,47.9c-0.8,0.1-1.5,0.2-2.2,0.2C310.5,48,311.2,47.9,312,47.9z M312,47.9
	C312,47.9,312,47.9,312,47.9c-2.2,1.6-4.2,3-6.1,4.4C307.8,50.9,309.9,49.5,312,47.9z M293.8,67.4c2.8-2.9,6.1-6.5,10.2-10.8l0.1,0
	C300,60.8,296.6,64.4,293.8,67.4z M304.7,55.8L304.7,55.8c2.2-2.4,4.7-5,7.3-7.9c0,0,0,0,0,0C309.4,50.8,306.9,53.4,304.7,55.8z
	 M312,47.9C312,47.9,312,47.9,312,47.9C312,47.9,312,47.9,312,47.9C312,47.9,312,47.9,312,47.9C312,47.9,312,47.9,312,47.9z
	 M312.1,48C312.1,48,312.1,48,312.1,48C312,47.9,312,47.9,312.1,48C312.1,48,312.1,48,312.1,48C312.1,48,312.1,48,312.1,48z
	 M312.1,47.9C312.1,47.9,312.1,47.9,312.1,47.9C312.1,47.9,312.1,47.9,312.1,47.9C312.1,47.9,312.1,47.9,312.1,47.9L312.1,47.9z
	 M312.1,47.9C312.1,47.9,312.1,47.9,312.1,47.9C312.1,47.9,312.1,47.9,312.1,47.9C312.1,47.9,312.1,47.9,312.1,47.9L312.1,47.9z
	 M312.1,47.8C312.1,47.8,312.1,47.8,312.1,47.8C312.1,47.8,312.1,47.8,312.1,47.8L312.1,47.8z M312.1,47.8
	C312.1,47.8,312.1,47.8,312.1,47.8C312.1,47.8,312.1,47.8,312.1,47.8L312.1,47.8z M312.1,47.6c0.4-0.8,0.7-1.6,1-2.3
	C312.8,46,312.4,46.8,312.1,47.6C312.1,47.6,312.1,47.6,312.1,47.6z M312.1,47.7c2.1-1.5,4-2.9,5.8-4.3
	C316.1,44.8,314.2,46.2,312.1,47.7C312.1,47.7,312.1,47.7,312.1,47.7z M312.1,47.7c2.3-1.5,4.4-2.9,6.4-4.3
	C316.5,44.8,314.4,46.2,312.1,47.7C312.1,47.7,312.1,47.7,312.1,47.7z M312.1,47.8c10.5-5,18.3-8.6,24.1-11.4
	C330.3,39.2,322.5,42.9,312.1,47.8C312.1,47.8,312.1,47.8,312.1,47.8z M312.8,48L312.8,48c0.4,0.1,0.8,0.1,1.2,0.2
	C313.6,48.1,313.2,48,312.8,48z M312.9,48.9C312.9,48.9,312.9,48.9,312.9,48.9C312.9,48.9,312.9,48.9,312.9,48.9
	C312.9,48.8,312.9,48.8,312.9,48.9C312.9,48.9,312.9,48.9,312.9,48.9z M312.8,48.5C312.8,48.5,312.8,48.5,312.8,48.5
	C312.8,48.5,312.8,48.5,312.8,48.5C312.8,48.5,312.8,48.5,312.8,48.5C312.8,48.5,312.8,48.5,312.8,48.5z M312.8,48.5
	C312.8,48.5,312.8,48.5,312.8,48.5C312.8,48.5,312.8,48.5,312.8,48.5C312.8,48.5,312.8,48.5,312.8,48.5
	C312.8,48.5,312.8,48.5,312.8,48.5z M318.1,52.3c-1.5-1.1-3.1-2.3-4.8-3.5c0,0,0,0,0,0C314.9,50,316.6,51.2,318.1,52.3z M314.3,48.1
	c-0.5-0.1-1.1-0.1-1.6-0.2l0,0C313.3,48,313.8,48,314.3,48.1z M312.7,47.9C312.7,47.9,312.7,47.9,312.7,47.9S312.7,47.9,312.7,47.9
	L312.7,47.9z M312.1,48C312.1,48,312.1,48,312.1,48C312.1,48,312.1,48,312.1,48C312.1,48,312.1,48,312.1,48z M312.1,47.9L312.1,47.9
	L312.1,47.9L312.1,47.9z M312.1,48C312.1,48,312.1,48,312.1,48L312.1,48C312.1,48,312.1,48,312.1,48z M312.1,48
	C312.1,48,312.1,48,312.1,48L312.1,48C312.1,48,312.1,48,312.1,48z M312.1,47.9C312.1,47.9,312.1,47.9,312.1,47.9
	C312.1,47.9,312.1,47.9,312.1,47.9C312.1,47.9,312.1,47.9,312.1,47.9z M312.1,47.9L312.1,47.9C312.1,47.9,312.1,47.9,312.1,47.9
	C312.1,47.9,312.1,47.9,312.1,47.9z M312.7,47.9C312.7,47.9,312.7,47.9,312.7,47.9c-0.2,0-0.3,0-0.5-0.1
	C312.3,47.9,312.5,47.9,312.7,47.9z M312.7,48L312.7,48c-0.2,0-0.3-0.1-0.5-0.1C312.3,47.9,312.5,47.9,312.7,48z M312.2,48
	c0.2,0.1,0.3,0.3,0.5,0.4c0,0,0,0,0,0C312.5,48.2,312.3,48.1,312.2,48C312.2,48,312.2,48,312.2,48z M312.2,48
	c0.2,0.1,0.3,0.3,0.5,0.4c0,0,0,0,0,0C312.5,48.3,312.3,48.2,312.2,48C312.2,48,312.2,48,312.2,48z M312.2,48.1
	c0.2,0.2,0.3,0.4,0.5,0.6c0,0,0,0,0,0C312.5,48.5,312.3,48.3,312.2,48.1C312.2,48.1,312.2,48.1,312.2,48.1z M312.6,61.9
	c-0.1-4.1-0.3-8.7-0.4-13.8c0.2,0.2,0.4,0.4,0.5,0.6c0.1,4.8,0.1,9.1,0.2,12.9L312.6,61.9z M312.9,49C312.9,49,312.9,49,312.9,49
	c0.1,0.5,0.2,1.1,0.3,1.6C313.1,50,313,49.5,312.9,49z M313.4,49c1.6,1.3,3.1,2.5,4.6,3.6C316.5,51.5,315,50.2,313.4,49
	C313.4,49,313.4,49,313.4,49z M314,50.1C314,50,314,50,314,50.1c6.9,7.3,12.2,13,16.3,17.3C326.1,63,320.8,57.3,314,50.1z"/>
<path class="st1" d="M334.1,36.6c16.6-9.1,17.9-10,18.6-9.3C352.8,28.3,351.3,28.7,334.1,36.6L334.1,36.6z"/>
<path class="st1" d="M331.1,38.9c21.7-10.1,23.4-11.1,24.4-10.3C355.6,29.7,353.6,30.1,331.1,38.9L331.1,38.9z"/>
<path class="st1" d="M332.9,36c16.1-9.8,16.9-10.6,17.6-9.9C350.6,27,349.6,27.3,332.9,36L332.9,36z"/>
<path class="st1" d="M331.8,35.3c15.3-10.4,16.1-11.1,16.8-10.4C348.8,25.7,348.1,25.8,331.8,35.3L331.8,35.3z"/>
<path class="st1" d="M330.9,34.5c14.7-10.9,15.3-11.8,16.1-11.2C347.2,24.2,346.5,24.4,330.9,34.5L330.9,34.5z"/>
<path class="st1" d="M330.2,33.7c14.1-11.7,14.6-12.4,15.5-11.8C345.9,22.8,345.1,23,330.2,33.7L330.2,33.7z"/>
<path class="st1" d="M329.5,32.9c13.6-12.3,14-13.1,14.9-12.6C344.8,21.2,344,21.5,329.5,32.9L329.5,32.9z"/>
<path class="st1" d="M328.9,32c13.2-13.1,13.6-13.7,14.4-13.3C343.7,19.6,342.8,20,328.9,32L328.9,32z"/>
<path class="st1" d="M328.4,30.9c12.8-13.9,13.1-14.5,14-14.1C342.8,17.7,341.8,18.1,328.4,30.9L328.4,30.9z"/>
<path class="st1" d="M327.7,28.4c11.4-15.1,12.4-16.5,13.3-16.1C341.4,13.1,340,14.2,327.7,28.4L327.7,28.4z"/>
<path class="st1" d="M328,29.8c12.5-15,12.7-15.6,13.6-15.2C342,15.4,341,16.1,328,29.8L328,29.8z"/>
<path class="st1" d="M327.4,27c10.2-14.7,11.4-17.1,12.7-17.5C341,10.2,339.4,11.8,327.4,27L327.4,27z"/>
<path class="st1" d="M313.9,33.1c2-21.6,2.9-32.3,3.9-32.4C318.7,1.1,316.9,11.7,313.9,33.1L313.9,33.1z"/>
<path class="st1" d="M314.4,34.4C317.3,13,318.5,3,319.6,3C320.4,3.5,318.2,13.2,314.4,34.4L314.4,34.4z"/>
<path class="st1" d="M315.3,32.9c4-21.2,5-28,6-28C322.1,5.3,320.2,11.9,315.3,32.9L315.3,32.9z"/>
<path class="st1" d="M316.7,30.7C321.6,9.6,322.1,6,323.1,6C323.9,6.7,322.5,10.1,316.7,30.7L316.7,30.7z"/>
<path class="st1" d="M317.8,30.3c5.7-20.6,6-23,7-23C325.5,8,324.3,10.1,317.8,30.3L317.8,30.3z"/>
<path class="st1" d="M318.8,29.9c6.8-20,6.8-21.8,7.9-21.7C327.4,8.9,326.5,10.4,318.8,29.9L318.8,29.9z"/>
<path class="st1" d="M320,29.5c7.6-19.6,7.4-20.6,8.5-20.5C329.2,9.7,328.5,10.3,320,29.5L320,29.5z"/>
<path class="st1" d="M321.4,29c8.4-19.3,8-19.7,9.1-19.6C331.2,10.2,330.8,10,321.4,29L321.4,29z"/>
<path class="st1" d="M322.7,28.6c9-18,8.9-18.5,9.9-18.7C333.2,10.8,333,10.5,322.7,28.6L322.7,28.6z"/>
<path class="st1" d="M324.1,28.2c9.9-18,9.7-18.1,10.7-18.2C335.3,10.9,335.4,10.2,324.1,28.2L324.1,28.2z"/>
<path class="st1" d="M325.7,27.5c10.1-16.7,10.5-17.6,11.6-17.6C337.7,10.7,336.9,11.8,325.7,27.5L325.7,27.5z"/>
<path class="st1" d="M290,36.6c-16.6-9.1-17.9-10-18.6-9.3C271.3,28.3,272.8,28.7,290,36.6L290,36.6z"/>
<path class="st1" d="M297,40.8c-25-11.7-27-12.9-28.1-12C268.8,30,271.1,30.5,297,40.8L297,40.8z"/>
<path class="st1" d="M291.2,36c-16-9.8-16.9-10.6-17.6-9.9C273.5,27,274.5,27.3,291.2,36L291.2,36z"/>
<path class="st1" d="M292.3,35.3c-15.3-10.4-16.1-11.1-16.8-10.4C275.3,25.7,276,25.8,292.3,35.3L292.3,35.3z"/>
<path class="st1" d="M293.2,34.5c-14.7-10.9-15.3-11.8-16.1-11.2C276.9,24.2,277.6,24.4,293.2,34.5L293.2,34.5z"/>
<path class="st1" d="M293.9,33.7c-14.1-11.7-14.7-12.4-15.5-11.8C278.2,22.8,279,23,293.9,33.7L293.9,33.7z"/>
<path class="st1" d="M294.5,32.9c-13.6-12.3-14-13.1-14.9-12.6C279.3,21.2,280.1,21.5,294.5,32.9L294.5,32.9z"/>
<path class="st1" d="M295.1,32c-13.2-13.1-13.6-13.7-14.5-13.3C280.4,19.6,281.2,20,295.1,32L295.1,32z"/>
<path class="st1" d="M295.7,30.9c-12.8-13.9-13.1-14.5-14-14.1C281.3,17.7,282.3,18.1,295.7,30.9L295.7,30.9z"/>
<path class="st1" d="M296.4,28.4C285,13.3,284,11.9,283.1,12.3C282.7,13.1,284.1,14.2,296.4,28.4L296.4,28.4z"/>
<path class="st1" d="M296.1,29.8c-12.5-15-12.7-15.6-13.6-15.2C282.1,15.4,283.1,16.1,296.1,29.8L296.1,29.8z"/>
<path class="st1" d="M296.6,27c-10.7-15.6-11.2-17.1-12.5-17.4C283.3,9.9,284.7,11.7,296.6,27L296.6,27z"/>
<path class="st1" d="M310.2,33.1c-2-21.6-2.9-32.3-3.9-32.4C305.4,1.1,307.2,11.7,310.2,33.1L310.2,33.1z"/>
<path class="st1" d="M309.7,34.4C306.8,13,305.5,3,304.5,3C303.6,3.5,305.9,13.2,309.7,34.4L309.7,34.4z"/>
<path class="st1" d="M308.8,32.9c-4-21.2-5-28-6-28C301.9,5.3,303.9,11.9,308.8,32.9L308.8,32.9z"/>
<path class="st1" d="M307.4,30.7C302.5,9.6,302,6,301,6C300.2,6.7,301.6,10.1,307.4,30.7L307.4,30.7z"/>
<path class="st1" d="M306.3,30.3c-5.7-20.6-5.9-23-7-23C298.6,8,299.8,10.1,306.3,30.3L306.3,30.3z"/>
<path class="st1" d="M305.3,29.9c-6.8-20-6.8-21.8-7.9-21.7C296.7,8.9,297.6,10.4,305.3,29.9L305.3,29.9z"/>
<path class="st1" d="M304.1,29.5c-7.6-19.6-7.4-20.6-8.5-20.5C294.9,9.7,295.6,10.3,304.1,29.5L304.1,29.5z"/>
<path class="st1" d="M302.7,29c-8.4-19.3-8-19.7-9.1-19.6C292.9,10.2,293.3,10,302.7,29L302.7,29z"/>
<path class="st1" d="M301.3,28.6c-9-18-8.9-18.5-9.9-18.7C290.9,10.8,291.1,10.5,301.3,28.6L301.3,28.6z"/>
<path class="st1" d="M300,28.2c-9.9-18-9.7-18.1-10.7-18.2C288.8,10.9,288.7,10.2,300,28.2L300,28.2z"/>
<path class="st1" d="M298.4,27.5c-10.1-16.7-10.5-17.6-11.6-17.6C286.4,10.7,287.2,11.8,298.4,27.5L298.4,27.5z"/>
<path class="st1" d="M329.4,65.4c13.7,13,15,13.9,14.6,14.8C343.1,80.6,342.2,79.3,329.4,65.4L329.4,65.4z"/>
<path class="st1" d="M329.2,68.3c13.7,13,15,13.9,14.6,14.8C342.9,83.6,342,82.2,329.2,68.3L329.2,68.3z"/>
<path class="st1" d="M329.7,64c14.3,12.2,15.3,12.8,14.8,13.7C343.7,78.2,343.1,77.3,329.7,64L329.7,64z"/>
<path class="st1" d="M330,62.8c14.6,11.4,15.5,11.9,15.1,12.8C344.3,76,344.1,75.4,330,62.8L330,62.8z"/>
<path class="st1" d="M330.5,61.7c14.9,10.6,15.9,10.9,15.6,11.8C345.3,74.1,344.9,73.4,330.5,61.7L330.5,61.7z"/>
<path class="st1" d="M331,60.8c15.4,9.8,16.3,10.1,16,11.1C346.2,72.4,345.8,71.7,331,60.8L331,60.8z"/>
<path class="st1" d="M331.6,59.9c15.9,9.1,16.8,9.3,16.6,10.3C347.4,70.8,346.8,70.2,331.6,59.9L331.6,59.9z"/>
<path class="st1" d="M332.2,59.1c16.5,8.5,17.3,8.7,17.1,9.6C348.6,69.3,348,68.6,332.2,59.1L332.2,59.1z"/>
<path class="st1" d="M333.1,58.2c17.2,7.8,17.9,8,17.7,9C350.1,67.8,349.4,67.1,333.1,58.2L333.1,58.2z"/>
<path class="st1" d="M335.3,56.8c17.9,6.2,19.5,6.7,19.4,7.7C354,65.1,352.6,64.1,335.3,56.8L335.3,56.8z"/>
<path class="st1" d="M334.1,57.5c18.1,7.2,18.7,7.3,18.6,8.2C352,66.4,351.1,65.7,334.1,57.5L334.1,57.5z"/>
<path class="st1" d="M336.8,56.3c17.6,5.3,19.5,5.2,20.2,6.3C356.9,63.6,355,63,336.8,56.3L336.8,56.3z"/>
<path class="st1" d="M326.5,45.1c21.1-4.8,31.7-7.2,32-6.3C358.4,39.8,347.8,41.3,326.5,45.1L326.5,45.1z"/>
<path class="st1" d="M325.5,46c21.3-3.9,31.1-5.7,31.5-4.7C356.7,42.2,346.9,43.1,325.5,46L325.5,46z"/>
<path class="st1" d="M327.2,46.4c21.4-2.7,28.2-3.9,28.5-2.9C355.5,44.4,348.6,44.5,327.2,46.4L327.2,46.4z"/>
<path class="st1" d="M329.7,47c21.6-1.8,25.1-2.5,25.4-1.5C354.8,46.5,351.1,46.2,329.7,47L329.7,47z"/>
<path class="st1" d="M330.4,47.9c21.3-1,23.7-1.5,24-0.4C354.1,48.4,351.6,47.9,330.4,47.9L330.4,47.9z"/>
<path class="st1" d="M331.1,48.8c21.1,0.3,22.8-0.2,23.1,0.8C353.8,50.5,352,50.1,331.1,48.8L331.1,48.8z"/>
<path class="st1" d="M331.8,49.8c21,1.1,21.9,0.7,22.1,1.7C353.5,52.4,352.7,52,331.8,49.8L331.8,49.8z"/>
<path class="st1" d="M332.7,51c20.9,2,21.3,1.5,21.4,2.6C353.7,54.5,353.7,54,332.7,51L332.7,51z"/>
<path class="st1" d="M333.6,52.1c19.9,3,20.4,2.7,20.8,3.7C353.8,56.6,354,56.3,333.6,52.1L333.6,52.1z"/>
<path class="st1" d="M334.3,53.3c20.2,3.9,20.2,3.6,20.6,4.6C354.3,58.6,355,58.5,334.3,53.3L334.3,53.3z"/>
<path class="st1" d="M335.6,54.6c19,4.4,20,4.6,20.4,5.6C355.2,60.8,353.9,60.4,335.6,54.6L335.6,54.6z"/>
<path class="st1" d="M294.7,65.4c-13.7,13-15,13.9-14.6,14.8C280.9,80.6,281.8,79.3,294.7,65.4L294.7,65.4z"/>
<path class="st1" d="M295.2,68.2c-13.7,13-15,13.9-14.6,14.8C281.5,83.4,282.4,82.1,295.2,68.2L295.2,68.2z"/>
<path class="st1" d="M294.4,64c-14.3,12.2-15.3,12.8-14.8,13.7C280.4,78.2,281,77.3,294.4,64L294.4,64z"/>
<path class="st1" d="M294.1,62.8c-14.6,11.4-15.5,11.9-15.1,12.8C279.7,76,280,75.4,294.1,62.8L294.1,62.8z"/>
<path class="st1" d="M293.6,61.7c-14.9,10.6-15.9,10.9-15.6,11.8C278.8,74.1,279.2,73.4,293.6,61.7L293.6,61.7z"/>
<path class="st1" d="M293.1,60.8c-15.4,9.8-16.3,10.1-16,11.1C277.9,72.4,278.3,71.7,293.1,60.8L293.1,60.8z"/>
<path class="st1" d="M292.5,59.9c-15.9,9.1-16.8,9.3-16.6,10.3C276.7,70.8,277.3,70.2,292.5,59.9L292.5,59.9z"/>
<path class="st1" d="M291.8,59.1c-16.5,8.5-17.3,8.7-17.1,9.6C275.5,69.3,276.1,68.6,291.8,59.1L291.8,59.1z"/>
<path class="st1" d="M291,58.2c-17.2,7.8-17.9,8-17.7,9C274,67.8,274.7,67.1,291,58.2L291,58.2z"/>
<path class="st1" d="M288.8,56.8c-17.9,6.2-19.5,6.7-19.4,7.7C270,65.1,271.5,64.1,288.8,56.8L288.8,56.8z"/>
<path class="st1" d="M290,57.5c-18.1,7.2-18.7,7.3-18.6,8.2C272,66.4,273,65.7,290,57.5L290,57.5z"/>
<path class="st1" d="M287.3,56.3c-17.6,5.3-19.5,5.2-20.2,6.3C267.1,63.6,269.1,63,287.3,56.3L287.3,56.3z"/>
<path class="st1" d="M297.6,45.1c-21.1-4.8-31.7-7.2-32-6.3C265.7,39.8,276.3,41.3,297.6,45.1L297.6,45.1z"/>
<path class="st1" d="M298.6,46c-21.3-3.9-31.1-5.7-31.5-4.7C267.3,42.2,277.2,43.1,298.6,46L298.6,46z"/>
<path class="st1" d="M296.9,46.4c-21.4-2.7-28.2-3.9-28.5-2.9C268.6,44.4,275.5,44.5,296.9,46.4L296.9,46.4z"/>
<path class="st1" d="M294.4,47c-21.6-1.8-25.1-2.5-25.4-1.5C269.3,46.5,273,46.2,294.4,47L294.4,47z"/>
<path class="st1" d="M293.6,47.9c-21.3-1-23.7-1.5-24-0.4C270,48.4,272.5,47.9,293.6,47.9L293.6,47.9z"/>
<path class="st1" d="M293,48.8c-21.1,0.3-22.8-0.2-23.1,0.8C270.3,50.5,272,50.1,293,48.8L293,48.8z"/>
<path class="st1" d="M292.3,49.8c-21,1.1-21.9,0.7-22.1,1.7C270.6,52.4,271.4,52,292.3,49.8L292.3,49.8z"/>
<path class="st1" d="M291.4,51c-20.9,2-21.3,1.5-21.4,2.6C270.4,54.5,270.4,54,291.4,51L291.4,51z"/>
<path class="st1" d="M290.5,52.1c-19.9,3-20.4,2.7-20.8,3.7C270.3,56.6,270.1,56.3,290.5,52.1L290.5,52.1z"/>
<path class="st1" d="M289.8,53.3c-20.2,3.9-20.2,3.6-20.6,4.6C269.8,58.6,269.1,58.5,289.8,53.3L289.8,53.3z"/>
<path class="st1" d="M288.5,54.6c-19,4.4-20,4.6-20.4,5.6C268.9,60.8,270.1,60.4,288.5,54.6L288.5,54.6z"/>
<path class="st1" d="M312.6,71.1c-0.4,17.9-1.1,19.6-0.3,22.3C313.2,95,313.3,90.8,312.6,71.1L312.6,71.1z"/>
<path class="st1" d="M305.1,60.1C294,78.7,288.4,88,289.2,88.6C290.2,88.8,294.9,79.2,305.1,60.1L305.1,60.1z"/>
<path class="st1" d="M319.8,60.1c11.1,18.6,16.7,27.9,15.9,28.5C334.7,88.8,330,79.2,319.8,60.1L319.8,60.1z"/>
<path class="st1" d="M306.2,59.4c-10.3,19-15.1,27.8-14.2,28.5C292.9,88,296.8,78.8,306.2,59.4L306.2,59.4z"/>
<path class="st1" d="M318.6,59.4c10.3,19,15.1,27.8,14.2,28.5C331.9,88,328,78.8,318.6,59.4L318.6,59.4z"/>
<path class="st1" d="M306.1,61.1c-9.2,19.5-12.4,25.6-11.6,26.2C295.4,87.5,297.7,81,306.1,61.1L306.1,61.1z"/>
<path class="st1" d="M318.7,61.1c9.2,19.5,12.4,25.6,11.6,26.2C329.4,87.5,327.2,81,318.7,61.1L318.7,61.1z"/>
<path class="st1" d="M305.9,63.8c-8.4,19.9-10.1,23.1-9.3,23.7C297.6,87.4,298.5,83.8,305.9,63.8L305.9,63.8z"/>
<path class="st1" d="M319,63.8c8.4,19.9,10.1,23.1,9.3,23.7C327.2,87.4,326.4,83.8,319,63.8L319,63.8z"/>
<path class="st1" d="M306.5,64.7c-7.5,20-8.7,22.1-7.8,22.7C299.7,87.3,300,84.8,306.5,64.7L306.5,64.7z"/>
<path class="st1" d="M318.3,64.7c7.5,20,8.7,22.1,7.8,22.7C325.2,87.3,324.8,84.8,318.3,64.7L318.3,64.7z"/>
<path class="st1" d="M307.1,65.6c-6.2,20.2-7.3,21.7-6.4,22.2C301.8,87.7,301.9,85.9,307.1,65.6L307.1,65.6z"/>
<path class="st1" d="M317.7,65.6c6.2,20.2,7.3,21.7,6.4,22.2C323.1,87.7,322.9,85.9,317.7,65.6L317.7,65.6z"/>
<path class="st1" d="M307.9,66.6c-5.4,20.3-6.1,21-5.2,21.6C303.7,88,303.5,87.1,307.9,66.6L307.9,66.6z"/>
<path class="st1" d="M316.9,66.6c5.4,20.3,6.1,21,5.2,21.6C321.2,88,321.4,87.1,316.9,66.6L316.9,66.6z"/>
<path class="st1" d="M308.7,67.5c-4.5,20.5-5.1,20.7-4.2,21.2C305.5,88.5,305.1,88.4,308.7,67.5L308.7,67.5z"/>
<path class="st1" d="M316.1,67.5c4.5,20.5,5.1,20.7,4.2,21.2C319.3,88.5,319.7,88.4,316.1,67.5L316.1,67.5z"/>
<path class="st1" d="M309.5,68.7c-3.3,19.8-3.7,20.2-2.9,20.9C307.5,89.2,307.2,89.4,309.5,68.7L309.5,68.7z"/>
<path class="st1" d="M315.3,68.7c3.3,19.8,3.7,20.2,2.9,20.9C317.3,89.2,317.6,89.4,315.3,68.7L315.3,68.7z"/>
<path class="st1" d="M310.4,69.4c-2.5,20.4-2.8,20.4-2,21.1C309.3,90,309,90.6,310.4,69.4L310.4,69.4z"/>
<path class="st1" d="M314.4,69.4c2.5,20.4,2.8,20.4,2,21.1C315.5,90,315.9,90.6,314.4,69.4L314.4,69.4z"/>
<path class="st1" d="M311.3,69.8c-1.7,19.8-1.8,21.3-1,22.2C311.2,91.3,311.2,89.4,311.3,69.8L311.3,69.8z"/>
<path class="st1" d="M313.6,69.8c1.7,19.8,1.8,21.3,1,22.2C313.7,91.3,313.7,89.4,313.6,69.8L313.6,69.8z"/>
<path class="st2" d="M36.1,67.9c0,0,6.9-2.7,13.9-11.5l15.9-19.3c0,0,9.1-12.2,26.8-12.2h20.4c0,0-10.2,4.4-17.5,13.1l-15.8,19
	c0,0-8,10.9-18.6,10.9H36.1z"/>
<path class="st3" d="M0,67.9c0,0,6.9-2.7,13.9-11.5l15.9-19.3c0,0,9.1-12.2,26.8-12.2h20.4c0,0-10.2,4.4-17.5,13.1l-15.8,19
	c0,0-8,10.9-18.6,10.9H0z"/>
<path class="st4" d="M130.5,27.2h-3.7v8.4h-2.6v-8.4h-3.7v-1.9h10V27.2z"/>
<path class="st4" d="M131.7,38.9h-2.3l2-4.5l-2.7-5.8h2.3l1.5,3.6l1.6-3.6h2.3L131.7,38.9z"/>
<path class="st4" d="M139.5,29.6c0.7-0.8,1.4-1.1,2.3-1.1c1.1,0,2.5,0.6,2.5,2.7v4.4h-2.2v-4.2c0-1-0.5-1.4-1.1-1.4
	c-0.5,0-1,0.3-1.5,1.1v4.5h-2.2v-7h2.2V29.6z"/>
<path class="st4" d="M152.9,34.8c-1.3,0.9-2.6,0.9-3.1,0.9c-2.4,0-4-1.4-4-3.6c0-2.1,1.5-3.6,3.7-3.6c2,0,3.7,1.4,3.6,4h-5
	c0.1,1.2,0.9,2,2.3,2c0.9,0,1.6-0.3,2.6-1V34.8z M151.1,31.3c-0.1-1-0.7-1.5-1.5-1.5c-0.9,0-1.4,0.6-1.5,1.5H151.1z"/>
<path class="st4" d="M165.7,35.1c-0.6,0.4-1.5,0.6-2.1,0.6c-0.7,0-1.1-0.2-1.2-0.8c-0.8,0.6-1.5,0.8-2.3,0.8c-1.1,0-1.9-0.8-1.9-1.7
	c0-1.7,1.2-2,4.1-2.9c0-0.6-0.3-1.2-1.2-1.2c-0.9,0-1.9,0.5-2.6,1.2v-1.8c0.9-0.6,1.9-0.8,3-0.8c1.8,0,2.9,0.6,2.9,2.1v3.2
	c0,0.3,0.1,0.5,0.4,0.5c0.2,0,0.3,0,0.8-0.4V35.1z M162.3,32.2c-1.3,0.5-1.9,0.8-1.9,1.5c0,0.4,0.3,0.7,0.7,0.7
	c0.4,0,0.8-0.2,1.2-0.5V32.2z"/>
<path class="st4" d="M168.8,29.6c0.7-0.8,1.4-1.1,2.3-1.1c1.1,0,2.5,0.6,2.5,2.7v4.4h-2.2v-4.2c0-1-0.5-1.4-1.1-1.4
	c-0.5,0-1,0.3-1.5,1.1v4.5h-2.2v-7h2.2V29.6z"/>
<path class="st4" d="M182.4,35.6h-2.2V35c-0.6,0.5-1.2,0.7-1.9,0.7c-1.9,0-3.3-1.5-3.3-3.6c0-2.1,1.4-3.6,3.4-3.6
	c0.6,0,1.2,0.2,1.8,0.4v-3.6h2.2V35.6z M180.2,30.4c-0.3-0.2-0.8-0.4-1.2-0.4c-1.1,0-1.8,0.8-1.8,2.2c0,1.3,0.6,2.1,1.7,2.1
	c0.5,0,0.8-0.2,1.3-0.6V30.4z"/>
<path class="st4" d="M191.2,35.7h-1.1l-4.5-10.4h2.7l2.4,5.7l2.6-5.7h2.1l2.6,5.7l2.4-5.7h2.7l-4.5,10.4h-1.1l-3.2-6.7L191.2,35.7z"
	/>
<path class="st4" d="M209.6,34.8c-1.3,0.9-2.6,0.9-3.1,0.9c-2.4,0-4-1.4-4-3.6c0-2.1,1.5-3.6,3.7-3.6c2,0,3.7,1.4,3.6,4h-5
	c0.1,1.2,0.9,2,2.3,2c0.9,0,1.6-0.3,2.6-1V34.8z M207.7,31.3c-0.1-1-0.7-1.5-1.5-1.5c-0.9,0-1.4,0.6-1.5,1.5H207.7z"/>
<path class="st4" d="M218.2,35.1c-0.6,0.4-1.5,0.6-2.1,0.6c-0.7,0-1.1-0.2-1.2-0.8c-0.8,0.6-1.5,0.8-2.3,0.8c-1.1,0-1.9-0.8-1.9-1.7
	c0-1.7,1.2-2,4.1-2.9c0-0.6-0.3-1.2-1.2-1.2c-0.9,0-1.9,0.5-2.6,1.2v-1.8c0.9-0.6,1.9-0.8,3-0.8c1.8,0,2.9,0.6,2.9,2.1v3.2
	c0,0.3,0.1,0.5,0.4,0.5c0.2,0,0.3,0,0.8-0.4V35.1z M214.8,32.2c-1.3,0.5-1.9,0.8-1.9,1.5c0,0.4,0.3,0.7,0.7,0.7
	c0.4,0,0.8-0.2,1.2-0.5V32.2z"/>
<path class="st4" d="M221.3,30.6L221.3,30.6c0.7-1.4,1.4-2.1,2.2-2.1c0.4,0,0.8,0.2,1.4,0.6l-0.6,1.9c-0.6-0.4-1-0.5-1.3-0.5
	c-0.8,0-1.3,0.8-1.8,2v3h-2.2v-7h2.2V30.6z"/>
<path class="st4" d="M237.4,27.2h-4.5v2.3h4.5v1.9h-4.5v4.2h-2.6V25.3h7.1V27.2z"/>
<path class="st4" d="M241.5,26.4c0,0.7-0.5,1.2-1.2,1.2c-0.7,0-1.2-0.5-1.2-1.2c0-0.7,0.5-1.2,1.2-1.2
	C241,25.2,241.5,25.7,241.5,26.4z M241.4,35.6h-2.2v-7h2.2V35.6z"/>
<path class="st4" d="M245.5,30.6L245.5,30.6c0.7-1.4,1.4-2.1,2.2-2.1c0.4,0,0.8,0.2,1.4,0.6l-0.6,1.9c-0.6-0.4-1-0.5-1.3-0.5
	c-0.8,0-1.3,0.8-1.8,2v3h-2.2v-7h2.2V30.6z"/>
<path class="st4" d="M256.5,34.8c-1.3,0.9-2.6,0.9-3.1,0.9c-2.4,0-4-1.4-4-3.6c0-2.1,1.5-3.6,3.7-3.6c2,0,3.7,1.4,3.6,4h-5
	c0.1,1.2,0.9,2,2.3,2c0.9,0,1.6-0.3,2.6-1V34.8z M254.7,31.3c-0.1-1-0.7-1.5-1.5-1.5c-0.9,0-1.4,0.6-1.5,1.5H254.7z"/>
<path class="st4" d="M128.7,53.2c-0.6,0.4-1.5,0.6-2.1,0.6c-0.7,0-1.1-0.2-1.2-0.8c-0.8,0.6-1.5,0.8-2.3,0.8c-1.1,0-1.9-0.8-1.9-1.7
	c0-1.7,1.2-2,4.1-2.9c0-0.6-0.3-1.2-1.2-1.2c-0.9,0-1.9,0.5-2.6,1.2v-1.8c0.9-0.6,1.9-0.8,3-0.8c1.8,0,2.9,0.6,2.9,2.1v3.2
	c0,0.3,0.1,0.5,0.4,0.5c0.2,0,0.3,0,0.8-0.4V53.2z M125.3,50.3c-1.3,0.5-1.9,0.8-1.9,1.5c0,0.4,0.3,0.7,0.7,0.7
	c0.4,0,0.8-0.2,1.2-0.5V50.3z"/>
<path class="st4" d="M131.8,47.7c0.7-0.8,1.4-1.1,2.3-1.1c1.1,0,2.5,0.6,2.5,2.7v4.4h-2.2v-4.2c0-1-0.5-1.4-1.1-1.4
	c-0.5,0-1,0.3-1.5,1.1v4.5h-2.2v-7h2.2V47.7z"/>
<path class="st4" d="M145.4,53.7h-2.2v-0.6c-0.6,0.5-1.2,0.7-1.9,0.7c-1.9,0-3.3-1.5-3.3-3.6c0-2.1,1.4-3.6,3.4-3.6
	c0.6,0,1.2,0.2,1.8,0.4v-3.6h2.2V53.7z M143.2,48.5c-0.3-0.2-0.8-0.4-1.2-0.4c-1.1,0-1.8,0.8-1.8,2.2c0,1.3,0.6,2.1,1.7,2.1
	c0.5,0,0.8-0.2,1.3-0.6V48.5z"/>
<path class="st4" d="M156.2,43.4c2.1,0,3.4,1.4,3.4,3c0,1.1-0.6,2-1.8,2.5c1.1,0.5,1.4,1.8,2.8,4.8h-2.8c-1.1-2.2-1.5-4.2-2.9-4.2
	h-0.7v4.2h-2.6V43.4H156.2z M154.2,47.6h1.4c0.7,0,1.4-0.3,1.4-1.2c0-0.8-0.5-1.2-1.5-1.2h-1.3V47.6z"/>
<path class="st4" d="M168.4,52.9c-1.3,0.9-2.6,0.9-3.1,0.9c-2.4,0-4-1.4-4-3.6c0-2.1,1.5-3.6,3.7-3.6c2,0,3.7,1.4,3.6,4h-5
	c0.1,1.2,0.9,2,2.3,2c0.9,0,1.6-0.3,2.6-1V52.9z M166.5,49.4c-0.1-1-0.7-1.5-1.5-1.5c-0.9,0-1.4,0.6-1.5,1.5H166.5z"/>
<path class="st4" d="M174.7,48.7c-1-0.6-1.9-0.8-2.3-0.8c-0.3,0-0.8,0.1-0.8,0.5c0,0.8,3.5,0.8,3.5,3.1c0,1.4-1,2.3-2.8,2.3
	c-1.1,0-2.2-0.3-2.5-0.5v-1.5c0.7,0.3,1.4,0.6,2.2,0.6c0.6,0,1.1-0.2,1.1-0.5c0-1-3.5-0.8-3.5-3.1c0-1.3,1.2-2.1,2.9-2.1
	c0.9,0,1.5,0.2,2.2,0.5V48.7z"/>
<path class="st4" d="M182.4,53.4c-0.9,0.3-1.6,0.5-2.4,0.5c-2.4,0-4-1.4-4-3.6c0-2.1,1.6-3.6,3.9-3.6c0.7,0,1.6,0.2,2.3,0.5v1.6
	c-0.6-0.3-1.2-0.5-1.8-0.5c-1.3,0-2.2,0.8-2.2,2c0,1.2,0.8,2.1,2.1,2.1c0.5,0,1-0.1,2-0.5V53.4z"/>
<path class="st4" d="M188.7,52.7c-0.7,0.8-1.4,1.1-2.2,1.1c-1.4,0-2.6-0.8-2.6-2.6v-4.5h2.2V51c0,1,0.5,1.3,1.1,1.3
	c0.7,0,1.3-0.5,1.5-1.2v-4.4h2.2v7h-2.2V52.7z"/>
<path class="st4" d="M199.5,52.9c-1.3,0.9-2.6,0.9-3.1,0.9c-2.4,0-4-1.4-4-3.6c0-2.1,1.5-3.6,3.7-3.6c2,0,3.7,1.4,3.6,4h-5
	c0.1,1.2,0.9,2,2.3,2c0.9,0,1.6-0.3,2.6-1V52.9z M197.6,49.4c-0.1-1-0.7-1.5-1.5-1.5c-0.9,0-1.4,0.6-1.5,1.5H197.6z"/>
<path class="st4" d="M212.3,46.1c-1.5-0.7-2.4-0.9-3.3-0.9c-0.9,0-1.5,0.3-1.5,0.8c0,1.6,5.2,1.1,5.2,4.7c0,2-1.7,3.1-4,3.1
	c-1.8,0-2.7-0.5-3.7-1v-2.2c1.5,1,2.4,1.3,3.5,1.3c1,0,1.5-0.3,1.5-1c0-1.7-5.2-1.1-5.2-4.8c0-1.8,1.5-3,3.9-3
	c1.1,0,2.2,0.2,3.5,0.8V46.1z"/>
<path class="st4" d="M221.1,52.9c-1.3,0.9-2.6,0.9-3.1,0.9c-2.4,0-4-1.4-4-3.6c0-2.1,1.5-3.6,3.7-3.6c2,0,3.7,1.4,3.6,4h-5
	c0.1,1.2,0.9,2,2.3,2c0.9,0,1.6-0.3,2.6-1V52.9z M219.3,49.4c-0.1-1-0.7-1.5-1.5-1.5c-0.9,0-1.4,0.6-1.5,1.5H219.3z"/>
<path class="st4" d="M224.9,48.7L224.9,48.7c0.7-1.4,1.4-2.1,2.2-2.1c0.4,0,0.8,0.2,1.4,0.6l-0.6,1.9c-0.6-0.4-1-0.5-1.3-0.5
	c-0.8,0-1.3,0.8-1.8,2v3h-2.2v-7h2.2V48.7z"/>
<path class="st4" d="M229,46.7h2.3l1.5,3.8l1.5-3.8h2.3l-3.2,7.1h-1.2L229,46.7z"/>
<path class="st4" d="M239.9,44.5c0,0.7-0.5,1.2-1.2,1.2c-0.7,0-1.2-0.5-1.2-1.2c0-0.7,0.5-1.2,1.2-1.2
	C239.3,43.3,239.9,43.8,239.9,44.5z M239.8,53.7h-2.2v-7h2.2V53.7z"/>
<path class="st4" d="M247.7,53.4c-0.9,0.3-1.6,0.5-2.4,0.5c-2.4,0-4-1.4-4-3.6c0-2.1,1.6-3.6,3.9-3.6c0.7,0,1.6,0.2,2.3,0.5v1.6
	c-0.6-0.3-1.2-0.5-1.8-0.5c-1.3,0-2.2,0.8-2.2,2c0,1.2,0.8,2.1,2.1,2.1c0.5,0,1-0.1,2-0.5V53.4z"/>
<path class="st4" d="M256,52.9c-1.3,0.9-2.6,0.9-3.1,0.9c-2.4,0-4-1.4-4-3.6c0-2.1,1.5-3.6,3.7-3.6c2,0,3.7,1.4,3.6,4h-5
	c0.1,1.2,0.9,2,2.3,2c0.9,0,1.6-0.3,2.6-1V52.9z M254.1,49.4c-0.1-1-0.7-1.5-1.5-1.5c-0.9,0-1.4,0.6-1.5,1.5H254.1z"/>
<path class="st4" d="M125.7,66.4c0,0.1,0.1,0.2,0.1,0.3c0,0.3-0.3,0.6-0.8,1c-0.6,0.3-1.1,0.5-1.7,0.5c-0.6,0-1.1-0.2-1.5-0.6
	c-0.4-0.4-0.6-0.9-0.6-1.5c0-1,0.3-1.9,1-2.6c0.7-0.7,1.5-1.1,2.4-1.1c0.4,0,0.7,0.1,1,0.2c0.3,0.1,0.4,0.3,0.4,0.5
	c0,0.2-0.1,0.4-0.3,0.6c-0.3-0.6-0.7-0.9-1.3-0.9c-0.6,0-1.1,0.3-1.6,0.9c-0.5,0.6-0.7,1.4-0.7,2.2c0,0.5,0.1,1,0.4,1.3
	c0.3,0.3,0.6,0.5,1.1,0.5C124.3,67.5,125,67.1,125.7,66.4z"/>
<path class="st4" d="M127.6,67.9c-0.2,0.1-0.3,0.1-0.4,0.1c-0.3,0-0.4-0.1-0.4-0.3c0-0.1,0-0.4,0.1-0.9l0.2-0.9
	c0.1-0.6,0.2-1,0.2-1.2c0-0.1,0-0.3-0.1-0.4c0.3-0.1,0.5-0.1,0.6-0.1c0.2,0,0.3,0.1,0.3,0.3c0,0.1-0.1,0.5-0.2,1.1l-0.2,1.1
	c0.5-0.9,1-1.6,1.4-2.1c0.5-0.5,0.9-0.8,1.3-0.8c0.1,0,0.3,0,0.4,0.1c0.1,0.1,0.2,0.2,0.2,0.3c0,0.2-0.2,0.4-0.6,0.7
	c-0.1-0.2-0.2-0.3-0.4-0.3c-0.3,0-0.7,0.3-1.2,1c-0.3,0.4-0.6,0.9-0.8,1.3C127.7,67.3,127.6,67.6,127.6,67.9L127.6,67.9z"/>
<path class="st4" d="M131.6,66.3c0,0.7,0.3,1.1,0.9,1.1c0.5,0,1.1-0.3,1.8-0.8c0.6-0.5,1.2-1.2,1.8-2l0.3,0.2
	c-0.5,0.9-1.1,1.7-1.9,2.3c-0.8,0.6-1.5,0.9-2.2,0.9c-0.5,0-0.8-0.1-1.1-0.4c-0.3-0.3-0.4-0.7-0.4-1.2c0-0.7,0.2-1.3,0.7-1.9
	c0.5-0.5,1-0.8,1.7-0.8c0.3,0,0.6,0.1,0.8,0.2c0.2,0.2,0.3,0.4,0.3,0.7c0,0.4-0.3,0.8-0.8,1.2C132.9,66.2,132.3,66.3,131.6,66.3z
	 M131.6,66c0.5,0,1-0.2,1.3-0.5c0.4-0.3,0.6-0.6,0.6-0.9c0-0.3-0.1-0.5-0.4-0.5c-0.3,0-0.7,0.2-0.9,0.5
	C131.9,65,131.7,65.5,131.6,66z"/>
<path class="st4" d="M138.6,65.6c-0.3,0.7-0.7,1.2-1.2,1.7c-0.5,0.5-0.9,0.7-1.2,0.7c-0.3,0-0.5-0.1-0.6-0.4
	c-0.2-0.2-0.2-0.6-0.2-0.9c0-0.8,0.2-1.5,0.7-2.1c0.5-0.6,1-0.9,1.7-0.9c0.4,0,0.8,0.1,1.2,0.4c0.1-0.2,0.3-0.3,0.8-0.3
	c0,0,0.1,0,0.1,0c-0.1,0.2-0.3,0.5-0.3,0.9l-0.1,0.3c-0.1,0.4-0.1,0.8-0.1,1.2c0,0.5,0.1,0.8,0.4,0.8c0.3,0,0.6-0.2,1.1-0.7
	c0.5-0.5,0.9-1,1.4-1.7l0.3,0.2c-0.5,0.8-1,1.5-1.6,2.1c-0.6,0.6-1.1,0.8-1.5,0.8c-0.5,0-0.8-0.5-0.8-1.4
	C138.6,66.2,138.6,65.9,138.6,65.6z M138.8,64.7c-0.5-0.3-1-0.5-1.3-0.5c-0.4,0-0.7,0.2-1,0.7c-0.3,0.5-0.4,1-0.4,1.6
	c0,0.5,0.2,0.8,0.5,0.8c0.4,0,1-0.8,2.1-2.4C138.6,64.9,138.7,64.8,138.8,64.7z"/>
<path class="st4" d="M144.3,66.4c0.1,0.1,0.1,0.2,0.1,0.3c0,0.2-0.2,0.5-0.6,0.8c-0.4,0.3-0.8,0.4-1.1,0.4c-0.3,0-0.5-0.1-0.7-0.4
	c-0.2-0.3-0.3-0.6-0.3-1c0-0.5,0.1-1.1,0.4-2l0.2-0.6h-0.6c-0.3,0-0.5,0-0.6,0.1c0.1-0.3,0.3-0.4,0.4-0.5c0.1-0.1,0.3-0.1,0.5-0.1
	h0.6l0.1-0.3c0.1-0.4,0.3-0.7,0.4-0.8c0.2-0.1,0.4-0.2,0.7-0.2c0,0,0.1,0,0.2,0c-0.2,0.3-0.4,0.7-0.6,1.3h2c0.3,0,0.6,0,0.8-0.1
	c-0.1,0.3-0.1,0.4-0.2,0.5c-0.1,0.1-0.3,0.1-0.6,0.1h-2.1c0,0.1,0,0.1-0.1,0.2c-0.3,1-0.5,1.8-0.5,2.3c0,0.6,0.2,0.9,0.6,0.9
	c0.2,0,0.5-0.1,0.7-0.3C144,66.9,144.2,66.6,144.3,66.4z"/>
<path class="st4" d="M149.3,64.8c-0.6,1-1.1,1.8-1.7,2.3c-0.6,0.6-1.1,0.8-1.6,0.8c-0.3,0-0.5-0.1-0.7-0.3c-0.2-0.2-0.3-0.4-0.3-0.7
	c0-0.1,0-0.3,0.1-0.5l0.1-0.4c0.1-0.6,0.2-1,0.2-1.3c0-0.1,0-0.3-0.1-0.3c0.3-0.1,0.5-0.1,0.6-0.1c0.2,0,0.3,0.1,0.3,0.4
	c0,0.2,0,0.5-0.1,0.8l-0.1,0.7c-0.1,0.4-0.1,0.6-0.1,0.7c0,0.3,0.1,0.5,0.4,0.5c0.3,0,0.7-0.3,1.3-0.8c0.5-0.5,1-1.2,1.5-2
	L149.3,64.8z M146,62.9L146,62.9c0.2,0,0.5-0.1,0.8-0.2c0.3-0.2,0.6-0.3,0.7-0.5c-0.1,0.3-0.3,0.6-0.6,0.9c-0.4,0.4-0.7,0.5-0.9,0.5
	c-0.1,0-0.2-0.1-0.2-0.2C145.9,63.2,145.9,63.1,146,62.9z"/>
<path class="st4" d="M149.5,66.6c0.9-1.9,1.7-2.8,2.4-2.8c0.6,0,0.8,0.6,0.8,1.7l0,0.5c0,0.5,0,0.9,0.1,1.1c0.1,0.2,0.2,0.3,0.3,0.3
	c0.2,0,0.5-0.2,0.7-0.5c0.3-0.3,0.7-1,1.3-2.1l0.3,0.2c-0.6,1-1,1.8-1.5,2.3c-0.4,0.5-0.8,0.8-1.2,0.8c-0.3,0-0.5-0.2-0.7-0.5
	c-0.1-0.3-0.2-0.8-0.2-1.6l0-0.3c0-0.4,0-0.7-0.1-0.9c-0.1-0.2-0.1-0.2-0.3-0.2c-0.3,0-0.9,0.7-1.6,2c-0.2,0.3-0.3,0.5-0.3,0.6
	c-0.2,0.3-0.3,0.6-0.3,0.7c0,0.1,0,0.1,0,0.2c-0.1,0.1-0.3,0.1-0.4,0.1c-0.3,0-0.4-0.1-0.4-0.4c0-0.1,0-0.4,0.1-1.1l0.1-0.8
	c0-0.3,0.1-0.6,0.1-0.8c0-0.3-0.1-0.5-0.2-0.6c0.1,0,0.1,0,0.3-0.1c0.2-0.1,0.3-0.1,0.4-0.1c0.2,0,0.3,0.1,0.3,0.4
	c0,0.2,0,0.4-0.1,0.8c0,0.1,0,0.2,0,0.2L149.5,66.6z"/>
<path class="st4" d="M157.5,65.6c-0.2,0.5-0.6,0.9-1.1,1.3c-0.5,0.4-0.9,0.6-1.2,0.6c-0.3,0-0.5-0.1-0.7-0.3
	c-0.2-0.2-0.3-0.4-0.3-0.7c0-0.7,0.3-1.3,0.8-1.9c0.5-0.6,1.1-0.9,1.7-0.9c0.3,0,0.7,0.1,1,0.3c0-0.2,0.1-0.4,0.2-0.5
	c0.1-0.1,0.3-0.1,0.7-0.2c-0.2,0.4-0.4,1.3-0.6,2.8l0,0.4c1.1-0.6,1.9-1.3,2.5-2l0.3,0.2c-0.6,0.7-1.5,1.5-2.8,2.4
	c0,0.1,0,0.2,0,0.2c0,0.6-0.1,1.1-0.2,1.4s-0.3,0.6-0.5,0.9c-0.5,0.5-1.1,0.8-1.8,0.8c-0.4,0-0.7-0.1-0.9-0.3
	c-0.2-0.2-0.3-0.4-0.3-0.7c0-0.3,0.1-0.5,0.3-0.7c0.2-0.2,0.6-0.5,1.1-0.8c0.4-0.2,0.9-0.5,1.6-0.9L157.5,65.6z M157.7,64.7
	c-0.3-0.3-0.7-0.5-1.1-0.5c-0.4,0-0.7,0.2-1,0.7c-0.3,0.5-0.5,1-0.5,1.5c0,0.4,0.1,0.6,0.4,0.6c0.3,0,0.6-0.2,1.1-0.7
	C157,65.8,157.4,65.3,157.7,64.7z M157.4,67.6c-0.1,0.1-0.4,0.3-0.9,0.5c-0.9,0.5-1.3,0.9-1.3,1.3c0,0.2,0.1,0.3,0.2,0.4
	c0.1,0.1,0.3,0.2,0.5,0.2C156.9,70,157.4,69.2,157.4,67.6z"/>
<path class="st4" d="M165.4,66.4c0.1,0.1,0.1,0.2,0.1,0.3c0,0.2-0.2,0.5-0.6,0.8c-0.4,0.3-0.8,0.4-1.1,0.4c-0.3,0-0.5-0.1-0.7-0.4
	c-0.2-0.3-0.3-0.6-0.3-1c0-0.5,0.1-1.1,0.4-2l0.2-0.6h-0.6c-0.3,0-0.5,0-0.6,0.1c0.1-0.3,0.3-0.4,0.4-0.5c0.1-0.1,0.3-0.1,0.5-0.1
	h0.6l0.1-0.3c0.1-0.4,0.3-0.7,0.4-0.8c0.2-0.1,0.4-0.2,0.7-0.2c0,0,0.1,0,0.2,0c-0.2,0.3-0.4,0.7-0.6,1.3h2c0.3,0,0.6,0,0.8-0.1
	c-0.1,0.3-0.1,0.4-0.2,0.5c-0.1,0.1-0.3,0.1-0.6,0.1H164c0,0.1,0,0.1-0.1,0.2c-0.3,1-0.5,1.8-0.5,2.3c0,0.6,0.2,0.9,0.6,0.9
	c0.2,0,0.5-0.1,0.7-0.3C165.1,66.9,165.3,66.6,165.4,66.4z"/>
<path class="st4" d="M166.8,66.3c0.7-1.7,1.5-2.5,2.3-2.5c0.3,0,0.5,0.1,0.7,0.4s0.2,0.7,0.2,1.3l0,0.5c0,0.8,0.1,1.2,0.3,1.2
	c0.2,0,0.5-0.2,0.9-0.7c0.4-0.5,0.8-1,1.2-1.7l0.3,0.2c-0.4,0.8-0.9,1.5-1.4,2c-0.5,0.6-0.9,0.8-1.3,0.8c-0.3,0-0.5-0.1-0.7-0.4
	c-0.1-0.3-0.2-0.8-0.2-1.4v-0.3c0-0.8-0.1-1.1-0.4-1.1c-0.4,0-0.8,0.5-1.4,1.5c-0.6,1-0.9,1.6-0.9,1.8c0,0.1,0,0.1,0.1,0.2
	c-0.1,0.1-0.3,0.1-0.4,0.1c-0.2,0-0.3-0.1-0.3-0.3c0-0.1,0.1-0.6,0.2-1.3c0,0,0-0.2,0.1-0.5l0.8-3.9c-0.2,0.1-0.3,0.1-0.5,0.1
	c-0.5,0-0.7-0.3-0.7-0.9c0.2,0.2,0.5,0.3,0.8,0.3c0.4,0,0.9-0.1,1.3-0.3l-0.6,3.1c0,0-0.1,0.5-0.3,1.4
	C166.9,65.9,166.9,66,166.8,66.3z"/>
<path class="st4" d="M172.5,66.3c0,0.7,0.3,1.1,0.9,1.1c0.5,0,1.1-0.3,1.8-0.8c0.6-0.5,1.2-1.2,1.8-2l0.3,0.2
	c-0.5,0.9-1.1,1.7-1.9,2.3c-0.8,0.6-1.5,0.9-2.2,0.9c-0.5,0-0.8-0.1-1.1-0.4c-0.3-0.3-0.4-0.7-0.4-1.2c0-0.7,0.2-1.3,0.7-1.9
	c0.5-0.5,1-0.8,1.7-0.8c0.3,0,0.6,0.1,0.8,0.2c0.2,0.2,0.3,0.4,0.3,0.7c0,0.4-0.3,0.8-0.8,1.2C173.8,66.2,173.2,66.3,172.5,66.3z
	 M172.5,66c0.5,0,1-0.2,1.3-0.5c0.4-0.3,0.6-0.6,0.6-0.9c0-0.3-0.1-0.5-0.4-0.5c-0.3,0-0.7,0.2-0.9,0.5
	C172.8,65,172.6,65.5,172.5,66z"/>
<path class="st4" d="M178.8,66.6c0,0.4,0.1,0.7,0.3,1c0.2,0.2,0.5,0.3,0.9,0.3c0.4,0,0.7-0.1,0.9-0.3c0.3-0.2,0.4-0.5,0.4-0.7
	c0-0.3-0.3-0.7-0.9-1.3l-0.4-0.4c-0.5-0.5-0.8-0.9-0.8-1.4c0-0.5,0.2-0.9,0.6-1.2c0.4-0.3,0.9-0.5,1.4-0.5c0.3,0,0.6,0,0.7,0.1
	c0.2,0.1,0.3,0.2,0.3,0.4c0,0.1-0.1,0.3-0.2,0.5c-0.2-0.4-0.6-0.6-1.1-0.6c-0.3,0-0.6,0.1-0.8,0.3c-0.2,0.2-0.3,0.4-0.3,0.7
	c0,0.2,0,0.3,0.1,0.4c0.1,0.1,0.3,0.3,0.6,0.6l0.3,0.3c0.6,0.6,0.9,1.1,0.9,1.5c0,0.5-0.2,1-0.6,1.3c-0.4,0.3-1,0.5-1.6,0.5
	c-0.4,0-0.8-0.1-1.1-0.3c-0.3-0.2-0.4-0.5-0.4-0.8C178.3,67.1,178.5,66.8,178.8,66.6z"/>
<path class="st4" d="M186.4,65.6c-0.3,0.7-0.7,1.2-1.2,1.7c-0.5,0.5-0.9,0.7-1.2,0.7c-0.3,0-0.5-0.1-0.6-0.4
	c-0.2-0.2-0.2-0.6-0.2-0.9c0-0.8,0.2-1.5,0.7-2.1c0.5-0.6,1-0.9,1.7-0.9c0.4,0,0.8,0.1,1.2,0.4c0.1-0.2,0.3-0.3,0.8-0.3
	c0,0,0.1,0,0.1,0c-0.1,0.2-0.3,0.5-0.3,0.9l-0.1,0.3c-0.1,0.4-0.1,0.8-0.1,1.2c0,0.5,0.1,0.8,0.4,0.8c0.3,0,0.6-0.2,1.1-0.7
	c0.5-0.5,0.9-1,1.4-1.7l0.3,0.2c-0.5,0.8-1,1.5-1.6,2.1c-0.6,0.6-1.1,0.8-1.5,0.8c-0.5,0-0.8-0.5-0.8-1.4
	C186.3,66.2,186.3,65.9,186.4,65.6z M186.5,64.7c-0.5-0.3-1-0.5-1.3-0.5c-0.4,0-0.7,0.2-1,0.7c-0.3,0.5-0.4,1-0.4,1.6
	c0,0.5,0.2,0.8,0.5,0.8c0.4,0,1-0.8,2.1-2.4C186.4,64.9,186.5,64.8,186.5,64.7z"/>
<path class="st4" d="M189.8,64.9L189.8,64.9c-0.4,0-0.8,0.1-1.1,0.3c0.1-0.3,0.1-0.5,0.3-0.6c0.1-0.1,0.4-0.1,0.7-0.1h0.1l0.1-0.6
	c0.2-0.8,0.4-1.4,0.8-1.8c0.5-0.5,1-0.7,1.5-0.7c0.2,0,0.4,0.1,0.6,0.2c0.2,0.1,0.2,0.2,0.2,0.4c0,0.1-0.2,0.3-0.5,0.5
	c-0.1-0.4-0.3-0.6-0.6-0.6c-0.6,0-1,0.6-1.2,1.9l-0.2,0.8h1.3c0.6,0,1,0,1.3-0.1c-0.1,0.3-0.3,0.4-0.4,0.5c-0.2,0.1-0.6,0.1-1.2,0.1
	h-1.1l-0.6,3.2c-0.1,0.3-0.1,0.6-0.1,0.8c0,0.1,0,0.3,0.1,0.4c-0.2,0.1-0.4,0.1-0.6,0.1c-0.2,0-0.3-0.1-0.3-0.3c0-0.2,0-0.5,0.1-0.9
	L189.8,64.9z"/>
<path class="st4" d="M192.8,66.3c0,0.7,0.3,1.1,0.9,1.1c0.5,0,1.1-0.3,1.8-0.8c0.6-0.5,1.2-1.2,1.8-2l0.3,0.2
	c-0.5,0.9-1.1,1.7-1.9,2.3c-0.8,0.6-1.5,0.9-2.2,0.9c-0.5,0-0.8-0.1-1.1-0.4c-0.3-0.3-0.4-0.7-0.4-1.2c0-0.7,0.2-1.3,0.7-1.9
	c0.5-0.5,1-0.8,1.7-0.8c0.3,0,0.6,0.1,0.8,0.2c0.2,0.2,0.3,0.4,0.3,0.7c0,0.4-0.3,0.8-0.8,1.2C194.1,66.2,193.5,66.3,192.8,66.3z
	 M192.8,66c0.5,0,1-0.2,1.3-0.5c0.4-0.3,0.6-0.6,0.6-0.9c0-0.3-0.1-0.5-0.4-0.5c-0.3,0-0.7,0.2-0.9,0.5
	C193.1,65,192.9,65.5,192.8,66z"/>
<path class="st4" d="M198.8,66.6c0.1,0.2,0.1,0.4,0.1,0.5c0,0.4-0.2,0.7-0.5,1c-0.3,0.3-0.7,0.4-1.1,0.4c-0.3,0-0.5-0.1-0.6-0.2
	c-0.2-0.1-0.3-0.3-0.3-0.5c0-0.2,0.1-0.4,0.4-0.6c0.2-0.2,0.7-0.4,1.2-0.7l-0.3-0.5c-0.4-0.6-0.5-1-0.5-1.4c0-0.5,0.3-0.9,0.8-1.2
	c0.3,0.1,0.5,0.3,0.5,0.5c0,0.3-0.2,0.6-0.7,0.8l0.4,0.8l0.3,0.6c0.5-0.3,0.8-0.5,1.1-0.7c0.2-0.2,0.5-0.5,0.9-0.9l0.3,0.2
	C200.3,65.5,199.6,66.1,198.8,66.6z M198.1,66.9c-0.7,0.4-1.1,0.7-1.1,0.9c0,0.2,0.1,0.3,0.4,0.3c0.2,0,0.4-0.1,0.5-0.2
	c0.1-0.1,0.2-0.3,0.2-0.6C198.2,67.2,198.2,67.1,198.1,66.9z"/>
<path class="st4" d="M202.7,66.4c0.1,0.1,0.1,0.2,0.1,0.3c0,0.2-0.2,0.5-0.6,0.8c-0.4,0.3-0.8,0.4-1.1,0.4c-0.3,0-0.5-0.1-0.7-0.4
	c-0.2-0.3-0.3-0.6-0.3-1c0-0.5,0.1-1.1,0.4-2l0.2-0.6h-0.6c-0.3,0-0.5,0-0.6,0.1c0.1-0.3,0.3-0.4,0.4-0.5c0.1-0.1,0.3-0.1,0.5-0.1
	h0.6l0.1-0.3c0.1-0.4,0.3-0.7,0.4-0.8c0.2-0.1,0.4-0.2,0.7-0.2c0,0,0.1,0,0.2,0c-0.2,0.3-0.4,0.7-0.6,1.3h2c0.3,0,0.6,0,0.8-0.1
	c-0.1,0.3-0.1,0.4-0.2,0.5c-0.1,0.1-0.3,0.1-0.6,0.1h-2.1c0,0.1,0,0.1-0.1,0.2c-0.3,1-0.5,1.8-0.5,2.3c0,0.6,0.2,0.9,0.6,0.9
	c0.2,0,0.5-0.1,0.7-0.3C202.4,66.9,202.6,66.6,202.7,66.4z"/>
<path class="st4" d="M210.2,66.4c0,0.1,0.1,0.2,0.1,0.3c0,0.3-0.3,0.6-0.8,1c-0.6,0.3-1.1,0.5-1.7,0.5c-0.6,0-1.1-0.2-1.5-0.6
	c-0.4-0.4-0.6-0.9-0.6-1.5c0-1,0.3-1.9,1-2.6c0.7-0.7,1.5-1.1,2.4-1.1c0.4,0,0.7,0.1,1,0.2c0.3,0.1,0.4,0.3,0.4,0.5
	c0,0.2-0.1,0.4-0.3,0.6c-0.3-0.6-0.7-0.9-1.3-0.9c-0.6,0-1.1,0.3-1.6,0.9c-0.5,0.6-0.7,1.4-0.7,2.2c0,0.5,0.1,1,0.4,1.3
	c0.3,0.3,0.6,0.5,1.1,0.5C208.8,67.5,209.6,67.1,210.2,66.4z"/>
<path class="st4" d="M215.3,65.1c0,0.1,0,0.1,0,0.2c0,0.7-0.2,1.4-0.7,1.9c-0.5,0.5-1.1,0.8-1.7,0.8c-0.5,0-0.9-0.2-1.2-0.5
	c-0.3-0.3-0.5-0.7-0.5-1.3c0-0.6,0.2-1.1,0.6-1.5c0.4-0.4,0.9-0.6,1.5-0.6c0.1,0,0.2,0,0.3,0c-0.1-0.1-0.1-0.2-0.1-0.3
	c0-0.1,0-0.2,0.1-0.3c0.6,0.1,1.1,0.4,1.5,0.9c0.4,0.3,0.9,0.4,1.3,0.4c0.3,0,0.6-0.1,1-0.3l0.2,0.3c-0.4,0.3-0.8,0.4-1.2,0.4
	C216,65.3,215.6,65.2,215.3,65.1z M214.4,64.8c-0.2-0.1-0.4-0.2-0.6-0.3c-0.1,0-0.2,0-0.3,0c-0.4,0-0.8,0.2-1.1,0.6
	c-0.3,0.4-0.5,0.8-0.5,1.3c0,0.4,0.1,0.6,0.3,0.9c0.2,0.2,0.5,0.3,0.8,0.3c0.4,0,0.8-0.2,1.1-0.6c0.3-0.4,0.5-0.9,0.5-1.5
	C214.5,65.2,214.5,65,214.4,64.8z"/>
<path class="st4" d="M217.7,66.6c0.9-1.9,1.7-2.9,2.4-2.9c0.3,0,0.5,0.2,0.5,0.7c0,0.2-0.1,0.6-0.2,1.3l-0.2,1.1
	c0.4-0.9,0.9-1.7,1.4-2.2c0.5-0.6,0.9-0.8,1.2-0.8c0.4,0,0.6,0.2,0.6,0.7c0,0.2-0.1,0.5-0.2,1.1l-0.1,0.6c-0.1,0.4-0.1,0.6-0.1,0.8
	c0,0.3,0.1,0.5,0.3,0.5c0.5,0,1.2-0.9,2.2-2.7l0.3,0.2c-1.1,2.1-2,3.2-2.9,3.2c-0.5,0-0.8-0.3-0.8-1c0-0.2,0-0.6,0.2-1.1l0.1-0.5
	c0.1-0.4,0.1-0.6,0.1-0.7c0-0.1-0.1-0.2-0.2-0.2c-0.3,0-0.8,0.5-1.5,1.6c-0.6,1-1,1.5-1,1.7c0,0,0,0,0,0.1c0,0-0.1,0-0.2,0
	c0,0-0.1,0-0.2,0c-0.2,0-0.3-0.1-0.3-0.3c0-0.1,0-0.3,0.1-0.6c0-0.1,0.1-0.3,0.1-0.4l0.2-0.8c0.1-0.6,0.2-0.9,0.2-1
	c0-0.2-0.1-0.3-0.2-0.3c-0.3,0-0.7,0.5-1.2,1.5c-0.5,1-0.8,1.5-0.8,1.7c0,0.1,0,0.1,0.1,0.2c-0.1,0.1-0.3,0.1-0.4,0.1
	c-0.3,0-0.4-0.1-0.4-0.4c0,0,0-0.4,0.1-1.1l0.1-0.8c0-0.3,0-0.5,0-0.8c0-0.3-0.1-0.5-0.2-0.7c0.3-0.1,0.5-0.2,0.6-0.2
	c0.2,0,0.3,0.1,0.3,0.4c0,0.1,0,0.4-0.1,1L217.7,66.6z"/>
<path class="st4" d="M226,66.6c0.9-1.9,1.7-2.9,2.4-2.9c0.3,0,0.5,0.2,0.5,0.7c0,0.2-0.1,0.6-0.2,1.3l-0.2,1.1
	c0.4-0.9,0.9-1.7,1.4-2.2c0.5-0.6,0.9-0.8,1.2-0.8c0.4,0,0.6,0.2,0.6,0.7c0,0.2-0.1,0.5-0.2,1.1l-0.1,0.6c-0.1,0.4-0.1,0.6-0.1,0.8
	c0,0.3,0.1,0.5,0.3,0.5c0.5,0,1.2-0.9,2.2-2.7l0.3,0.2c-1.1,2.1-2,3.2-2.9,3.2c-0.5,0-0.8-0.3-0.8-1c0-0.2,0-0.6,0.2-1.1l0.1-0.5
	c0.1-0.4,0.1-0.6,0.1-0.7c0-0.1-0.1-0.2-0.2-0.2c-0.3,0-0.8,0.5-1.5,1.6c-0.6,1-1,1.5-1,1.7c0,0,0,0,0,0.1c0,0-0.1,0-0.2,0
	c0,0-0.1,0-0.2,0c-0.2,0-0.3-0.1-0.3-0.3c0-0.1,0-0.3,0.1-0.6c0-0.1,0.1-0.3,0.1-0.4l0.2-0.8c0.1-0.6,0.2-0.9,0.2-1
	c0-0.2-0.1-0.3-0.2-0.3c-0.3,0-0.7,0.5-1.2,1.5c-0.5,1-0.8,1.5-0.8,1.7c0,0.1,0,0.1,0.1,0.2c-0.1,0.1-0.3,0.1-0.4,0.1
	c-0.3,0-0.4-0.1-0.4-0.4c0,0,0-0.4,0.1-1.1l0.1-0.8c0-0.3,0-0.5,0-0.8c0-0.3-0.1-0.5-0.2-0.7c0.3-0.1,0.5-0.2,0.6-0.2
	c0.2,0,0.3,0.1,0.3,0.4c0,0.1,0,0.4-0.1,1L226,66.6z"/>
<path class="st4" d="M236.4,65.6c-0.3,0.7-0.7,1.3-1.2,1.7c-0.4,0.4-0.8,0.7-1.1,0.7c-0.3,0-0.5-0.1-0.7-0.3
	c-0.2-0.2-0.3-0.4-0.3-0.8c0-0.4,0.1-1.1,0.4-2.2c0.1-0.3,0.1-0.5,0.1-0.5c0-0.1,0-0.2-0.1-0.2l0.5,0c0.2,0,0.3,0.1,0.3,0.3
	c0,0.1-0.1,0.4-0.2,0.9c0,0.2-0.1,0.3-0.1,0.3l-0.1,0.2c-0.1,0.5-0.2,0.8-0.2,1c0,0.4,0.1,0.6,0.4,0.6c0.4,0,1-0.5,1.6-1.6
	c0.5-0.8,0.8-1.4,0.8-1.8c0,0,0-0.1,0-0.1c0.2-0.1,0.4-0.1,0.5-0.1c0.2,0,0.3,0.1,0.3,0.2c0,0,0,0.1,0,0.1c0,0,0,0.1-0.1,0.3
	c0,0,0,0.1-0.1,0.3c0,0.1-0.1,0.2-0.1,0.3l0,0.2c-0.1,0.4-0.1,0.8-0.1,1.2c0,0.6,0.1,0.8,0.4,0.8c0.6,0,1.3-0.8,2.2-2.5l0.3,0.2
	c-1,2-2,3-2.8,3c-0.6,0-0.9-0.5-0.9-1.5C236.4,66.1,236.4,65.9,236.4,65.6z"/>
<path class="st4" d="M240.2,66.6c0.9-1.9,1.7-2.8,2.4-2.8c0.6,0,0.8,0.6,0.8,1.7l0,0.5c0,0.5,0,0.9,0.1,1.1c0.1,0.2,0.2,0.3,0.3,0.3
	c0.2,0,0.5-0.2,0.7-0.5c0.3-0.3,0.7-1,1.3-2.1l0.3,0.2c-0.6,1-1,1.8-1.5,2.3c-0.4,0.5-0.8,0.8-1.2,0.8c-0.3,0-0.5-0.2-0.7-0.5
	c-0.1-0.3-0.2-0.8-0.2-1.6l0-0.3c0-0.4,0-0.7-0.1-0.9c-0.1-0.2-0.1-0.2-0.3-0.2c-0.3,0-0.9,0.7-1.6,2c-0.2,0.3-0.3,0.5-0.3,0.6
	c-0.2,0.3-0.3,0.6-0.3,0.7c0,0.1,0,0.1,0,0.2c-0.1,0.1-0.3,0.1-0.4,0.1c-0.3,0-0.4-0.1-0.4-0.4c0-0.1,0-0.4,0.1-1.1l0.1-0.8
	c0-0.3,0.1-0.6,0.1-0.8c0-0.3-0.1-0.5-0.2-0.6c0.1,0,0.1,0,0.3-0.1c0.2-0.1,0.3-0.1,0.4-0.1c0.2,0,0.3,0.1,0.3,0.4
	c0,0.2,0,0.4-0.1,0.8c0,0.1,0,0.2,0,0.2L240.2,66.6z"/>
<path class="st4" d="M249.7,64.8c-0.6,1-1.1,1.8-1.7,2.3c-0.6,0.6-1.1,0.8-1.6,0.8c-0.3,0-0.5-0.1-0.7-0.3c-0.2-0.2-0.3-0.4-0.3-0.7
	c0-0.1,0-0.3,0.1-0.5l0.1-0.4c0.1-0.6,0.2-1,0.2-1.3c0-0.1,0-0.3-0.1-0.3c0.3-0.1,0.5-0.1,0.6-0.1c0.2,0,0.3,0.1,0.3,0.4
	c0,0.2,0,0.5-0.1,0.8l-0.1,0.7c-0.1,0.4-0.1,0.6-0.1,0.7c0,0.3,0.1,0.5,0.4,0.5c0.3,0,0.7-0.3,1.3-0.8c0.5-0.5,1-1.2,1.5-2
	L249.7,64.8z M246.3,62.9L246.3,62.9c0.2,0,0.5-0.1,0.8-0.2c0.3-0.2,0.6-0.3,0.7-0.5c-0.1,0.3-0.3,0.6-0.6,0.9
	c-0.4,0.4-0.7,0.5-0.9,0.5c-0.1,0-0.2-0.1-0.2-0.2C246.2,63.2,246.3,63.1,246.3,62.9z"/>
<path class="st4" d="M251.5,66.4c0.1,0.1,0.1,0.2,0.1,0.3c0,0.2-0.2,0.5-0.6,0.8c-0.4,0.3-0.8,0.4-1.1,0.4c-0.3,0-0.5-0.1-0.7-0.4
	c-0.2-0.3-0.3-0.6-0.3-1c0-0.5,0.1-1.1,0.4-2l0.2-0.6h-0.6c-0.3,0-0.5,0-0.6,0.1c0.1-0.3,0.3-0.4,0.4-0.5c0.1-0.1,0.3-0.1,0.5-0.1
	h0.6l0.1-0.3c0.1-0.4,0.3-0.7,0.4-0.8c0.2-0.1,0.4-0.2,0.7-0.2c0,0,0.1,0,0.2,0c-0.2,0.3-0.4,0.7-0.6,1.3h2c0.3,0,0.6,0,0.8-0.1
	c-0.1,0.3-0.1,0.4-0.2,0.5c-0.1,0.1-0.3,0.1-0.6,0.1h-2.1c0,0.1,0,0.1-0.1,0.2c-0.3,1-0.5,1.8-0.5,2.3c0,0.6,0.2,0.9,0.6,0.9
	c0.2,0,0.5-0.1,0.7-0.3C251.2,66.9,251.4,66.6,251.5,66.4z"/>
<path class="st4" d="M253.6,67.9c-0.1-0.7-0.3-1.3-0.6-2c-0.3-0.7-0.6-1.2-0.9-1.5c0.2-0.2,0.4-0.2,0.6-0.2c0.2,0,0.3,0.1,0.4,0.2
	c0.1,0.2,0.3,0.5,0.4,0.9c0.3,0.7,0.5,1.4,0.6,2c0.8-1.3,1.3-2.5,1.4-3.5c0.4,0.1,0.7,0.2,0.7,0.4c0,0.2-0.2,0.7-0.6,1.5
	c-0.4,0.8-0.8,1.4-1.3,2.1c-0.5,0.7-1,1.3-1.6,1.7c-0.5,0.4-1,0.6-1.3,0.6c-0.3,0-0.5-0.1-0.5-0.4c0-0.1,0-0.3,0.1-0.4
	c0.1,0.1,0.3,0.1,0.5,0.1C252.2,69.3,252.9,68.8,253.6,67.9z"/>
<path class="st5" d="M335.7,69.1h10.9v10.1h-69V69.1h11.3l-0.1,0c-5.2-5.7-8.4-13.3-8.4-21.6c0-17.6,14.3-31.9,31.9-31.9
	c17.6,0,31.9,14.3,31.9,31.9c0,8-3.5,16.3-8.4,21.6L335.7,69.1z"/>
<path class="st6" d="M312.3,16.1c17.3,0,31.4,14.1,31.4,31.4c0,7.4-3.2,15.7-8.2,21.2l0,0c-0.2,0.1-0.4,0.3-0.3,0.6
	c0,0.2,0.3,0.4,0.5,0.4h10.4v9.1h-68v-9.1h10.8c0.3,0,0.5-0.2,0.5-0.5c0-0.2-0.1-0.4-0.3-0.5c-5.3-5.8-8.2-13.3-8.2-21.2
	C280.9,30.2,295,16.1,312.3,16.1 M312.3,15.6c-17.6,0-31.9,14.3-31.9,31.9c0,8.3,3.2,15.9,8.4,21.6l0.1,0h-11.3v10.1h69V69.1h-10.9
	l0.1-0.1c4.9-5.3,8.4-13.6,8.4-21.6C344.2,29.9,329.9,15.6,312.3,15.6L312.3,15.6z"/>
<path class="st7" d="M321.7,69.1c8.3-3.7,14.1-12,14.1-21.6c0-13-10.6-23.6-23.6-23.6c-13,0-23.6,10.6-23.6,23.6
	c0,9.7,5.9,18,14.2,21.6l-10.2,0c-6-5.4-9.7-13.2-9.7-21.9c0-16.3,13.2-29.6,29.5-29.6c16.3,0,29.6,13.2,29.6,29.6
	c0,8.7-3.8,16.5-9.8,21.9L321.7,69.1z"/>
<rect x="277.6" y="71" class="st7" width="69" height="5.9"/>
<circle class="st8" cx="312.3" cy="47.2" r="9.2"/>
<path class="st9" d="M291.7,40.3c-0.2,0.4-0.3,0.7-0.4,1.2c1.8,1.2,4.2,0.7,7.3-0.4c-0.1-0.4-0.2-0.7-0.3-1
	C295.5,41,293.4,41.4,291.7,40.3L291.7,40.3z"/>
<path class="st9" d="M333.4,42.5c0.4,1.5,0.5,3.2,0.5,4.8c0,12-9.8,21.7-21.8,21.7c-12,0-21.7-9.8-21.7-21.7c0-1.6,0.1-3.2,0.5-4.8
	c2,1.4,4.5,0.8,7.9-0.4c0.6,1.3,1.3,2.4,2.2,3.3c-0.1,0.7-0.2,1.2-0.2,1.9c0,1.7,0.4,3.3,1.1,4.7c-3.9-0.5-7.8-3.5-10.4-8.2
	c-0.4,4.6-0.2,7.7,1.8,12.3c3.3,2.1,9.3,3.2,13.6,1.1c1.6,0.8,3.2,1.3,5.1,1.3c0.5,0,0.9,0,1.4-0.1c-1.7,3.6-5.7,6.2-11,7.3
	c4.3,1.9,7.2,2.6,12.2,2c3-2.5,6-7.8,5.2-12.6c1.6-1.6,2.8-3.7,3.1-6c2.9,2.8,4.3,7.4,3.7,12.8c3.1-3.5,4.7-6.1,5.7-11
	c-1.5-3.7-5.7-8.2-10.6-9C325.9,40.9,329.1,45.3,333.4,42.5L333.4,42.5z"/>
<path class="st9" d="M332.7,40.3c-4.5,2.6-7-3.1-12.3-0.5c0.3,0.4,0.6,0.7,0.9,1.1c4.8-1.7,7.3,3.3,11.8,0.5
	C333,40.9,332.9,40.6,332.7,40.3L332.7,40.3z"/>
<path class="st9" d="M332.3,39.1c-3.2-8-11.1-13.5-20.1-13.5c-9.1,0-17,5.6-20.1,13.7c1.6,0.8,3.5,0.4,5.9-0.3
	c-0.4-2.4-0.4-4.8,0-6.6c3.8-3.4,6.6-4.5,11.1-5.6c-3.2,3.5-4.8,7.2-4.7,10.7c0.7,0,1.4,0.1,2.1,0.3c1.2-0.7,2.5-1.2,3.9-1.4
	c2.2-4.3,7.7-6.9,11.7-7.2c4.4,2.5,6.4,4.9,8.7,8.9c-5-2.3-9.9-2.4-13.4-0.4c0.8,0.4,1.6,0.9,2.2,1.5
	C325,35.9,328.3,41.6,332.3,39.1L332.3,39.1z"/>
<path d="M287.5,72.5v0.7h-1.1v3.1h-0.8v-3.1h-1.1v-0.7H287.5z"/>
<path d="M291.2,72.5h0.9l-1.3,2.4v1.4H290v-1.4l-1.3-2.4h0.9l0.8,1.7L291.2,72.5z"/>
<path d="M293.5,72.5h0.8l1.5,2.7v-2.7h0.7v3.8h-0.8l-1.5-2.7v2.7h-0.7V72.5z"/>
<path d="M301.2,73.1h-2v0.8h1.8v0.7h-1.8v1h2.1v0.7h-2.9v-3.8h2.8V73.1z"/>
<path d="M306.3,72.5h0.9l1.3,3.8h-0.9l-0.3-0.8H306l-0.3,0.8h-0.8L306.3,72.5z M306.2,74.8h1l-0.5-1.5L306.2,74.8z"/>
<path d="M310,72.5h0.8l1.5,2.7v-2.7h0.7v3.8h-0.8l-1.5-2.7v2.7H310V72.5z"/>
<path d="M317.1,72.5c0.3,0.1,0.5,0.2,0.6,0.5c0.1,0.2,0.2,0.4,0.3,0.6c0,0.2,0.1,0.4,0.1,0.6c0,0.5-0.1,0.9-0.3,1.3
	c-0.3,0.5-0.7,0.7-1.3,0.7h-1.6v-3.8h1.6C316.7,72.5,316.9,72.5,317.1,72.5z M315.6,73.1v2.5h0.7c0.4,0,0.6-0.2,0.8-0.6
	c0.1-0.2,0.1-0.4,0.1-0.7c0-0.4-0.1-0.7-0.2-0.9c-0.1-0.2-0.4-0.3-0.7-0.3H315.6z"/>
<path d="M322.6,72.5l0.5,2.2l0.1,0.6l0.1-0.6l0.4-2.2h0.8l0.5,2.2l0.1,0.6l0.1-0.6l0.5-2.2h0.8l-1.1,3.8h-0.8l-0.5-2.2l-0.1-0.7
	l-0.1,0.7l-0.5,2.2h-0.7l-1.1-3.8H322.6z"/>
<path d="M330.9,73.1h-2v0.8h1.8v0.7h-1.8v1h2.1v0.7h-2.9v-3.8h2.8V73.1z"/>
<path d="M333.8,72.5h0.9l1.3,3.8h-0.9l-0.3-0.8h-1.4l-0.3,0.8h-0.8L333.8,72.5z M333.7,74.8h1l-0.5-1.5L333.7,74.8z"/>
<path d="M339.9,72.6c0.1,0.1,0.3,0.1,0.4,0.3c0.1,0.1,0.1,0.2,0.2,0.3s0.1,0.3,0.1,0.4c0,0.2,0,0.4-0.1,0.5
	c-0.1,0.2-0.2,0.3-0.5,0.4c0.2,0.1,0.3,0.2,0.4,0.3s0.1,0.3,0.1,0.6v0.3c0,0.2,0,0.3,0,0.4c0,0.1,0.1,0.2,0.1,0.2v0.1h-0.9
	c0-0.1,0-0.2-0.1-0.2c0-0.1,0-0.2,0-0.3l0-0.4c0-0.2,0-0.4-0.1-0.5c-0.1-0.1-0.2-0.1-0.5-0.1h-0.8v1.5h-0.8v-3.8h1.8
	C339.6,72.5,339.8,72.5,339.9,72.6z M338.3,73.1v1h0.9c0.2,0,0.3,0,0.4-0.1c0.2-0.1,0.2-0.2,0.2-0.4c0-0.2-0.1-0.4-0.2-0.5
	c-0.1,0-0.2-0.1-0.4-0.1H338.3z"/>
<path d="M285.9,57.7l-0.8-2.6l0.6-0.2l0.6,1.8l0.8-0.3l-0.5-1.6l0.6-0.2l0.5,1.6l1.5-0.5l0.2,0.8L285.9,57.7z"/>
<path d="M288.2,51.6l0.1,0.8l-3.7,0.7l-0.1-0.8L288.2,51.6z"/>
<path d="M284.1,47.5c0.1-0.1,0.1-0.3,0.3-0.4c0.1-0.1,0.2-0.2,0.3-0.2c0.1-0.1,0.2-0.1,0.4-0.1c0.2,0,0.4,0,0.5,0.1
	c0.2,0.1,0.3,0.2,0.4,0.4c0.1-0.2,0.2-0.3,0.3-0.4c0.1-0.1,0.3-0.1,0.6-0.1l0.3,0c0.2,0,0.3,0,0.4,0c0.1,0,0.2-0.1,0.2-0.2l0.1,0
	l0,0.9c-0.1,0-0.2,0-0.2,0.1c-0.1,0-0.2,0-0.3,0l-0.4,0c-0.2,0-0.4,0.1-0.5,0.1c-0.1,0.1-0.1,0.2-0.1,0.5l0,0.8l1.5,0l0,0.8
	l-3.8,0.1l0-1.8C284.1,47.8,284.1,47.6,284.1,47.5z M284.8,49.1l1,0l0-0.9c0-0.2,0-0.3-0.1-0.4c-0.1-0.1-0.2-0.2-0.4-0.2
	c-0.2,0-0.4,0.1-0.5,0.2c0,0.1-0.1,0.2-0.1,0.4L284.8,49.1z"/>
<path d="M285.3,41.7l-0.3,2l0.8,0.1l0.3-1.8l0.7,0.1l-0.3,1.8l1,0.2l0.3-2.1l0.7,0.1L288,45l-3.8-0.6l0.5-2.8L285.3,41.7z"/>
<path d="M286.7,35.7l0.4-0.8l4,0.4l-0.4,0.8l-0.8-0.1l-0.6,1.3l0.6,0.6l-0.4,0.7L286.7,35.7z M288.8,36.7l0.4-0.9l-1.6-0.2
	L288.8,36.7z"/>
<path d="M288.9,31.7l0.5-0.7l3,0.4l-2.1-1.6l0.4-0.6l3,2.3l-0.5,0.6l-3.1-0.4l2.2,1.6l-0.4,0.6L288.9,31.7z"/>
<path d="M294.2,26c0.3-0.1,0.5-0.1,0.8-0.1c0.2,0.1,0.4,0.1,0.6,0.3c0.2,0.1,0.3,0.3,0.5,0.4c0.3,0.4,0.5,0.8,0.6,1.2
	c0.1,0.5-0.1,1-0.5,1.4l-1.2,1.1l-2.5-2.8l1.2-1.1C293.9,26.1,294.1,26,294.2,26z M293.5,27.4l1.7,1.9l0.5-0.5
	c0.3-0.2,0.4-0.6,0.2-0.9c-0.1-0.2-0.2-0.4-0.4-0.6c-0.3-0.3-0.5-0.5-0.7-0.5c-0.2-0.1-0.5,0-0.7,0.2L293.5,27.4z"/>
<path d="M301.6,21.4c0.2,0,0.3,0,0.4,0.1c0.1,0.1,0.2,0.1,0.3,0.2c0.1,0.1,0.2,0.2,0.2,0.3c0.1,0.2,0.1,0.3,0.1,0.5
	c0,0.2-0.1,0.4-0.3,0.5c0.2,0,0.3,0,0.5,0.1c0.1,0.1,0.2,0.3,0.3,0.5l0.1,0.2c0.1,0.2,0.1,0.3,0.2,0.3c0.1,0.1,0.1,0.1,0.2,0.1
	l0,0.1l-0.8,0.4c-0.1-0.1-0.1-0.1-0.1-0.2c-0.1-0.1-0.1-0.2-0.2-0.3l-0.2-0.3c-0.1-0.2-0.2-0.3-0.3-0.4c-0.1,0-0.3,0-0.5,0.1
	l-0.7,0.3l0.6,1.4l-0.7,0.3l-1.6-3.5l1.7-0.8C301.3,21.5,301.5,21.4,301.6,21.4z M300.4,22.6l0.4,0.9l0.8-0.4
	c0.2-0.1,0.3-0.1,0.3-0.2c0.1-0.1,0.1-0.3,0-0.5c-0.1-0.2-0.2-0.3-0.4-0.3c-0.1,0-0.2,0-0.4,0.1L300.4,22.6z"/>
<path d="M307.4,20.3l-2,0.5l0.2,0.8l1.8-0.4l0.2,0.6l-1.8,0.4l0.2,1l2-0.5l0.2,0.7l-2.8,0.7l-0.9-3.7l2.7-0.7L307.4,20.3z"/>
<path d="M310.4,21.9c0,0.2,0.1,0.3,0.2,0.4c0.1,0.1,0.4,0.2,0.7,0.2c0.2,0,0.3,0,0.5-0.1c0.2-0.1,0.3-0.2,0.3-0.5
	c0-0.1-0.1-0.2-0.2-0.3c-0.1-0.1-0.3-0.1-0.5-0.1l-0.4-0.1c-0.4-0.1-0.7-0.2-0.8-0.2c-0.3-0.2-0.4-0.4-0.4-0.8
	c0-0.3,0.1-0.6,0.3-0.9c0.2-0.2,0.6-0.4,1.1-0.4c0.4,0,0.8,0.1,1.1,0.3c0.3,0.2,0.5,0.5,0.5,0.9l-0.8,0c0-0.2-0.1-0.4-0.3-0.5
	c-0.1-0.1-0.3-0.1-0.5-0.1c-0.2,0-0.4,0.1-0.5,0.2c-0.1,0.1-0.2,0.2-0.2,0.4c0,0.1,0.1,0.2,0.2,0.3c0.1,0,0.3,0.1,0.5,0.1l0.7,0.1
	c0.3,0.1,0.5,0.1,0.7,0.2c0.2,0.2,0.4,0.4,0.4,0.8c0,0.3-0.1,0.6-0.4,0.9s-0.6,0.4-1.1,0.4c-0.5,0-0.9-0.1-1.2-0.3
	c-0.3-0.2-0.5-0.5-0.5-0.9L310.4,21.9z"/>
<path d="M315.3,19.7c0.3-0.3,0.8-0.4,1.2-0.3c0.6,0.1,1.1,0.4,1.3,0.8c0.1,0.3,0.2,0.5,0.2,0.7l-0.8-0.1c0-0.2-0.1-0.3-0.1-0.4
	c-0.1-0.2-0.3-0.3-0.6-0.3c-0.3,0-0.5,0-0.7,0.3s-0.3,0.5-0.4,0.9c-0.1,0.4,0,0.8,0.1,1c0.1,0.2,0.3,0.4,0.6,0.4
	c0.3,0,0.5,0,0.7-0.2c0.1-0.1,0.2-0.2,0.3-0.4l0.8,0.1c-0.1,0.4-0.3,0.7-0.7,0.9c-0.3,0.2-0.7,0.3-1.1,0.2c-0.5-0.1-0.9-0.3-1.2-0.7
	c-0.3-0.4-0.3-0.9-0.3-1.5C314.7,20.4,314.9,20,315.3,19.7z"/>
<path d="M320.5,20.2l0.8,0.3l-0.8,2.2c-0.1,0.2-0.1,0.4-0.1,0.6c0,0.2,0.2,0.4,0.5,0.5c0.3,0.1,0.5,0.1,0.7-0.1
	c0.1-0.1,0.2-0.3,0.3-0.5l0.8-2.2l0.8,0.3l-0.8,2.2c-0.1,0.4-0.3,0.7-0.5,0.8c-0.4,0.3-0.8,0.4-1.5,0.2c-0.6-0.2-1-0.6-1.1-1
	c0-0.3,0-0.6,0.1-1L320.5,20.2z"/>
<path d="M327.7,24.3l-1.7-1l-0.4,0.7l1.6,0.9l-0.3,0.6l-1.6-0.9l-0.5,0.8l1.8,1l-0.3,0.6l-2.5-1.4l1.9-3.3l2.4,1.4L327.7,24.3z"/>
<path d="M330.8,29.3c-0.1,0.1-0.2,0.3-0.2,0.4c0,0.2,0.1,0.4,0.3,0.7c0.1,0.1,0.3,0.2,0.4,0.3c0.2,0.1,0.4,0.1,0.6-0.1
	c0.1-0.1,0.1-0.2,0.1-0.3c0-0.1-0.1-0.3-0.2-0.5l-0.2-0.4c-0.2-0.4-0.3-0.6-0.4-0.8c0-0.3,0.1-0.6,0.3-0.8c0.2-0.2,0.5-0.3,0.9-0.3
	c0.3,0,0.7,0.2,1,0.6c0.3,0.3,0.4,0.6,0.5,1c0,0.4-0.1,0.7-0.4,1l-0.5-0.6c0.2-0.2,0.2-0.4,0.1-0.6c0-0.1-0.1-0.3-0.3-0.4
	c-0.1-0.2-0.3-0.2-0.4-0.3c-0.1,0-0.3,0-0.4,0.1c-0.1,0.1-0.1,0.2-0.1,0.3c0,0.1,0.1,0.2,0.2,0.5l0.3,0.6c0.2,0.3,0.2,0.5,0.3,0.7
	c0,0.3-0.1,0.5-0.3,0.8c-0.3,0.2-0.6,0.3-0.9,0.3c-0.4,0-0.7-0.2-1-0.6c-0.3-0.4-0.5-0.7-0.6-1.1s0.1-0.7,0.4-1L330.8,29.3z"/>
<path d="M336.8,33.8l-1.1-1.7l-0.7,0.4l1,1.6l-0.6,0.4l-1-1.6l-0.8,0.5l1.1,1.8l-0.6,0.4l-1.6-2.4l3.2-2.1l1.5,2.3L336.8,33.8z"/>
<path d="M339.3,37.9c0,0.2,0,0.3-0.1,0.4c-0.1,0.1-0.1,0.2-0.2,0.3c-0.1,0.1-0.2,0.2-0.3,0.2c-0.2,0.1-0.3,0.1-0.5,0.1
	c-0.2,0-0.4-0.1-0.5-0.3c0,0.2,0,0.3-0.1,0.5s-0.3,0.2-0.5,0.3l-0.2,0.1c-0.2,0.1-0.3,0.1-0.3,0.2c-0.1,0.1-0.1,0.1-0.1,0.2l-0.1,0
	l-0.3-0.8c0.1-0.1,0.1-0.1,0.2-0.1c0.1-0.1,0.2-0.1,0.3-0.2l0.3-0.1c0.2-0.1,0.4-0.2,0.4-0.3c0-0.1,0-0.3-0.1-0.5l-0.3-0.7l-1.4,0.6
	L335,37l3.5-1.4l0.7,1.7C339.3,37.5,339.3,37.7,339.3,37.9z M338.2,36.5l-0.9,0.4l0.3,0.8c0.1,0.2,0.1,0.3,0.2,0.3
	c0.1,0.1,0.3,0.1,0.5,0c0.2-0.1,0.3-0.2,0.3-0.4c0-0.1,0-0.2-0.1-0.4L338.2,36.5z"/>
<path d="M340.7,42.9l0.2,0.8l-4-0.5l-0.1-0.7l3.5-2l0.2,0.8l-2.7,1.4L340.7,42.9z"/>
<path d="M337.3,46.7l0-0.8l3.8-0.2l0,0.8L337.3,46.7z"/>
<path d="M340.7,49.2c0.3,0.3,0.4,0.7,0.4,1.2c-0.1,0.6-0.3,1.1-0.8,1.3c-0.2,0.1-0.5,0.2-0.7,0.2l0.1-0.8c0.2,0,0.3-0.1,0.4-0.2
	c0.2-0.1,0.3-0.3,0.3-0.6c0-0.3-0.1-0.5-0.3-0.7c-0.2-0.2-0.5-0.3-1-0.3c-0.4,0-0.8,0-1,0.2s-0.4,0.4-0.4,0.6c0,0.3,0,0.5,0.2,0.6
	c0.1,0.1,0.2,0.2,0.4,0.2l-0.1,0.8c-0.4-0.1-0.7-0.3-1-0.6c-0.2-0.3-0.3-0.7-0.3-1.1c0.1-0.5,0.3-0.9,0.6-1.2
	c0.4-0.3,0.9-0.4,1.5-0.3C339.9,48.6,340.4,48.9,340.7,49.2z"/>
<path d="M338.9,56.9l0.6-1.9l-0.8-0.2l-0.5,1.8l-0.6-0.2l0.5-1.8l-0.9-0.3l-0.6,2l-0.7-0.2l0.8-2.8l3.7,1.1l-0.8,2.7L338.9,56.9z"/>
<path class="st10" d="M287.2,72.2v0.7h-1.1V76h-0.8v-3.1h-1.1v-0.7H287.2z"/>
<path class="st10" d="M290.9,72.2h0.9l-1.3,2.4V76h-0.8v-1.4l-1.3-2.4h0.9l0.8,1.7L290.9,72.2z"/>
<path class="st10" d="M293.2,72.2h0.8l1.5,2.7v-2.7h0.7V76h-0.8l-1.5-2.7V76h-0.7V72.2z"/>
<path class="st10" d="M300.9,72.8h-2v0.8h1.8v0.7h-1.8v1h2.1V76h-2.9v-3.8h2.8V72.8z"/>
<path class="st10" d="M306,72.2h0.9l1.3,3.8h-0.9l-0.3-0.8h-1.4l-0.3,0.8h-0.8L306,72.2z M305.9,74.5h1l-0.5-1.5L305.9,74.5z"/>
<path class="st10" d="M309.7,72.2h0.8l1.5,2.7v-2.7h0.7V76H312l-1.5-2.7V76h-0.7V72.2z"/>
<path class="st10" d="M316.8,72.3c0.3,0.1,0.5,0.2,0.6,0.5c0.1,0.2,0.2,0.4,0.3,0.6c0,0.2,0.1,0.4,0.1,0.6c0,0.5-0.1,0.9-0.3,1.3
	c-0.3,0.5-0.7,0.7-1.3,0.7h-1.6v-3.8h1.6C316.4,72.2,316.6,72.2,316.8,72.3z M315.3,72.8v2.5h0.7c0.4,0,0.6-0.2,0.8-0.6
	c0.1-0.2,0.1-0.4,0.1-0.7c0-0.4-0.1-0.7-0.2-0.9c-0.1-0.2-0.4-0.3-0.7-0.3H315.3z"/>
<path class="st10" d="M322.4,72.2l0.5,2.2L323,75l0.1-0.6l0.4-2.2h0.8l0.5,2.2l0.1,0.6l0.1-0.6l0.5-2.2h0.8l-1.1,3.8h-0.8l-0.5-2.2
	l-0.1-0.7l-0.1,0.7l-0.5,2.2h-0.7l-1.1-3.8H322.4z"/>
<path class="st10" d="M330.7,72.8h-2v0.8h1.8v0.7h-1.8v1h2.1V76h-2.9v-3.8h2.8V72.8z"/>
<path class="st10" d="M333.5,72.2h0.9l1.3,3.8h-0.9l-0.3-0.8h-1.4l-0.3,0.8h-0.8L333.5,72.2z M333.4,74.5h1l-0.5-1.5L333.4,74.5z"/>
<path class="st10" d="M339.6,72.3c0.1,0.1,0.3,0.1,0.4,0.3c0.1,0.1,0.1,0.2,0.2,0.3s0.1,0.3,0.1,0.4c0,0.2,0,0.4-0.1,0.5
	c-0.1,0.2-0.2,0.3-0.5,0.4c0.2,0.1,0.3,0.2,0.4,0.3s0.1,0.3,0.1,0.6v0.3c0,0.2,0,0.3,0,0.4c0,0.1,0.1,0.2,0.1,0.2V76h-0.9
	c0-0.1,0-0.2-0.1-0.2c0-0.1,0-0.2,0-0.3l0-0.4c0-0.2,0-0.4-0.1-0.5c-0.1-0.1-0.2-0.1-0.5-0.1H338V76h-0.8v-3.8h1.8
	C339.3,72.2,339.5,72.2,339.6,72.3z M338,72.8v1h0.9c0.2,0,0.3,0,0.4-0.1c0.2-0.1,0.2-0.2,0.2-0.4c0-0.2-0.1-0.4-0.2-0.5
	c-0.1,0-0.2-0.1-0.4-0.1H338z"/>
<path class="st10" d="M285.6,57.4l-0.8-2.6l0.6-0.2l0.6,1.8l0.8-0.3l-0.5-1.6l0.6-0.2l0.5,1.6l1.5-0.5l0.2,0.8L285.6,57.4z"/>
<path class="st10" d="M287.9,51.4l0.1,0.8l-3.7,0.7l-0.1-0.8L287.9,51.4z"/>
<path class="st10" d="M283.9,47.2c0.1-0.1,0.1-0.3,0.3-0.4c0.1-0.1,0.2-0.2,0.3-0.2c0.1-0.1,0.2-0.1,0.4-0.1c0.2,0,0.4,0,0.5,0.1
	c0.2,0.1,0.3,0.2,0.4,0.4c0.1-0.2,0.2-0.3,0.3-0.4c0.1-0.1,0.3-0.1,0.6-0.1l0.3,0c0.2,0,0.3,0,0.4,0c0.1,0,0.2-0.1,0.2-0.2l0.1,0
	l0,0.9c-0.1,0-0.2,0-0.2,0.1c-0.1,0-0.2,0-0.3,0l-0.4,0c-0.2,0-0.4,0.1-0.5,0.1c-0.1,0.1-0.1,0.2-0.1,0.5l0,0.8l1.5,0l0,0.8
	l-3.8,0.1l0-1.8C283.8,47.6,283.8,47.4,283.9,47.2z M284.5,48.8l1,0l0-0.9c0-0.2,0-0.3-0.1-0.4c-0.1-0.1-0.2-0.2-0.4-0.2
	c-0.2,0-0.4,0.1-0.5,0.2c0,0.1-0.1,0.2-0.1,0.4L284.5,48.8z"/>
<path class="st10" d="M285.1,41.4l-0.3,2l0.8,0.1l0.3-1.8l0.7,0.1l-0.3,1.8l1,0.2l0.3-2.1l0.7,0.1l-0.5,2.8l-3.8-0.6l0.5-2.8
	L285.1,41.4z"/>
<path class="st10" d="M286.4,35.4l0.4-0.8l4,0.4l-0.4,0.8l-0.8-0.1l-0.6,1.3l0.6,0.6l-0.4,0.7L286.4,35.4z M288.5,36.4l0.4-0.9
	l-1.6-0.2L288.5,36.4z"/>
<path class="st10" d="M288.6,31.4l0.5-0.7l3,0.4l-2.1-1.6l0.4-0.6l3,2.3l-0.5,0.6l-3.1-0.4l2.2,1.6l-0.4,0.6L288.6,31.4z"/>
<path class="st10" d="M293.9,25.7c0.3-0.1,0.5-0.1,0.8-0.1c0.2,0.1,0.4,0.1,0.6,0.3c0.2,0.1,0.3,0.3,0.5,0.4
	c0.3,0.4,0.5,0.8,0.6,1.2c0.1,0.5-0.1,1-0.5,1.4l-1.2,1.1l-2.5-2.8l1.2-1.1C293.6,25.9,293.8,25.7,293.9,25.7z M293.2,27.1l1.7,1.9
	l0.5-0.5c0.3-0.2,0.4-0.6,0.2-0.9c-0.1-0.2-0.2-0.4-0.4-0.6c-0.3-0.3-0.5-0.5-0.7-0.5c-0.2-0.1-0.5,0-0.7,0.2L293.2,27.1z"/>
<path class="st10" d="M301.4,21.1c0.2,0,0.3,0,0.4,0.1c0.1,0.1,0.2,0.1,0.3,0.2c0.1,0.1,0.2,0.2,0.2,0.3c0.1,0.2,0.1,0.3,0.1,0.5
	c0,0.2-0.1,0.4-0.3,0.5c0.2,0,0.3,0,0.5,0.1c0.1,0.1,0.2,0.3,0.3,0.5l0.1,0.2c0.1,0.2,0.1,0.3,0.2,0.3c0.1,0.1,0.1,0.1,0.2,0.1
	l0,0.1l-0.8,0.4c-0.1-0.1-0.1-0.1-0.1-0.2c-0.1-0.1-0.1-0.2-0.2-0.3l-0.2-0.3c-0.1-0.2-0.2-0.3-0.3-0.4c-0.1,0-0.3,0-0.5,0.1
	l-0.7,0.3l0.6,1.4l-0.7,0.3l-1.6-3.5l1.7-0.8C301,21.2,301.2,21.1,301.4,21.1z M300.1,22.3l0.4,0.9l0.8-0.4c0.2-0.1,0.3-0.1,0.3-0.2
	c0.1-0.1,0.1-0.3,0-0.5c-0.1-0.2-0.2-0.3-0.4-0.3c-0.1,0-0.2,0-0.4,0.1L300.1,22.3z"/>
<path class="st10" d="M307.1,20l-2,0.5l0.2,0.8l1.8-0.4l0.2,0.6l-1.8,0.4l0.2,1l2-0.5L308,23l-2.8,0.7l-0.9-3.7l2.7-0.7L307.1,20z"
	/>
<path class="st10" d="M310.1,21.6c0,0.2,0.1,0.3,0.2,0.4c0.1,0.1,0.4,0.2,0.7,0.2c0.2,0,0.3,0,0.5-0.1c0.2-0.1,0.3-0.2,0.3-0.5
	c0-0.1-0.1-0.2-0.2-0.3c-0.1-0.1-0.3-0.1-0.5-0.1l-0.4-0.1c-0.4-0.1-0.7-0.2-0.8-0.2c-0.3-0.2-0.4-0.4-0.4-0.8
	c0-0.3,0.1-0.6,0.3-0.9c0.2-0.2,0.6-0.4,1.1-0.4c0.4,0,0.8,0.1,1.1,0.3c0.3,0.2,0.5,0.5,0.5,0.9l-0.8,0c0-0.2-0.1-0.4-0.3-0.5
	c-0.1-0.1-0.3-0.1-0.5-0.1c-0.2,0-0.4,0.1-0.5,0.2c-0.1,0.1-0.2,0.2-0.2,0.4c0,0.1,0.1,0.2,0.2,0.3c0.1,0,0.3,0.1,0.5,0.1l0.7,0.1
	c0.3,0.1,0.5,0.1,0.7,0.2c0.2,0.2,0.4,0.4,0.4,0.8c0,0.3-0.1,0.6-0.4,0.9s-0.6,0.4-1.1,0.4c-0.5,0-0.9-0.1-1.2-0.3
	c-0.3-0.2-0.5-0.5-0.5-0.9L310.1,21.6z"/>
<path class="st10" d="M315,19.4c0.3-0.3,0.8-0.4,1.2-0.3c0.6,0.1,1.1,0.4,1.3,0.8c0.1,0.3,0.2,0.5,0.2,0.7l-0.8-0.1
	c0-0.2-0.1-0.3-0.1-0.4c-0.1-0.2-0.3-0.3-0.6-0.3c-0.3,0-0.5,0-0.7,0.3s-0.3,0.5-0.4,0.9c-0.1,0.4,0,0.8,0.1,1
	c0.1,0.2,0.3,0.4,0.6,0.4c0.3,0,0.5,0,0.7-0.2c0.1-0.1,0.2-0.2,0.3-0.4l0.8,0.1c-0.1,0.4-0.3,0.7-0.7,0.9c-0.3,0.2-0.7,0.3-1.1,0.2
	c-0.5-0.1-0.9-0.3-1.2-0.7c-0.3-0.4-0.3-0.9-0.3-1.5C314.4,20.2,314.6,19.7,315,19.4z"/>
<path class="st10" d="M320.2,19.9l0.8,0.3l-0.8,2.2c-0.1,0.2-0.1,0.4-0.1,0.6c0,0.2,0.2,0.4,0.5,0.5c0.3,0.1,0.5,0.1,0.7-0.1
	c0.1-0.1,0.2-0.3,0.3-0.5l0.8-2.2l0.8,0.3l-0.8,2.2c-0.1,0.4-0.3,0.7-0.5,0.8c-0.4,0.3-0.8,0.4-1.5,0.2c-0.6-0.2-1-0.6-1.1-1
	c0-0.3,0-0.6,0.1-1L320.2,19.9z"/>
<path class="st10" d="M327.5,24l-1.7-1l-0.4,0.7l1.6,0.9l-0.3,0.6l-1.6-0.9l-0.5,0.8l1.8,1l-0.3,0.6l-2.5-1.4l1.9-3.3l2.4,1.4
	L327.5,24z"/>
<path class="st10" d="M330.5,29c-0.1,0.1-0.2,0.3-0.2,0.4c0,0.2,0.1,0.4,0.3,0.7c0.1,0.1,0.3,0.2,0.4,0.3c0.2,0.1,0.4,0.1,0.6-0.1
	c0.1-0.1,0.1-0.2,0.1-0.3c0-0.1-0.1-0.3-0.2-0.5l-0.2-0.4c-0.2-0.4-0.3-0.6-0.4-0.8c0-0.3,0.1-0.6,0.3-0.8c0.2-0.2,0.5-0.3,0.9-0.3
	c0.3,0,0.7,0.2,1,0.6c0.3,0.3,0.4,0.6,0.5,1c0,0.4-0.1,0.7-0.4,1l-0.5-0.6c0.2-0.2,0.2-0.4,0.1-0.6c0-0.1-0.1-0.3-0.3-0.4
	c-0.1-0.2-0.3-0.2-0.4-0.3c-0.1,0-0.3,0-0.4,0.1c-0.1,0.1-0.1,0.2-0.1,0.3c0,0.1,0.1,0.2,0.2,0.5l0.3,0.6c0.2,0.3,0.2,0.5,0.3,0.7
	c0,0.3-0.1,0.5-0.3,0.8c-0.3,0.2-0.6,0.3-0.9,0.3c-0.4,0-0.7-0.2-1-0.6c-0.3-0.4-0.5-0.7-0.6-1.1s0.1-0.7,0.4-1L330.5,29z"/>
<path class="st10" d="M336.5,33.5l-1.1-1.7l-0.7,0.4l1,1.6l-0.6,0.4l-1-1.6l-0.8,0.5l1.1,1.8l-0.6,0.4l-1.6-2.4l3.2-2.1l1.5,2.3
	L336.5,33.5z"/>
<path class="st10" d="M339,37.6c0,0.2,0,0.3-0.1,0.4c-0.1,0.1-0.1,0.2-0.2,0.3c-0.1,0.1-0.2,0.2-0.3,0.2c-0.2,0.1-0.3,0.1-0.5,0.1
	c-0.2,0-0.4-0.1-0.5-0.3c0,0.2,0,0.3-0.1,0.5s-0.3,0.2-0.5,0.3l-0.2,0.1c-0.2,0.1-0.3,0.1-0.3,0.2c-0.1,0.1-0.1,0.1-0.1,0.2l-0.1,0
	l-0.3-0.8c0.1-0.1,0.1-0.1,0.2-0.1c0.1-0.1,0.2-0.1,0.3-0.2l0.3-0.1c0.2-0.1,0.4-0.2,0.4-0.3c0-0.1,0-0.3-0.1-0.5l-0.3-0.7l-1.4,0.6
	l-0.3-0.7l3.5-1.4l0.7,1.7C339,37.2,339,37.4,339,37.6z M337.9,36.3l-0.9,0.4l0.3,0.8c0.1,0.2,0.1,0.3,0.2,0.3
	c0.1,0.1,0.3,0.1,0.5,0c0.2-0.1,0.3-0.2,0.3-0.4c0-0.1,0-0.2-0.1-0.4L337.9,36.3z"/>
<path class="st10" d="M340.5,42.6l0.2,0.8l-4-0.5l-0.1-0.7l3.5-2l0.2,0.8l-2.7,1.4L340.5,42.6z"/>
<path class="st10" d="M337,46.4l0-0.8l3.8-0.2l0,0.8L337,46.4z"/>
<path class="st10" d="M340.4,49c0.3,0.3,0.4,0.7,0.4,1.2c-0.1,0.6-0.3,1.1-0.8,1.3c-0.2,0.1-0.5,0.2-0.7,0.2l0.1-0.8
	c0.2,0,0.3-0.1,0.4-0.2c0.2-0.1,0.3-0.3,0.3-0.6c0-0.3-0.1-0.5-0.3-0.7c-0.2-0.2-0.5-0.3-1-0.3c-0.4,0-0.8,0-1,0.2s-0.4,0.4-0.4,0.6
	c0,0.3,0,0.5,0.2,0.6c0.1,0.1,0.2,0.2,0.4,0.2l-0.1,0.8c-0.4-0.1-0.7-0.3-1-0.6c-0.2-0.3-0.3-0.7-0.3-1.1c0.1-0.5,0.3-0.9,0.6-1.2
	c0.4-0.3,0.9-0.4,1.5-0.3C339.6,48.3,340.1,48.6,340.4,49z"/>
<path class="st10" d="M338.6,56.6l0.6-1.9l-0.8-0.2l-0.5,1.8l-0.6-0.2l0.5-1.8l-0.9-0.3l-0.6,2l-0.7-0.2l0.8-2.8l3.7,1.1l-0.8,2.7
	L338.6,56.6z"/>
<polygon class="st10" points="309.5,54.7 310,54.8 310.5,55 311,55.1 311.5,55.2 311.9,55.2 312.8,55.2 313.2,55.1 313.7,55.1 
	314.2,55 314.6,54.8 314.9,54.7 315.1,54.6 315.1,48 318.4,48 319.2,42.5 316.2,42.5 316.2,43.3 314,43.3 314,42.5 310.5,42.5 
	310.5,43.3 308.5,43.3 308.5,42.5 305.5,42.5 306.2,48.1 309.6,48.1 "/>
<path class="st9" d="M317.9,45.8l-0.2,1.4l-3.5,0l0,6.6l0,0c-1.5,0.6-2.4,0.4-3.7,0.1l0,0v-6.6l-3.4,0l-0.3-1.5l0,0
	c2.7,0.9,3.8-0.1,5.5-0.1C314,45.6,315.2,46.7,317.9,45.8L317.9,45.8z"/>
<polygon class="st11" points="306.6,44.8 306.4,43.3 307.8,43.3 307.8,44 311.2,44 311.2,43.2 313.4,43.2 313.4,44 316.8,44 
	316.8,43.2 318.4,43.2 318.1,44.9 317.6,45 317,45.1 316.6,45.2 316.1,45.3 315.5,45.3 315.1,45.2 314.7,45.2 314.1,45 313.5,44.9 
	313,44.8 311.5,44.8 311,44.8 310.5,44.9 310,45.1 309.6,45.2 309,45.2 308.6,45.2 308.1,45.2 307.6,45.1 307,44.9 "/>
<path class="st12" d="M301.7,43.4c0.4-1,1-1.9,1.8-2.8c-1-3.2-0.4-7.4,2.3-11.3c-3.6,1.5-3.3,1.4-6.5,4.1
	C298.8,36.9,299.6,40.7,301.7,43.4L301.7,43.4z"/>
<path class="st13" d="M301.6,43.4c-2.1-2.6-3-6.4-2.5-10.1l0-0.1c0.4-0.3,0.8-0.6,1.1-0.9c2.1-1.8,2.3-1.9,5.5-3.2l0.1,0.1
	c-2.5,3.6-3.3,7.8-2.3,11.3l0,0.1c-0.8,1-1.4,1.8-1.8,2.8L301.6,43.4z M299.4,33.4c-0.5,3.6,0.4,7.3,2.3,9.8
	c0.4-0.9,0.9-1.7,1.7-2.6c-1-3.4-0.2-7.5,2.1-11.1c-2.9,1.2-3,1.3-5.1,3.1C300.1,32.8,299.7,33,299.4,33.4z"/>
<path class="st12" d="M312.7,36c1.1,0.1,2.1,0.4,3.2,0.8c2.7-1.9,6.9-2.7,11.5-1.4c-2.5-3-2.4-2.7-5.9-4.9
	C317.9,31.2,314.6,33.2,312.7,36L312.7,36z"/>
<path class="st13" d="M315.9,36.9c-1.2-0.5-2.2-0.7-3.2-0.8l-0.1-0.1c1.8-2.8,5.1-4.9,8.8-5.5l0.1,0c0.4,0.3,0.8,0.5,1.2,0.7
	c2.4,1.5,2.6,1.6,4.8,4.2l-0.1,0.2C323.2,34.3,318.9,34.8,315.9,36.9L315.9,36.9z M312.9,35.9c1,0.1,1.9,0.4,3,0.8
	c2.9-2,7-2.6,11.2-1.5c-2-2.3-2.2-2.5-4.5-3.9c-0.3-0.2-0.7-0.4-1.1-0.7C317.9,31.3,314.7,33.3,312.9,35.9z"/>
<path class="st12" d="M305.3,56.4c-0.8-0.7-1.5-1.6-2.1-2.6c-3.3-0.1-7.1-2-10-5.8c0.2,3.9,0.3,3.6,1.8,7.5
	C298.3,57.1,302.1,57.6,305.3,56.4L305.3,56.4z"/>
<path class="st13" d="M301.4,57.2c-2.1,0-4.4-0.5-6.4-1.6l0-0.1c-0.2-0.5-0.4-0.9-0.5-1.3c-1-2.6-1.1-2.8-1.3-6.2l0.2-0.1
	c2.7,3.5,6.4,5.7,9.9,5.7l0.1,0c0.6,1.1,1.3,1.9,2,2.6l0,0.2C304.1,56.9,302.8,57.2,301.4,57.2z M295.1,55.4c3.3,1.6,7,2,10,0.9
	c-0.7-0.7-1.3-1.4-1.9-2.5c-3.5-0.1-7.2-2.2-9.8-5.6c0.2,3.1,0.3,3.3,1.3,5.8C294.8,54.6,294.9,55,295.1,55.4z"/>
<path class="st12" d="M318.5,56.6c-0.9,0.6-1.9,1-3.1,1.3c-1,3.2-3.9,6.3-8.3,8c3.8,0.9,3.5,0.7,7.7,0.4
	C317.2,63.6,318.7,60,318.5,56.6L318.5,56.6z"/>
<path class="st13" d="M311.1,66.6c-1,0-1.9-0.2-4-0.6l0-0.2c4.1-1.6,7.2-4.5,8.3-7.9l0.1-0.1c1.2-0.3,2.2-0.7,3-1.2l0.1,0.1
	c0.2,3.3-1.2,6.9-3.8,9.7l-0.1,0c-0.5,0-1,0.1-1.4,0.1C312.4,66.5,311.7,66.6,311.1,66.6z M307.4,65.8c3,0.7,3.3,0.7,6,0.4
	c0.4,0,0.8-0.1,1.3-0.1c2.5-2.7,3.9-6.2,3.7-9.4c-0.8,0.5-1.8,0.9-2.9,1.2C314.5,61.3,311.4,64.2,307.4,65.8z"/>
<path class="st12" d="M323.4,44.2c0.2,1.1,0.2,2.1,0.1,3.3c2.6,2,4.6,5.8,4.6,10.6c2.1-3.3,1.9-3.1,3-7.1
	C329.6,47.8,326.7,45.1,323.4,44.2L323.4,44.2z"/>
<path class="st13" d="M328.3,58.1l-0.2-0.1c-0.1-4.4-1.8-8.3-4.6-10.5l0-0.1c0.1-1.2,0.1-2.3-0.1-3.3l0.1-0.1
	c3.2,0.9,6.1,3.5,7.8,6.9l0,0.1c-0.1,0.5-0.3,0.9-0.4,1.3C330.2,55,330.1,55.2,328.3,58.1z M323.7,47.4c2.8,2.2,4.5,6,4.6,10.3
	c1.7-2.6,1.7-2.8,2.4-5.5c0.1-0.4,0.2-0.8,0.4-1.3c-1.7-3.2-4.5-5.7-7.5-6.7C323.7,45.3,323.8,46.3,323.7,47.4z"/>
<polygon class="st14" points="277.6,69.1 285.2,69.1 285.2,64.8 "/>
<polygon class="st14" points="346.6,69.2 339.1,69.2 339.1,64.8 "/>
</svg>
