<?xml version="1.0" encoding="utf-8"?>
<!-- Generator: Adobe Illustrator 21.1.0, SVG Export Plug-In . SVG Version: 6.00 Build 0)  -->
<svg version="1.1" xmlns="http://www.w3.org/2000/svg" xmlns:xlink="http://www.w3.org/1999/xlink" x="0px" y="0px"
	 viewBox="0 0 282.2 35.4" style="enable-background:new 0 0 282.2 35.4;" xml:space="preserve">
<style type="text/css">
	.st0{display:none;}
	.st1{display:inline;fill:#FFFFFF;stroke:#EA5230;stroke-width:0.1218;stroke-miterlimit:10;}
	.st2{display:inline;fill:none;stroke:#EA5230;stroke-width:0.1376;stroke-miterlimit:10;}
	.st3{display:inline;fill:none;stroke:#EA5230;stroke-width:0.1235;stroke-miterlimit:10;}
	.st4{display:inline;}
	.st5{fill:none;stroke:#EA5230;stroke-width:0.1235;stroke-miterlimit:10;}
	.st6{fill:#29235C;}
</style>
<g id="Grid" class="st0">
	<rect x="-10" y="-10.1" class="st1" width="302.4" height="55.6"/>
	<line class="st2" x1="0.1" y1="0" x2="292.3" y2="0"/>
	<line class="st2" x1="-10" y1="35.4" x2="282.2" y2="35.4"/>
	<rect x="47.9" y="19" class="st3" width="5" height="5"/>
	<rect x="54.1" y="13.7" class="st3" width="5" height="5"/>
	<g class="st4">
		<rect x="54.1" y="-5" class="st5" width="5" height="5"/>
		<rect x="54.1" y="-10.1" class="st5" width="5" height="5"/>
	</g>
	<g class="st4">
		<rect x="47.9" y="40.5" class="st5" width="5" height="5"/>
		<rect x="47.9" y="35.4" class="st5" width="5" height="5"/>
	</g>
	<g class="st4">
		<rect x="-5" y="-5" transform="matrix(6.123234e-17 -1 1 6.123234e-17 6.605708e-02 -4.9818)" class="st5" width="5" height="5"/>
		<rect x="-10" y="-5" transform="matrix(6.123234e-17 -1 1 6.123234e-17 -4.9816 -10.0295)" class="st5" width="5" height="5"/>
	</g>
	<g class="st4">
		
			<rect x="287.3" y="35.4" transform="matrix(6.123234e-17 -1 1 6.123234e-17 251.8471 327.7586)" class="st5" width="5" height="5"/>
		
			<rect x="282.2" y="35.4" transform="matrix(6.123234e-17 -1 1 6.123234e-17 246.7999 322.7115)" class="st5" width="5" height="5"/>
	</g>
</g>
<g id="Logo">
	<g>
		<path class="st6" d="M63.3,2.8h-1.8l0.5-2h6.1l3.4,10.4c0.1,0.3,0.3,0.6,0.7,0.6h0.6v2h-5.7v-2h1.1l-0.7-2.6h-3.6L63,11.8h1.1v2
			h-5v-2h0.8c0.4,0,0.6-0.3,0.7-0.6L63.3,2.8z M65.7,3.1h-0.2l-1.3,4.3H67L65.7,3.1z"/>
		<path class="st6" d="M88,10.3c0,2.7-2.2,3.7-4.5,3.7c-1.4,0-2.7-0.4-3.5-1.4c-1,1-2.4,1.4-3.5,1.4c-1.9,0-3.2-1-3.2-3.8v-4
			c0-0.3-0.1-0.4-0.4-0.4h-0.8V3.9h4.2v6.5c0,1,0.4,1.4,1.1,1.4c0.5,0,1.3-0.3,1.9-0.7c0-0.2-0.1-0.5-0.1-0.9V5.7h-1.2V3.9h4v6.5
			c0,0.9,0.5,1.3,1.4,1.3c0.3,0,1.3-0.2,1.3-1.3V5.7h-1V3.9h5.2v1.9h-0.8c-0.2,0-0.4,0-0.4,0.3V10.3z"/>
		<path class="st6" d="M96,2.3c0-0.4-0.1-0.5-0.5-0.5h-0.7V0H99v11.2c0,0.5,0.2,0.6,0.7,0.6h0.5v1.9c-0.5,0.1-1.2,0.2-1.8,0.2
			c-0.9,0-1.7-0.1-2.1-0.9c-1,0.6-2.1,1-3.2,1c-1.8,0-3.7-1-3.7-5c0-3.9,2.1-5.3,4.8-5.3c0.6,0,1.3,0.1,1.9,0.3V2.3z M96,11V6
			c-0.4-0.1-0.9-0.2-1.3-0.2c-1.8,0-2.2,0.9-2.2,3.1c0,2,0.6,2.8,1.7,2.8C94.6,11.7,95.3,11.5,96,11z"/>
		<path class="st6" d="M104.2,14c-1.6,0-3-0.7-3-3V6.1c0-0.3-0.2-0.4-0.4-0.4h-0.6V3.9h4.1v6.5c0,0.8,0.3,1.2,1,1.2
			c0.6,0,1.4-0.3,2.1-0.7v-5c-0.1-0.2-0.2-0.2-0.4-0.2h-0.7V3.9h4.2v7.3c0,0.5,0.2,0.7,0.7,0.7h0.5v1.9c-0.4,0.1-1.1,0.2-1.7,0.2
			c-0.9,0-1.8-0.1-2.2-1.1C106.9,13.3,105.5,14,104.2,14z"/>
		<path class="st6" d="M113.3,6.2c0-0.4-0.1-0.4-0.5-0.4h-0.7V3.9h4v1.7c1.5-1.4,2.7-1.8,3.3-1.8v3c-1.1,0.2-2.3,0.4-3.1,0.6v4.5
			h1.2v1.9h-5.3v-1.9h0.7c0.3,0,0.5-0.1,0.5-0.4V6.2z"/>
		<path class="st6" d="M126.5,2.3c0-0.4-0.1-0.5-0.5-0.5h-0.7V0h4.2v11.2c0,0.5,0.2,0.6,0.7,0.6h0.5v1.9c-0.5,0.1-1.2,0.2-1.8,0.2
			c-0.9,0-1.7-0.1-2.1-0.9c-1,0.6-2.1,1-3.2,1c-1.8,0-3.7-1-3.7-5c0-3.9,2.1-5.3,4.8-5.3c0.6,0,1.3,0.1,1.9,0.3V2.3z M126.5,11V6
			c-0.4-0.1-0.9-0.2-1.3-0.2c-1.8,0-2.2,0.9-2.2,3.1c0,2,0.6,2.8,1.7,2.8C125.1,11.7,125.7,11.5,126.5,11z"/>
		<path class="st6" d="M136,3.6c3,0,5.1,1.6,5.1,5.2c0,3.5-2.1,5.1-5.1,5.1c-3,0-5.1-1.6-5.1-5.1S133,3.6,136,3.6z M136,11.8
			c1.5,0,2-1.1,2-3s-0.5-3-2-3c-1.5,0-2,1.1-2,3S134.5,11.8,136,11.8z"/>
		<path class="st6" d="M148.4,2.3c0-0.4-0.1-0.5-0.5-0.5h-0.7V0h4.2v11.2c0,0.5,0.2,0.6,0.7,0.6h0.5v1.9c-0.5,0.1-1.2,0.2-1.8,0.2
			c-0.9,0-1.7-0.1-2.1-0.9c-1,0.6-2.1,1-3.2,1c-1.8,0-3.7-1-3.7-5c0-3.9,2.1-5.3,4.8-5.3c0.6,0,1.3,0.1,1.9,0.3V2.3z M148.4,11V6
			c-0.4-0.1-0.9-0.2-1.3-0.2c-1.8,0-2.2,0.9-2.2,3.1c0,2,0.6,2.8,1.7,2.8C147,11.7,147.7,11.5,148.4,11z"/>
		<path class="st6" d="M163.1,0.6c1.1,0,2.8,0.2,4.2,0.6v3.3h-1.8c-0.3-0.9-0.9-1.6-2.4-1.6c-1.7,0-3,1.4-3,4.4c0,3,1.3,4.4,3.2,4.4
			c1.6,0,2.1-0.7,2.3-1.6h1.8v3.2c-1.4,0.4-3,0.6-4.2,0.6c-4.1,0-6.4-2.1-6.4-6.7C156.7,2.7,159,0.6,163.1,0.6z"/>
		<path class="st6" d="M175.1,13.8l-1.1,3.6h-3.5v-0.9c0.7-0.9,1.4-1.8,2.1-2.7v-0.1h-1.2l-2.8-7.9c-0.1-0.1-0.2-0.2-0.3-0.2h-0.6
			V3.9h5.2v1.9h-1.2c0.6,1.8,1.2,3.5,1.7,5.3h0.2l1.8-5.3h-1.1V3.9h4.4v1.9h-0.6c-0.2,0-0.3,0.1-0.3,0.3L175.1,13.8z"/>
		<path class="st6" d="M179.3,1.9h-0.7V0h4.2v11.5c0,0.3,0.2,0.4,0.4,0.4h0.8v1.9h-5.3v-1.9h0.7c0.3,0,0.5-0.1,0.5-0.4V2.3
			C179.7,1.9,179.6,1.9,179.3,1.9z"/>
		<path class="st6" d="M185.1,1.9h-0.7V0h4.2v11.5c0,0.3,0.2,0.4,0.4,0.4h0.8v1.9h-5.3v-1.9h0.7c0.3,0,0.5-0.1,0.5-0.4V2.3
			C185.5,1.9,185.4,1.9,185.1,1.9z"/>
		<path class="st6" d="M194.4,11.9h0.6v1.9c-0.6,0.1-1.2,0.1-1.6,0.1c-1.9,0-2.5-0.7-2.5-2.2V6.2c0-0.4-0.1-0.4-0.5-0.4h-0.7V3.9
			h4.2v7.3C193.8,11.6,194,11.9,194.4,11.9z M190.7,0h3.1v2.3h-3.1V0z"/>
		<path class="st6" d="M202,2.3c0-0.4-0.1-0.5-0.5-0.5h-0.7V0h4.2v11.2c0,0.5,0.2,0.6,0.7,0.6h0.5v1.9c-0.5,0.1-1.2,0.2-1.8,0.2
			c-0.9,0-1.7-0.1-2.1-0.9c-1,0.6-2.1,1-3.2,1c-1.8,0-3.7-1-3.7-5c0-3.9,2.1-5.3,4.8-5.3c0.6,0,1.3,0.1,1.9,0.3V2.3z M202,11V6
			c-0.4-0.1-0.9-0.2-1.3-0.2c-1.8,0-2.2,0.9-2.2,3.1c0,2,0.6,2.8,1.7,2.8C200.6,11.7,201.2,11.5,202,11z"/>
		<path class="st6" d="M216.6,0.6c1.1,0,2.8,0.2,4.2,0.6v3.3H219c-0.3-0.9-0.9-1.6-2.4-1.6c-1.7,0-3,1.4-3,4.4c0,3,1.3,4.4,3.2,4.4
			c1.6,0,2.1-0.7,2.3-1.6h1.8v3.2c-1.4,0.4-3,0.6-4.2,0.6c-4.1,0-6.4-2.1-6.4-6.7C210.2,2.7,212.6,0.6,216.6,0.6z"/>
		<path class="st6" d="M228.7,13.8l-1.1,3.6h-3.5v-0.9c0.7-0.9,1.4-1.8,2.1-2.7v-0.1h-1.2l-2.8-7.9c-0.1-0.1-0.2-0.2-0.3-0.2h-0.6
			V3.9h5.2v1.9h-1.2c0.6,1.8,1.2,3.5,1.7,5.3h0.2l1.8-5.3h-1.1V3.9h4.4v1.9h-0.6c-0.2,0-0.3,0.1-0.3,0.3L228.7,13.8z"/>
		<path class="st6" d="M248.9,11.5c0,0.3,0.2,0.4,0.4,0.4h0.7v1.9h-4.8v-1.9h0.6V7.2c0-0.8-0.3-1.2-1-1.2c-0.7,0-1.3,0.2-1.9,0.6
			v5.3h1v1.9h-4.7v-1.9h0.6V7.2c0-0.8-0.4-1.2-1.2-1.2c-0.6,0-1.2,0.3-1.8,0.6v5.2h1v1.9h-5.2v-1.9h0.7c0.3,0,0.5-0.1,0.5-0.4V6.1
			c0-0.3-0.2-0.4-0.5-0.4h-0.7V3.9h4v0.9c1.1-0.8,2.1-1.1,3.3-1.1c1,0,1.9,0.4,2.4,1.2c1-0.7,2-1.2,3.3-1.2c1.6,0,3,0.8,3,3V11.5z"
			/>
		<path class="st6" d="M251.7,6.2c0-0.4-0.1-0.4-0.5-0.4h-0.7V3.9h4v1.7c1.5-1.4,2.7-1.8,3.3-1.8v3c-1.1,0.2-2.3,0.4-3.1,0.6v4.5
			h1.2v1.9h-5.3v-1.9h0.7c0.3,0,0.5-0.1,0.5-0.4V6.2z"/>
		<path class="st6" d="M262.2,14c-1.6,0-3-0.7-3-3V6.1c0-0.3-0.2-0.4-0.4-0.4h-0.6V3.9h4.1v6.5c0,0.8,0.3,1.2,1,1.2
			c0.6,0,1.4-0.3,2.1-0.7v-5c-0.1-0.2-0.2-0.2-0.4-0.2h-0.7V3.9h4.2v7.3c0,0.5,0.2,0.7,0.7,0.7h0.5v1.9c-0.4,0.1-1.1,0.2-1.7,0.2
			c-0.9,0-1.8-0.1-2.2-1.1C264.8,13.3,263.4,14,262.2,14z"/>
		<path class="st6" d="M74.6,31.8h-4.1l-1.7-8.9l-1.8,8.9H63l-2.6-10.4c-0.1-0.3-0.3-0.6-0.7-0.6h-0.7v-2h5.6v2h-1.1l1.7,7.7h0.1
			l1.9-9.7h3.6c0.6,3.2,1.2,6.4,1.9,9.7c0,0,0.1,0,0.1,0l1.8-7.7h-1.4v-2h5.3v2h-0.8c-0.4,0-0.6,0.3-0.7,0.6L74.6,31.8z"/>
		<path class="st6" d="M77.8,26.8c0-3.5,2-5.2,5-5.2c3.5,0,4.4,2.2,4.4,4.7v1.1H81c0,1.7,0.7,2.3,2.3,2.3c0.7,0,1.8-0.2,2.3-1.2H87
			v2.6c-1.2,0.6-3,0.9-4.1,0.9C79.7,32,77.8,30.4,77.8,26.8z M84.3,25.7c0-1-0.3-2-1.7-2c-1.2,0-1.7,0.9-1.7,2H84.3z"/>
		<path class="st6" d="M88.3,19.9h-0.7V18h4.2v11.5c0,0.3,0.2,0.4,0.4,0.4H93v1.9h-5.3v-1.9h0.7c0.3,0,0.5-0.1,0.5-0.4v-9.2
			C88.8,19.9,88.6,19.9,88.3,19.9z"/>
		<path class="st6" d="M101.2,22v2.4h-1.5c-0.4-0.7-1.1-1-1.9-1c-0.9,0-1.2,0.5-1.2,0.9c0,0.8,1,0.9,2,1.1c1.4,0.4,3,0.8,3,3
			c0,2.5-1.9,3.4-4.5,3.4c-1,0-2.4-0.2-3.4-0.4V29h1.7c0.2,0.8,1,1.2,1.7,1.2s1.4-0.3,1.4-1.2c0-0.7-0.8-0.9-1.8-1.2
			c-1.4-0.3-3.1-0.9-3.1-3.1c0-2.2,1.9-3.1,4.4-3.1C98.8,21.6,100.2,21.8,101.2,22z"/>
		<path class="st6" d="M112.7,29.9h0.7v1.9h-5.2v-1.9h1v-4.7c0-0.9-0.4-1.2-1.2-1.2c-0.6,0-1.4,0.3-1.9,0.7v5.2h1v1.9h-5.2v-1.9h0.7
			c0.3,0,0.4-0.1,0.5-0.4v-9.2c0-0.4-0.1-0.5-0.5-0.5h-0.7V18h4.2v4.7c0.9-0.6,2.2-1.1,3.2-1.1c1.6,0,2.9,0.8,2.9,3v4.8
			C112.3,29.8,112.4,29.9,112.7,29.9z"/>
		<path class="st6" d="M117.5,29.8h0.6c0.4,0,0.5-0.2,0.5-0.5v-8.1c0-0.3-0.1-0.5-0.5-0.5h-0.7v-2h6.4c3.3,0,4.8,1.6,4.8,3.8
			c0,1.7-1,2.9-2.5,3.2c1.8,0.6,2.1,1.6,2.1,2.5v0.5c0,0.7,0.1,1,1.2,1v2c-0.3,0-0.8,0.1-1.5,0.1c-1.8,0-2.9-0.6-2.9-2.9v-0.7
			c0-0.7-0.4-1.5-1.6-1.5h-1.6v3h1v2h-5.3V29.8z M121.8,24.8h1.8c1.6,0,1.8-1.1,1.8-2c0-0.7-0.3-1.7-1.8-1.7h-1.8V24.8z"/>
		<path class="st6" d="M129.8,26.8c0-3.5,2-5.2,5-5.2c3.5,0,4.4,2.2,4.4,4.7v1.1H133c0,1.7,0.7,2.3,2.3,2.3c0.7,0,1.8-0.2,2.3-1.2
			h1.4v2.6c-1.2,0.6-3,0.9-4.1,0.9C131.6,32,129.8,30.4,129.8,26.8z M136.3,25.7c0-1-0.3-2-1.7-2c-1.2,0-1.7,0.9-1.7,2H136.3z"/>
		<path class="st6" d="M140.3,23.9c-0.1-0.1-0.2-0.2-0.3-0.2h-0.6v-1.9h5.1v1.9h-1.2l1.8,5.3h0.1l1.7-5.3h-1v-1.9h4.5v1.9h-0.6
			c-0.1,0-0.3,0.1-0.3,0.2l-2.9,7.9h-3.4L140.3,23.9z"/>
		<path class="st6" d="M150.6,26.8c0-3.5,2-5.2,5-5.2c3.5,0,4.4,2.2,4.4,4.7v1.1h-6.1c0,1.7,0.7,2.3,2.3,2.3c0.7,0,1.8-0.2,2.3-1.2
			h1.4v2.6c-1.2,0.6-3,0.9-4.1,0.9C152.4,32,150.6,30.4,150.6,26.8z M157.1,25.7c0-1-0.3-2-1.7-2c-1.2,0-1.7,0.9-1.7,2H157.1z"/>
		<path class="st6" d="M171,29.5c0,0.4,0.1,0.4,0.5,0.4h0.7v1.9h-5.2v-1.9h1v-4.7c0-0.9-0.5-1.2-1.2-1.2c-0.6,0-1.4,0.3-1.9,0.7v5.2
			h1v1.9h-5.2v-1.9h0.7c0.3,0,0.5-0.1,0.5-0.4v-5.3c0-0.4-0.1-0.4-0.5-0.4h-0.7v-1.9h4v0.9c1-0.7,2.2-1.1,3.4-1.1
			c1.5,0,2.9,0.8,2.9,3V29.5z"/>
		<path class="st6" d="M176,32c-1.6,0-3-0.7-3-3v-4.8c0-0.3-0.2-0.4-0.4-0.4H172v-1.9h4.1v6.5c0,0.8,0.3,1.2,1,1.2
			c0.6,0,1.4-0.3,2.1-0.7v-5c-0.1-0.2-0.2-0.2-0.4-0.2h-0.7v-1.9h4.2v7.3c0,0.5,0.2,0.7,0.7,0.7h0.5v1.9c-0.4,0.1-1.1,0.2-1.7,0.2
			c-0.9,0-1.8-0.1-2.2-1.1C178.7,31.3,177.3,32,176,32z"/>
		<path class="st6" d="M183.6,26.8c0-3.5,2-5.2,5-5.2c3.5,0,4.4,2.2,4.4,4.7v1.1h-6.1c0,1.7,0.7,2.3,2.3,2.3c0.7,0,1.8-0.2,2.3-1.2
			h1.4v2.6c-1.2,0.6-3,0.9-4.1,0.9C185.5,32,183.6,30.4,183.6,26.8z M190.2,25.7c0-1-0.3-2-1.7-2c-1.2,0-1.7,0.9-1.7,2H190.2z"/>
		<path class="st6" d="M200.9,20.8h-1.8l0.5-2h6.1l3.4,10.4c0.1,0.3,0.3,0.6,0.7,0.6h0.6v2h-5.7v-2h1.1l-0.7-2.6h-3.6l-0.8,2.6h1.1
			v2h-5v-2h0.8c0.4,0,0.6-0.3,0.7-0.6L200.9,20.8z M203.4,21.1h-0.2l-1.3,4.3h2.7L203.4,21.1z"/>
		<path class="st6" d="M214.1,32c-1.6,0-3-0.7-3-3v-4.8c0-0.3-0.2-0.4-0.4-0.4H210v-1.9h4.1v6.5c0,0.8,0.3,1.2,1,1.2
			c0.6,0,1.4-0.3,2.1-0.7v-5c-0.1-0.2-0.2-0.2-0.4-0.2h-0.7v-1.9h4.2v7.3c0,0.5,0.2,0.7,0.7,0.7h0.5v1.9c-0.4,0.1-1.1,0.2-1.7,0.2
			c-0.9,0-1.8-0.1-2.2-1.1C216.7,31.3,215.3,32,214.1,32z"/>
		<path class="st6" d="M225.5,28.4c0,1,0.6,1.3,1.4,1.3c0.4,0,0.8-0.1,1.2-0.2v2.2c-0.8,0.2-1.8,0.3-2.6,0.3c-1.2,0-3-0.3-3-2.8
			v-5.3h-1.1v-1.7c1.3-0.2,1.8-0.9,2-2.5h2.1v2.3h2.9v1.9h-2.9V28.4z"/>
		<path class="st6" d="M239.5,29.9h0.7v1.9H235v-1.9h1v-4.7c0-0.9-0.4-1.2-1.2-1.2c-0.6,0-1.4,0.3-1.9,0.7v5.2h1v1.9h-5.2v-1.9h0.7
			c0.3,0,0.5-0.1,0.5-0.4v-9.2c0-0.4-0.1-0.5-0.5-0.5h-0.7V18h4.2v4.7c0.9-0.6,2.2-1.1,3.2-1.1c1.6,0,2.9,0.8,2.9,3v4.8
			C239,29.8,239.1,29.9,239.5,29.9z"/>
		<path class="st6" d="M245.4,21.6c3,0,5.1,1.6,5.1,5.2c0,3.5-2.1,5.1-5.1,5.1c-3,0-5.1-1.6-5.1-5.1S242.5,21.6,245.4,21.6z
			 M245.4,29.8c1.5,0,2-1.1,2-3s-0.5-3-2-3c-1.5,0-2,1.1-2,3S243.9,29.8,245.4,29.8z"/>
		<path class="st6" d="M252.1,24.2c0-0.4-0.1-0.4-0.5-0.4H251v-1.9h4v1.7c1.5-1.4,2.7-1.8,3.3-1.8v3c-1.1,0.2-2.3,0.4-3.1,0.6v4.5
			h1.2v1.9H251v-1.9h0.7c0.3,0,0.5-0.1,0.5-0.4V24.2z"/>
		<path class="st6" d="M263.4,29.9h0.6v1.9c-0.6,0.1-1.2,0.1-1.6,0.1c-1.9,0-2.5-0.7-2.5-2.2v-5.5c0-0.4-0.1-0.4-0.5-0.4h-0.7v-1.9
			h4.2v7.3C262.8,29.6,262.9,29.9,263.4,29.9z M259.7,18h3.1v2.3h-3.1V18z"/>
		<path class="st6" d="M268,28.4c0,1,0.6,1.3,1.4,1.3c0.4,0,0.8-0.1,1.2-0.2v2.2c-0.8,0.2-1.8,0.3-2.6,0.3c-1.2,0-3-0.3-3-2.8v-5.3
			h-1.1v-1.7c1.3-0.2,1.8-0.9,2-2.5h2.1v2.3h2.9v1.9H268V28.4z"/>
		<path class="st6" d="M278.5,31.8l-1.1,3.6H274v-0.9c0.7-0.9,1.4-1.8,2.1-2.7v-0.1h-1.2l-2.8-7.9c-0.1-0.1-0.2-0.2-0.3-0.2h-0.6
			v-1.9h5.2v1.9h-1.2c0.6,1.8,1.2,3.5,1.7,5.3h0.2l1.8-5.3h-1.1v-1.9h4.4v1.9h-0.6c-0.2,0-0.3,0.1-0.3,0.3L278.5,31.8z"/>
	</g>
	<g>
		<path class="st6" d="M0,13.4c0,0,0.2-0.5,0.6-0.7c0.4-0.2,1-0.2,1.7-0.2c0.6,0.1,1.8,0.6,3.5,2c2.4,2,3.3,3.3,3.3,3.2
			c0.2-0.5,0.7-1.4,0.7-1.4c-1.1-1-5.1-3.6-6.4-4.1C2.1,11.7,0.2,11.5,0,13.4L0,13.4z"/>
		<path class="st6" d="M1.5,11c1.7-0.4,1.9,0.7,2.2,1L5,12.8C3.2,8.9,1.5,11,1.5,11L1.5,11z"/>
		<path class="st6" d="M2.2,13c4,2.9,0.6,4.3,0.6,4.3c0.8,0.3,1.4,0.1,1.8-0.4c0.1-0.2,0.2-0.4,0.3-0.6C5,15.9,5,15.7,5,15.7
			c1.4,1.4,3,3.8,4,5c-0.3-1.2-0.1-1.8-0.2-1.9c-1.2-1.5-1.6-2-2.4-2.8C4.1,13.4,2.2,13,2.2,13"/>
		<path class="st6" d="M18.8,12.7c-0.2-0.5-0.1-1.9-0.1-2.1c0.2-0.5,0.4-1.1,0.5-1.6l0.1,0l0.6,0.4c-0.3-0.3-0.5-1.2-0.6-1.7
			c0-0.1,0-0.1,0-0.2c-0.3-1.1-0.8-1.8-0.8-1.8s0.4,1.1,0.3,1.9c-0.1,1.8-2.7,3.9-2.1,7c0.3,1.7,2.1,3.1,2.1,3.1s-0.6-1.1-0.9-3.3
			c-0.2-0.9,0.1-1.5,0.5-2.5l0.1,0.1L18.8,12.7L18.8,12.7z"/>
		<path class="st6" d="M36.4,0.4c0,0-4.5,0.7-6.8,1.5c-2.2,0.7-5.5,2.1-7,4c-1.5,1.9-0.2,4.8-0.6,6.8c-0.4,2-3.3,3.9-3.3,3.9
			s3.4-0.9,4.6-3.6c0.9-2-0.2-3.4,1.2-6.5C26,3.4,36.4,0.4,36.4,0.4L36.4,0.4z"/>
		<path class="st6" d="M36.6,0.6c0,0-3.7,1.2-4.9,4.8L33.3,5C33.3,5,33.3,2.8,36.6,0.6L36.6,0.6z"/>
		<path class="st6" d="M42.5,5.7c0,0-5.9-1.2-11.7,0.5c-5.8,1.7-5,4.7-5,6.4c-0.1,1.7-1.5,5.4-6.6,4.9c0,0,3,1.7,6.4-1.1
			c3.4-2.7,1-6,3.7-7.6C32,7.3,34.1,6,42.5,5.7L42.5,5.7z"/>
		<path class="st6" d="M27.8,14c0,0,2.3,0.3,3.7,1.9c0,0-1.9-1.4-4-1.1C27.5,14.9,27.7,14.4,27.8,14L27.8,14z"/>
		<path class="st6" d="M37.8,11.5c0,0-5.6,0.1-5.6,4.8C32.1,16.1,29.1,11,37.8,11.5L37.8,11.5z"/>
		<path class="st6" d="M42.1,6L42.1,6c-5.6,1.2-4.3,5.6-4.3,5.6l0,0C34.9,5.9,42.1,6,42.1,6L42.1,6z"/>
		<path class="st6" d="M26.6,20.5c1.5-3.9,5.4-4.1,5.6-4.1c-4.2-0.8-5.3,1.3-5.5,2.8c-3.6-0.7-6.7-0.8-6.7-0.8
			C24.3,19,26.6,20.5,26.6,20.5L26.6,20.5z"/>
		<path class="st6" d="M3.9,32.2c0,0,0.9-0.5,1.9-0.4c0.6,0.1,1.9-0.4,1.9-0.4c-0.5,0-1.8-0.6-2.8-0.5C3.7,31,3.9,32.2,3.9,32.2
			L3.9,32.2z"/>
		<path class="st6" d="M24.5,29.4c0,0-0.1-0.9,0.7-1c0.8-0.1,1.7,0.4,2.1,0.4c0,0-0.9,0.3-1.4,0.3C25.2,29,24.5,29.4,24.5,29.4
			L24.5,29.4z"/>
		<path class="st6" d="M32.5,32.6c0,0,0.8-0.4,1.7-0.3c0.6,0.1,1.5,0,1.5,0c-0.5,0-1.2-1-2.3-0.8C32.4,31.6,32.5,32.6,32.5,32.6
			L32.5,32.6z"/>
		<path class="st6" d="M37.3,11.3c-6.8-1.6-8.9-0.5-8.9-0.5s0.1-0.4,0.2-0.6c0.2-0.3,0.2-0.4,0.2-0.5C33.9,9.5,37.3,11.3,37.3,11.3
			L37.3,11.3z"/>
		<path class="st6" d="M11.4,7c0,0-0.8-0.8-1.7-0.8c-1.3,0-2.4,1.4-3.5,1.4c-1.1,0-1.7-0.4-1.7-0.4s0.7,0.9,1.8,0.9
			c1.4,0,2.5-1.4,3.4-1.4C10.7,6.7,11.4,7,11.4,7L11.4,7z"/>
		<path class="st6" d="M14.4,8.5c0,0,0.2,0.7,0.1,2c-0.1,2.3-4.5,5.4-4.5,9.1c0,2.2,1.7,3.6,1.7,3.6s-0.7-2-0.4-3.9
			c0.5-2.7,3.9-5.9,3.8-8.5C15,9.1,14.4,8.5,14.4,8.5L14.4,8.5z"/>
		<path class="st6" d="M12.2,23.1c0,0-0.7-1.6-0.2-3c0.3-0.9,1.2-1.7,2.9-2.1c0,0-2.9,2.7-0.8,5c0,0-1.5,1.6-2.1,3
			c-0.6,1.4-1.9,4.3-2.3,5c-0.4,0.7-1,1.5-2.7,2.3c-1.9,0.2-3.9,0.5-4,1.9c0,0-0.4-0.4-0.3-1.3c0-0.9,1.5-1.9,3.1-1.9
			c1.6,0.1,3-0.3,3.7-2.2C10.2,28,11.8,23.5,12.2,23.1L12.2,23.1z"/>
		<path class="st6" d="M14.7,23.3c0,0-2.4,7.3-6.6,10c0,0,2.6-0.4,3.3,0c0.8,0.3,1.6,0.9,0.8,2.1c0,0,1.5-0.8,1.1-2.1
			c-0.3-1-1.8-1.1-1.8-1.1s-0.4-0.2-0.2-0.8c0.2-0.6,1.9-2.7,2.1-3.1c0.3-0.4,2.3-3.5,2.4-3.7c0,0,1.8,0.3,2.7-1.5
			c0.9-1.8-1-3.6-1-3.6s0.9,1.9-0.1,2.9C16.3,23.5,14.7,23.3,14.7,23.3L14.7,23.3z"/>
		<path class="st6" d="M16.8,25c0,0,0.9-0.2,1.2-0.4c0,0,0.4,0.4,2.1,0.4c0.1,0,0.2,0,0.3,0c1.9-0.2,4.2-0.9,7.8-2.4l0.4,0.6
			c-2.8,0.9-6.2,3.6-10.4,3.2c-0.3,0-1.7-0.3-2-0.4C16.2,25.8,16.8,25,16.8,25L16.8,25z"/>
		<path class="st6" d="M28.8,28.5c-0.4,0.6-0.9,1.4-2.1,1.8c-1.3,0-2.8,0.3-2.9,1.4c0,0-0.3-0.3-0.2-0.9c0-0.7,1-1.4,2.3-1.3
			c1.2,0.1,1.9-0.4,2.4-1.7c0.3-0.9,0-2.7,0.4-3.9c0,0,0.6,0.5,0.9,0.7c0,0,0,0-0.1,0.3C29.2,25.9,29.4,27.4,28.8,28.5L28.8,28.5z"
			/>
		<path class="st6" d="M30.6,24.9c0,0,0.4,0.2,0.7,0.4C31,26,31,26.5,30.9,26.6c-0.1,0.3-0.5,1.7-0.7,2.1c-0.2,0.5,0.1,0.6,0.1,0.6
			s1.1,0.1,1.4,0.8c0.3,0.9-0.8,1.6-0.8,1.6c0.6-0.9,0-1.3-0.6-1.6c-0.6-0.2-2.3,0-2.3,0C29.7,29.2,30.3,25.6,30.6,24.9L30.6,24.9z"
			/>
		<path class="st6" d="M37.5,32.3c0,0,0.5,1,0.2,1.4c-1.1,0-1.8,0-3.5,0.2c-1.5,0.2-2.5,0.3-2.6,1.5c0,0-0.3-0.3-0.3-1.1
			c0-0.8,1.4-1.7,2.8-1.7c0,0,1.8,0,2-0.1c0.4-0.2-0.7-2.3-0.8-2.7c-1.6-3.1-1.5-4.2-1.6-4.3c0,0-4.4-0.8-5.5-3.8
			c3.5,3,6.4,2.9,6.4,2.9C35,26.1,36.5,30.3,37.5,32.3L37.5,32.3z"/>
		<path class="st6" d="M38.6,15.8c0.5,0,0.8,0,1.3,0c1.9-4.1,5.2-8.3,5.2-10.8c0-1.6-1.1-2.7-1.1-2.7L43.8,3c0,0-0.9-2.1-1.6-2.6
			l0,0c0,0,2.1,0.8,2.8,1.4v0l-0.5,0.1h0c1.3,1.2,1.2,3.1,1.2,3.1c0.1,3-3.1,6.4-5,10.8c4.2,0.5,7.1,3.1,7.1,6c0,4-2.4,5.4-4.6,5.4
			c-0.8,0-1.6-0.1-2.6-0.7c-1.2-0.7-2.2-2-2.2-4.5c0-2.5,0.6-4,0.9-4.9l0,0c-1,0-2,0.2-2.9,0.3c0,0-0.8,0.2-1.1,0.3
			c0.9,0.5,1.8,1.4,2.2,2.8c0.2,1,0.1,2.3-0.4,3.9c-0.1,1.6,0.6,3.9,1.1,5.7l0.6,1.6c0.3,0.7,0.8,0.9,0.8,0.9s1.2,0.2,1.6,0.9
			c0.5,1-0.3,1.5-0.3,1.5c0.3-1.2-0.7-1.3-1.4-1.4l0,0c-0.6-0.1-1,0-1,0c0.1-0.4-0.7-2.5-0.6-2.4c0,0-1-2.8-1.4-4.1
			c-0.4-1.3-0.7-3.1-0.7-3.1s3-4.9-3.7-7.2c0,0,0.5,0,0.8,0c0.7-0.3,1.7-0.5,1.7-0.5C35.8,16.1,37.1,15.9,38.6,15.8L38.6,15.8z
			 M40.3,17.1c-0.5,1.6-0.9,3.3-0.8,5.2c0.1,1.7,1.2,4.1,3.9,3.9c1.4-0.1,2.3-1,2.8-2c0.5-1.1,0.5-2.2,0.5-2.2s0-1.8-1.7-3.3
			C44.1,17.9,42.6,17.2,40.3,17.1"/>
		<path class="st6" d="M11,4.4c0,0-2.3-0.7-3.7,0.4L8,6.1c0,0,2.2-1.8,3.8,0.8c0,0-1.2,1.6-3.7,1.1c0,0,0.7,1.2,2.4,1.2
			c1.7,0,3.3-1.7,3.8-1.1c0,0-0.2-2.4,2.8-3.3c0,0,0.7,0.5,0.8,0.9c0,0,1-0.8,0.9-2.6c-0.1-1.9-1.1-2.7-1.5-3c0,0,0.2,1.1-0.3,2.1
			c-0.3,0.6-0.9,1.4-1.9,1.4c0,0-0.8,0-1.3-0.1C13.2,3.2,11.1,2.5,11,4.4L11,4.4z M13.5,4.2c0,0-0.7,1.2-1.8,0.5c0,0,0-0.7,0.6-0.6
			C13,4.2,12.9,4.4,13.5,4.2L13.5,4.2z"/>
	</g>
	<rect x="53" y="0" class="st6" width="1.1" height="35.4"/>
</g>
</svg>
